<svg width="639" height="432" viewBox="0 0 639 432" fill="none" xmlns="http://www.w3.org/2000/svg">
<line x1="639" y1="222.5" y2="222.5" stroke="#034737" stroke-dasharray="6 6"/>
<path d="M160 222.5L155 219.613V225.387L160 222.5ZM150.769 222H144.615V223H150.769V222ZM138.462 222H132.308V223H138.462V222ZM126.154 222H120V223H126.154V222ZM113.846 222H107.692V223H113.846V222ZM101.538 222H95.3846V223H101.538V222ZM89.2308 222H83.0769V223H89.2308V222ZM76.9231 222H70.7692V223H76.9231V222ZM64.6154 222H58.4615V223H64.6154V222ZM52.3077 222H46.1538V223H52.3077V222ZM40 222H33.8461V223H40V222ZM27.6923 222H21.5385V223H27.6923V222ZM15.3846 222H9.23079V223H15.3846V222ZM3.07695 222H0V223H3.07695V222Z" fill="#034737"/>
<path d="M570 222.5L565 219.613V225.387L570 222.5ZM560.769 222H554.615V223H560.769V222ZM548.462 222H542.308V223H548.462V222ZM536.154 222H530V223H536.154V222ZM523.846 222H517.692V223H523.846V222ZM511.538 222H505.385V223H511.538V222ZM499.231 222H493.077V223H499.231V222ZM486.923 222H480.769V223H486.923V222ZM474.615 222H468.462V223H474.615V222ZM462.308 222H456.154V223H462.308V222ZM450 222H443.846V223H450V222ZM437.692 222H431.538V223H437.692V222ZM425.385 222H419.231V223H425.385V222ZM413.077 222H410V223H413.077V222Z" fill="#034737"/>
<path d="M204 139L206.518 144.196L209.758 139.418L204 139ZM210.907 144.289L215.699 147.539L216.26 146.711L211.468 143.461L210.907 144.289ZM220.49 150.789L225.282 154.039L225.843 153.211L221.051 149.961L220.49 150.789ZM230.074 157.289L234.865 160.539L235.426 159.711L230.635 156.461L230.074 157.289ZM239.657 163.789L244.449 167.039L245.01 166.211L240.218 162.961L239.657 163.789ZM249.24 170.289L254.032 173.539L254.593 172.711L249.801 169.461L249.24 170.289ZM258.824 176.789L263.615 180.039L264.177 179.211L259.385 175.961L258.824 176.789ZM268.407 183.289L273.199 186.539L273.76 185.711L268.968 182.461L268.407 183.289ZM277.99 189.789L282.782 193.039L283.343 192.211L278.552 188.961L277.99 189.789ZM287.574 196.289L292.365 199.539L292.927 198.711L288.135 195.461L287.574 196.289ZM297.157 202.789L301.949 206.039L302.51 205.211L297.718 201.961L297.157 202.789ZM306.74 209.289L311.532 212.539L312.093 211.711L307.302 208.461L306.74 209.289ZM316.324 215.789L318.719 217.414L319.281 216.586L316.885 214.961L316.324 215.789Z" fill="#034737"/>
<path d="M434.41 139L428.652 139.418L431.893 144.196L434.41 139ZM319.281 217.699L321.685 216.068L321.124 215.241L318.719 216.872L319.281 217.699ZM326.494 212.807L331.303 209.545L330.741 208.717L325.932 211.979L326.494 212.807ZM336.111 206.283L340.92 203.021L340.359 202.193L335.55 205.455L336.111 206.283ZM345.729 199.759L350.538 196.497L349.976 195.67L345.167 198.931L345.729 199.759ZM355.346 193.235L360.155 189.973L359.594 189.146L354.785 192.408L355.346 193.235ZM364.964 186.711L369.773 183.45L369.211 182.622L364.403 185.884L364.964 186.711ZM374.581 180.188L379.39 176.926L378.829 176.098L374.02 179.36L374.581 180.188ZM384.199 173.664L389.008 170.402L388.446 169.574L383.638 172.836L384.199 173.664ZM393.816 167.14L398.625 163.878L398.064 163.051L393.255 166.312L393.816 167.14ZM403.434 160.616L408.243 157.354L407.681 156.527L402.873 159.789L403.434 160.616ZM413.051 154.092L417.86 150.831L417.299 150.003L412.49 153.265L413.051 154.092ZM422.669 147.569L427.478 144.307L426.916 143.479L422.108 146.741L422.669 147.569Z" fill="#034737"/>
<path d="M439.369 405.848L437.423 403.902C436.947 404.033 436.461 404.098 435.967 404.098C435.061 404.098 434.235 403.888 433.489 403.468C432.742 403.039 432.149 402.446 431.711 401.69C431.281 400.925 431.067 400.066 431.067 399.114C431.067 398.162 431.281 397.308 431.711 396.552C432.149 395.787 432.742 395.194 433.489 394.774C434.235 394.345 435.061 394.13 435.967 394.13C436.881 394.13 437.712 394.345 438.459 394.774C439.205 395.194 439.793 395.782 440.223 396.538C440.652 397.294 440.867 398.153 440.867 399.114C440.867 400.047 440.661 400.887 440.251 401.634C439.84 402.381 439.275 402.969 438.557 403.398L441.021 405.848H439.369ZM432.369 399.114C432.369 399.889 432.523 400.57 432.831 401.158C433.148 401.746 433.577 402.199 434.119 402.516C434.669 402.833 435.285 402.992 435.967 402.992C436.648 402.992 437.259 402.833 437.801 402.516C438.351 402.199 438.781 401.746 439.089 401.158C439.406 400.57 439.565 399.889 439.565 399.114C439.565 398.33 439.406 397.649 439.089 397.07C438.781 396.482 438.356 396.029 437.815 395.712C437.273 395.395 436.657 395.236 435.967 395.236C435.276 395.236 434.66 395.395 434.119 395.712C433.577 396.029 433.148 396.482 432.831 397.07C432.523 397.649 432.369 398.33 432.369 399.114ZM449.422 396.328V404H448.148V402.866C447.905 403.258 447.565 403.566 447.126 403.79C446.697 404.005 446.221 404.112 445.698 404.112C445.101 404.112 444.564 403.991 444.088 403.748C443.612 403.496 443.234 403.123 442.954 402.628C442.683 402.133 442.548 401.531 442.548 400.822V396.328H443.808V400.654C443.808 401.41 443.999 401.993 444.382 402.404C444.765 402.805 445.287 403.006 445.95 403.006C446.631 403.006 447.168 402.796 447.56 402.376C447.952 401.956 448.148 401.345 448.148 400.542V396.328H449.422ZM452.273 395.082C452.03 395.082 451.825 394.998 451.657 394.83C451.489 394.662 451.405 394.457 451.405 394.214C451.405 393.971 451.489 393.766 451.657 393.598C451.825 393.43 452.03 393.346 452.273 393.346C452.506 393.346 452.702 393.43 452.861 393.598C453.029 393.766 453.113 393.971 453.113 394.214C453.113 394.457 453.029 394.662 452.861 394.83C452.702 394.998 452.506 395.082 452.273 395.082ZM452.889 396.328V404H451.615V396.328H452.889ZM454.626 400.15C454.626 399.357 454.785 398.666 455.102 398.078C455.42 397.481 455.858 397.019 456.418 396.692C456.988 396.365 457.636 396.202 458.364 396.202C459.307 396.202 460.082 396.431 460.688 396.888C461.304 397.345 461.71 397.98 461.906 398.792H460.534C460.404 398.325 460.147 397.957 459.764 397.686C459.391 397.415 458.924 397.28 458.364 397.28C457.636 397.28 457.048 397.532 456.6 398.036C456.152 398.531 455.928 399.235 455.928 400.15C455.928 401.074 456.152 401.788 456.6 402.292C457.048 402.796 457.636 403.048 458.364 403.048C458.924 403.048 459.391 402.917 459.764 402.656C460.138 402.395 460.394 402.021 460.534 401.536H461.906C461.701 402.32 461.29 402.95 460.674 403.426C460.058 403.893 459.288 404.126 458.364 404.126C457.636 404.126 456.988 403.963 456.418 403.636C455.858 403.309 455.42 402.847 455.102 402.25C454.785 401.653 454.626 400.953 454.626 400.15ZM467.932 404L464.922 400.612V404H463.648V393.64H464.922V399.73L467.876 396.328H469.654L466.042 400.15L469.668 404H467.932ZM475.944 397.742C476.196 397.303 476.569 396.939 477.064 396.65C477.568 396.351 478.151 396.202 478.814 396.202C479.495 396.202 480.111 396.365 480.662 396.692C481.222 397.019 481.66 397.481 481.978 398.078C482.295 398.666 482.454 399.352 482.454 400.136C482.454 400.911 482.295 401.601 481.978 402.208C481.66 402.815 481.222 403.286 480.662 403.622C480.111 403.958 479.495 404.126 478.814 404.126C478.16 404.126 477.582 403.981 477.078 403.692C476.583 403.393 476.205 403.025 475.944 402.586V407.64H474.67V396.328H475.944V397.742ZM481.152 400.136C481.152 399.557 481.035 399.053 480.802 398.624C480.568 398.195 480.251 397.868 479.85 397.644C479.458 397.42 479.024 397.308 478.548 397.308C478.081 397.308 477.647 397.425 477.246 397.658C476.854 397.882 476.536 398.213 476.294 398.652C476.06 399.081 475.944 399.581 475.944 400.15C475.944 400.729 476.06 401.237 476.294 401.676C476.536 402.105 476.854 402.437 477.246 402.67C477.647 402.894 478.081 403.006 478.548 403.006C479.024 403.006 479.458 402.894 479.85 402.67C480.251 402.437 480.568 402.105 480.802 401.676C481.035 401.237 481.152 400.724 481.152 400.136ZM487.519 404.126C486.8 404.126 486.147 403.963 485.559 403.636C484.98 403.309 484.523 402.847 484.187 402.25C483.86 401.643 483.697 400.943 483.697 400.15C483.697 399.366 483.865 398.675 484.201 398.078C484.546 397.471 485.013 397.009 485.601 396.692C486.189 396.365 486.847 396.202 487.575 396.202C488.303 396.202 488.961 396.365 489.549 396.692C490.137 397.009 490.599 397.467 490.935 398.064C491.28 398.661 491.453 399.357 491.453 400.15C491.453 400.943 491.275 401.643 490.921 402.25C490.575 402.847 490.104 403.309 489.507 403.636C488.909 403.963 488.247 404.126 487.519 404.126ZM487.519 403.006C487.976 403.006 488.405 402.899 488.807 402.684C489.208 402.469 489.53 402.147 489.773 401.718C490.025 401.289 490.151 400.766 490.151 400.15C490.151 399.534 490.029 399.011 489.787 398.582C489.544 398.153 489.227 397.835 488.835 397.63C488.443 397.415 488.018 397.308 487.561 397.308C487.094 397.308 486.665 397.415 486.273 397.63C485.89 397.835 485.582 398.153 485.349 398.582C485.115 399.011 484.999 399.534 484.999 400.15C484.999 400.775 485.111 401.303 485.335 401.732C485.568 402.161 485.876 402.483 486.259 402.698C486.641 402.903 487.061 403.006 487.519 403.006ZM495.886 404.126C495.298 404.126 494.77 404.028 494.304 403.832C493.837 403.627 493.468 403.347 493.198 402.992C492.927 402.628 492.778 402.213 492.75 401.746H494.066C494.103 402.129 494.28 402.441 494.598 402.684C494.924 402.927 495.349 403.048 495.872 403.048C496.357 403.048 496.74 402.941 497.02 402.726C497.3 402.511 497.44 402.241 497.44 401.914C497.44 401.578 497.29 401.331 496.992 401.172C496.693 401.004 496.231 400.841 495.606 400.682C495.036 400.533 494.57 400.383 494.206 400.234C493.851 400.075 493.543 399.847 493.282 399.548C493.03 399.24 492.904 398.839 492.904 398.344C492.904 397.952 493.02 397.593 493.254 397.266C493.487 396.939 493.818 396.683 494.248 396.496C494.677 396.3 495.167 396.202 495.718 396.202C496.567 396.202 497.253 396.417 497.776 396.846C498.298 397.275 498.578 397.863 498.616 398.61H497.342C497.314 398.209 497.15 397.887 496.852 397.644C496.562 397.401 496.17 397.28 495.676 397.28C495.218 397.28 494.854 397.378 494.584 397.574C494.313 397.77 494.178 398.027 494.178 398.344C494.178 398.596 494.257 398.806 494.416 398.974C494.584 399.133 494.789 399.263 495.032 399.366C495.284 399.459 495.629 399.567 496.068 399.688C496.618 399.837 497.066 399.987 497.412 400.136C497.757 400.276 498.051 400.491 498.294 400.78C498.546 401.069 498.676 401.447 498.686 401.914C498.686 402.334 498.569 402.712 498.336 403.048C498.102 403.384 497.771 403.65 497.342 403.846C496.922 404.033 496.436 404.126 495.886 404.126ZM502.08 397.378V401.9C502.08 402.273 502.16 402.539 502.318 402.698C502.477 402.847 502.752 402.922 503.144 402.922H504.082V404H502.934C502.225 404 501.693 403.837 501.338 403.51C500.984 403.183 500.806 402.647 500.806 401.9V397.378H499.812V396.328H500.806V394.396H502.08V396.328H504.082V397.378H502.08ZM506.326 395.082C506.083 395.082 505.878 394.998 505.71 394.83C505.542 394.662 505.458 394.457 505.458 394.214C505.458 393.971 505.542 393.766 505.71 393.598C505.878 393.43 506.083 393.346 506.326 393.346C506.559 393.346 506.755 393.43 506.914 393.598C507.082 393.766 507.166 393.971 507.166 394.214C507.166 394.457 507.082 394.662 506.914 394.83C506.755 394.998 506.559 395.082 506.326 395.082ZM506.942 396.328V404H505.668V396.328H506.942ZM512.893 396.188C513.827 396.188 514.583 396.473 515.161 397.042C515.74 397.602 516.029 398.414 516.029 399.478V404H514.769V399.66C514.769 398.895 514.578 398.311 514.195 397.91C513.813 397.499 513.29 397.294 512.627 397.294C511.955 397.294 511.419 397.504 511.017 397.924C510.625 398.344 510.429 398.955 510.429 399.758V404H509.155V396.328H510.429V397.42C510.681 397.028 511.022 396.725 511.451 396.51C511.89 396.295 512.371 396.188 512.893 396.188ZM521.316 396.202C521.979 396.202 522.558 396.347 523.052 396.636C523.556 396.925 523.93 397.289 524.172 397.728V396.328H525.46V404.168C525.46 404.868 525.311 405.489 525.012 406.03C524.714 406.581 524.284 407.01 523.724 407.318C523.174 407.626 522.53 407.78 521.792 407.78C520.784 407.78 519.944 407.542 519.272 407.066C518.6 406.59 518.204 405.941 518.082 405.12H519.342C519.482 405.587 519.772 405.96 520.21 406.24C520.649 406.529 521.176 406.674 521.792 406.674C522.492 406.674 523.062 406.455 523.5 406.016C523.948 405.577 524.172 404.961 524.172 404.168V402.558C523.92 403.006 523.547 403.379 523.052 403.678C522.558 403.977 521.979 404.126 521.316 404.126C520.635 404.126 520.014 403.958 519.454 403.622C518.904 403.286 518.47 402.815 518.152 402.208C517.835 401.601 517.676 400.911 517.676 400.136C517.676 399.352 517.835 398.666 518.152 398.078C518.47 397.481 518.904 397.019 519.454 396.692C520.014 396.365 520.635 396.202 521.316 396.202ZM524.172 400.15C524.172 399.571 524.056 399.067 523.822 398.638C523.589 398.209 523.272 397.882 522.87 397.658C522.478 397.425 522.044 397.308 521.568 397.308C521.092 397.308 520.658 397.42 520.266 397.644C519.874 397.868 519.562 398.195 519.328 398.624C519.095 399.053 518.978 399.557 518.978 400.136C518.978 400.724 519.095 401.237 519.328 401.676C519.562 402.105 519.874 402.437 520.266 402.67C520.658 402.894 521.092 403.006 521.568 403.006C522.044 403.006 522.478 402.894 522.87 402.67C523.272 402.437 523.589 402.105 523.822 401.676C524.056 401.237 524.172 400.729 524.172 400.15Z" fill="#666666"/>
<path d="M123.442 404.098C122.798 404.098 122.22 403.986 121.706 403.762C121.202 403.529 120.806 403.211 120.516 402.81C120.227 402.399 120.078 401.928 120.068 401.396H121.426C121.473 401.853 121.66 402.241 121.986 402.558C122.322 402.866 122.808 403.02 123.442 403.02C124.049 403.02 124.525 402.871 124.87 402.572C125.225 402.264 125.402 401.872 125.402 401.396C125.402 401.023 125.3 400.719 125.094 400.486C124.889 400.253 124.632 400.075 124.324 399.954C124.016 399.833 123.601 399.702 123.078 399.562C122.434 399.394 121.916 399.226 121.524 399.058C121.142 398.89 120.81 398.629 120.53 398.274C120.26 397.91 120.124 397.425 120.124 396.818C120.124 396.286 120.26 395.815 120.53 395.404C120.801 394.993 121.179 394.676 121.664 394.452C122.159 394.228 122.724 394.116 123.358 394.116C124.273 394.116 125.02 394.345 125.598 394.802C126.186 395.259 126.518 395.866 126.592 396.622H125.192C125.146 396.249 124.95 395.922 124.604 395.642C124.259 395.353 123.802 395.208 123.232 395.208C122.7 395.208 122.266 395.348 121.93 395.628C121.594 395.899 121.426 396.281 121.426 396.776C121.426 397.131 121.524 397.42 121.72 397.644C121.926 397.868 122.173 398.041 122.462 398.162C122.761 398.274 123.176 398.405 123.708 398.554C124.352 398.731 124.87 398.909 125.262 399.086C125.654 399.254 125.99 399.52 126.27 399.884C126.55 400.239 126.69 400.724 126.69 401.34C126.69 401.816 126.564 402.264 126.312 402.684C126.06 403.104 125.687 403.445 125.192 403.706C124.698 403.967 124.114 404.098 123.442 404.098ZM128.131 400.15C128.131 399.357 128.29 398.666 128.607 398.078C128.925 397.481 129.363 397.019 129.923 396.692C130.493 396.365 131.141 396.202 131.869 396.202C132.812 396.202 133.587 396.431 134.193 396.888C134.809 397.345 135.215 397.98 135.411 398.792H134.039C133.909 398.325 133.652 397.957 133.269 397.686C132.896 397.415 132.429 397.28 131.869 397.28C131.141 397.28 130.553 397.532 130.105 398.036C129.657 398.531 129.433 399.235 129.433 400.15C129.433 401.074 129.657 401.788 130.105 402.292C130.553 402.796 131.141 403.048 131.869 403.048C132.429 403.048 132.896 402.917 133.269 402.656C133.643 402.395 133.899 402.021 134.039 401.536H135.411C135.206 402.32 134.795 402.95 134.179 403.426C133.563 403.893 132.793 404.126 131.869 404.126C131.141 404.126 130.493 403.963 129.923 403.636C129.363 403.309 128.925 402.847 128.607 402.25C128.29 401.653 128.131 400.953 128.131 400.15ZM140.961 396.188C141.54 396.188 142.063 396.314 142.529 396.566C142.996 396.809 143.36 397.177 143.621 397.672C143.892 398.167 144.027 398.769 144.027 399.478V404H142.767V399.66C142.767 398.895 142.576 398.311 142.193 397.91C141.811 397.499 141.288 397.294 140.625 397.294C139.953 397.294 139.417 397.504 139.015 397.924C138.623 398.344 138.427 398.955 138.427 399.758V404H137.153V393.64H138.427V397.42C138.679 397.028 139.025 396.725 139.463 396.51C139.911 396.295 140.411 396.188 140.961 396.188ZM153.15 399.87C153.15 400.113 153.136 400.369 153.108 400.64H146.976C147.023 401.396 147.28 401.989 147.746 402.418C148.222 402.838 148.796 403.048 149.468 403.048C150.019 403.048 150.476 402.922 150.84 402.67C151.214 402.409 151.475 402.063 151.624 401.634H152.996C152.791 402.371 152.38 402.973 151.764 403.44C151.148 403.897 150.383 404.126 149.468 404.126C148.74 404.126 148.087 403.963 147.508 403.636C146.939 403.309 146.491 402.847 146.164 402.25C145.838 401.643 145.674 400.943 145.674 400.15C145.674 399.357 145.833 398.661 146.15 398.064C146.468 397.467 146.911 397.009 147.48 396.692C148.059 396.365 148.722 396.202 149.468 396.202C150.196 396.202 150.84 396.361 151.4 396.678C151.96 396.995 152.39 397.434 152.688 397.994C152.996 398.545 153.15 399.17 153.15 399.87ZM151.834 399.604C151.834 399.119 151.727 398.703 151.512 398.358C151.298 398.003 151.004 397.737 150.63 397.56C150.266 397.373 149.86 397.28 149.412 397.28C148.768 397.28 148.218 397.485 147.76 397.896C147.312 398.307 147.056 398.876 146.99 399.604H151.834ZM154.398 400.136C154.398 399.352 154.557 398.666 154.874 398.078C155.191 397.481 155.625 397.019 156.176 396.692C156.736 396.365 157.361 396.202 158.052 396.202C158.649 396.202 159.205 396.342 159.718 396.622C160.231 396.893 160.623 397.252 160.894 397.7V393.64H162.182V404H160.894V402.558C160.642 403.015 160.269 403.393 159.774 403.692C159.279 403.981 158.701 404.126 158.038 404.126C157.357 404.126 156.736 403.958 156.176 403.622C155.625 403.286 155.191 402.815 154.874 402.208C154.557 401.601 154.398 400.911 154.398 400.136ZM160.894 400.15C160.894 399.571 160.777 399.067 160.544 398.638C160.311 398.209 159.993 397.882 159.592 397.658C159.2 397.425 158.766 397.308 158.29 397.308C157.814 397.308 157.38 397.42 156.988 397.644C156.596 397.868 156.283 398.195 156.05 398.624C155.817 399.053 155.7 399.557 155.7 400.136C155.7 400.724 155.817 401.237 156.05 401.676C156.283 402.105 156.596 402.437 156.988 402.67C157.38 402.894 157.814 403.006 158.29 403.006C158.766 403.006 159.2 402.894 159.592 402.67C159.993 402.437 160.311 402.105 160.544 401.676C160.777 401.237 160.894 400.729 160.894 400.15ZM171.181 396.328V404H169.907V402.866C169.664 403.258 169.324 403.566 168.885 403.79C168.456 404.005 167.98 404.112 167.457 404.112C166.86 404.112 166.323 403.991 165.847 403.748C165.371 403.496 164.993 403.123 164.713 402.628C164.442 402.133 164.307 401.531 164.307 400.822V396.328H165.567V400.654C165.567 401.41 165.758 401.993 166.141 402.404C166.524 402.805 167.046 403.006 167.709 403.006C168.39 403.006 168.927 402.796 169.319 402.376C169.711 401.956 169.907 401.345 169.907 400.542V396.328H171.181ZM174.648 393.64V404H173.374V393.64H174.648ZM183.861 399.87C183.861 400.113 183.847 400.369 183.819 400.64H177.687C177.734 401.396 177.991 401.989 178.457 402.418C178.933 402.838 179.507 403.048 180.179 403.048C180.73 403.048 181.187 402.922 181.551 402.67C181.925 402.409 182.186 402.063 182.335 401.634H183.707C183.502 402.371 183.091 402.973 182.475 403.44C181.859 403.897 181.094 404.126 180.179 404.126C179.451 404.126 178.798 403.963 178.219 403.636C177.65 403.309 177.202 402.847 176.875 402.25C176.549 401.643 176.385 400.943 176.385 400.15C176.385 399.357 176.544 398.661 176.861 398.064C177.179 397.467 177.622 397.009 178.191 396.692C178.77 396.365 179.433 396.202 180.179 396.202C180.907 396.202 181.551 396.361 182.111 396.678C182.671 396.995 183.101 397.434 183.399 397.994C183.707 398.545 183.861 399.17 183.861 399.87ZM182.545 399.604C182.545 399.119 182.438 398.703 182.223 398.358C182.009 398.003 181.715 397.737 181.341 397.56C180.977 397.373 180.571 397.28 180.123 397.28C179.479 397.28 178.929 397.485 178.471 397.896C178.023 398.307 177.767 398.876 177.701 399.604H182.545ZM186.859 397.574C187.083 397.135 187.4 396.795 187.811 396.552C188.231 396.309 188.74 396.188 189.337 396.188V397.504H189.001C187.573 397.504 186.859 398.279 186.859 399.828V404H185.585V396.328H186.859V397.574Z" fill="#666666"/>
<path d="M204 139L206.518 144.196L209.758 139.418L204 139ZM210.907 144.289L215.699 147.539L216.26 146.711L211.468 143.461L210.907 144.289ZM220.49 150.789L225.282 154.039L225.843 153.211L221.051 149.961L220.49 150.789ZM230.074 157.289L234.865 160.539L235.426 159.711L230.635 156.461L230.074 157.289ZM239.657 163.789L244.449 167.039L245.01 166.211L240.218 162.961L239.657 163.789ZM249.24 170.289L254.032 173.539L254.593 172.711L249.801 169.461L249.24 170.289ZM258.824 176.789L263.615 180.039L264.177 179.211L259.385 175.961L258.824 176.789ZM268.407 183.289L273.199 186.539L273.76 185.711L268.968 182.461L268.407 183.289ZM277.99 189.789L282.782 193.039L283.343 192.211L278.552 188.961L277.99 189.789ZM287.574 196.289L292.365 199.539L292.927 198.711L288.135 195.461L287.574 196.289ZM297.157 202.789L301.949 206.039L302.51 205.211L297.718 201.961L297.157 202.789ZM306.74 209.289L311.532 212.539L312.093 211.711L307.302 208.461L306.74 209.289ZM316.324 215.789L318.719 217.414L319.281 216.586L316.885 214.961L316.324 215.789Z" fill="#034737"/>
<path d="M434.41 139L428.652 139.418L431.893 144.196L434.41 139ZM319.281 217.699L321.685 216.068L321.124 215.241L318.719 216.872L319.281 217.699ZM326.494 212.807L331.303 209.545L330.741 208.717L325.932 211.979L326.494 212.807ZM336.111 206.283L340.92 203.021L340.359 202.193L335.55 205.455L336.111 206.283ZM345.729 199.759L350.538 196.497L349.976 195.67L345.167 198.931L345.729 199.759ZM355.346 193.235L360.155 189.973L359.594 189.146L354.785 192.408L355.346 193.235ZM364.964 186.711L369.773 183.45L369.211 182.622L364.403 185.884L364.964 186.711ZM374.581 180.188L379.39 176.926L378.829 176.098L374.02 179.36L374.581 180.188ZM384.199 173.664L389.008 170.402L388.446 169.574L383.638 172.836L384.199 173.664ZM393.816 167.14L398.625 163.878L398.064 163.051L393.255 166.312L393.816 167.14ZM403.434 160.616L408.243 157.354L407.681 156.527L402.873 159.789L403.434 160.616ZM413.051 154.092L417.86 150.831L417.299 150.003L412.49 153.265L413.051 154.092ZM422.669 147.569L427.478 144.307L426.916 143.479L422.108 146.741L422.669 147.569Z" fill="#034737"/>
<path d="M204 293L206.523 287.894L209.838 292.621L204 293ZM211.554 287.447L216.781 284.018L217.355 284.837L212.128 288.266L211.554 287.447ZM222.008 280.589L227.236 277.16L227.81 277.979L222.583 281.408L222.008 280.589ZM232.463 273.731L237.69 270.302L238.264 271.121L233.037 274.55L232.463 273.731ZM242.917 266.873L248.145 263.444L248.719 264.263L243.492 267.692L242.917 266.873ZM253.372 260.015L258.599 256.586L259.173 257.405L253.946 260.834L253.372 260.015ZM263.827 253.157L269.054 249.728L269.628 250.547L264.401 253.976L263.827 253.157ZM274.281 246.299L279.508 242.87L280.083 243.689L274.855 247.118L274.281 246.299ZM284.736 239.441L289.963 236.012L290.537 236.831L285.31 240.26L284.736 239.441ZM295.19 232.583L300.417 229.154L300.992 229.973L295.764 233.402L295.19 232.583ZM305.645 225.725L310.872 222.296L311.446 223.115L306.219 226.544L305.645 225.725ZM316.099 218.867L318.713 217.153L319.287 217.971L316.673 219.686L316.099 218.867Z" fill="#034737"/>
<path d="M434.41 293L428.572 292.621L431.887 287.894L434.41 293ZM319.287 216.876L321.691 218.454L321.117 219.272L318.713 217.695L319.287 216.876ZM326.5 221.608L331.309 224.763L330.735 225.582L325.926 222.427L326.5 221.608ZM336.118 227.918L340.927 231.073L340.352 231.891L335.544 228.737L336.118 227.918ZM345.735 234.227L350.544 237.382L349.97 238.201L345.161 235.046L345.735 234.227ZM355.353 240.537L360.162 243.692L359.587 244.51L354.779 241.356L355.353 240.537ZM364.97 246.847L369.779 250.001L369.205 250.82L364.396 247.665L364.97 246.847ZM374.588 253.156L379.397 256.311L378.822 257.13L374.014 253.975L374.588 253.156ZM384.205 259.466L389.014 262.62L388.44 263.439L383.631 260.284L384.205 259.466ZM393.823 265.775L398.632 268.93L398.057 269.749L393.249 266.594L393.823 265.775ZM403.44 272.085L408.249 275.239L407.675 276.058L402.866 272.903L403.44 272.085ZM413.058 278.394L417.867 281.549L417.292 282.368L412.484 279.213L413.058 278.394ZM422.675 284.704L427.484 287.858L426.91 288.677L422.101 285.522L422.675 284.704Z" fill="#034737"/>
<rect x="109" y="293" width="90" height="90" rx="20" fill="#034737"/>
<path d="M153.573 356.75H139.417C137.115 356.75 135.25 354.885 135.25 352.583V327.583C135.25 325.282 137.115 323.417 139.417 323.417H164.417C166.718 323.417 168.583 325.282 168.583 327.583V335.917" stroke="white" stroke-width="2.70833" stroke-linecap="round" stroke-linejoin="round"/>
<path d="M166.5 342.167V350.5H174.833" stroke="white" stroke-width="2.70833" stroke-linecap="round" stroke-linejoin="round"/>
<circle cx="166.5" cy="350.5" r="8.33333" stroke="white" stroke-width="2.70833" stroke-linecap="round" stroke-linejoin="round"/>
<path d="M160.25 319.25V327.583" stroke="white" stroke-width="2.70833" stroke-linecap="round" stroke-linejoin="round"/>
<path d="M143.583 319.25V327.583" stroke="white" stroke-width="2.70833" stroke-linecap="round" stroke-linejoin="round"/>
<path d="M135.25 335.917H168.583" stroke="white" stroke-width="2.70833" stroke-linecap="round" stroke-linejoin="round"/>
<rect x="433" y="293" width="90" height="90" rx="20" fill="#034737"/>
<path d="M483.001 359.014C482.982 359.014 482.965 359.025 482.945 359.025H466.539C466.155 359.025 465.786 358.872 465.514 358.6C465.242 358.328 465.089 357.96 465.089 357.575C465.089 357.191 465.242 356.822 465.514 356.55C465.786 356.278 466.155 356.125 466.539 356.125H482.903L482.945 356.117C485.932 356.117 488.853 355.24 491.345 353.594C493.837 351.948 495.791 349.606 496.963 346.859C498.135 344.112 498.475 341.082 497.939 338.143C497.404 335.205 496.016 332.489 493.95 330.333C491.884 328.176 489.229 326.674 486.317 326.014C483.404 325.353 480.362 325.563 477.567 326.617C474.773 327.672 472.35 329.524 470.599 331.943C468.848 334.363 467.847 337.244 467.72 340.228C467.698 340.608 467.528 340.964 467.246 341.219C466.963 341.475 466.592 341.609 466.212 341.593C465.831 341.577 465.472 341.412 465.213 341.134C464.953 340.856 464.813 340.486 464.823 340.106C464.986 336.065 466.5 332.196 469.121 329.117L468.251 328.247C468.112 328.113 468.002 327.953 467.926 327.776C467.85 327.6 467.81 327.409 467.808 327.217C467.806 327.024 467.843 326.833 467.916 326.655C467.989 326.477 468.097 326.315 468.233 326.179C468.369 326.043 468.531 325.935 468.709 325.862C468.887 325.789 469.078 325.753 469.271 325.754C469.463 325.756 469.653 325.796 469.83 325.872C470.007 325.948 470.167 326.058 470.301 326.197L471.178 327.073C473.4 325.177 476.047 323.845 478.894 323.191C481.74 322.537 484.703 322.579 487.53 323.316C490.357 324.052 492.964 325.46 495.129 327.42C497.295 329.38 498.956 331.834 499.97 334.574C500.984 337.313 501.321 340.257 500.954 343.155C500.586 346.053 499.524 348.819 497.858 351.218C496.192 353.618 493.971 355.579 491.385 356.936C488.798 358.293 485.922 359.007 483.001 359.014ZM489.624 334.205C489.352 333.933 488.984 333.781 488.599 333.781C488.215 333.781 487.846 333.933 487.574 334.205L483.373 338.406C483.233 338.364 483.09 338.335 482.945 338.319C482.438 338.319 481.942 338.47 481.52 338.751C481.099 339.033 480.77 339.434 480.576 339.902C480.382 340.371 480.331 340.887 480.43 341.384C480.529 341.881 480.773 342.338 481.132 342.697C481.49 343.056 481.947 343.3 482.445 343.399C482.942 343.498 483.458 343.447 483.927 343.253C484.395 343.059 484.796 342.73 485.077 342.308C485.359 341.886 485.51 341.39 485.51 340.883C485.493 340.738 485.464 340.595 485.423 340.456L489.624 336.254C489.896 335.982 490.048 335.614 490.048 335.23C490.048 334.846 489.896 334.477 489.624 334.205ZM480.589 319.875H485.303C485.687 319.875 486.056 319.722 486.328 319.45C486.6 319.178 486.753 318.81 486.753 318.425C486.753 318.041 486.6 317.672 486.328 317.4C486.056 317.128 485.687 316.975 485.303 316.975H480.589C480.204 316.975 479.835 317.128 479.563 317.4C479.292 317.672 479.139 318.041 479.139 318.425C479.139 318.81 479.292 319.178 479.563 319.45C479.835 319.722 480.204 319.875 480.589 319.875ZM479.552 351.775C479.552 351.391 479.4 351.022 479.128 350.75C478.856 350.478 478.487 350.325 478.102 350.325H460.055C459.67 350.325 459.302 350.478 459.03 350.75C458.758 351.022 458.605 351.391 458.605 351.775C458.605 352.16 458.758 352.528 459.03 352.8C459.302 353.072 459.67 353.225 460.055 353.225H478.102C478.487 353.225 478.856 353.072 479.128 352.8C479.4 352.528 479.552 352.16 479.552 351.775ZM480.124 345.975C480.124 345.591 479.971 345.222 479.7 344.95C479.428 344.678 479.059 344.525 478.674 344.525H456.352C455.968 344.525 455.599 344.678 455.327 344.95C455.055 345.222 454.902 345.591 454.902 345.975C454.902 346.36 455.055 346.728 455.327 347C455.599 347.272 455.968 347.425 456.352 347.425H478.674C479.059 347.425 479.428 347.272 479.7 347C479.971 346.728 480.124 346.36 480.124 345.975Z" fill="white"/>
<rect x="437" y="51" width="90" height="90" rx="20" fill="#034737"/>
<path d="M502.314 109.155L497.893 113.576L497.893 106.945C497.893 98.3998 490.966 91.4725 482.421 91.4725C473.875 91.4725 466.948 98.3998 466.948 106.945L466.948 113.576L462.527 109.155" stroke="white" stroke-width="2.16667" stroke-linecap="round" stroke-linejoin="round"/>
<path d="M483.505 76C483.505 75.4017 483.02 74.9167 482.422 74.9167C481.823 74.9167 481.338 75.4017 481.338 76L483.505 76ZM482.422 115.787L481.338 115.787C481.338 116.225 481.602 116.62 482.007 116.787C482.412 116.955 482.878 116.862 483.188 116.553L482.422 115.787ZM487.608 112.132C488.031 111.709 488.031 111.023 487.608 110.6C487.185 110.177 486.499 110.177 486.076 110.6L487.608 112.132ZM478.766 110.6C478.343 110.177 477.657 110.177 477.234 110.6C476.811 111.023 476.811 111.709 477.234 112.132L478.766 110.6ZM481.655 116.553C482.078 116.976 482.764 116.976 483.187 116.553C483.61 116.13 483.61 115.444 483.187 115.021L481.655 116.553ZM481.338 76L481.338 115.787L483.505 115.787L483.505 76L481.338 76ZM483.188 116.553L487.608 112.132L486.076 110.6L481.656 115.021L483.188 116.553ZM477.234 112.132L481.655 116.553L483.187 115.021L478.766 110.6L477.234 112.132Z" fill="white"/>
<path d="M446.432 28.242L443.604 38H442.176L439.908 30.146L437.556 38L436.142 38.014L433.412 28.242H434.77L436.898 36.516L439.25 28.242H440.678L442.918 36.488L445.06 28.242H446.432ZM454.868 33.87C454.868 34.1127 454.854 34.3693 454.826 34.64H448.694C448.741 35.396 448.998 35.9887 449.464 36.418C449.94 36.838 450.514 37.048 451.186 37.048C451.737 37.048 452.194 36.922 452.558 36.67C452.932 36.4087 453.193 36.0633 453.342 35.634H454.714C454.509 36.3713 454.098 36.9733 453.482 37.44C452.866 37.8973 452.101 38.126 451.186 38.126C450.458 38.126 449.805 37.9627 449.226 37.636C448.657 37.3093 448.209 36.8473 447.882 36.25C447.556 35.6433 447.392 34.9433 447.392 34.15C447.392 33.3567 447.551 32.6613 447.868 32.064C448.186 31.4667 448.629 31.0093 449.198 30.692C449.777 30.3653 450.44 30.202 451.186 30.202C451.914 30.202 452.558 30.3607 453.118 30.678C453.678 30.9953 454.108 31.434 454.406 31.994C454.714 32.5447 454.868 33.17 454.868 33.87ZM453.552 33.604C453.552 33.1187 453.445 32.7033 453.23 32.358C453.016 32.0033 452.722 31.7373 452.348 31.56C451.984 31.3733 451.578 31.28 451.13 31.28C450.486 31.28 449.936 31.4853 449.478 31.896C449.03 32.3067 448.774 32.876 448.708 33.604H453.552ZM457.866 31.756C458.127 31.2987 458.51 30.9253 459.014 30.636C459.518 30.3467 460.092 30.202 460.736 30.202C461.427 30.202 462.047 30.3653 462.598 30.692C463.149 31.0187 463.583 31.4807 463.9 32.078C464.217 32.666 464.376 33.352 464.376 34.136C464.376 34.9107 464.217 35.6013 463.9 36.208C463.583 36.8147 463.144 37.286 462.584 37.622C462.033 37.958 461.417 38.126 460.736 38.126C460.073 38.126 459.49 37.9813 458.986 37.692C458.491 37.4027 458.118 37.034 457.866 36.586V38H456.592V27.64H457.866V31.756ZM463.074 34.136C463.074 33.5573 462.957 33.0533 462.724 32.624C462.491 32.1947 462.173 31.868 461.772 31.644C461.38 31.42 460.946 31.308 460.47 31.308C460.003 31.308 459.569 31.4247 459.168 31.658C458.776 31.882 458.459 32.2133 458.216 32.652C457.983 33.0813 457.866 33.5807 457.866 34.15C457.866 34.7287 457.983 35.2373 458.216 35.676C458.459 36.1053 458.776 36.4367 459.168 36.67C459.569 36.894 460.003 37.006 460.47 37.006C460.946 37.006 461.38 36.894 461.772 36.67C462.173 36.4367 462.491 36.1053 462.724 35.676C462.957 35.2373 463.074 34.724 463.074 34.136ZM472.585 38.126C471.997 38.126 471.47 38.028 471.003 37.832C470.537 37.6267 470.168 37.3467 469.897 36.992C469.627 36.628 469.477 36.2127 469.449 35.746H470.765C470.803 36.1287 470.98 36.4413 471.297 36.684C471.624 36.9267 472.049 37.048 472.571 37.048C473.057 37.048 473.439 36.9407 473.719 36.726C473.999 36.5113 474.139 36.2407 474.139 35.914C474.139 35.578 473.99 35.3307 473.691 35.172C473.393 35.004 472.931 34.8407 472.305 34.682C471.736 34.5327 471.269 34.3833 470.905 34.234C470.551 34.0753 470.243 33.8467 469.981 33.548C469.729 33.24 469.603 32.8387 469.603 32.344C469.603 31.952 469.72 31.5927 469.953 31.266C470.187 30.9393 470.518 30.6827 470.947 30.496C471.377 30.3 471.867 30.202 472.417 30.202C473.267 30.202 473.953 30.4167 474.475 30.846C474.998 31.2753 475.278 31.8633 475.315 32.61H474.041C474.013 32.2087 473.85 31.8867 473.551 31.644C473.262 31.4013 472.87 31.28 472.375 31.28C471.918 31.28 471.554 31.378 471.283 31.574C471.013 31.77 470.877 32.0267 470.877 32.344C470.877 32.596 470.957 32.806 471.115 32.974C471.283 33.1327 471.489 33.2633 471.731 33.366C471.983 33.4593 472.329 33.5667 472.767 33.688C473.318 33.8373 473.766 33.9867 474.111 34.136C474.457 34.276 474.751 34.4907 474.993 34.78C475.245 35.0693 475.376 35.4473 475.385 35.914C475.385 36.334 475.269 36.712 475.035 37.048C474.802 37.384 474.471 37.65 474.041 37.846C473.621 38.0327 473.136 38.126 472.585 38.126ZM476.75 34.15C476.75 33.3567 476.909 32.666 477.226 32.078C477.543 31.4807 477.982 31.0187 478.542 30.692C479.111 30.3653 479.76 30.202 480.488 30.202C481.431 30.202 482.205 30.4307 482.812 30.888C483.428 31.3453 483.834 31.98 484.03 32.792H482.658C482.527 32.3253 482.271 31.9567 481.888 31.686C481.515 31.4153 481.048 31.28 480.488 31.28C479.76 31.28 479.172 31.532 478.724 32.036C478.276 32.5307 478.052 33.2353 478.052 34.15C478.052 35.074 478.276 35.788 478.724 36.292C479.172 36.796 479.76 37.048 480.488 37.048C481.048 37.048 481.515 36.9173 481.888 36.656C482.261 36.3947 482.518 36.0213 482.658 35.536H484.03C483.825 36.32 483.414 36.95 482.798 37.426C482.182 37.8927 481.412 38.126 480.488 38.126C479.76 38.126 479.111 37.9627 478.542 37.636C477.982 37.3093 477.543 36.8473 477.226 36.25C476.909 35.6527 476.75 34.9527 476.75 34.15ZM487.046 31.574C487.27 31.1353 487.587 30.7947 487.998 30.552C488.418 30.3093 488.927 30.188 489.524 30.188V31.504H489.188C487.76 31.504 487.046 32.2787 487.046 33.828V38H485.772V30.328H487.046V31.574ZM490.561 34.136C490.561 33.352 490.719 32.666 491.037 32.078C491.354 31.4807 491.788 31.0187 492.339 30.692C492.899 30.3653 493.519 30.202 494.201 30.202C494.873 30.202 495.456 30.3467 495.951 30.636C496.445 30.9253 496.814 31.2893 497.057 31.728V30.328H498.345V38H497.057V36.572C496.805 37.02 496.427 37.3933 495.923 37.692C495.428 37.9813 494.849 38.126 494.187 38.126C493.505 38.126 492.889 37.958 492.339 37.622C491.788 37.286 491.354 36.8147 491.037 36.208C490.719 35.6013 490.561 34.9107 490.561 34.136ZM497.057 34.15C497.057 33.5713 496.94 33.0673 496.707 32.638C496.473 32.2087 496.156 31.882 495.755 31.658C495.363 31.4247 494.929 31.308 494.453 31.308C493.977 31.308 493.543 31.42 493.151 31.644C492.759 31.868 492.446 32.1947 492.213 32.624C491.979 33.0533 491.863 33.5573 491.863 34.136C491.863 34.724 491.979 35.2373 492.213 35.676C492.446 36.1053 492.759 36.4367 493.151 36.67C493.543 36.894 493.977 37.006 494.453 37.006C494.929 37.006 495.363 36.894 495.755 36.67C496.156 36.4367 496.473 36.1053 496.707 35.676C496.94 35.2373 497.057 34.7287 497.057 34.15ZM501.813 31.742C502.065 31.3033 502.439 30.9393 502.933 30.65C503.437 30.3513 504.021 30.202 504.683 30.202C505.365 30.202 505.981 30.3653 506.531 30.692C507.091 31.0187 507.53 31.4807 507.847 32.078C508.165 32.666 508.323 33.352 508.323 34.136C508.323 34.9107 508.165 35.6013 507.847 36.208C507.53 36.8147 507.091 37.286 506.531 37.622C505.981 37.958 505.365 38.126 504.683 38.126C504.03 38.126 503.451 37.9813 502.947 37.692C502.453 37.3933 502.075 37.0247 501.813 36.586V41.64H500.539V30.328H501.813V31.742ZM507.021 34.136C507.021 33.5573 506.905 33.0533 506.671 32.624C506.438 32.1947 506.121 31.868 505.719 31.644C505.327 31.42 504.893 31.308 504.417 31.308C503.951 31.308 503.517 31.4247 503.115 31.658C502.723 31.882 502.406 32.2133 502.163 32.652C501.93 33.0813 501.813 33.5807 501.813 34.15C501.813 34.7287 501.93 35.2373 502.163 35.676C502.406 36.1053 502.723 36.4367 503.115 36.67C503.517 36.894 503.951 37.006 504.417 37.006C504.893 37.006 505.327 36.894 505.719 36.67C506.121 36.4367 506.438 36.1053 506.671 35.676C506.905 35.2373 507.021 34.724 507.021 34.136ZM510.7 29.082C510.458 29.082 510.252 28.998 510.084 28.83C509.916 28.662 509.832 28.4567 509.832 28.214C509.832 27.9713 509.916 27.766 510.084 27.598C510.252 27.43 510.458 27.346 510.7 27.346C510.934 27.346 511.13 27.43 511.288 27.598C511.456 27.766 511.54 27.9713 511.54 28.214C511.54 28.4567 511.456 28.662 511.288 28.83C511.13 28.998 510.934 29.082 510.7 29.082ZM511.316 30.328V38H510.042V30.328H511.316ZM517.268 30.188C518.201 30.188 518.957 30.4727 519.536 31.042C520.114 31.602 520.404 32.414 520.404 33.478V38H519.144V33.66C519.144 32.8947 518.952 32.3113 518.57 31.91C518.187 31.4993 517.664 31.294 517.002 31.294C516.33 31.294 515.793 31.504 515.392 31.924C515 32.344 514.804 32.9553 514.804 33.758V38H513.53V30.328H514.804V31.42C515.056 31.028 515.396 30.7247 515.826 30.51C516.264 30.2953 516.745 30.188 517.268 30.188ZM525.691 30.202C526.353 30.202 526.932 30.3467 527.427 30.636C527.931 30.9253 528.304 31.2893 528.547 31.728V30.328H529.835V38.168C529.835 38.868 529.685 39.4887 529.387 40.03C529.088 40.5807 528.659 41.01 528.099 41.318C527.548 41.626 526.904 41.78 526.167 41.78C525.159 41.78 524.319 41.542 523.647 41.066C522.975 40.59 522.578 39.9413 522.457 39.12H523.717C523.857 39.5867 524.146 39.96 524.585 40.24C525.023 40.5293 525.551 40.674 526.167 40.674C526.867 40.674 527.436 40.4547 527.875 40.016C528.323 39.5773 528.547 38.9613 528.547 38.168V36.558C528.295 37.006 527.921 37.3793 527.427 37.678C526.932 37.9767 526.353 38.126 525.691 38.126C525.009 38.126 524.389 37.958 523.829 37.622C523.278 37.286 522.844 36.8147 522.527 36.208C522.209 35.6013 522.051 34.9107 522.051 34.136C522.051 33.352 522.209 32.666 522.527 32.078C522.844 31.4807 523.278 31.0187 523.829 30.692C524.389 30.3653 525.009 30.202 525.691 30.202ZM528.547 34.15C528.547 33.5713 528.43 33.0673 528.197 32.638C527.963 32.2087 527.646 31.882 527.245 31.658C526.853 31.4247 526.419 31.308 525.943 31.308C525.467 31.308 525.033 31.42 524.641 31.644C524.249 31.868 523.936 32.1947 523.703 32.624C523.469 33.0533 523.353 33.5573 523.353 34.136C523.353 34.724 523.469 35.2373 523.703 35.676C523.936 36.1053 524.249 36.4367 524.641 36.67C525.033 36.894 525.467 37.006 525.943 37.006C526.419 37.006 526.853 36.894 527.245 36.67C527.646 36.4367 527.963 36.1053 528.197 35.676C528.43 35.2373 528.547 34.7287 528.547 34.15Z" fill="#666666"/>
<rect x="109" y="51" width="90" height="90" rx="20" fill="#034737"/>
<circle cx="154.092" cy="95.8719" r="23.872" stroke="white" stroke-width="2.16667" stroke-linecap="round" stroke-linejoin="round"/>
<circle cx="154.092" cy="90.5672" r="7.95732" stroke="white" stroke-width="2.16667" stroke-linecap="round" stroke-linejoin="round"/>
<path d="M138.623 114.038C139.971 109.552 144.102 106.48 148.787 106.482H159.396C164.088 106.48 168.223 109.559 169.566 114.054" stroke="white" stroke-width="2.16667" stroke-linecap="round" stroke-linejoin="round"/>
<path d="M122.853 33.114C122.853 32.162 123.068 31.308 123.497 30.552C123.927 29.7867 124.51 29.1893 125.247 28.76C125.994 28.3307 126.82 28.116 127.725 28.116C128.789 28.116 129.718 28.3727 130.511 28.886C131.305 29.3993 131.883 30.1273 132.247 31.07H130.721C130.451 30.482 130.059 30.0293 129.545 29.712C129.041 29.3947 128.435 29.236 127.725 29.236C127.044 29.236 126.433 29.3947 125.891 29.712C125.35 30.0293 124.925 30.482 124.617 31.07C124.309 31.6487 124.155 32.33 124.155 33.114C124.155 33.8887 124.309 34.57 124.617 35.158C124.925 35.7367 125.35 36.1847 125.891 36.502C126.433 36.8193 127.044 36.978 127.725 36.978C128.435 36.978 129.041 36.824 129.545 36.516C130.059 36.1987 130.451 35.746 130.721 35.158H132.247C131.883 36.0913 131.305 36.8147 130.511 37.328C129.718 37.832 128.789 38.084 127.725 38.084C126.82 38.084 125.994 37.874 125.247 37.454C124.51 37.0247 123.927 36.432 123.497 35.676C123.068 34.92 122.853 34.066 122.853 33.114ZM137.532 38.126C136.813 38.126 136.16 37.9627 135.572 37.636C134.993 37.3093 134.536 36.8473 134.2 36.25C133.873 35.6433 133.71 34.9433 133.71 34.15C133.71 33.366 133.878 32.6753 134.214 32.078C134.559 31.4713 135.026 31.0093 135.614 30.692C136.202 30.3653 136.86 30.202 137.588 30.202C138.316 30.202 138.974 30.3653 139.562 30.692C140.15 31.0093 140.612 31.4667 140.948 32.064C141.293 32.6613 141.466 33.3567 141.466 34.15C141.466 34.9433 141.289 35.6433 140.934 36.25C140.589 36.8473 140.117 37.3093 139.52 37.636C138.923 37.9627 138.26 38.126 137.532 38.126ZM137.532 37.006C137.989 37.006 138.419 36.8987 138.82 36.684C139.221 36.4693 139.543 36.1473 139.786 35.718C140.038 35.2887 140.164 34.766 140.164 34.15C140.164 33.534 140.043 33.0113 139.8 32.582C139.557 32.1527 139.24 31.8353 138.848 31.63C138.456 31.4153 138.031 31.308 137.574 31.308C137.107 31.308 136.678 31.4153 136.286 31.63C135.903 31.8353 135.595 32.1527 135.362 32.582C135.129 33.0113 135.012 33.534 135.012 34.15C135.012 34.7753 135.124 35.3027 135.348 35.732C135.581 36.1613 135.889 36.4833 136.272 36.698C136.655 36.9033 137.075 37.006 137.532 37.006ZM146.921 30.188C147.854 30.188 148.61 30.4727 149.189 31.042C149.768 31.602 150.057 32.414 150.057 33.478V38H148.797V33.66C148.797 32.8947 148.606 32.3113 148.223 31.91C147.84 31.4993 147.318 31.294 146.655 31.294C145.983 31.294 145.446 31.504 145.045 31.924C144.653 32.344 144.457 32.9553 144.457 33.758V38H143.183V30.328H144.457V31.42C144.709 31.028 145.05 30.7247 145.479 30.51C145.918 30.2953 146.398 30.188 146.921 30.188ZM153.734 31.378V35.9C153.734 36.2733 153.813 36.5393 153.972 36.698C154.131 36.8473 154.406 36.922 154.798 36.922H155.736V38H154.588C153.879 38 153.347 37.8367 152.992 37.51C152.637 37.1833 152.46 36.6467 152.46 35.9V31.378H151.466V30.328H152.46V28.396H153.734V30.328H155.736V31.378H153.734ZM156.846 34.136C156.846 33.352 157.004 32.666 157.322 32.078C157.639 31.4807 158.073 31.0187 158.624 30.692C159.184 30.3653 159.804 30.202 160.486 30.202C161.158 30.202 161.741 30.3467 162.236 30.636C162.73 30.9253 163.099 31.2893 163.342 31.728V30.328H164.63V38H163.342V36.572C163.09 37.02 162.712 37.3933 162.208 37.692C161.713 37.9813 161.134 38.126 160.472 38.126C159.79 38.126 159.174 37.958 158.624 37.622C158.073 37.286 157.639 36.8147 157.322 36.208C157.004 35.6013 156.846 34.9107 156.846 34.136ZM163.342 34.15C163.342 33.5713 163.225 33.0673 162.992 32.638C162.758 32.2087 162.441 31.882 162.04 31.658C161.648 31.4247 161.214 31.308 160.738 31.308C160.262 31.308 159.828 31.42 159.436 31.644C159.044 31.868 158.731 32.1947 158.498 32.624C158.264 33.0533 158.148 33.5573 158.148 34.136C158.148 34.724 158.264 35.2373 158.498 35.676C158.731 36.1053 159.044 36.4367 159.436 36.67C159.828 36.894 160.262 37.006 160.738 37.006C161.214 37.006 161.648 36.894 162.04 36.67C162.441 36.4367 162.758 36.1053 162.992 35.676C163.225 35.2373 163.342 34.7287 163.342 34.15ZM166.349 34.15C166.349 33.3567 166.507 32.666 166.825 32.078C167.142 31.4807 167.581 31.0187 168.141 30.692C168.71 30.3653 169.359 30.202 170.087 30.202C171.029 30.202 171.804 30.4307 172.411 30.888C173.027 31.3453 173.433 31.98 173.629 32.792H172.257C172.126 32.3253 171.869 31.9567 171.487 31.686C171.113 31.4153 170.647 31.28 170.087 31.28C169.359 31.28 168.771 31.532 168.323 32.036C167.875 32.5307 167.651 33.2353 167.651 34.15C167.651 35.074 167.875 35.788 168.323 36.292C168.771 36.796 169.359 37.048 170.087 37.048C170.647 37.048 171.113 36.9173 171.487 36.656C171.86 36.3947 172.117 36.0213 172.257 35.536H173.629C173.423 36.32 173.013 36.95 172.397 37.426C171.781 37.8927 171.011 38.126 170.087 38.126C169.359 38.126 168.71 37.9627 168.141 37.636C167.581 37.3093 167.142 36.8473 166.825 36.25C166.507 35.6527 166.349 34.9527 166.349 34.15ZM176.924 31.378V35.9C176.924 36.2733 177.004 36.5393 177.162 36.698C177.321 36.8473 177.596 36.922 177.988 36.922H178.926V38H177.778C177.069 38 176.537 37.8367 176.182 37.51C175.828 37.1833 175.65 36.6467 175.65 35.9V31.378H174.656V30.328H175.65V28.396H176.924V30.328H178.926V31.378H176.924ZM183.228 38.126C182.64 38.126 182.113 38.028 181.646 37.832C181.179 37.6267 180.811 37.3467 180.54 36.992C180.269 36.628 180.12 36.2127 180.092 35.746H181.408C181.445 36.1287 181.623 36.4413 181.94 36.684C182.267 36.9267 182.691 37.048 183.214 37.048C183.699 37.048 184.082 36.9407 184.362 36.726C184.642 36.5113 184.782 36.2407 184.782 35.914C184.782 35.578 184.633 35.3307 184.334 35.172C184.035 35.004 183.573 34.8407 182.948 34.682C182.379 34.5327 181.912 34.3833 181.548 34.234C181.193 34.0753 180.885 33.8467 180.624 33.548C180.372 33.24 180.246 32.8387 180.246 32.344C180.246 31.952 180.363 31.5927 180.596 31.266C180.829 30.9393 181.161 30.6827 181.59 30.496C182.019 30.3 182.509 30.202 183.06 30.202C183.909 30.202 184.595 30.4167 185.118 30.846C185.641 31.2753 185.921 31.8633 185.958 32.61H184.684C184.656 32.2087 184.493 31.8867 184.194 31.644C183.905 31.4013 183.513 31.28 183.018 31.28C182.561 31.28 182.197 31.378 181.926 31.574C181.655 31.77 181.52 32.0267 181.52 32.344C181.52 32.596 181.599 32.806 181.758 32.974C181.926 33.1327 182.131 33.2633 182.374 33.366C182.626 33.4593 182.971 33.5667 183.41 33.688C183.961 33.8373 184.409 33.9867 184.754 34.136C185.099 34.276 185.393 34.4907 185.636 34.78C185.888 35.0693 186.019 35.4473 186.028 35.914C186.028 36.334 185.911 36.712 185.678 37.048C185.445 37.384 185.113 37.65 184.684 37.846C184.264 38.0327 183.779 38.126 183.228 38.126Z" fill="#666666"/>
<g filter="url(#filter0_bd_6882_4715)">
<rect x="276" y="171" width="86.6484" height="91.8193" rx="27.0776" fill="#034737"/>
<rect x="275.323" y="170.323" width="88.0023" height="93.1732" rx="27.7546" stroke="#EAEAEA" stroke-width="1.35388"/>
</g>
<circle cx="333.208" cy="231.043" r="3.91667" transform="rotate(-180 333.208 231.043)" stroke="white" stroke-width="2.54583" stroke-linecap="round" stroke-linejoin="round"/>
<circle cx="305.792" cy="203.626" r="3.91667" transform="rotate(-180 305.792 203.626)" stroke="white" stroke-width="2.54583" stroke-linecap="round" stroke-linejoin="round"/>
<circle cx="305.792" cy="231.043" r="3.91667" transform="rotate(-180 305.792 231.043)" stroke="white" stroke-width="2.54583" stroke-linecap="round" stroke-linejoin="round"/>
<circle cx="333.208" cy="203.626" r="3.91667" transform="rotate(-180 333.208 203.626)" stroke="white" stroke-width="2.54583" stroke-linecap="round" stroke-linejoin="round"/>
<path d="M331.171 207.464C331.668 206.967 331.668 206.161 331.171 205.663C330.674 205.166 329.868 205.166 329.371 205.663L331.171 207.464ZM307.829 227.205C307.332 227.702 307.332 228.508 307.829 229.005C308.326 229.502 309.132 229.502 309.629 229.005L307.829 227.205ZM331.936 227.126C331.936 227.829 332.505 228.399 333.208 228.399C333.912 228.399 334.481 227.829 334.481 227.126L331.936 227.126ZM334.481 207.543C334.481 206.84 333.912 206.27 333.208 206.27C332.505 206.27 331.936 206.84 331.936 207.543L334.481 207.543ZM304.519 227.126C304.519 227.829 305.089 228.399 305.792 228.399C306.495 228.399 307.065 227.829 307.065 227.126L304.519 227.126ZM307.065 207.543C307.065 206.84 306.495 206.27 305.792 206.27C305.089 206.27 304.519 206.84 304.519 207.543L307.065 207.543ZM329.371 205.663L307.829 227.205L309.629 229.005L331.171 207.464L329.371 205.663ZM334.481 227.126L334.481 207.543L331.936 207.543L331.936 227.126L334.481 227.126ZM307.065 227.126L307.065 207.543L304.519 207.543L304.519 227.126L307.065 227.126Z" fill="white"/>
<defs>
<filter id="filter0_bd_6882_4715" x="217.602" y="112.603" width="203.444" height="208.614" filterUnits="userSpaceOnUse" color-interpolation-filters="sRGB">
<feFlood flood-opacity="0" result="BackgroundImageFix"/>
<feGaussianBlur in="BackgroundImageFix" stdDeviation="28.5218"/>
<feComposite in2="SourceAlpha" operator="in" result="effect1_backgroundBlur_6882_4715"/>
<feColorMatrix in="SourceAlpha" type="matrix" values="0 0 0 0 0 0 0 0 0 0 0 0 0 0 0 0 0 0 127 0" result="hardAlpha"/>
<feOffset dy="8.66484"/>
<feGaussianBlur stdDeviation="6.85967"/>
<feComposite in2="hardAlpha" operator="out"/>
<feColorMatrix type="matrix" values="0 0 0 0 0.0867708 0 0 0 0 0.115317 0 0 0 0 0.141667 0 0 0 0.08 0"/>
<feBlend mode="normal" in2="effect1_backgroundBlur_6882_4715" result="effect2_dropShadow_6882_4715"/>
<feBlend mode="normal" in="SourceGraphic" in2="effect2_dropShadow_6882_4715" result="shape"/>
</filter>
</defs>
</svg>
