<svg width="639" height="432" viewBox="0 0 639 432" fill="none" xmlns="http://www.w3.org/2000/svg">
<path d="M368 157L368 223" stroke="#034737" stroke-dasharray="6 6"/>
<path d="M151 157L151 223" stroke="#034737" stroke-dasharray="6 6"/>
<path d="M255 278L255 223" stroke="#034737" stroke-dasharray="6 6"/>
<path d="M482 284L482 223" stroke="#034737" stroke-dasharray="6 6"/>
<path d="M255 244L259.33 251.5L250.67 251.5L255 244Z" fill="#034737"/>
<path d="M368 190L363.67 182.5L372.33 182.5L368 190Z" fill="#034737"/>
<path d="M151 190L146.67 182.5L155.33 182.5L151 190Z" fill="#034737"/>
<path d="M482 244L486.33 251.5L477.67 251.5L482 244Z" fill="#034737"/>
<path d="M210 309C210 297.799 210 292.198 212.18 287.92C214.097 284.157 217.157 281.097 220.92 279.18C225.198 277 230.799 277 242 277H268C279.201 277 284.802 277 289.08 279.18C292.843 281.097 295.903 284.157 297.82 287.92C300 292.198 300 297.799 300 309V335C300 346.201 300 351.802 297.82 356.08C295.903 359.843 292.843 362.903 289.08 364.82C284.802 367 279.201 367 268 367H242C230.799 367 225.198 367 220.92 364.82C217.157 362.903 214.097 359.843 212.18 356.08C210 351.802 210 346.201 210 335V309Z" fill="#034737"/>
<path d="M268.575 322.381C268.257 321.546 267.649 320.843 266.833 320.427C265.216 319.583 263.19 320.062 262.125 321.548L259.382 325.376C258.893 324.828 258.246 324.413 257.485 324.223L251.407 322.709C248.989 322.105 246.438 322.594 244.412 324.048L237.975 328.666C237.7 328.863 237.537 329.181 237.537 329.519V339.963C237.537 340.543 238.007 341.013 238.587 341.013H243.131C243.322 341.013 243.51 340.961 243.674 340.862L248.565 337.908L260.848 337.465C261.083 337.456 261.309 337.369 261.488 337.217L271.378 328.846C272.884 327.571 273.119 325.35 271.913 323.789C271.108 322.748 269.826 322.251 268.575 322.381ZM263.832 322.771C264.292 322.133 265.162 321.925 265.87 322.294C266.218 322.471 266.469 322.774 266.606 323.129L261.517 326.004L263.832 322.771ZM270.021 327.243L260.409 335.379L248.217 335.818C248.039 335.825 247.865 335.877 247.712 335.969L242.838 338.912H239.638V330.058L245.637 325.755C247.162 324.661 249.08 324.294 250.9 324.747L256.976 326.261C257.833 326.475 258.38 327.316 258.223 328.178C258.062 329.053 257.237 329.647 256.342 329.536L253.415 329.159C252.841 329.082 252.313 329.49 252.239 330.066C252.164 330.641 252.571 331.168 253.146 331.242L256.074 331.619C257.844 331.847 259.496 330.82 260.106 329.214L268.178 324.654C268.872 324.264 269.764 324.441 270.25 325.073C270.768 325.743 270.667 326.696 270.021 327.243ZM246.041 309.734C245.862 309.183 245.27 308.88 244.717 309.059L243.882 309.331V308.453C243.882 307.873 243.412 307.402 242.832 307.402C242.252 307.402 241.782 307.873 241.782 308.453V309.331L240.948 309.059C240.396 308.88 239.803 309.183 239.624 309.734C239.445 310.286 239.746 310.878 240.298 311.057L241.133 311.328L240.617 312.038C240.276 312.508 240.38 313.165 240.849 313.506C241.313 313.842 241.979 313.737 242.316 313.273L242.832 312.563L243.348 313.273C243.671 313.718 244.352 313.842 244.815 313.506C245.285 313.165 245.389 312.508 245.048 312.038L244.532 311.329L245.367 311.057C245.918 310.878 246.22 310.286 246.041 309.734ZM256.666 311.057L257.501 311.329L256.985 312.038C256.644 312.508 256.748 313.165 257.217 313.506C257.683 313.843 258.347 313.738 258.685 313.273L259.201 312.563C259.201 312.563 259.714 313.27 259.716 313.273C260.049 313.731 260.728 313.836 261.184 313.506C261.653 313.165 261.757 312.508 261.416 312.038L260.9 311.329L261.735 311.057C262.287 310.878 262.588 310.286 262.409 309.734C262.23 309.183 261.639 308.88 261.086 309.059L260.251 309.331V308.453C260.251 307.873 259.781 307.402 259.201 307.402C258.621 307.402 258.15 307.873 258.15 308.453V309.331L257.315 309.059C256.762 308.88 256.171 309.183 255.992 309.734C255.813 310.286 256.114 310.878 256.666 311.057ZM251.017 307.402C250.437 307.402 249.966 307.873 249.966 308.453V309.331L249.131 309.059C248.579 308.88 247.987 309.183 247.808 309.734C247.629 310.286 247.93 310.878 248.482 311.057L249.317 311.329L248.801 312.038C248.46 312.508 248.564 313.165 249.033 313.506C249.48 313.83 250.163 313.738 250.501 313.273L251.017 312.563L251.533 313.273C251.856 313.719 252.526 313.85 253 313.506C253.469 313.165 253.573 312.508 253.232 312.038L252.716 311.329L253.551 311.057C254.103 310.878 254.404 310.286 254.225 309.734C254.046 309.183 253.455 308.88 252.902 309.059L252.067 309.331V308.453C252.067 307.873 251.597 307.402 251.017 307.402ZM267.385 307.402C266.805 307.402 266.335 307.873 266.335 308.453V309.331L265.5 309.059C264.948 308.88 264.355 309.183 264.176 309.734C263.997 310.286 264.299 310.878 264.851 311.057L265.685 311.329L265.169 312.038C264.828 312.508 264.933 313.165 265.402 313.506C265.847 313.829 266.526 313.745 266.869 313.273L267.385 312.563L267.901 313.273C268.225 313.719 268.896 313.848 269.368 313.506C269.837 313.165 269.941 312.508 269.6 312.038L269.085 311.328L269.919 311.057C270.471 310.878 270.772 310.286 270.593 309.734C270.414 309.183 269.824 308.88 269.27 309.059L268.435 309.331V308.453C268.435 307.873 267.965 307.402 267.385 307.402Z" fill="white"/>
<path d="M271.913 303.202H259.309C258.729 303.202 258.259 303.672 258.259 304.252C258.259 304.832 258.729 305.303 259.309 305.303H271.913C272.492 305.303 272.963 305.774 272.963 306.353V314.755C272.963 315.334 272.492 315.806 271.913 315.806H257.293C256.981 315.806 256.685 315.944 256.486 316.184L255.108 317.84L253.731 316.184C253.531 315.944 253.235 315.806 252.923 315.806H238.303C237.724 315.806 237.253 315.334 237.253 314.755V306.353C237.253 305.774 237.724 305.303 238.303 305.303H250.907C251.487 305.303 251.957 304.832 251.957 304.252C251.957 303.672 251.487 303.202 250.907 303.202H238.303C236.566 303.202 235.152 304.616 235.152 306.353V314.755C235.152 316.493 236.566 317.906 238.303 317.906H252.431C252.431 317.906 254.299 320.151 254.301 320.154C254.716 320.652 255.501 320.652 255.915 320.154L257.785 317.906H271.913C273.65 317.906 275.064 316.493 275.064 314.755V306.353C275.064 304.616 273.65 303.202 271.913 303.202Z" fill="white"/>
<path d="M255.109 305.303C255.689 305.303 256.159 304.833 256.159 304.252C256.159 303.672 255.689 303.202 255.109 303.202C254.529 303.202 254.059 303.672 254.059 304.252C254.059 304.833 254.529 305.303 255.109 305.303Z" fill="white"/>
<path d="M436.969 306C436.969 294.799 436.969 289.198 439.149 284.92C441.066 281.157 444.126 278.097 447.889 276.18C452.167 274 457.768 274 468.969 274H494.969C506.17 274 511.77 274 516.049 276.18C519.812 278.097 522.871 281.157 524.789 284.92C526.969 289.198 526.969 294.799 526.969 306V332C526.969 343.201 526.969 348.802 524.789 353.08C522.871 356.843 519.812 359.903 516.049 361.82C511.77 364 506.17 364 494.969 364H468.969C457.768 364 452.167 364 447.889 361.82C444.126 359.903 441.066 356.843 439.149 353.08C436.969 348.802 436.969 343.201 436.969 332V306Z" fill="#034737"/>
<path d="M475.75 319V310.667" stroke="white" stroke-width="2.70833" stroke-linecap="round" stroke-linejoin="round"/>
<path d="M488.25 319V314.833" stroke="white" stroke-width="2.70833" stroke-linecap="round" stroke-linejoin="round"/>
<path d="M482 319V316.917" stroke="white" stroke-width="2.70833" stroke-linecap="round" stroke-linejoin="round"/>
<path d="M463.25 302.333H500.75" stroke="white" stroke-width="2.70833" stroke-linecap="round" stroke-linejoin="round"/>
<path d="M465.333 302.333V323.167C465.333 325.468 467.199 327.333 469.5 327.333H494.5C496.801 327.333 498.667 325.468 498.667 323.167V302.333" stroke="white" stroke-width="2.70833" stroke-linecap="round" stroke-linejoin="round"/>
<path d="M482 327.333V335.667" stroke="white" stroke-width="2.70833" stroke-linecap="round" stroke-linejoin="round"/>
<path d="M475.75 335.667H488.25" stroke="white" stroke-width="2.70833" stroke-linecap="round" stroke-linejoin="round"/>
<path d="M222.712 386.757L220.388 382.767H218.848V386.757H217.574V376.999H220.724C221.461 376.999 222.082 377.125 222.586 377.377C223.099 377.629 223.482 377.97 223.734 378.399C223.986 378.828 224.112 379.318 224.112 379.869C224.112 380.541 223.916 381.134 223.524 381.647C223.141 382.16 222.562 382.501 221.788 382.669L224.238 386.757H222.712ZM218.848 381.745H220.724C221.414 381.745 221.932 381.577 222.278 381.241C222.623 380.896 222.796 380.438 222.796 379.869C222.796 379.29 222.623 378.842 222.278 378.525C221.942 378.208 221.424 378.049 220.724 378.049H218.848V381.745ZM233.133 382.627C233.133 382.87 233.119 383.126 233.091 383.397H226.959C227.006 384.153 227.262 384.746 227.729 385.175C228.205 385.595 228.779 385.805 229.451 385.805C230.002 385.805 230.459 385.679 230.823 385.427C231.196 385.166 231.458 384.82 231.607 384.391H232.979C232.774 385.128 232.363 385.73 231.747 386.197C231.131 386.654 230.366 386.883 229.451 386.883C228.723 386.883 228.07 386.72 227.491 386.393C226.922 386.066 226.474 385.604 226.147 385.007C225.82 384.4 225.657 383.7 225.657 382.907C225.657 382.114 225.816 381.418 226.133 380.821C226.45 380.224 226.894 379.766 227.463 379.449C228.042 379.122 228.704 378.959 229.451 378.959C230.179 378.959 230.823 379.118 231.383 379.435C231.943 379.752 232.372 380.191 232.671 380.751C232.979 381.302 233.133 381.927 233.133 382.627ZM231.817 382.361C231.817 381.876 231.71 381.46 231.495 381.115C231.28 380.76 230.986 380.494 230.613 380.317C230.249 380.13 229.843 380.037 229.395 380.037C228.751 380.037 228.2 380.242 227.743 380.653C227.295 381.064 227.038 381.633 226.973 382.361H231.817ZM236.131 380.499C236.383 380.06 236.756 379.696 237.251 379.407C237.755 379.108 238.338 378.959 239.001 378.959C239.682 378.959 240.298 379.122 240.849 379.449C241.409 379.776 241.847 380.238 242.165 380.835C242.482 381.423 242.641 382.109 242.641 382.893C242.641 383.668 242.482 384.358 242.165 384.965C241.847 385.572 241.409 386.043 240.849 386.379C240.298 386.715 239.682 386.883 239.001 386.883C238.347 386.883 237.769 386.738 237.265 386.449C236.77 386.15 236.392 385.782 236.131 385.343V390.397H234.857V379.085H236.131V380.499ZM241.339 382.893C241.339 382.314 241.222 381.81 240.989 381.381C240.755 380.952 240.438 380.625 240.037 380.401C239.645 380.177 239.211 380.065 238.735 380.065C238.268 380.065 237.834 380.182 237.433 380.415C237.041 380.639 236.723 380.97 236.481 381.409C236.247 381.838 236.131 382.338 236.131 382.907C236.131 383.486 236.247 383.994 236.481 384.433C236.723 384.862 237.041 385.194 237.433 385.427C237.834 385.651 238.268 385.763 238.735 385.763C239.211 385.763 239.645 385.651 240.037 385.427C240.438 385.194 240.755 384.862 240.989 384.433C241.222 383.994 241.339 383.481 241.339 382.893ZM251.164 379.085V386.757H249.89V385.623C249.647 386.015 249.306 386.323 248.868 386.547C248.438 386.762 247.962 386.869 247.44 386.869C246.842 386.869 246.306 386.748 245.83 386.505C245.354 386.253 244.976 385.88 244.696 385.385C244.425 384.89 244.29 384.288 244.29 383.579V379.085H245.55V383.411C245.55 384.167 245.741 384.75 246.124 385.161C246.506 385.562 247.029 385.763 247.692 385.763C248.373 385.763 248.91 385.553 249.302 385.133C249.694 384.713 249.89 384.102 249.89 383.299V379.085H251.164ZM254.911 380.135V384.657C254.911 385.03 254.99 385.296 255.149 385.455C255.307 385.604 255.583 385.679 255.975 385.679H256.913V386.757H255.765C255.055 386.757 254.523 386.594 254.169 386.267C253.814 385.94 253.637 385.404 253.637 384.657V380.135H252.643V379.085H253.637V377.153H254.911V379.085H256.913V380.135H254.911ZM258.022 382.893C258.022 382.109 258.181 381.423 258.498 380.835C258.816 380.238 259.25 379.776 259.8 379.449C260.36 379.122 260.981 378.959 261.662 378.959C262.334 378.959 262.918 379.104 263.412 379.393C263.907 379.682 264.276 380.046 264.518 380.485V379.085H265.806V386.757H264.518V385.329C264.266 385.777 263.888 386.15 263.384 386.449C262.89 386.738 262.311 386.883 261.648 386.883C260.967 386.883 260.351 386.715 259.8 386.379C259.25 386.043 258.816 385.572 258.498 384.965C258.181 384.358 258.022 383.668 258.022 382.893ZM264.518 382.907C264.518 382.328 264.402 381.824 264.168 381.395C263.935 380.966 263.618 380.639 263.216 380.415C262.824 380.182 262.39 380.065 261.914 380.065C261.438 380.065 261.004 380.177 260.612 380.401C260.22 380.625 259.908 380.952 259.674 381.381C259.441 381.81 259.324 382.314 259.324 382.893C259.324 383.481 259.441 383.994 259.674 384.433C259.908 384.862 260.22 385.194 260.612 385.427C261.004 385.651 261.438 385.763 261.914 385.763C262.39 385.763 262.824 385.651 263.216 385.427C263.618 385.194 263.935 384.862 264.168 384.433C264.402 383.994 264.518 383.486 264.518 382.907ZM269.555 380.135V384.657C269.555 385.03 269.635 385.296 269.793 385.455C269.952 385.604 270.227 385.679 270.619 385.679H271.557V386.757H270.409C269.7 386.757 269.168 386.594 268.813 386.267C268.459 385.94 268.281 385.404 268.281 384.657V380.135H267.287V379.085H268.281V377.153H269.555V379.085H271.557V380.135H269.555ZM273.801 377.839C273.558 377.839 273.353 377.755 273.185 377.587C273.017 377.419 272.933 377.214 272.933 376.971C272.933 376.728 273.017 376.523 273.185 376.355C273.353 376.187 273.558 376.103 273.801 376.103C274.034 376.103 274.23 376.187 274.389 376.355C274.557 376.523 274.641 376.728 274.641 376.971C274.641 377.214 274.557 377.419 274.389 377.587C274.23 377.755 274.034 377.839 273.801 377.839ZM274.417 379.085V386.757H273.143V379.085H274.417ZM279.976 386.883C279.258 386.883 278.604 386.72 278.016 386.393C277.438 386.066 276.98 385.604 276.644 385.007C276.318 384.4 276.154 383.7 276.154 382.907C276.154 382.123 276.322 381.432 276.658 380.835C277.004 380.228 277.47 379.766 278.058 379.449C278.646 379.122 279.304 378.959 280.032 378.959C280.76 378.959 281.418 379.122 282.006 379.449C282.594 379.766 283.056 380.224 283.392 380.821C283.738 381.418 283.91 382.114 283.91 382.907C283.91 383.7 283.733 384.4 283.378 385.007C283.033 385.604 282.562 386.066 281.964 386.393C281.367 386.72 280.704 386.883 279.976 386.883ZM279.976 385.763C280.434 385.763 280.863 385.656 281.264 385.441C281.666 385.226 281.988 384.904 282.23 384.475C282.482 384.046 282.608 383.523 282.608 382.907C282.608 382.291 282.487 381.768 282.244 381.339C282.002 380.91 281.684 380.592 281.292 380.387C280.9 380.172 280.476 380.065 280.018 380.065C279.552 380.065 279.122 380.172 278.73 380.387C278.348 380.592 278.04 380.91 277.806 381.339C277.573 381.768 277.456 382.291 277.456 382.907C277.456 383.532 277.568 384.06 277.792 384.489C278.026 384.918 278.334 385.24 278.716 385.455C279.099 385.66 279.519 385.763 279.976 385.763ZM289.365 378.945C290.299 378.945 291.055 379.23 291.633 379.799C292.212 380.359 292.501 381.171 292.501 382.235V386.757H291.241V382.417C291.241 381.652 291.05 381.068 290.667 380.667C290.285 380.256 289.762 380.051 289.099 380.051C288.427 380.051 287.891 380.261 287.489 380.681C287.097 381.101 286.901 381.712 286.901 382.515V386.757H285.627V379.085H286.901V380.177C287.153 379.785 287.494 379.482 287.923 379.267C288.362 379.052 288.843 378.945 289.365 378.945ZM232.345 394.945C232.942 394.945 233.474 395.071 233.941 395.323C234.408 395.566 234.776 395.934 235.047 396.429C235.318 396.924 235.453 397.526 235.453 398.235V402.757H234.193V398.417C234.193 397.652 234.002 397.068 233.619 396.667C233.246 396.256 232.737 396.051 232.093 396.051C231.43 396.051 230.903 396.266 230.511 396.695C230.119 397.115 229.923 397.726 229.923 398.529V402.757H228.663V398.417C228.663 397.652 228.472 397.068 228.089 396.667C227.716 396.256 227.207 396.051 226.563 396.051C225.9 396.051 225.373 396.266 224.981 396.695C224.589 397.115 224.393 397.726 224.393 398.529V402.757H223.119V395.085H224.393V396.191C224.645 395.79 224.981 395.482 225.401 395.267C225.83 395.052 226.302 394.945 226.815 394.945C227.459 394.945 228.028 395.09 228.523 395.379C229.018 395.668 229.386 396.093 229.629 396.653C229.844 396.112 230.198 395.692 230.693 395.393C231.188 395.094 231.738 394.945 232.345 394.945ZM237.109 398.893C237.109 398.109 237.267 397.423 237.585 396.835C237.902 396.238 238.336 395.776 238.887 395.449C239.447 395.122 240.067 394.959 240.749 394.959C241.421 394.959 242.004 395.104 242.499 395.393C242.993 395.682 243.362 396.046 243.605 396.485V395.085H244.893V402.757H243.605V401.329C243.353 401.777 242.975 402.15 242.471 402.449C241.976 402.738 241.397 402.883 240.735 402.883C240.053 402.883 239.437 402.715 238.887 402.379C238.336 402.043 237.902 401.572 237.585 400.965C237.267 400.358 237.109 399.668 237.109 398.893ZM243.605 398.907C243.605 398.328 243.488 397.824 243.255 397.395C243.021 396.966 242.704 396.639 242.303 396.415C241.911 396.182 241.477 396.065 241.001 396.065C240.525 396.065 240.091 396.177 239.699 396.401C239.307 396.625 238.994 396.952 238.761 397.381C238.527 397.81 238.411 398.314 238.411 398.893C238.411 399.481 238.527 399.994 238.761 400.433C238.994 400.862 239.307 401.194 239.699 401.427C240.091 401.651 240.525 401.763 241.001 401.763C241.477 401.763 241.911 401.651 242.303 401.427C242.704 401.194 243.021 400.862 243.255 400.433C243.488 399.994 243.605 399.486 243.605 398.907ZM250.826 394.945C251.759 394.945 252.515 395.23 253.094 395.799C253.672 396.359 253.962 397.171 253.962 398.235V402.757H252.702V398.417C252.702 397.652 252.51 397.068 252.128 396.667C251.745 396.256 251.222 396.051 250.56 396.051C249.888 396.051 249.351 396.261 248.95 396.681C248.558 397.101 248.362 397.712 248.362 398.515V402.757H247.088V395.085H248.362V396.177C248.614 395.785 248.954 395.482 249.384 395.267C249.822 395.052 250.303 394.945 250.826 394.945ZM255.609 398.893C255.609 398.109 255.768 397.423 256.085 396.835C256.402 396.238 256.836 395.776 257.387 395.449C257.947 395.122 258.568 394.959 259.249 394.959C259.921 394.959 260.504 395.104 260.999 395.393C261.494 395.682 261.862 396.046 262.105 396.485V395.085H263.393V402.757H262.105V401.329C261.853 401.777 261.475 402.15 260.971 402.449C260.476 402.738 259.898 402.883 259.235 402.883C258.554 402.883 257.938 402.715 257.387 402.379C256.836 402.043 256.402 401.572 256.085 400.965C255.768 400.358 255.609 399.668 255.609 398.893ZM262.105 398.907C262.105 398.328 261.988 397.824 261.755 397.395C261.522 396.966 261.204 396.639 260.803 396.415C260.411 396.182 259.977 396.065 259.501 396.065C259.025 396.065 258.591 396.177 258.199 396.401C257.807 396.625 257.494 396.952 257.261 397.381C257.028 397.81 256.911 398.314 256.911 398.893C256.911 399.481 257.028 399.994 257.261 400.433C257.494 400.862 257.807 401.194 258.199 401.427C258.591 401.651 259.025 401.763 259.501 401.763C259.977 401.763 260.411 401.651 260.803 401.427C261.204 401.194 261.522 400.862 261.755 400.433C261.988 399.994 262.105 399.486 262.105 398.907ZM268.752 394.959C269.414 394.959 269.993 395.104 270.488 395.393C270.992 395.682 271.365 396.046 271.608 396.485V395.085H272.896V402.925C272.896 403.625 272.746 404.246 272.448 404.787C272.149 405.338 271.72 405.767 271.16 406.075C270.609 406.383 269.965 406.537 269.228 406.537C268.22 406.537 267.38 406.299 266.708 405.823C266.036 405.347 265.639 404.698 265.518 403.877H266.778C266.918 404.344 267.207 404.717 267.646 404.997C268.084 405.286 268.612 405.431 269.228 405.431C269.928 405.431 270.497 405.212 270.936 404.773C271.384 404.334 271.608 403.718 271.608 402.925V401.315C271.356 401.763 270.982 402.136 270.488 402.435C269.993 402.734 269.414 402.883 268.752 402.883C268.07 402.883 267.45 402.715 266.89 402.379C266.339 402.043 265.905 401.572 265.588 400.965C265.27 400.358 265.112 399.668 265.112 398.893C265.112 398.109 265.27 397.423 265.588 396.835C265.905 396.238 266.339 395.776 266.89 395.449C267.45 395.122 268.07 394.959 268.752 394.959ZM271.608 398.907C271.608 398.328 271.491 397.824 271.258 397.395C271.024 396.966 270.707 396.639 270.306 396.415C269.914 396.182 269.48 396.065 269.004 396.065C268.528 396.065 268.094 396.177 267.702 396.401C267.31 396.625 266.997 396.952 266.764 397.381C266.53 397.81 266.414 398.314 266.414 398.893C266.414 399.481 266.53 399.994 266.764 400.433C266.997 400.862 267.31 401.194 267.702 401.427C268.094 401.651 268.528 401.763 269.004 401.763C269.48 401.763 269.914 401.651 270.306 401.427C270.707 401.194 271.024 400.862 271.258 400.433C271.491 399.994 271.608 399.486 271.608 398.907ZM282.091 398.627C282.091 398.87 282.077 399.126 282.049 399.397H275.917C275.963 400.153 276.22 400.746 276.687 401.175C277.163 401.595 277.737 401.805 278.409 401.805C278.959 401.805 279.417 401.679 279.781 401.427C280.154 401.166 280.415 400.82 280.565 400.391H281.937C281.731 401.128 281.321 401.73 280.705 402.197C280.089 402.654 279.323 402.883 278.409 402.883C277.681 402.883 277.027 402.72 276.449 402.393C275.879 402.066 275.431 401.604 275.105 401.007C274.778 400.4 274.615 399.7 274.615 398.907C274.615 398.114 274.773 397.418 275.091 396.821C275.408 396.224 275.851 395.766 276.421 395.449C276.999 395.122 277.662 394.959 278.409 394.959C279.137 394.959 279.781 395.118 280.341 395.435C280.901 395.752 281.33 396.191 281.629 396.751C281.937 397.302 282.091 397.927 282.091 398.627ZM280.775 398.361C280.775 397.876 280.667 397.46 280.453 397.115C280.238 396.76 279.944 396.494 279.571 396.317C279.207 396.13 278.801 396.037 278.353 396.037C277.709 396.037 277.158 396.242 276.701 396.653C276.253 397.064 275.996 397.633 275.931 398.361H280.775ZM285.088 396.331C285.312 395.892 285.63 395.552 286.04 395.309C286.46 395.066 286.969 394.945 287.566 394.945V396.261H287.23C285.802 396.261 285.088 397.036 285.088 398.585V402.757H283.814V395.085H285.088V396.331Z" fill="#666666"/>
<path d="M440.325 387.098C439.681 387.098 439.102 386.986 438.589 386.762C438.085 386.529 437.688 386.211 437.399 385.81C437.109 385.399 436.96 384.928 436.951 384.396H438.309C438.355 384.853 438.542 385.241 438.869 385.558C439.205 385.866 439.69 386.02 440.325 386.02C440.931 386.02 441.407 385.871 441.753 385.572C442.107 385.264 442.285 384.872 442.285 384.396C442.285 384.023 442.182 383.719 441.977 383.486C441.771 383.253 441.515 383.075 441.207 382.954C440.899 382.833 440.483 382.702 439.961 382.562C439.317 382.394 438.799 382.226 438.407 382.058C438.024 381.89 437.693 381.629 437.413 381.274C437.142 380.91 437.007 380.425 437.007 379.818C437.007 379.286 437.142 378.815 437.413 378.404C437.683 377.993 438.061 377.676 438.547 377.452C439.041 377.228 439.606 377.116 440.241 377.116C441.155 377.116 441.902 377.345 442.481 377.802C443.069 378.259 443.4 378.866 443.475 379.622H442.075C442.028 379.249 441.832 378.922 441.487 378.642C441.141 378.353 440.684 378.208 440.115 378.208C439.583 378.208 439.149 378.348 438.813 378.628C438.477 378.899 438.309 379.281 438.309 379.776C438.309 380.131 438.407 380.42 438.603 380.644C438.808 380.868 439.055 381.041 439.345 381.162C439.643 381.274 440.059 381.405 440.591 381.554C441.235 381.731 441.753 381.909 442.145 382.086C442.537 382.254 442.873 382.52 443.153 382.884C443.433 383.239 443.573 383.724 443.573 384.34C443.573 384.816 443.447 385.264 443.195 385.684C442.943 386.104 442.569 386.445 442.075 386.706C441.58 386.967 440.997 387.098 440.325 387.098ZM448.836 387.126C448.117 387.126 447.464 386.963 446.876 386.636C446.297 386.309 445.84 385.847 445.504 385.25C445.177 384.643 445.014 383.943 445.014 383.15C445.014 382.366 445.182 381.675 445.518 381.078C445.863 380.471 446.33 380.009 446.918 379.692C447.506 379.365 448.164 379.202 448.892 379.202C449.62 379.202 450.278 379.365 450.866 379.692C451.454 380.009 451.916 380.467 452.252 381.064C452.597 381.661 452.77 382.357 452.77 383.15C452.77 383.943 452.592 384.643 452.238 385.25C451.892 385.847 451.421 386.309 450.824 386.636C450.226 386.963 449.564 387.126 448.836 387.126ZM448.836 386.006C449.293 386.006 449.722 385.899 450.124 385.684C450.525 385.469 450.847 385.147 451.09 384.718C451.342 384.289 451.468 383.766 451.468 383.15C451.468 382.534 451.346 382.011 451.104 381.582C450.861 381.153 450.544 380.835 450.152 380.63C449.76 380.415 449.335 380.308 448.878 380.308C448.411 380.308 447.982 380.415 447.59 380.63C447.207 380.835 446.899 381.153 446.666 381.582C446.432 382.011 446.316 382.534 446.316 383.15C446.316 383.775 446.428 384.303 446.652 384.732C446.885 385.161 447.193 385.483 447.576 385.698C447.958 385.903 448.378 386.006 448.836 386.006ZM454.011 383.15C454.011 382.357 454.169 381.666 454.487 381.078C454.804 380.481 455.243 380.019 455.803 379.692C456.372 379.365 457.021 379.202 457.749 379.202C458.691 379.202 459.466 379.431 460.073 379.888C460.689 380.345 461.095 380.98 461.291 381.792H459.919C459.788 381.325 459.531 380.957 459.149 380.686C458.775 380.415 458.309 380.28 457.749 380.28C457.021 380.28 456.433 380.532 455.985 381.036C455.537 381.531 455.313 382.235 455.313 383.15C455.313 384.074 455.537 384.788 455.985 385.292C456.433 385.796 457.021 386.048 457.749 386.048C458.309 386.048 458.775 385.917 459.149 385.656C459.522 385.395 459.779 385.021 459.919 384.536H461.291C461.085 385.32 460.675 385.95 460.059 386.426C459.443 386.893 458.673 387.126 457.749 387.126C457.021 387.126 456.372 386.963 455.803 386.636C455.243 386.309 454.804 385.847 454.487 385.25C454.169 384.653 454.011 383.953 454.011 383.15ZM463.691 378.082C463.448 378.082 463.243 377.998 463.075 377.83C462.907 377.662 462.823 377.457 462.823 377.214C462.823 376.971 462.907 376.766 463.075 376.598C463.243 376.43 463.448 376.346 463.691 376.346C463.924 376.346 464.12 376.43 464.279 376.598C464.447 376.766 464.531 376.971 464.531 377.214C464.531 377.457 464.447 377.662 464.279 377.83C464.12 377.998 463.924 378.082 463.691 378.082ZM464.307 379.328V387H463.033V379.328H464.307ZM466.044 383.136C466.044 382.352 466.203 381.666 466.52 381.078C466.837 380.481 467.271 380.019 467.822 379.692C468.382 379.365 469.003 379.202 469.684 379.202C470.356 379.202 470.939 379.347 471.434 379.636C471.929 379.925 472.297 380.289 472.54 380.728V379.328H473.828V387H472.54V385.572C472.288 386.02 471.91 386.393 471.406 386.692C470.911 386.981 470.333 387.126 469.67 387.126C468.989 387.126 468.373 386.958 467.822 386.622C467.271 386.286 466.837 385.815 466.52 385.208C466.203 384.601 466.044 383.911 466.044 383.136ZM472.54 383.15C472.54 382.571 472.423 382.067 472.19 381.638C471.957 381.209 471.639 380.882 471.238 380.658C470.846 380.425 470.412 380.308 469.936 380.308C469.46 380.308 469.026 380.42 468.634 380.644C468.242 380.868 467.929 381.195 467.696 381.624C467.463 382.053 467.346 382.557 467.346 383.136C467.346 383.724 467.463 384.237 467.696 384.676C467.929 385.105 468.242 385.437 468.634 385.67C469.026 385.894 469.46 386.006 469.936 386.006C470.412 386.006 470.846 385.894 471.238 385.67C471.639 385.437 471.957 385.105 472.19 384.676C472.423 384.237 472.54 383.729 472.54 383.15ZM477.297 376.64V387H476.023V376.64H477.297ZM492.511 379.188C493.108 379.188 493.64 379.314 494.107 379.566C494.573 379.809 494.942 380.177 495.213 380.672C495.483 381.167 495.619 381.769 495.619 382.478V387H494.359V382.66C494.359 381.895 494.167 381.311 493.785 380.91C493.411 380.499 492.903 380.294 492.259 380.294C491.596 380.294 491.069 380.509 490.677 380.938C490.285 381.358 490.089 381.969 490.089 382.772V387H488.829V382.66C488.829 381.895 488.637 381.311 488.255 380.91C487.881 380.499 487.373 380.294 486.729 380.294C486.066 380.294 485.539 380.509 485.147 380.938C484.755 381.358 484.559 381.969 484.559 382.772V387H483.285V379.328H484.559V380.434C484.811 380.033 485.147 379.725 485.567 379.51C485.996 379.295 486.467 379.188 486.981 379.188C487.625 379.188 488.194 379.333 488.689 379.622C489.183 379.911 489.552 380.336 489.795 380.896C490.009 380.355 490.364 379.935 490.859 379.636C491.353 379.337 491.904 379.188 492.511 379.188ZM504.75 382.87C504.75 383.113 504.736 383.369 504.708 383.64H498.576C498.623 384.396 498.88 384.989 499.346 385.418C499.822 385.838 500.396 386.048 501.068 386.048C501.619 386.048 502.076 385.922 502.44 385.67C502.814 385.409 503.075 385.063 503.224 384.634H504.596C504.391 385.371 503.98 385.973 503.364 386.44C502.748 386.897 501.983 387.126 501.068 387.126C500.34 387.126 499.687 386.963 499.108 386.636C498.539 386.309 498.091 385.847 497.764 385.25C497.438 384.643 497.274 383.943 497.274 383.15C497.274 382.357 497.433 381.661 497.75 381.064C498.068 380.467 498.511 380.009 499.08 379.692C499.659 379.365 500.322 379.202 501.068 379.202C501.796 379.202 502.44 379.361 503 379.678C503.56 379.995 503.99 380.434 504.288 380.994C504.596 381.545 504.75 382.17 504.75 382.87ZM503.434 382.604C503.434 382.119 503.327 381.703 503.112 381.358C502.898 381.003 502.604 380.737 502.23 380.56C501.866 380.373 501.46 380.28 501.012 380.28C500.368 380.28 499.818 380.485 499.36 380.896C498.912 381.307 498.656 381.876 498.59 382.604H503.434ZM505.998 383.136C505.998 382.352 506.157 381.666 506.474 381.078C506.791 380.481 507.225 380.019 507.776 379.692C508.336 379.365 508.961 379.202 509.652 379.202C510.249 379.202 510.805 379.342 511.318 379.622C511.831 379.893 512.223 380.252 512.494 380.7V376.64H513.782V387H512.494V385.558C512.242 386.015 511.869 386.393 511.374 386.692C510.879 386.981 510.301 387.126 509.638 387.126C508.957 387.126 508.336 386.958 507.776 386.622C507.225 386.286 506.791 385.815 506.474 385.208C506.157 384.601 505.998 383.911 505.998 383.136ZM512.494 383.15C512.494 382.571 512.377 382.067 512.144 381.638C511.911 381.209 511.593 380.882 511.192 380.658C510.8 380.425 510.366 380.308 509.89 380.308C509.414 380.308 508.98 380.42 508.588 380.644C508.196 380.868 507.883 381.195 507.65 381.624C507.417 382.053 507.3 382.557 507.3 383.136C507.3 383.724 507.417 384.237 507.65 384.676C507.883 385.105 508.196 385.437 508.588 385.67C508.98 385.894 509.414 386.006 509.89 386.006C510.366 386.006 510.8 385.894 511.192 385.67C511.593 385.437 511.911 385.105 512.144 384.676C512.377 384.237 512.494 383.729 512.494 383.15ZM516.635 378.082C516.392 378.082 516.187 377.998 516.019 377.83C515.851 377.662 515.767 377.457 515.767 377.214C515.767 376.971 515.851 376.766 516.019 376.598C516.187 376.43 516.392 376.346 516.635 376.346C516.868 376.346 517.064 376.43 517.223 376.598C517.391 376.766 517.475 376.971 517.475 377.214C517.475 377.457 517.391 377.662 517.223 377.83C517.064 377.998 516.868 378.082 516.635 378.082ZM517.251 379.328V387H515.977V379.328H517.251ZM518.988 383.136C518.988 382.352 519.147 381.666 519.464 381.078C519.782 380.481 520.216 380.019 520.766 379.692C521.326 379.365 521.947 379.202 522.628 379.202C523.3 379.202 523.884 379.347 524.378 379.636C524.873 379.925 525.242 380.289 525.484 380.728V379.328H526.772V387H525.484V385.572C525.232 386.02 524.854 386.393 524.35 386.692C523.856 386.981 523.277 387.126 522.614 387.126C521.933 387.126 521.317 386.958 520.766 386.622C520.216 386.286 519.782 385.815 519.464 385.208C519.147 384.601 518.988 383.911 518.988 383.136ZM525.484 383.15C525.484 382.571 525.368 382.067 525.134 381.638C524.901 381.209 524.584 380.882 524.182 380.658C523.79 380.425 523.356 380.308 522.88 380.308C522.404 380.308 521.97 380.42 521.578 380.644C521.186 380.868 520.874 381.195 520.64 381.624C520.407 382.053 520.29 382.557 520.29 383.136C520.29 383.724 520.407 384.237 520.64 384.676C520.874 385.105 521.186 385.437 521.578 385.67C521.97 385.894 522.404 386.006 522.88 386.006C523.356 386.006 523.79 385.894 524.182 385.67C524.584 385.437 524.901 385.105 525.134 384.676C525.368 384.237 525.484 383.729 525.484 383.15ZM450.647 399.136C450.647 398.352 450.806 397.666 451.123 397.078C451.44 396.481 451.874 396.019 452.425 395.692C452.985 395.365 453.606 395.202 454.287 395.202C454.959 395.202 455.542 395.347 456.037 395.636C456.532 395.925 456.9 396.289 457.143 396.728V395.328H458.431V403H457.143V401.572C456.891 402.02 456.513 402.393 456.009 402.692C455.514 402.981 454.936 403.126 454.273 403.126C453.592 403.126 452.976 402.958 452.425 402.622C451.874 402.286 451.44 401.815 451.123 401.208C450.806 400.601 450.647 399.911 450.647 399.136ZM457.143 399.15C457.143 398.571 457.026 398.067 456.793 397.638C456.56 397.209 456.242 396.882 455.841 396.658C455.449 396.425 455.015 396.308 454.539 396.308C454.063 396.308 453.629 396.42 453.237 396.644C452.845 396.868 452.532 397.195 452.299 397.624C452.066 398.053 451.949 398.557 451.949 399.136C451.949 399.724 452.066 400.237 452.299 400.676C452.532 401.105 452.845 401.437 453.237 401.67C453.629 401.894 454.063 402.006 454.539 402.006C455.015 402.006 455.449 401.894 455.841 401.67C456.242 401.437 456.56 401.105 456.793 400.676C457.026 400.237 457.143 399.729 457.143 399.15ZM464.364 395.188C465.297 395.188 466.053 395.473 466.632 396.042C467.21 396.602 467.5 397.414 467.5 398.478V403H466.24V398.66C466.24 397.895 466.048 397.311 465.666 396.91C465.283 396.499 464.76 396.294 464.098 396.294C463.426 396.294 462.889 396.504 462.488 396.924C462.096 397.344 461.9 397.955 461.9 398.758V403H460.626V395.328H461.9V396.42C462.152 396.028 462.492 395.725 462.922 395.51C463.36 395.295 463.841 395.188 464.364 395.188ZM469.147 399.136C469.147 398.352 469.306 397.666 469.623 397.078C469.94 396.481 470.374 396.019 470.925 395.692C471.485 395.365 472.106 395.202 472.787 395.202C473.459 395.202 474.042 395.347 474.537 395.636C475.032 395.925 475.4 396.289 475.643 396.728V395.328H476.931V403H475.643V401.572C475.391 402.02 475.013 402.393 474.509 402.692C474.014 402.981 473.436 403.126 472.773 403.126C472.092 403.126 471.476 402.958 470.925 402.622C470.374 402.286 469.94 401.815 469.623 401.208C469.306 400.601 469.147 399.911 469.147 399.136ZM475.643 399.15C475.643 398.571 475.526 398.067 475.293 397.638C475.06 397.209 474.742 396.882 474.341 396.658C473.949 396.425 473.515 396.308 473.039 396.308C472.563 396.308 472.129 396.42 471.737 396.644C471.345 396.868 471.032 397.195 470.799 397.624C470.566 398.053 470.449 398.557 470.449 399.136C470.449 399.724 470.566 400.237 470.799 400.676C471.032 401.105 471.345 401.437 471.737 401.67C472.129 401.894 472.563 402.006 473.039 402.006C473.515 402.006 473.949 401.894 474.341 401.67C474.742 401.437 475.06 401.105 475.293 400.676C475.526 400.237 475.643 399.729 475.643 399.15ZM480.4 392.64V403H479.126V392.64H480.4ZM489.221 395.328L484.601 406.612H483.285L484.797 402.916L481.703 395.328H483.117L485.525 401.544L487.905 395.328H489.221ZM492.098 396.378V400.9C492.098 401.273 492.177 401.539 492.336 401.698C492.494 401.847 492.77 401.922 493.162 401.922H494.1V403H492.952C492.242 403 491.71 402.837 491.356 402.51C491.001 402.183 490.824 401.647 490.824 400.9V396.378H489.83V395.328H490.824V393.396H492.098V395.328H494.1V396.378H492.098ZM496.343 394.082C496.101 394.082 495.895 393.998 495.727 393.83C495.559 393.662 495.475 393.457 495.475 393.214C495.475 392.971 495.559 392.766 495.727 392.598C495.895 392.43 496.101 392.346 496.343 392.346C496.577 392.346 496.773 392.43 496.931 392.598C497.099 392.766 497.183 392.971 497.183 393.214C497.183 393.457 497.099 393.662 496.931 393.83C496.773 393.998 496.577 394.082 496.343 394.082ZM496.959 395.328V403H495.685V395.328H496.959ZM498.697 399.15C498.697 398.357 498.855 397.666 499.173 397.078C499.49 396.481 499.929 396.019 500.489 395.692C501.058 395.365 501.707 395.202 502.435 395.202C503.377 395.202 504.152 395.431 504.759 395.888C505.375 396.345 505.781 396.98 505.977 397.792H504.605C504.474 397.325 504.217 396.957 503.835 396.686C503.461 396.415 502.995 396.28 502.435 396.28C501.707 396.28 501.119 396.532 500.671 397.036C500.223 397.531 499.999 398.235 499.999 399.15C499.999 400.074 500.223 400.788 500.671 401.292C501.119 401.796 501.707 402.048 502.435 402.048C502.995 402.048 503.461 401.917 503.835 401.656C504.208 401.395 504.465 401.021 504.605 400.536H505.977C505.771 401.32 505.361 401.95 504.745 402.426C504.129 402.893 503.359 403.126 502.435 403.126C501.707 403.126 501.058 402.963 500.489 402.636C499.929 402.309 499.49 401.847 499.173 401.25C498.855 400.653 498.697 399.953 498.697 399.15ZM510.435 403.126C509.847 403.126 509.319 403.028 508.853 402.832C508.386 402.627 508.017 402.347 507.747 401.992C507.476 401.628 507.327 401.213 507.299 400.746H508.615C508.652 401.129 508.829 401.441 509.147 401.684C509.473 401.927 509.898 402.048 510.421 402.048C510.906 402.048 511.289 401.941 511.569 401.726C511.849 401.511 511.989 401.241 511.989 400.914C511.989 400.578 511.839 400.331 511.541 400.172C511.242 400.004 510.78 399.841 510.155 399.682C509.585 399.533 509.119 399.383 508.755 399.234C508.4 399.075 508.092 398.847 507.831 398.548C507.579 398.24 507.453 397.839 507.453 397.344C507.453 396.952 507.569 396.593 507.803 396.266C508.036 395.939 508.367 395.683 508.797 395.496C509.226 395.3 509.716 395.202 510.267 395.202C511.116 395.202 511.802 395.417 512.325 395.846C512.847 396.275 513.127 396.863 513.165 397.61H511.891C511.863 397.209 511.699 396.887 511.401 396.644C511.111 396.401 510.719 396.28 510.225 396.28C509.767 396.28 509.403 396.378 509.133 396.574C508.862 396.77 508.727 397.027 508.727 397.344C508.727 397.596 508.806 397.806 508.965 397.974C509.133 398.133 509.338 398.263 509.581 398.366C509.833 398.459 510.178 398.567 510.617 398.688C511.167 398.837 511.615 398.987 511.961 399.136C512.306 399.276 512.6 399.491 512.843 399.78C513.095 400.069 513.225 400.447 513.235 400.914C513.235 401.334 513.118 401.712 512.885 402.048C512.651 402.384 512.32 402.65 511.891 402.846C511.471 403.033 510.985 403.126 510.435 403.126Z" fill="#666666"/>
<rect x="109" y="67" width="90" height="90" rx="20" fill="#034737"/>
<path d="M165.732 118.422L164.07 116.764C164.249 116.392 164.406 116.01 164.542 115.62H166.892C167.118 115.62 167.334 115.531 167.493 115.371C167.653 115.212 167.743 114.995 167.743 114.77V109.089C167.743 108.863 167.653 108.647 167.493 108.487C167.334 108.328 167.118 108.238 166.892 108.238H164.542C164.406 107.848 164.249 107.466 164.07 107.094L165.732 105.436C165.811 105.357 165.874 105.263 165.916 105.16C165.959 105.057 165.981 104.946 165.981 104.834C165.981 104.723 165.959 104.612 165.916 104.509C165.874 104.405 165.811 104.312 165.732 104.233L161.715 100.214C161.635 100.136 161.541 100.073 161.437 100.031C161.334 99.9885 161.223 99.9671 161.111 99.9677C160.886 99.9676 160.671 100.056 160.512 100.214L158.854 101.877C158.482 101.699 158.1 101.541 157.71 101.405V99.0535C157.71 98.828 157.621 98.6116 157.461 98.4522C157.302 98.2927 157.085 98.2031 156.86 98.2031H151.181C150.955 98.2031 150.739 98.2927 150.579 98.4522C150.42 98.6116 150.33 98.828 150.33 99.0535V101.405C149.941 101.541 149.559 101.699 149.187 101.877L147.529 100.214C147.366 100.061 147.151 99.975 146.928 99.975C146.704 99.975 146.489 100.061 146.326 100.214L142.309 104.233C142.23 104.312 142.167 104.405 142.124 104.509C142.082 104.612 142.06 104.723 142.06 104.834C142.06 104.946 142.082 105.057 142.124 105.16C142.167 105.263 142.23 105.357 142.309 105.436L143.971 107.094C143.792 107.466 143.634 107.848 143.499 108.238H141.148C140.923 108.238 140.707 108.328 140.547 108.487C140.388 108.647 140.298 108.863 140.298 109.089V114.77C140.298 114.995 140.388 115.212 140.547 115.371C140.707 115.531 140.923 115.62 141.148 115.62H143.499C143.634 116.01 143.792 116.392 143.971 116.764L142.309 118.422C142.23 118.501 142.167 118.595 142.124 118.698C142.082 118.802 142.06 118.912 142.06 119.024C142.06 119.136 142.082 119.246 142.124 119.35C142.167 119.453 142.23 119.547 142.309 119.626L146.326 123.644C146.405 123.723 146.5 123.785 146.603 123.828C146.707 123.87 146.818 123.891 146.93 123.891C147.154 123.891 147.37 123.802 147.529 123.644L149.187 121.981C149.559 122.16 149.941 122.317 150.33 122.453V124.805C150.33 125.03 150.42 125.247 150.579 125.406C150.739 125.566 150.955 125.655 151.181 125.655H156.86C157.085 125.655 157.302 125.566 157.461 125.406C157.621 125.247 157.71 125.03 157.71 124.805V122.453C158.1 122.317 158.482 122.16 158.854 121.981L160.512 123.644C160.674 123.798 160.889 123.883 161.113 123.883C161.337 123.883 161.552 123.798 161.715 123.644L165.732 119.626C165.811 119.547 165.874 119.453 165.916 119.35C165.959 119.246 165.981 119.136 165.981 119.024C165.981 118.912 165.959 118.802 165.916 118.698C165.874 118.595 165.811 118.501 165.732 118.422ZM161.111 121.824L159.615 120.327C159.484 120.197 159.315 120.114 159.132 120.088C158.95 120.063 158.764 120.098 158.603 120.187C157.977 120.533 157.314 120.807 156.626 121.003C156.449 121.054 156.293 121.161 156.182 121.309C156.07 121.456 156.01 121.635 156.01 121.82V123.946H152.031V121.82C152.031 121.635 151.97 121.456 151.859 121.309C151.748 121.161 151.592 121.054 151.414 121.003C150.727 120.807 150.064 120.533 149.438 120.187C149.277 120.098 149.091 120.063 148.908 120.088C148.726 120.114 148.557 120.197 148.426 120.327L146.93 121.837L144.116 119.022L145.612 117.525C145.742 117.394 145.826 117.225 145.851 117.043C145.876 116.86 145.842 116.674 145.752 116.513C145.405 115.887 145.132 115.224 144.936 114.536C144.885 114.358 144.778 114.202 144.631 114.091C144.484 113.98 144.304 113.92 144.12 113.919H141.994V109.939H144.12C144.304 109.939 144.484 109.879 144.631 109.767C144.778 109.656 144.885 109.5 144.936 109.323C145.132 108.634 145.405 107.971 145.752 107.345C145.842 107.184 145.876 106.998 145.851 106.816C145.826 106.633 145.742 106.464 145.612 106.333L144.116 104.837L146.93 102.022L148.426 103.518C148.557 103.648 148.726 103.732 148.908 103.757C149.091 103.783 149.277 103.748 149.438 103.659C150.064 103.313 150.727 103.039 151.414 102.842C151.592 102.791 151.748 102.684 151.859 102.537C151.97 102.39 152.031 102.21 152.031 102.026V99.8997H156.01V102.026C156.01 102.21 156.07 102.39 156.182 102.537C156.293 102.684 156.449 102.791 156.626 102.842C157.314 103.039 157.977 103.313 158.603 103.659C158.764 103.748 158.95 103.783 159.132 103.757C159.315 103.732 159.484 103.648 159.615 103.518L161.111 102.022L163.925 104.837L162.429 106.333C162.299 106.464 162.215 106.633 162.19 106.816C162.164 106.998 162.199 107.184 162.288 107.345C162.635 107.971 162.909 108.634 163.105 109.323C163.155 109.5 163.262 109.656 163.41 109.767C163.557 109.879 163.736 109.939 163.921 109.939H166.046V113.919H163.921C163.736 113.92 163.557 113.98 163.41 114.091C163.262 114.202 163.155 114.358 163.105 114.536C162.909 115.224 162.635 115.887 162.288 116.513C162.199 116.674 162.164 116.86 162.19 117.043C162.215 117.225 162.299 117.394 162.429 117.525L163.925 119.022L161.111 121.824ZM154.02 104.126C152.478 104.126 150.969 104.584 149.687 105.441C148.404 106.299 147.404 107.517 146.814 108.943C146.223 110.369 146.069 111.938 146.37 113.451C146.671 114.965 147.414 116.355 148.504 117.447C149.595 118.538 150.985 119.281 152.499 119.582C154.012 119.883 155.58 119.729 157.005 119.138C158.431 118.547 159.649 117.547 160.506 116.264C161.363 114.981 161.821 113.472 161.821 111.929C161.819 109.86 160.996 107.877 159.534 106.414C158.071 104.951 156.088 104.129 154.02 104.126ZM154.02 118.031C152.814 118.031 151.634 117.673 150.631 117.003C149.628 116.332 148.846 115.379 148.385 114.264C147.923 113.149 147.802 111.922 148.037 110.739C148.273 109.555 148.854 108.468 149.707 107.615C150.56 106.761 151.647 106.18 152.83 105.945C154.014 105.709 155.24 105.83 156.355 106.292C157.469 106.754 158.422 107.536 159.092 108.539C159.763 109.543 160.12 110.722 160.12 111.929C160.118 113.547 159.475 115.098 158.331 116.241C157.188 117.385 155.637 118.029 154.02 118.031ZM174 111.929C174 108.301 173.012 104.741 171.143 101.631C169.273 98.5215 166.593 95.9796 163.389 94.2782C160.185 92.5767 156.578 91.7799 152.956 91.9732C149.334 92.1665 145.832 93.3426 142.827 95.3753C142.103 94.7994 141.203 94.4887 140.277 94.4951C139.498 94.494 138.734 94.7153 138.076 95.1332C137.418 95.5511 136.893 96.1481 136.563 96.8541C136.233 97.5601 136.111 98.3458 136.211 99.1188C136.312 99.8918 136.631 100.62 137.131 101.218C134.673 105.076 133.612 109.662 134.127 114.208C134.642 118.754 136.7 122.986 139.959 126.197C143.218 129.408 147.479 131.403 152.031 131.85C156.584 132.296 161.151 131.166 164.971 128.649C165.757 129.295 166.755 129.626 167.771 129.576C168.786 129.526 169.748 129.1 170.467 128.38C171.185 127.661 171.611 126.699 171.66 125.683C171.709 124.666 171.378 123.668 170.731 122.883C172.871 119.631 174.008 115.822 174 111.929ZM140.298 96.196C140.934 96.196 141.544 96.4487 141.993 96.8985C142.443 97.3482 142.696 97.9582 142.696 98.5943C142.696 99.2303 142.443 99.8403 141.993 100.29C141.544 100.74 140.934 100.993 140.298 100.993C139.663 100.989 139.055 100.735 138.607 100.286C138.158 99.8374 137.904 99.2293 137.901 98.5943C137.902 97.9586 138.155 97.3492 138.604 96.8997C139.053 96.4502 139.663 96.1971 140.298 96.196ZM154.02 130.214C150.761 130.214 147.56 129.343 144.75 127.69C141.94 126.036 139.624 123.662 138.04 120.812C136.457 117.962 135.664 114.74 135.744 111.48C135.824 108.22 136.774 105.041 138.496 102.272H138.538C138.664 102.336 138.793 102.391 138.925 102.438C139.053 102.481 139.18 102.519 139.312 102.553L139.435 102.579C139.537 102.598 139.639 102.615 139.741 102.63H139.865C140.006 102.647 140.148 102.655 140.29 102.655C141.376 102.654 142.418 102.222 143.186 101.453C143.954 100.685 144.386 99.6428 144.388 98.556C144.388 98.4072 144.388 98.2583 144.362 98.1095C144.362 98.067 144.362 98.0245 144.362 97.982C144.345 97.8714 144.324 97.7608 144.298 97.6503L144.273 97.5312C144.235 97.3909 144.192 97.2506 144.141 97.106L144.116 97.0507C144.069 96.9317 144.013 96.8126 143.958 96.6978L143.933 96.6468C147.432 94.3145 151.629 93.2607 155.815 93.6628C160.001 94.065 163.92 95.8985 166.912 98.8544C169.904 101.81 171.786 105.708 172.24 109.89C172.694 114.071 171.693 118.282 169.405 121.811H169.354C169.238 121.752 169.119 121.7 168.997 121.654H168.958C168.819 121.605 168.677 121.564 168.533 121.531L168.414 121.501C168.308 121.501 168.202 121.458 168.095 121.446H167.972C167.831 121.429 167.689 121.421 167.547 121.42C166.46 121.421 165.419 121.854 164.651 122.622C163.882 123.39 163.45 124.432 163.449 125.519C163.449 125.661 163.458 125.803 163.475 125.945C163.475 125.987 163.475 126.03 163.475 126.072C163.475 126.178 163.509 126.285 163.53 126.391C163.538 126.431 163.548 126.471 163.56 126.51C163.592 126.654 163.633 126.796 163.683 126.935C163.681 126.952 163.681 126.969 163.683 126.986C163.725 127.104 163.775 127.219 163.832 127.331C163.838 127.35 163.847 127.368 163.857 127.386C160.916 129.251 157.502 130.232 154.02 130.214ZM167.551 127.867C166.932 127.84 166.347 127.576 165.919 127.129C165.49 126.682 165.25 126.086 165.25 125.466C165.25 124.846 165.49 124.251 165.919 123.803C166.347 123.356 166.932 123.092 167.551 123.066C168.117 123.067 168.664 123.265 169.099 123.627C169.48 123.943 169.754 124.37 169.884 124.848C170.014 125.326 169.992 125.833 169.823 126.299C169.653 126.764 169.344 127.166 168.937 127.449C168.531 127.732 168.047 127.882 167.551 127.879V127.867ZM158.038 108.953C158.117 109.032 158.179 109.125 158.222 109.229C158.265 109.332 158.287 109.443 158.287 109.554C158.287 109.666 158.265 109.777 158.222 109.88C158.179 109.983 158.117 110.077 158.038 110.156L153.302 114.906C153.223 114.985 153.129 115.048 153.026 115.09C152.923 115.133 152.812 115.155 152.7 115.155C152.589 115.155 152.478 115.133 152.375 115.09C152.272 115.048 152.178 114.985 152.099 114.906L150.003 112.805C149.844 112.646 149.754 112.429 149.754 112.203C149.754 111.978 149.844 111.761 150.003 111.602C150.163 111.442 150.379 111.353 150.605 111.353C150.83 111.353 151.047 111.442 151.206 111.602L152.698 113.099L156.834 108.953C156.913 108.874 157.007 108.811 157.11 108.768C157.214 108.725 157.324 108.703 157.436 108.703C157.548 108.703 157.658 108.725 157.762 108.768C157.865 108.811 157.959 108.874 158.038 108.953Z" fill="white" stroke="white" stroke-width="0.265763"/>
<rect x="323" y="67" width="90" height="90" rx="20" fill="#034737"/>
<circle cx="384.672" cy="94.8055" r="4.80553" transform="rotate(90 384.672 94.8055)" stroke="white" stroke-width="1.66667" stroke-linecap="round" stroke-linejoin="round"/>
<circle cx="384.672" cy="128.444" r="4.80553" transform="rotate(90 384.672 128.444)" stroke="white" stroke-width="1.66667" stroke-linecap="round" stroke-linejoin="round"/>
<circle cx="351.034" cy="94.8055" r="4.80553" transform="rotate(90 351.034 94.8055)" stroke="white" stroke-width="1.66667" stroke-linecap="round" stroke-linejoin="round"/>
<circle cx="351.034" cy="128.444" r="4.80553" transform="rotate(90 351.034 128.444)" stroke="white" stroke-width="1.66667" stroke-linecap="round" stroke-linejoin="round"/>
<path d="M379.867 94.8056H355.839" stroke="white" stroke-width="1.66667" stroke-linecap="round" stroke-linejoin="round"/>
<path d="M384.673 99.6111V123.639" stroke="white" stroke-width="1.66667" stroke-linecap="round" stroke-linejoin="round"/>
<path d="M351.034 99.6111V123.639" stroke="white" stroke-width="1.66667" stroke-linecap="round" stroke-linejoin="round"/>
<path d="M379.867 128.444H355.839" stroke="white" stroke-width="1.66667" stroke-linecap="round" stroke-linejoin="round"/>
<path d="M122.342 28.242L119.514 38H118.086L115.818 30.146L113.466 38L112.052 38.014L109.322 28.242H110.68L112.808 36.516L115.16 28.242H116.588L118.828 36.488L120.97 28.242H122.342ZM129.546 35.83H125.29L124.506 38H123.162L126.69 28.298H128.16L131.674 38H130.33L129.546 35.83ZM129.182 34.794L127.418 29.866L125.654 34.794H129.182ZM144.518 38L143.244 36.712C142.768 37.2067 142.26 37.5753 141.718 37.818C141.177 38.0513 140.566 38.168 139.884 38.168C139.212 38.168 138.615 38.0467 138.092 37.804C137.579 37.5613 137.178 37.216 136.888 36.768C136.608 36.32 136.468 35.7973 136.468 35.2C136.468 34.5187 136.66 33.9213 137.042 33.408C137.434 32.8853 138.008 32.4747 138.764 32.176C138.466 31.8213 138.251 31.4947 138.12 31.196C137.99 30.8973 137.924 30.5707 137.924 30.216C137.924 29.8053 138.027 29.4367 138.232 29.11C138.447 28.774 138.75 28.5127 139.142 28.326C139.534 28.1393 139.987 28.046 140.5 28.046C141.004 28.046 141.443 28.144 141.816 28.34C142.19 28.536 142.47 28.8113 142.656 29.166C142.843 29.5113 142.927 29.8987 142.908 30.328H141.634C141.644 29.9453 141.536 29.6467 141.312 29.432C141.088 29.208 140.799 29.096 140.444 29.096C140.071 29.096 139.768 29.2033 139.534 29.418C139.31 29.6233 139.198 29.8893 139.198 30.216C139.198 30.496 139.273 30.7667 139.422 31.028C139.581 31.2893 139.842 31.6113 140.206 31.994L143.118 34.92L143.37 34.528L144.322 32.932H145.694L144.546 34.92C144.388 35.2 144.201 35.494 143.986 35.802L146.184 38H144.518ZM139.884 37.076C140.388 37.076 140.841 36.978 141.242 36.782C141.653 36.586 142.04 36.2827 142.404 35.872L139.534 32.988C138.34 33.4453 137.742 34.1687 137.742 35.158C137.742 35.7087 137.938 36.166 138.33 36.53C138.732 36.894 139.25 37.076 139.884 37.076ZM157.2 28.242V29.278H154.54V38H153.266V29.278H150.592V28.242H157.2ZM165.81 33.87C165.81 34.1127 165.796 34.3693 165.768 34.64H159.636C159.683 35.396 159.94 35.9887 160.406 36.418C160.882 36.838 161.456 37.048 162.128 37.048C162.679 37.048 163.136 36.922 163.5 36.67C163.874 36.4087 164.135 36.0633 164.284 35.634H165.656C165.451 36.3713 165.04 36.9733 164.424 37.44C163.808 37.8973 163.043 38.126 162.128 38.126C161.4 38.126 160.747 37.9627 160.168 37.636C159.599 37.3093 159.151 36.8473 158.824 36.25C158.498 35.6433 158.334 34.9433 158.334 34.15C158.334 33.3567 158.493 32.6613 158.81 32.064C159.128 31.4667 159.571 31.0093 160.14 30.692C160.719 30.3653 161.382 30.202 162.128 30.202C162.856 30.202 163.5 30.3607 164.06 30.678C164.62 30.9953 165.05 31.434 165.348 31.994C165.656 32.5447 165.81 33.17 165.81 33.87ZM164.494 33.604C164.494 33.1187 164.387 32.7033 164.172 32.358C163.958 32.0033 163.664 31.7373 163.29 31.56C162.926 31.3733 162.52 31.28 162.072 31.28C161.428 31.28 160.878 31.4853 160.42 31.896C159.972 32.3067 159.716 32.876 159.65 33.604H164.494ZM168.808 27.64V38H167.534V27.64H168.808ZM109.602 50.136C109.602 49.352 109.761 48.666 110.078 48.078C110.395 47.4807 110.829 47.0187 111.38 46.692C111.94 46.3653 112.561 46.202 113.242 46.202C113.914 46.202 114.497 46.3467 114.992 46.636C115.487 46.9253 115.855 47.2893 116.098 47.728V46.328H117.386V54H116.098V52.572C115.846 53.02 115.468 53.3933 114.964 53.692C114.469 53.9813 113.891 54.126 113.228 54.126C112.547 54.126 111.931 53.958 111.38 53.622C110.829 53.286 110.395 52.8147 110.078 52.208C109.761 51.6013 109.602 50.9107 109.602 50.136ZM116.098 50.15C116.098 49.5713 115.981 49.0673 115.748 48.638C115.515 48.2087 115.197 47.882 114.796 47.658C114.404 47.4247 113.97 47.308 113.494 47.308C113.018 47.308 112.584 47.42 112.192 47.644C111.8 47.868 111.487 48.1947 111.254 48.624C111.021 49.0533 110.904 49.5573 110.904 50.136C110.904 50.724 111.021 51.2373 111.254 51.676C111.487 52.1053 111.8 52.4367 112.192 52.67C112.584 52.894 113.018 53.006 113.494 53.006C113.97 53.006 114.404 52.894 114.796 52.67C115.197 52.4367 115.515 52.1053 115.748 51.676C115.981 51.2373 116.098 50.7287 116.098 50.15ZM126.385 46.328V54H125.111V52.866C124.868 53.258 124.528 53.566 124.089 53.79C123.66 54.0047 123.184 54.112 122.661 54.112C122.064 54.112 121.527 53.9907 121.051 53.748C120.575 53.496 120.197 53.1227 119.917 52.628C119.646 52.1333 119.511 51.5313 119.511 50.822V46.328H120.771V50.654C120.771 51.41 120.962 51.9933 121.345 52.404C121.728 52.8053 122.25 53.006 122.913 53.006C123.594 53.006 124.131 52.796 124.523 52.376C124.915 51.956 125.111 51.3447 125.111 50.542V46.328H126.385ZM130.132 47.378V51.9C130.132 52.2733 130.211 52.5393 130.37 52.698C130.529 52.8473 130.804 52.922 131.196 52.922H132.134V54H130.986C130.277 54 129.745 53.8367 129.39 53.51C129.035 53.1833 128.858 52.6467 128.858 51.9V47.378H127.864V46.328H128.858V44.396H130.132V46.328H132.134V47.378H130.132ZM137.066 54.126C136.347 54.126 135.694 53.9627 135.106 53.636C134.527 53.3093 134.07 52.8473 133.734 52.25C133.407 51.6433 133.244 50.9433 133.244 50.15C133.244 49.366 133.412 48.6753 133.748 48.078C134.093 47.4713 134.56 47.0093 135.148 46.692C135.736 46.3653 136.394 46.202 137.122 46.202C137.85 46.202 138.508 46.3653 139.096 46.692C139.684 47.0093 140.146 47.4667 140.482 48.064C140.827 48.6613 141 49.3567 141 50.15C141 50.9433 140.822 51.6433 140.468 52.25C140.122 52.8473 139.651 53.3093 139.054 53.636C138.456 53.9627 137.794 54.126 137.066 54.126ZM137.066 53.006C137.523 53.006 137.952 52.8987 138.354 52.684C138.755 52.4693 139.077 52.1473 139.32 51.718C139.572 51.2887 139.698 50.766 139.698 50.15C139.698 49.534 139.576 49.0113 139.334 48.582C139.091 48.1527 138.774 47.8353 138.382 47.63C137.99 47.4153 137.565 47.308 137.108 47.308C136.641 47.308 136.212 47.4153 135.82 47.63C135.437 47.8353 135.129 48.1527 134.896 48.582C134.662 49.0113 134.546 49.534 134.546 50.15C134.546 50.7753 134.658 51.3027 134.882 51.732C135.115 52.1613 135.423 52.4833 135.806 52.698C136.188 52.9033 136.608 53.006 137.066 53.006ZM151.943 46.188C152.54 46.188 153.072 46.314 153.539 46.566C154.005 46.8087 154.374 47.1773 154.645 47.672C154.915 48.1667 155.051 48.7687 155.051 49.478V54H153.791V49.66C153.791 48.8947 153.599 48.3113 153.217 47.91C152.843 47.4993 152.335 47.294 151.691 47.294C151.028 47.294 150.501 47.5087 150.109 47.938C149.717 48.358 149.521 48.9693 149.521 49.772V54H148.261V49.66C148.261 48.8947 148.069 48.3113 147.687 47.91C147.313 47.4993 146.805 47.294 146.161 47.294C145.498 47.294 144.971 47.5087 144.579 47.938C144.187 48.358 143.991 48.9693 143.991 49.772V54H142.717V46.328H143.991V47.434C144.243 47.0327 144.579 46.7247 144.999 46.51C145.428 46.2953 145.899 46.188 146.413 46.188C147.057 46.188 147.626 46.3327 148.121 46.622C148.615 46.9113 148.984 47.336 149.227 47.896C149.441 47.3547 149.796 46.9347 150.291 46.636C150.785 46.3373 151.336 46.188 151.943 46.188ZM156.707 50.136C156.707 49.352 156.865 48.666 157.183 48.078C157.5 47.4807 157.934 47.0187 158.485 46.692C159.045 46.3653 159.665 46.202 160.347 46.202C161.019 46.202 161.602 46.3467 162.097 46.636C162.591 46.9253 162.96 47.2893 163.203 47.728V46.328H164.491V54H163.203V52.572C162.951 53.02 162.573 53.3933 162.069 53.692C161.574 53.9813 160.995 54.126 160.333 54.126C159.651 54.126 159.035 53.958 158.485 53.622C157.934 53.286 157.5 52.8147 157.183 52.208C156.865 51.6013 156.707 50.9107 156.707 50.136ZM163.203 50.15C163.203 49.5713 163.086 49.0673 162.853 48.638C162.619 48.2087 162.302 47.882 161.901 47.658C161.509 47.4247 161.075 47.308 160.599 47.308C160.123 47.308 159.689 47.42 159.297 47.644C158.905 47.868 158.592 48.1947 158.359 48.624C158.125 49.0533 158.009 49.5573 158.009 50.136C158.009 50.724 158.125 51.2373 158.359 51.676C158.592 52.1053 158.905 52.4367 159.297 52.67C159.689 52.894 160.123 53.006 160.599 53.006C161.075 53.006 161.509 52.894 161.901 52.67C162.302 52.4367 162.619 52.1053 162.853 51.676C163.086 51.2373 163.203 50.7287 163.203 50.15ZM168.239 47.378V51.9C168.239 52.2733 168.319 52.5393 168.477 52.698C168.636 52.8473 168.911 52.922 169.303 52.922H170.241V54H169.093C168.384 54 167.852 53.8367 167.497 53.51C167.143 53.1833 166.965 52.6467 166.965 51.9V47.378H165.971V46.328H166.965V44.396H168.239V46.328H170.241V47.378H168.239ZM172.485 45.082C172.242 45.082 172.037 44.998 171.869 44.83C171.701 44.662 171.617 44.4567 171.617 44.214C171.617 43.9713 171.701 43.766 171.869 43.598C172.037 43.43 172.242 43.346 172.485 43.346C172.718 43.346 172.914 43.43 173.073 43.598C173.241 43.766 173.325 43.9713 173.325 44.214C173.325 44.4567 173.241 44.662 173.073 44.83C172.914 44.998 172.718 45.082 172.485 45.082ZM173.101 46.328V54H171.827V46.328H173.101ZM178.66 54.126C177.942 54.126 177.288 53.9627 176.7 53.636C176.122 53.3093 175.664 52.8473 175.328 52.25C175.002 51.6433 174.838 50.9433 174.838 50.15C174.838 49.366 175.006 48.6753 175.342 48.078C175.688 47.4713 176.154 47.0093 176.742 46.692C177.33 46.3653 177.988 46.202 178.716 46.202C179.444 46.202 180.102 46.3653 180.69 46.692C181.278 47.0093 181.74 47.4667 182.076 48.064C182.422 48.6613 182.594 49.3567 182.594 50.15C182.594 50.9433 182.417 51.6433 182.062 52.25C181.717 52.8473 181.246 53.3093 180.648 53.636C180.051 53.9627 179.388 54.126 178.66 54.126ZM178.66 53.006C179.118 53.006 179.547 52.8987 179.948 52.684C180.35 52.4693 180.672 52.1473 180.914 51.718C181.166 51.2887 181.292 50.766 181.292 50.15C181.292 49.534 181.171 49.0113 180.928 48.582C180.686 48.1527 180.368 47.8353 179.976 47.63C179.584 47.4153 179.16 47.308 178.702 47.308C178.236 47.308 177.806 47.4153 177.414 47.63C177.032 47.8353 176.724 48.1527 176.49 48.582C176.257 49.0113 176.14 49.534 176.14 50.15C176.14 50.7753 176.252 51.3027 176.476 51.732C176.71 52.1613 177.018 52.4833 177.4 52.698C177.783 52.9033 178.203 53.006 178.66 53.006ZM188.049 46.188C188.983 46.188 189.739 46.4727 190.317 47.042C190.896 47.602 191.185 48.414 191.185 49.478V54H189.925V49.66C189.925 48.8947 189.734 48.3113 189.351 47.91C188.969 47.4993 188.446 47.294 187.783 47.294C187.111 47.294 186.575 47.504 186.173 47.924C185.781 48.344 185.585 48.9553 185.585 49.758V54H184.311V46.328H185.585V47.42C185.837 47.028 186.178 46.7247 186.607 46.51C187.046 46.2953 187.527 46.188 188.049 46.188Z" fill="#666666"/>
<path d="M335.418 54.098C334.774 54.098 334.195 53.986 333.682 53.762C333.178 53.5287 332.781 53.2113 332.492 52.81C332.202 52.3993 332.053 51.928 332.044 51.396H333.402C333.448 51.8533 333.635 52.2407 333.962 52.558C334.298 52.866 334.783 53.02 335.418 53.02C336.024 53.02 336.5 52.8707 336.846 52.572C337.2 52.264 337.378 51.872 337.378 51.396C337.378 51.0227 337.275 50.7193 337.07 50.486C336.864 50.2527 336.608 50.0753 336.3 49.954C335.992 49.8327 335.576 49.702 335.054 49.562C334.41 49.394 333.892 49.226 333.5 49.058C333.117 48.89 332.786 48.6287 332.506 48.274C332.235 47.91 332.1 47.4247 332.1 46.818C332.1 46.286 332.235 45.8147 332.506 45.404C332.776 44.9933 333.154 44.676 333.64 44.452C334.134 44.228 334.699 44.116 335.334 44.116C336.248 44.116 336.995 44.3447 337.574 44.802C338.162 45.2593 338.493 45.866 338.568 46.622H337.168C337.121 46.2487 336.925 45.922 336.58 45.642C336.234 45.3527 335.777 45.208 335.208 45.208C334.676 45.208 334.242 45.348 333.906 45.628C333.57 45.8987 333.402 46.2813 333.402 46.776C333.402 47.1307 333.5 47.42 333.696 47.644C333.901 47.868 334.148 48.0407 334.438 48.162C334.736 48.274 335.152 48.4047 335.684 48.554C336.328 48.7313 336.846 48.9087 337.238 49.086C337.63 49.254 337.966 49.52 338.246 49.884C338.526 50.2387 338.666 50.724 338.666 51.34C338.666 51.816 338.54 52.264 338.288 52.684C338.036 53.104 337.662 53.4447 337.168 53.706C336.673 53.9673 336.09 54.098 335.418 54.098ZM343.928 54.126C343.21 54.126 342.556 53.9627 341.968 53.636C341.39 53.3093 340.932 52.8473 340.596 52.25C340.27 51.6433 340.106 50.9433 340.106 50.15C340.106 49.366 340.274 48.6753 340.61 48.078C340.956 47.4713 341.422 47.0093 342.01 46.692C342.598 46.3653 343.256 46.202 343.984 46.202C344.712 46.202 345.37 46.3653 345.958 46.692C346.546 47.0093 347.008 47.4667 347.344 48.064C347.69 48.6613 347.862 49.3567 347.862 50.15C347.862 50.9433 347.685 51.6433 347.33 52.25C346.985 52.8473 346.514 53.3093 345.916 53.636C345.319 53.9627 344.656 54.126 343.928 54.126ZM343.928 53.006C344.386 53.006 344.815 52.8987 345.216 52.684C345.618 52.4693 345.94 52.1473 346.182 51.718C346.434 51.2887 346.56 50.766 346.56 50.15C346.56 49.534 346.439 49.0113 346.196 48.582C345.954 48.1527 345.636 47.8353 345.244 47.63C344.852 47.4153 344.428 47.308 343.97 47.308C343.504 47.308 343.074 47.4153 342.682 47.63C342.3 47.8353 341.992 48.1527 341.758 48.582C341.525 49.0113 341.408 49.534 341.408 50.15C341.408 50.7753 341.52 51.3027 341.744 51.732C341.978 52.1613 342.286 52.4833 342.668 52.698C343.051 52.9033 343.471 53.006 343.928 53.006ZM349.103 50.15C349.103 49.3567 349.262 48.666 349.579 48.078C349.897 47.4807 350.335 47.0187 350.895 46.692C351.465 46.3653 352.113 46.202 352.841 46.202C353.784 46.202 354.559 46.4307 355.165 46.888C355.781 47.3453 356.187 47.98 356.383 48.792H355.011C354.881 48.3253 354.624 47.9567 354.241 47.686C353.868 47.4153 353.401 47.28 352.841 47.28C352.113 47.28 351.525 47.532 351.077 48.036C350.629 48.5307 350.405 49.2353 350.405 50.15C350.405 51.074 350.629 51.788 351.077 52.292C351.525 52.796 352.113 53.048 352.841 53.048C353.401 53.048 353.868 52.9173 354.241 52.656C354.615 52.3947 354.871 52.0213 355.011 51.536H356.383C356.178 52.32 355.767 52.95 355.151 53.426C354.535 53.8927 353.765 54.126 352.841 54.126C352.113 54.126 351.465 53.9627 350.895 53.636C350.335 53.3093 349.897 52.8473 349.579 52.25C349.262 51.6527 349.103 50.9527 349.103 50.15ZM358.783 45.082C358.541 45.082 358.335 44.998 358.167 44.83C357.999 44.662 357.915 44.4567 357.915 44.214C357.915 43.9713 357.999 43.766 358.167 43.598C358.335 43.43 358.541 43.346 358.783 43.346C359.017 43.346 359.213 43.43 359.371 43.598C359.539 43.766 359.623 43.9713 359.623 44.214C359.623 44.4567 359.539 44.662 359.371 44.83C359.213 44.998 359.017 45.082 358.783 45.082ZM359.399 46.328V54H358.125V46.328H359.399ZM361.137 50.136C361.137 49.352 361.295 48.666 361.613 48.078C361.93 47.4807 362.364 47.0187 362.915 46.692C363.475 46.3653 364.095 46.202 364.777 46.202C365.449 46.202 366.032 46.3467 366.527 46.636C367.021 46.9253 367.39 47.2893 367.633 47.728V46.328H368.921V54H367.633V52.572C367.381 53.02 367.003 53.3933 366.499 53.692C366.004 53.9813 365.425 54.126 364.763 54.126C364.081 54.126 363.465 53.958 362.915 53.622C362.364 53.286 361.93 52.8147 361.613 52.208C361.295 51.6013 361.137 50.9107 361.137 50.136ZM367.633 50.15C367.633 49.5713 367.516 49.0673 367.283 48.638C367.049 48.2087 366.732 47.882 366.331 47.658C365.939 47.4247 365.505 47.308 365.029 47.308C364.553 47.308 364.119 47.42 363.727 47.644C363.335 47.868 363.022 48.1947 362.789 48.624C362.555 49.0533 362.439 49.5573 362.439 50.136C362.439 50.724 362.555 51.2373 362.789 51.676C363.022 52.1053 363.335 52.4367 363.727 52.67C364.119 52.894 364.553 53.006 365.029 53.006C365.505 53.006 365.939 52.894 366.331 52.67C366.732 52.4367 367.049 52.1053 367.283 51.676C367.516 51.2373 367.633 50.7287 367.633 50.15ZM372.39 43.64V54H371.116V43.64H372.39ZM382.185 46.188C382.764 46.188 383.287 46.314 383.753 46.566C384.22 46.8087 384.584 47.1773 384.845 47.672C385.116 48.1667 385.251 48.7687 385.251 49.478V54H383.991V49.66C383.991 48.8947 383.8 48.3113 383.417 47.91C383.035 47.4993 382.512 47.294 381.849 47.294C381.177 47.294 380.641 47.504 380.239 47.924C379.847 48.344 379.651 48.9553 379.651 49.758V54H378.377V43.64H379.651V47.42C379.903 47.028 380.249 46.7247 380.687 46.51C381.135 46.2953 381.635 46.188 382.185 46.188ZM394.178 46.328V54H392.904V52.866C392.662 53.258 392.321 53.566 391.882 53.79C391.453 54.0047 390.977 54.112 390.454 54.112C389.857 54.112 389.32 53.9907 388.844 53.748C388.368 53.496 387.99 53.1227 387.71 52.628C387.44 52.1333 387.304 51.5313 387.304 50.822V46.328H388.564V50.654C388.564 51.41 388.756 51.9933 389.138 52.404C389.521 52.8053 390.044 53.006 390.706 53.006C391.388 53.006 391.924 52.796 392.316 52.376C392.708 51.956 392.904 51.3447 392.904 50.542V46.328H394.178ZM397.645 47.756C397.907 47.2987 398.289 46.9253 398.793 46.636C399.297 46.3467 399.871 46.202 400.515 46.202C401.206 46.202 401.827 46.3653 402.377 46.692C402.928 47.0187 403.362 47.4807 403.679 48.078C403.997 48.666 404.155 49.352 404.155 50.136C404.155 50.9107 403.997 51.6013 403.679 52.208C403.362 52.8147 402.923 53.286 402.363 53.622C401.813 53.958 401.197 54.126 400.515 54.126C399.853 54.126 399.269 53.9813 398.765 53.692C398.271 53.4027 397.897 53.034 397.645 52.586V54H396.371V43.64H397.645V47.756ZM402.853 50.136C402.853 49.5573 402.737 49.0533 402.503 48.624C402.27 48.1947 401.953 47.868 401.551 47.644C401.159 47.42 400.725 47.308 400.249 47.308C399.783 47.308 399.349 47.4247 398.947 47.658C398.555 47.882 398.238 48.2133 397.995 48.652C397.762 49.0813 397.645 49.5807 397.645 50.15C397.645 50.7287 397.762 51.2373 397.995 51.676C398.238 52.1053 398.555 52.4367 398.947 52.67C399.349 52.894 399.783 53.006 400.249 53.006C400.725 53.006 401.159 52.894 401.551 52.67C401.953 52.4367 402.27 52.1053 402.503 51.676C402.737 51.2373 402.853 50.724 402.853 50.136Z" fill="#666666"/>
<line x1="639" y1="222.5" y2="222.5" stroke="#034737" stroke-dasharray="6 6"/>
<path d="M160 222.5L155 219.613V225.387L160 222.5ZM150.769 222H144.615V223H150.769V222ZM138.462 222H132.308V223H138.462V222ZM126.154 222H120V223H126.154V222ZM113.846 222H107.692V223H113.846V222ZM101.538 222H95.3846V223H101.538V222ZM89.2308 222H83.0769V223H89.2308V222ZM76.9231 222H70.7692V223H76.9231V222ZM64.6154 222H58.4615V223H64.6154V222ZM52.3077 222H46.1538V223H52.3077V222ZM40 222H33.8461V223H40V222ZM27.6923 222H21.5385V223H27.6923V222ZM15.3846 222H9.23079V223H15.3846V222ZM3.07695 222H0V223H3.07695V222Z" fill="#034737"/>
<path d="M570 222.5L565 219.613V225.387L570 222.5ZM560.769 222H554.615V223H560.769V222ZM548.462 222H542.308V223H548.462V222ZM536.154 222H530V223H536.154V222ZM523.846 222H517.692V223H523.846V222ZM511.538 222H505.385V223H511.538V222ZM499.231 222H493.077V223H499.231V222ZM486.923 222H480.769V223H486.923V222ZM474.615 222H468.462V223H474.615V222ZM462.308 222H456.154V223H462.308V222ZM450 222H443.846V223H450V222ZM437.692 222H431.538V223H437.692V222ZM425.385 222H419.231V223H425.385V222ZM413.077 222H410V223H413.077V222Z" fill="#034737"/>
</svg>
