<svg width="663" height="333" viewBox="0 0 663 333" fill="none" xmlns="http://www.w3.org/2000/svg">
<g clip-path="url(#clip0_68_1519)">
<rect width="663" height="333" fill="#F4F6F6"/>
<rect x="20.36" y="20.36" width="416.28" height="32.2801" rx="16.14" fill="white"/>
<rect x="20.36" y="20.36" width="416.28" height="32.2801" rx="16.14" stroke="#EBEBEB" stroke-width="0.719942"/>
<path d="M49.602 35.098C49.602 35.91 49.322 36.5867 48.762 37.128C48.2113 37.66 47.3667 37.926 46.228 37.926H44.352V42H43.078V32.242H46.228C47.3293 32.242 48.1647 32.508 48.734 33.04C49.3127 33.572 49.602 34.258 49.602 35.098ZM46.228 36.876C46.9373 36.876 47.46 36.722 47.796 36.414C48.132 36.106 48.3 35.6673 48.3 35.098C48.3 33.894 47.6093 33.292 46.228 33.292H44.352V36.876H46.228ZM52.4594 31.64V42H51.1854V31.64H52.4594ZM54.1547 38.136C54.1547 37.352 54.3134 36.666 54.6307 36.078C54.9481 35.4807 55.3821 35.0187 55.9327 34.692C56.4927 34.3653 57.1134 34.202 57.7947 34.202C58.4667 34.202 59.0501 34.3467 59.5447 34.636C60.0394 34.9253 60.4081 35.2893 60.6507 35.728V34.328H61.9387V42H60.6507V40.572C60.3987 41.02 60.0207 41.3933 59.5167 41.692C59.0221 41.9813 58.4434 42.126 57.7807 42.126C57.0994 42.126 56.4834 41.958 55.9327 41.622C55.3821 41.286 54.9481 40.8147 54.6307 40.208C54.3134 39.6013 54.1547 38.9107 54.1547 38.136ZM60.6507 38.15C60.6507 37.5713 60.5341 37.0673 60.3007 36.638C60.0674 36.2087 59.7501 35.882 59.3487 35.658C58.9567 35.4247 58.5227 35.308 58.0467 35.308C57.5707 35.308 57.1367 35.42 56.7447 35.644C56.3527 35.868 56.0401 36.1947 55.8067 36.624C55.5734 37.0533 55.4567 37.5573 55.4567 38.136C55.4567 38.724 55.5734 39.2373 55.8067 39.676C56.0401 40.1053 56.3527 40.4367 56.7447 40.67C57.1367 40.894 57.5707 41.006 58.0467 41.006C58.5227 41.006 58.9567 40.894 59.3487 40.67C59.7501 40.4367 60.0674 40.1053 60.3007 39.676C60.5341 39.2373 60.6507 38.7287 60.6507 38.15ZM67.8297 34.188C68.763 34.188 69.519 34.4727 70.0977 35.042C70.6763 35.602 70.9657 36.414 70.9657 37.478V42H69.7057V37.66C69.7057 36.8947 69.5143 36.3113 69.1317 35.91C68.749 35.4993 68.2263 35.294 67.5637 35.294C66.8917 35.294 66.355 35.504 65.9537 35.924C65.5617 36.344 65.3657 36.9553 65.3657 37.758V42H64.0917V34.328H65.3657V35.42C65.6177 35.028 65.9583 34.7247 66.3877 34.51C66.8263 34.2953 67.307 34.188 67.8297 34.188ZM76.3032 38.136C76.3032 37.352 76.4618 36.666 76.7792 36.078C77.0965 35.4807 77.5305 35.0187 78.0812 34.692C78.6412 34.3653 79.2618 34.202 79.9432 34.202C80.6152 34.202 81.1985 34.3467 81.6932 34.636C82.1878 34.9253 82.5565 35.2893 82.7992 35.728V34.328H84.0872V42H82.7992V40.572C82.5472 41.02 82.1692 41.3933 81.6652 41.692C81.1705 41.9813 80.5918 42.126 79.9292 42.126C79.2478 42.126 78.6318 41.958 78.0812 41.622C77.5305 41.286 77.0965 40.8147 76.7792 40.208C76.4618 39.6013 76.3032 38.9107 76.3032 38.136ZM82.7992 38.15C82.7992 37.5713 82.6825 37.0673 82.4492 36.638C82.2158 36.2087 81.8985 35.882 81.4972 35.658C81.1052 35.4247 80.6712 35.308 80.1952 35.308C79.7192 35.308 79.2852 35.42 78.8932 35.644C78.5012 35.868 78.1885 36.1947 77.9552 36.624C77.7218 37.0533 77.6052 37.5573 77.6052 38.136C77.6052 38.724 77.7218 39.2373 77.9552 39.676C78.1885 40.1053 78.5012 40.4367 78.8932 40.67C79.2852 40.894 79.7192 41.006 80.1952 41.006C80.6712 41.006 81.1052 40.894 81.4972 40.67C81.8985 40.4367 82.2158 40.1053 82.4492 39.676C82.6825 39.2373 82.7992 38.7287 82.7992 38.15ZM89.9781 34.188C90.9114 34.188 91.6674 34.4727 92.2461 35.042C92.8248 35.602 93.1141 36.414 93.1141 37.478V42H91.8541V37.66C91.8541 36.8947 91.6628 36.3113 91.2801 35.91C90.8974 35.4993 90.3748 35.294 89.7121 35.294C89.0401 35.294 88.5034 35.504 88.1021 35.924C87.7101 36.344 87.5141 36.9553 87.5141 37.758V42H86.2401V34.328H87.5141V35.42C87.7661 35.028 88.1068 34.7247 88.5361 34.51C88.9748 34.2953 89.4554 34.188 89.9781 34.188ZM94.7192 38.136C94.7192 37.352 94.8779 36.666 95.1952 36.078C95.5125 35.4807 95.9465 35.0187 96.4972 34.692C97.0572 34.3653 97.6825 34.202 98.3732 34.202C98.9705 34.202 99.5259 34.342 100.039 34.622C100.553 34.8927 100.945 35.252 101.215 35.7V31.64H102.503V42H101.215V40.558C100.963 41.0153 100.59 41.3933 100.095 41.692C99.6005 41.9813 99.0219 42.126 98.3592 42.126C97.6779 42.126 97.0572 41.958 96.4972 41.622C95.9465 41.286 95.5125 40.8147 95.1952 40.208C94.8779 39.6013 94.7192 38.9107 94.7192 38.136ZM101.215 38.15C101.215 37.5713 101.099 37.0673 100.865 36.638C100.632 36.2087 100.315 35.882 99.9132 35.658C99.5212 35.4247 99.0872 35.308 98.6112 35.308C98.1352 35.308 97.7012 35.42 97.3092 35.644C96.9172 35.868 96.6045 36.1947 96.3712 36.624C96.1379 37.0533 96.0212 37.5573 96.0212 38.136C96.0212 38.724 96.1379 39.2373 96.3712 39.676C96.6045 40.1053 96.9172 40.4367 97.3092 40.67C97.7012 40.894 98.1352 41.006 98.6112 41.006C99.0872 41.006 99.5212 40.894 99.9132 40.67C100.315 40.4367 100.632 40.1053 100.865 39.676C101.099 39.2373 101.215 38.7287 101.215 38.15ZM107.913 38.136C107.913 37.352 108.071 36.666 108.389 36.078C108.706 35.4807 109.14 35.0187 109.691 34.692C110.251 34.3653 110.871 34.202 111.553 34.202C112.225 34.202 112.808 34.3467 113.303 34.636C113.797 34.9253 114.166 35.2893 114.409 35.728V34.328H115.697V42H114.409V40.572C114.157 41.02 113.779 41.3933 113.275 41.692C112.78 41.9813 112.201 42.126 111.539 42.126C110.857 42.126 110.241 41.958 109.691 41.622C109.14 41.286 108.706 40.8147 108.389 40.208C108.071 39.6013 107.913 38.9107 107.913 38.136ZM114.409 38.15C114.409 37.5713 114.292 37.0673 114.059 36.638C113.825 36.2087 113.508 35.882 113.107 35.658C112.715 35.4247 112.281 35.308 111.805 35.308C111.329 35.308 110.895 35.42 110.503 35.644C110.111 35.868 109.798 36.1947 109.565 36.624C109.331 37.0533 109.215 37.5573 109.215 38.136C109.215 38.724 109.331 39.2373 109.565 39.676C109.798 40.1053 110.111 40.4367 110.503 40.67C110.895 40.894 111.329 41.006 111.805 41.006C112.281 41.006 112.715 40.894 113.107 40.67C113.508 40.4367 113.825 40.1053 114.059 39.676C114.292 39.2373 114.409 38.7287 114.409 38.15ZM124.653 34.328V42H123.379V40.866C123.137 41.258 122.796 41.566 122.357 41.79C121.928 42.0047 121.452 42.112 120.929 42.112C120.332 42.112 119.795 41.9907 119.319 41.748C118.843 41.496 118.465 41.1227 118.185 40.628C117.915 40.1333 117.779 39.5313 117.779 38.822V34.328H119.039V38.654C119.039 39.41 119.231 39.9933 119.613 40.404C119.996 40.8053 120.519 41.006 121.181 41.006C121.863 41.006 122.399 40.796 122.791 40.376C123.183 39.956 123.379 39.3447 123.379 38.542V34.328H124.653ZM128.359 35.378V39.9C128.359 40.2733 128.438 40.5393 128.597 40.698C128.755 40.8473 129.031 40.922 129.423 40.922H130.361V42H129.213C128.503 42 127.971 41.8367 127.617 41.51C127.262 41.1833 127.085 40.6467 127.085 39.9V35.378H126.091V34.328H127.085V32.396H128.359V34.328H130.361V35.378H128.359ZM135.25 42.126C134.532 42.126 133.878 41.9627 133.29 41.636C132.712 41.3093 132.254 40.8473 131.918 40.25C131.592 39.6433 131.428 38.9433 131.428 38.15C131.428 37.366 131.596 36.6753 131.932 36.078C132.278 35.4713 132.744 35.0093 133.332 34.692C133.92 34.3653 134.578 34.202 135.306 34.202C136.034 34.202 136.692 34.3653 137.28 34.692C137.868 35.0093 138.33 35.4667 138.666 36.064C139.012 36.6613 139.184 37.3567 139.184 38.15C139.184 38.9433 139.007 39.6433 138.652 40.25C138.307 40.8473 137.836 41.3093 137.238 41.636C136.641 41.9627 135.978 42.126 135.25 42.126ZM135.25 41.006C135.708 41.006 136.137 40.8987 136.538 40.684C136.94 40.4693 137.262 40.1473 137.504 39.718C137.756 39.2887 137.882 38.766 137.882 38.15C137.882 37.534 137.761 37.0113 137.518 36.582C137.276 36.1527 136.958 35.8353 136.566 35.63C136.174 35.4153 135.75 35.308 135.292 35.308C134.826 35.308 134.396 35.4153 134.004 35.63C133.622 35.8353 133.314 36.1527 133.08 36.582C132.847 37.0113 132.73 37.534 132.73 38.15C132.73 38.7753 132.842 39.3027 133.066 39.732C133.3 40.1613 133.608 40.4833 133.99 40.698C134.373 40.9033 134.793 41.006 135.25 41.006ZM150.085 34.188C150.683 34.188 151.215 34.314 151.681 34.566C152.148 34.8087 152.517 35.1773 152.787 35.672C153.058 36.1667 153.193 36.7687 153.193 37.478V42H151.933V37.66C151.933 36.8947 151.742 36.3113 151.359 35.91C150.986 35.4993 150.477 35.294 149.833 35.294C149.171 35.294 148.643 35.5087 148.251 35.938C147.859 36.358 147.663 36.9693 147.663 37.772V42H146.403V37.66C146.403 36.8947 146.212 36.3113 145.829 35.91C145.456 35.4993 144.947 35.294 144.303 35.294C143.641 35.294 143.113 35.5087 142.721 35.938C142.329 36.358 142.133 36.9693 142.133 37.772V42H140.859V34.328H142.133V35.434C142.385 35.0327 142.721 34.7247 143.141 34.51C143.571 34.2953 144.042 34.188 144.555 34.188C145.199 34.188 145.769 34.3327 146.263 34.622C146.758 34.9113 147.127 35.336 147.369 35.896C147.584 35.3547 147.939 34.9347 148.433 34.636C148.928 34.3373 149.479 34.188 150.085 34.188ZM154.807 38.136C154.807 37.352 154.966 36.666 155.283 36.078C155.6 35.4807 156.034 35.0187 156.585 34.692C157.145 34.3653 157.766 34.202 158.447 34.202C159.119 34.202 159.702 34.3467 160.197 34.636C160.692 34.9253 161.06 35.2893 161.303 35.728V34.328H162.591V42H161.303V40.572C161.051 41.02 160.673 41.3933 160.169 41.692C159.674 41.9813 159.096 42.126 158.433 42.126C157.752 42.126 157.136 41.958 156.585 41.622C156.034 41.286 155.6 40.8147 155.283 40.208C154.966 39.6013 154.807 38.9107 154.807 38.136ZM161.303 38.15C161.303 37.5713 161.186 37.0673 160.953 36.638C160.72 36.2087 160.402 35.882 160.001 35.658C159.609 35.4247 159.175 35.308 158.699 35.308C158.223 35.308 157.789 35.42 157.397 35.644C157.005 35.868 156.692 36.1947 156.459 36.624C156.226 37.0533 156.109 37.5573 156.109 38.136C156.109 38.724 156.226 39.2373 156.459 39.676C156.692 40.1053 157.005 40.4367 157.397 40.67C157.789 40.894 158.223 41.006 158.699 41.006C159.175 41.006 159.609 40.894 160.001 40.67C160.402 40.4367 160.72 40.1053 160.953 39.676C161.186 39.2373 161.303 38.7287 161.303 38.15ZM166.298 35.378V39.9C166.298 40.2733 166.377 40.5393 166.536 40.698C166.695 40.8473 166.97 40.922 167.362 40.922H168.3V42H167.152C166.443 42 165.911 41.8367 165.556 41.51C165.201 41.1833 165.024 40.6467 165.024 39.9V35.378H164.03V34.328H165.024V32.396H166.298V34.328H168.3V35.378H166.298ZM176.844 37.87C176.844 38.1127 176.83 38.3693 176.802 38.64H170.67C170.716 39.396 170.973 39.9887 171.44 40.418C171.916 40.838 172.49 41.048 173.162 41.048C173.712 41.048 174.17 40.922 174.534 40.67C174.907 40.4087 175.168 40.0633 175.318 39.634H176.69C176.484 40.3713 176.074 40.9733 175.458 41.44C174.842 41.8973 174.076 42.126 173.162 42.126C172.434 42.126 171.78 41.9627 171.202 41.636C170.632 41.3093 170.184 40.8473 169.858 40.25C169.531 39.6433 169.368 38.9433 169.368 38.15C169.368 37.3567 169.526 36.6613 169.844 36.064C170.161 35.4667 170.604 35.0093 171.174 34.692C171.752 34.3653 172.415 34.202 173.162 34.202C173.89 34.202 174.534 34.3607 175.094 34.678C175.654 34.9953 176.083 35.434 176.382 35.994C176.69 36.5447 176.844 37.17 176.844 37.87ZM175.528 37.604C175.528 37.1187 175.42 36.7033 175.206 36.358C174.991 36.0033 174.697 35.7373 174.324 35.56C173.96 35.3733 173.554 35.28 173.106 35.28C172.462 35.28 171.911 35.4853 171.454 35.896C171.006 36.3067 170.749 36.876 170.684 37.604H175.528ZM181.782 38.15C181.782 37.3567 181.94 36.666 182.258 36.078C182.575 35.4807 183.014 35.0187 183.574 34.692C184.143 34.3653 184.792 34.202 185.52 34.202C186.462 34.202 187.237 34.4307 187.844 34.888C188.46 35.3453 188.866 35.98 189.062 36.792H187.69C187.559 36.3253 187.302 35.9567 186.92 35.686C186.546 35.4153 186.08 35.28 185.52 35.28C184.792 35.28 184.204 35.532 183.756 36.036C183.308 36.5307 183.084 37.2353 183.084 38.15C183.084 39.074 183.308 39.788 183.756 40.292C184.204 40.796 184.792 41.048 185.52 41.048C186.08 41.048 186.546 40.9173 186.92 40.656C187.293 40.3947 187.55 40.0213 187.69 39.536H189.062C188.856 40.32 188.446 40.95 187.83 41.426C187.214 41.8927 186.444 42.126 185.52 42.126C184.792 42.126 184.143 41.9627 183.574 41.636C183.014 41.3093 182.575 40.8473 182.258 40.25C181.94 39.6527 181.782 38.9527 181.782 38.15ZM194.108 42.126C193.389 42.126 192.736 41.9627 192.148 41.636C191.569 41.3093 191.112 40.8473 190.776 40.25C190.449 39.6433 190.286 38.9433 190.286 38.15C190.286 37.366 190.454 36.6753 190.79 36.078C191.135 35.4713 191.602 35.0093 192.19 34.692C192.778 34.3653 193.436 34.202 194.164 34.202C194.892 34.202 195.55 34.3653 196.138 34.692C196.726 35.0093 197.188 35.4667 197.524 36.064C197.869 36.6613 198.042 37.3567 198.042 38.15C198.042 38.9433 197.864 39.6433 197.51 40.25C197.164 40.8473 196.693 41.3093 196.096 41.636C195.498 41.9627 194.836 42.126 194.108 42.126ZM194.108 41.006C194.565 41.006 194.994 40.8987 195.396 40.684C195.797 40.4693 196.119 40.1473 196.362 39.718C196.614 39.2887 196.74 38.766 196.74 38.15C196.74 37.534 196.618 37.0113 196.376 36.582C196.133 36.1527 195.816 35.8353 195.424 35.63C195.032 35.4153 194.607 35.308 194.15 35.308C193.683 35.308 193.254 35.4153 192.862 35.63C192.479 35.8353 192.171 36.1527 191.938 36.582C191.704 37.0113 191.588 37.534 191.588 38.15C191.588 38.7753 191.7 39.3027 191.924 39.732C192.157 40.1613 192.465 40.4833 192.848 40.698C193.23 40.9033 193.65 41.006 194.108 41.006ZM203.455 34.188C204.388 34.188 205.144 34.4727 205.723 35.042C206.301 35.602 206.591 36.414 206.591 37.478V42H205.331V37.66C205.331 36.8947 205.139 36.3113 204.757 35.91C204.374 35.4993 203.851 35.294 203.189 35.294C202.517 35.294 201.98 35.504 201.579 35.924C201.187 36.344 200.991 36.9553 200.991 37.758V42H199.717V34.328H200.991V35.42C201.243 35.028 201.583 34.7247 202.013 34.51C202.451 34.2953 202.932 34.188 203.455 34.188ZM210.226 35.378V39.9C210.226 40.2733 210.305 40.5393 210.464 40.698C210.622 40.8473 210.898 40.922 211.29 40.922H212.228V42H211.08C210.37 42 209.838 41.8367 209.484 41.51C209.129 41.1833 208.952 40.6467 208.952 39.9V35.378H207.958V34.328H208.952V32.396H210.226V34.328H212.228V35.378H210.226ZM220.771 37.87C220.771 38.1127 220.757 38.3693 220.729 38.64H214.597C214.644 39.396 214.901 39.9887 215.367 40.418C215.843 40.838 216.417 41.048 217.089 41.048C217.64 41.048 218.097 40.922 218.461 40.67C218.835 40.4087 219.096 40.0633 219.245 39.634H220.617C220.412 40.3713 220.001 40.9733 219.385 41.44C218.769 41.8973 218.004 42.126 217.089 42.126C216.361 42.126 215.708 41.9627 215.129 41.636C214.56 41.3093 214.112 40.8473 213.785 40.25C213.459 39.6433 213.295 38.9433 213.295 38.15C213.295 37.3567 213.454 36.6613 213.771 36.064C214.089 35.4667 214.532 35.0093 215.101 34.692C215.68 34.3653 216.343 34.202 217.089 34.202C217.817 34.202 218.461 34.3607 219.021 34.678C219.581 34.9953 220.011 35.434 220.309 35.994C220.617 36.5447 220.771 37.17 220.771 37.87ZM219.455 37.604C219.455 37.1187 219.348 36.7033 219.133 36.358C218.919 36.0033 218.625 35.7373 218.251 35.56C217.887 35.3733 217.481 35.28 217.033 35.28C216.389 35.28 215.839 35.4853 215.381 35.896C214.933 36.3067 214.677 36.876 214.611 37.604H219.455ZM226.191 34.188C227.124 34.188 227.88 34.4727 228.459 35.042C229.038 35.602 229.327 36.414 229.327 37.478V42H228.067V37.66C228.067 36.8947 227.876 36.3113 227.493 35.91C227.11 35.4993 226.588 35.294 225.925 35.294C225.253 35.294 224.716 35.504 224.315 35.924C223.923 36.344 223.727 36.9553 223.727 37.758V42H222.453V34.328H223.727V35.42C223.979 35.028 224.32 34.7247 224.749 34.51C225.188 34.2953 225.668 34.188 226.191 34.188ZM232.962 35.378V39.9C232.962 40.2733 233.041 40.5393 233.2 40.698C233.359 40.8473 233.634 40.922 234.026 40.922H234.964V42H233.816C233.107 42 232.575 41.8367 232.22 41.51C231.865 41.1833 231.688 40.6467 231.688 39.9V35.378H230.694V34.328H231.688V32.396H232.962V34.328H234.964V35.378H232.962ZM241.514 35.742C241.766 35.3033 242.139 34.9393 242.634 34.65C243.138 34.3513 243.721 34.202 244.384 34.202C245.065 34.202 245.681 34.3653 246.232 34.692C246.792 35.0187 247.231 35.4807 247.548 36.078C247.865 36.666 248.024 37.352 248.024 38.136C248.024 38.9107 247.865 39.6013 247.548 40.208C247.231 40.8147 246.792 41.286 246.232 41.622C245.681 41.958 245.065 42.126 244.384 42.126C243.731 42.126 243.152 41.9813 242.648 41.692C242.153 41.3933 241.775 41.0247 241.514 40.586V45.64H240.24V34.328H241.514V35.742ZM246.722 38.136C246.722 37.5573 246.605 37.0533 246.372 36.624C246.139 36.1947 245.821 35.868 245.42 35.644C245.028 35.42 244.594 35.308 244.118 35.308C243.651 35.308 243.217 35.4247 242.816 35.658C242.424 35.882 242.107 36.2133 241.864 36.652C241.631 37.0813 241.514 37.5807 241.514 38.15C241.514 38.7287 241.631 39.2373 241.864 39.676C242.107 40.1053 242.424 40.4367 242.816 40.67C243.217 40.894 243.651 41.006 244.118 41.006C244.594 41.006 245.028 40.894 245.42 40.67C245.821 40.4367 246.139 40.1053 246.372 39.676C246.605 39.2373 246.722 38.724 246.722 38.136ZM253.047 42.126C252.328 42.126 251.675 41.9627 251.087 41.636C250.508 41.3093 250.051 40.8473 249.715 40.25C249.388 39.6433 249.225 38.9433 249.225 38.15C249.225 37.366 249.393 36.6753 249.729 36.078C250.074 35.4713 250.541 35.0093 251.129 34.692C251.717 34.3653 252.375 34.202 253.103 34.202C253.831 34.202 254.489 34.3653 255.077 34.692C255.665 35.0093 256.127 35.4667 256.463 36.064C256.808 36.6613 256.981 37.3567 256.981 38.15C256.981 38.9433 256.804 39.6433 256.449 40.25C256.104 40.8473 255.632 41.3093 255.035 41.636C254.438 41.9627 253.775 42.126 253.047 42.126ZM253.047 41.006C253.504 41.006 253.934 40.8987 254.335 40.684C254.736 40.4693 255.058 40.1473 255.301 39.718C255.553 39.2887 255.679 38.766 255.679 38.15C255.679 37.534 255.558 37.0113 255.315 36.582C255.072 36.1527 254.755 35.8353 254.363 35.63C253.971 35.4153 253.546 35.308 253.089 35.308C252.622 35.308 252.193 35.4153 251.801 35.63C251.418 35.8353 251.11 36.1527 250.877 36.582C250.644 37.0113 250.527 37.534 250.527 38.15C250.527 38.7753 250.639 39.3027 250.863 39.732C251.096 40.1613 251.404 40.4833 251.787 40.698C252.17 40.9033 252.59 41.006 253.047 41.006ZM261.372 42.126C260.784 42.126 260.257 42.028 259.79 41.832C259.323 41.6267 258.955 41.3467 258.684 40.992C258.413 40.628 258.264 40.2127 258.236 39.746H259.552C259.589 40.1287 259.767 40.4413 260.084 40.684C260.411 40.9267 260.835 41.048 261.358 41.048C261.843 41.048 262.226 40.9407 262.506 40.726C262.786 40.5113 262.926 40.2407 262.926 39.914C262.926 39.578 262.777 39.3307 262.478 39.172C262.179 39.004 261.717 38.8407 261.092 38.682C260.523 38.5327 260.056 38.3833 259.692 38.234C259.337 38.0753 259.029 37.8467 258.768 37.548C258.516 37.24 258.39 36.8387 258.39 36.344C258.39 35.952 258.507 35.5927 258.74 35.266C258.973 34.9393 259.305 34.6827 259.734 34.496C260.163 34.3 260.653 34.202 261.204 34.202C262.053 34.202 262.739 34.4167 263.262 34.846C263.785 35.2753 264.065 35.8633 264.102 36.61H262.828C262.8 36.2087 262.637 35.8867 262.338 35.644C262.049 35.4013 261.657 35.28 261.162 35.28C260.705 35.28 260.341 35.378 260.07 35.574C259.799 35.77 259.664 36.0267 259.664 36.344C259.664 36.596 259.743 36.806 259.902 36.974C260.07 37.1327 260.275 37.2633 260.518 37.366C260.77 37.4593 261.115 37.5667 261.554 37.688C262.105 37.8373 262.553 37.9867 262.898 38.136C263.243 38.276 263.537 38.4907 263.78 38.78C264.032 39.0693 264.163 39.4473 264.172 39.914C264.172 40.334 264.055 40.712 263.822 41.048C263.589 41.384 263.257 41.65 262.828 41.846C262.408 42.0327 261.923 42.126 261.372 42.126ZM267.525 35.378V39.9C267.525 40.2733 267.604 40.5393 267.763 40.698C267.921 40.8473 268.197 40.922 268.589 40.922H269.527V42H268.379C267.669 42 267.137 41.8367 266.783 41.51C266.428 41.1833 266.251 40.6467 266.251 39.9V35.378H265.257V34.328H266.251V32.396H267.525V34.328H269.527V35.378H267.525ZM271.728 33.082C271.486 33.082 271.28 32.998 271.112 32.83C270.944 32.662 270.86 32.4567 270.86 32.214C270.86 31.9713 270.944 31.766 271.112 31.598C271.28 31.43 271.486 31.346 271.728 31.346C271.962 31.346 272.158 31.43 272.316 31.598C272.484 31.766 272.568 31.9713 272.568 32.214C272.568 32.4567 272.484 32.662 272.316 32.83C272.158 32.998 271.962 33.082 271.728 33.082ZM272.344 34.328V42H271.07V34.328H272.344ZM278.254 34.188C279.187 34.188 279.943 34.4727 280.522 35.042C281.1 35.602 281.39 36.414 281.39 37.478V42H280.13V37.66C280.13 36.8947 279.938 36.3113 279.556 35.91C279.173 35.4993 278.65 35.294 277.988 35.294C277.316 35.294 276.779 35.504 276.378 35.924C275.986 36.344 275.79 36.9553 275.79 37.758V42H274.516V34.328H275.79V35.42C276.042 35.028 276.382 34.7247 276.812 34.51C277.25 34.2953 277.731 34.188 278.254 34.188ZM286.635 34.202C287.297 34.202 287.876 34.3467 288.371 34.636C288.875 34.9253 289.248 35.2893 289.491 35.728V34.328H290.779V42.168C290.779 42.868 290.629 43.4887 290.331 44.03C290.032 44.5807 289.603 45.01 289.043 45.318C288.492 45.626 287.848 45.78 287.111 45.78C286.103 45.78 285.263 45.542 284.591 45.066C283.919 44.59 283.522 43.9413 283.401 43.12H284.661C284.801 43.5867 285.09 43.96 285.529 44.24C285.967 44.5293 286.495 44.674 287.111 44.674C287.811 44.674 288.38 44.4547 288.819 44.016C289.267 43.5773 289.491 42.9613 289.491 42.168V40.558C289.239 41.006 288.865 41.3793 288.371 41.678C287.876 41.9767 287.297 42.126 286.635 42.126C285.953 42.126 285.333 41.958 284.773 41.622C284.222 41.286 283.788 40.8147 283.471 40.208C283.153 39.6013 282.995 38.9107 282.995 38.136C282.995 37.352 283.153 36.666 283.471 36.078C283.788 35.4807 284.222 35.0187 284.773 34.692C285.333 34.3653 285.953 34.202 286.635 34.202ZM289.491 38.15C289.491 37.5713 289.374 37.0673 289.141 36.638C288.907 36.2087 288.59 35.882 288.189 35.658C287.797 35.4247 287.363 35.308 286.887 35.308C286.411 35.308 285.977 35.42 285.585 35.644C285.193 35.868 284.88 36.1947 284.647 36.624C284.413 37.0533 284.297 37.5573 284.297 38.136C284.297 38.724 284.413 39.2373 284.647 39.676C284.88 40.1053 285.193 40.4367 285.585 40.67C285.977 40.894 286.411 41.006 286.887 41.006C287.363 41.006 287.797 40.894 288.189 40.67C288.59 40.4367 288.907 40.1053 289.141 39.676C289.374 39.2373 289.491 38.7287 289.491 38.15ZM296.188 38.136C296.188 37.352 296.347 36.666 296.664 36.078C296.981 35.4807 297.415 35.0187 297.966 34.692C298.526 34.3653 299.147 34.202 299.828 34.202C300.5 34.202 301.083 34.3467 301.578 34.636C302.073 34.9253 302.441 35.2893 302.684 35.728V34.328H303.972V42H302.684V40.572C302.432 41.02 302.054 41.3933 301.55 41.692C301.055 41.9813 300.477 42.126 299.814 42.126C299.133 42.126 298.517 41.958 297.966 41.622C297.415 41.286 296.981 40.8147 296.664 40.208C296.347 39.6013 296.188 38.9107 296.188 38.136ZM302.684 38.15C302.684 37.5713 302.567 37.0673 302.334 36.638C302.101 36.2087 301.783 35.882 301.382 35.658C300.99 35.4247 300.556 35.308 300.08 35.308C299.604 35.308 299.17 35.42 298.778 35.644C298.386 35.868 298.073 36.1947 297.84 36.624C297.607 37.0533 297.49 37.5573 297.49 38.136C297.49 38.724 297.607 39.2373 297.84 39.676C298.073 40.1053 298.386 40.4367 298.778 40.67C299.17 40.894 299.604 41.006 300.08 41.006C300.556 41.006 300.99 40.894 301.382 40.67C301.783 40.4367 302.101 40.1053 302.334 39.676C302.567 39.2373 302.684 38.7287 302.684 38.15ZM305.649 38.15C305.649 37.3567 305.808 36.666 306.125 36.078C306.442 35.4807 306.881 35.0187 307.441 34.692C308.01 34.3653 308.659 34.202 309.387 34.202C310.33 34.202 311.104 34.4307 311.711 34.888C312.327 35.3453 312.733 35.98 312.929 36.792H311.557C311.426 36.3253 311.17 35.9567 310.787 35.686C310.414 35.4153 309.947 35.28 309.387 35.28C308.659 35.28 308.071 35.532 307.623 36.036C307.175 36.5307 306.951 37.2353 306.951 38.15C306.951 39.074 307.175 39.788 307.623 40.292C308.071 40.796 308.659 41.048 309.387 41.048C309.947 41.048 310.414 40.9173 310.787 40.656C311.16 40.3947 311.417 40.0213 311.557 39.536H312.929C312.724 40.32 312.313 40.95 311.697 41.426C311.081 41.8927 310.311 42.126 309.387 42.126C308.659 42.126 308.01 41.9627 307.441 41.636C306.881 41.3093 306.442 40.8473 306.125 40.25C305.808 39.6527 305.649 38.9527 305.649 38.15ZM315.903 35.574C316.127 35.1353 316.444 34.7947 316.855 34.552C317.275 34.3093 317.783 34.188 318.381 34.188V35.504H318.045C316.617 35.504 315.903 36.2787 315.903 37.828V42H314.629V34.328H315.903V35.574ZM323.197 42.126C322.479 42.126 321.825 41.9627 321.237 41.636C320.659 41.3093 320.201 40.8473 319.865 40.25C319.539 39.6433 319.375 38.9433 319.375 38.15C319.375 37.366 319.543 36.6753 319.879 36.078C320.225 35.4713 320.691 35.0093 321.279 34.692C321.867 34.3653 322.525 34.202 323.253 34.202C323.981 34.202 324.639 34.3653 325.227 34.692C325.815 35.0093 326.277 35.4667 326.613 36.064C326.959 36.6613 327.131 37.3567 327.131 38.15C327.131 38.9433 326.954 39.6433 326.599 40.25C326.254 40.8473 325.783 41.3093 325.185 41.636C324.588 41.9627 323.925 42.126 323.197 42.126ZM323.197 41.006C323.655 41.006 324.084 40.8987 324.485 40.684C324.887 40.4693 325.209 40.1473 325.451 39.718C325.703 39.2887 325.829 38.766 325.829 38.15C325.829 37.534 325.708 37.0113 325.465 36.582C325.223 36.1527 324.905 35.8353 324.513 35.63C324.121 35.4153 323.697 35.308 323.239 35.308C322.773 35.308 322.343 35.4153 321.951 35.63C321.569 35.8353 321.261 36.1527 321.027 36.582C320.794 37.0113 320.677 37.534 320.677 38.15C320.677 38.7753 320.789 39.3027 321.013 39.732C321.247 40.1613 321.555 40.4833 321.937 40.698C322.32 40.9033 322.74 41.006 323.197 41.006ZM331.523 42.126C330.935 42.126 330.407 42.028 329.941 41.832C329.474 41.6267 329.105 41.3467 328.835 40.992C328.564 40.628 328.415 40.2127 328.387 39.746H329.703C329.74 40.1287 329.917 40.4413 330.235 40.684C330.561 40.9267 330.986 41.048 331.509 41.048C331.994 41.048 332.377 40.9407 332.657 40.726C332.937 40.5113 333.077 40.2407 333.077 39.914C333.077 39.578 332.927 39.3307 332.629 39.172C332.33 39.004 331.868 38.8407 331.243 38.682C330.673 38.5327 330.207 38.3833 329.843 38.234C329.488 38.0753 329.18 37.8467 328.919 37.548C328.667 37.24 328.541 36.8387 328.541 36.344C328.541 35.952 328.657 35.5927 328.891 35.266C329.124 34.9393 329.455 34.6827 329.885 34.496C330.314 34.3 330.804 34.202 331.355 34.202C332.204 34.202 332.89 34.4167 333.413 34.846C333.935 35.2753 334.215 35.8633 334.253 36.61H332.979C332.951 36.2087 332.787 35.8867 332.489 35.644C332.199 35.4013 331.807 35.28 331.313 35.28C330.855 35.28 330.491 35.378 330.221 35.574C329.95 35.77 329.815 36.0267 329.815 36.344C329.815 36.596 329.894 36.806 330.053 36.974C330.221 37.1327 330.426 37.2633 330.669 37.366C330.921 37.4593 331.266 37.5667 331.705 37.688C332.255 37.8373 332.703 37.9867 333.049 38.136C333.394 38.276 333.688 38.4907 333.931 38.78C334.183 39.0693 334.313 39.4473 334.323 39.914C334.323 40.334 334.206 40.712 333.973 41.048C333.739 41.384 333.408 41.65 332.979 41.846C332.559 42.0327 332.073 42.126 331.523 42.126ZM338.837 42.126C338.249 42.126 337.722 42.028 337.255 41.832C336.788 41.6267 336.42 41.3467 336.149 40.992C335.878 40.628 335.729 40.2127 335.701 39.746H337.017C337.054 40.1287 337.232 40.4413 337.549 40.684C337.876 40.9267 338.3 41.048 338.823 41.048C339.308 41.048 339.691 40.9407 339.971 40.726C340.251 40.5113 340.391 40.2407 340.391 39.914C340.391 39.578 340.242 39.3307 339.943 39.172C339.644 39.004 339.182 38.8407 338.557 38.682C337.988 38.5327 337.521 38.3833 337.157 38.234C336.802 38.0753 336.494 37.8467 336.233 37.548C335.981 37.24 335.855 36.8387 335.855 36.344C335.855 35.952 335.972 35.5927 336.205 35.266C336.438 34.9393 336.77 34.6827 337.199 34.496C337.628 34.3 338.118 34.202 338.669 34.202C339.518 34.202 340.204 34.4167 340.727 34.846C341.25 35.2753 341.53 35.8633 341.567 36.61H340.293C340.265 36.2087 340.102 35.8867 339.803 35.644C339.514 35.4013 339.122 35.28 338.627 35.28C338.17 35.28 337.806 35.378 337.535 35.574C337.264 35.77 337.129 36.0267 337.129 36.344C337.129 36.596 337.208 36.806 337.367 36.974C337.535 37.1327 337.74 37.2633 337.983 37.366C338.235 37.4593 338.58 37.5667 339.019 37.688C339.57 37.8373 340.018 37.9867 340.363 38.136C340.708 38.276 341.002 38.4907 341.245 38.78C341.497 39.0693 341.628 39.4473 341.637 39.914C341.637 40.334 341.52 40.712 341.287 41.048C341.054 41.384 340.722 41.65 340.293 41.846C339.873 42.0327 339.388 42.126 338.837 42.126ZM348.442 35.742C348.694 35.3033 349.067 34.9393 349.562 34.65C350.066 34.3513 350.649 34.202 351.312 34.202C351.993 34.202 352.609 34.3653 353.16 34.692C353.72 35.0187 354.159 35.4807 354.476 36.078C354.793 36.666 354.952 37.352 354.952 38.136C354.952 38.9107 354.793 39.6013 354.476 40.208C354.159 40.8147 353.72 41.286 353.16 41.622C352.609 41.958 351.993 42.126 351.312 42.126C350.659 42.126 350.08 41.9813 349.576 41.692C349.081 41.3933 348.703 41.0247 348.442 40.586V45.64H347.168V34.328H348.442V35.742ZM353.65 38.136C353.65 37.5573 353.533 37.0533 353.3 36.624C353.067 36.1947 352.749 35.868 352.348 35.644C351.956 35.42 351.522 35.308 351.046 35.308C350.579 35.308 350.145 35.4247 349.744 35.658C349.352 35.882 349.035 36.2133 348.792 36.652C348.559 37.0813 348.442 37.5807 348.442 38.15C348.442 38.7287 348.559 39.2373 348.792 39.676C349.035 40.1053 349.352 40.4367 349.744 40.67C350.145 40.894 350.579 41.006 351.046 41.006C351.522 41.006 351.956 40.894 352.348 40.67C352.749 40.4367 353.067 40.1053 353.3 39.676C353.533 39.2373 353.65 38.724 353.65 38.136ZM357.903 31.64V42H356.629V31.64H357.903ZM359.598 38.136C359.598 37.352 359.757 36.666 360.074 36.078C360.391 35.4807 360.825 35.0187 361.376 34.692C361.936 34.3653 362.557 34.202 363.238 34.202C363.91 34.202 364.493 34.3467 364.988 34.636C365.483 34.9253 365.851 35.2893 366.094 35.728V34.328H367.382V42H366.094V40.572C365.842 41.02 365.464 41.3933 364.96 41.692C364.465 41.9813 363.887 42.126 363.224 42.126C362.543 42.126 361.927 41.958 361.376 41.622C360.825 41.286 360.391 40.8147 360.074 40.208C359.757 39.6013 359.598 38.9107 359.598 38.136ZM366.094 38.15C366.094 37.5713 365.977 37.0673 365.744 36.638C365.511 36.2087 365.193 35.882 364.792 35.658C364.4 35.4247 363.966 35.308 363.49 35.308C363.014 35.308 362.58 35.42 362.188 35.644C361.796 35.868 361.483 36.1947 361.25 36.624C361.017 37.0533 360.9 37.5573 360.9 38.136C360.9 38.724 361.017 39.2373 361.25 39.676C361.483 40.1053 361.796 40.4367 362.188 40.67C362.58 40.894 363.014 41.006 363.49 41.006C363.966 41.006 364.4 40.894 364.792 40.67C365.193 40.4367 365.511 40.1053 365.744 39.676C365.977 39.2373 366.094 38.7287 366.094 38.15ZM371.089 35.378V39.9C371.089 40.2733 371.168 40.5393 371.327 40.698C371.486 40.8473 371.761 40.922 372.153 40.922H373.091V42H371.943C371.234 42 370.702 41.8367 370.347 41.51C369.992 41.1833 369.815 40.6467 369.815 39.9V35.378H368.821V34.328H369.815V32.396H371.089V34.328H373.091V35.378H371.089ZM377.757 35.378H376.147V42H374.873V35.378H373.879V34.328H374.873V33.782C374.873 32.9233 375.092 32.298 375.531 31.906C375.979 31.5047 376.693 31.304 377.673 31.304V32.368C377.113 32.368 376.716 32.48 376.483 32.704C376.259 32.9187 376.147 33.278 376.147 33.782V34.328H377.757V35.378ZM382.588 42.126C381.869 42.126 381.216 41.9627 380.628 41.636C380.049 41.3093 379.592 40.8473 379.256 40.25C378.929 39.6433 378.766 38.9433 378.766 38.15C378.766 37.366 378.934 36.6753 379.27 36.078C379.615 35.4713 380.082 35.0093 380.67 34.692C381.258 34.3653 381.916 34.202 382.644 34.202C383.372 34.202 384.03 34.3653 384.618 34.692C385.206 35.0093 385.668 35.4667 386.004 36.064C386.349 36.6613 386.522 37.3567 386.522 38.15C386.522 38.9433 386.345 39.6433 385.99 40.25C385.645 40.8473 385.173 41.3093 384.576 41.636C383.979 41.9627 383.316 42.126 382.588 42.126ZM382.588 41.006C383.045 41.006 383.475 40.8987 383.876 40.684C384.277 40.4693 384.599 40.1473 384.842 39.718C385.094 39.2887 385.22 38.766 385.22 38.15C385.22 37.534 385.099 37.0113 384.856 36.582C384.613 36.1527 384.296 35.8353 383.904 35.63C383.512 35.4153 383.087 35.308 382.63 35.308C382.163 35.308 381.734 35.4153 381.342 35.63C380.959 35.8353 380.651 36.1527 380.418 36.582C380.185 37.0113 380.068 37.534 380.068 38.15C380.068 38.7753 380.18 39.3027 380.404 39.732C380.637 40.1613 380.945 40.4833 381.328 40.698C381.711 40.9033 382.131 41.006 382.588 41.006ZM389.471 35.574C389.695 35.1353 390.012 34.7947 390.423 34.552C390.843 34.3093 391.352 34.188 391.949 34.188V35.504H391.613C390.185 35.504 389.471 36.2787 389.471 37.828V42H388.197V34.328H389.471V35.574ZM402.646 34.188C403.243 34.188 403.775 34.314 404.242 34.566C404.708 34.8087 405.077 35.1773 405.348 35.672C405.618 36.1667 405.754 36.7687 405.754 37.478V42H404.494V37.66C404.494 36.8947 404.302 36.3113 403.92 35.91C403.546 35.4993 403.038 35.294 402.394 35.294C401.731 35.294 401.204 35.5087 400.812 35.938C400.42 36.358 400.224 36.9693 400.224 37.772V42H398.964V37.66C398.964 36.8947 398.772 36.3113 398.39 35.91C398.016 35.4993 397.508 35.294 396.864 35.294C396.201 35.294 395.674 35.5087 395.282 35.938C394.89 36.358 394.694 36.9693 394.694 37.772V42H393.42V34.328H394.694V35.434C394.946 35.0327 395.282 34.7247 395.702 34.51C396.131 34.2953 396.602 34.188 397.116 34.188C397.76 34.188 398.329 34.3327 398.824 34.622C399.318 34.9113 399.687 35.336 399.93 35.896C400.144 35.3547 400.499 34.9347 400.994 34.636C401.488 34.3373 402.039 34.188 402.646 34.188ZM410.56 42.126C409.972 42.126 409.444 42.028 408.978 41.832C408.511 41.6267 408.142 41.3467 407.872 40.992C407.601 40.628 407.452 40.2127 407.424 39.746H408.74C408.777 40.1287 408.954 40.4413 409.272 40.684C409.598 40.9267 410.023 41.048 410.546 41.048C411.031 41.048 411.414 40.9407 411.694 40.726C411.974 40.5113 412.114 40.2407 412.114 39.914C412.114 39.578 411.964 39.3307 411.666 39.172C411.367 39.004 410.905 38.8407 410.28 38.682C409.71 38.5327 409.244 38.3833 408.88 38.234C408.525 38.0753 408.217 37.8467 407.956 37.548C407.704 37.24 407.578 36.8387 407.578 36.344C407.578 35.952 407.694 35.5927 407.928 35.266C408.161 34.9393 408.492 34.6827 408.922 34.496C409.351 34.3 409.841 34.202 410.392 34.202C411.241 34.202 411.927 34.4167 412.45 34.846C412.972 35.2753 413.252 35.8633 413.29 36.61H412.016C411.988 36.2087 411.824 35.8867 411.526 35.644C411.236 35.4013 410.844 35.28 410.35 35.28C409.892 35.28 409.528 35.378 409.258 35.574C408.987 35.77 408.852 36.0267 408.852 36.344C408.852 36.596 408.931 36.806 409.09 36.974C409.258 37.1327 409.463 37.2633 409.706 37.366C409.958 37.4593 410.303 37.5667 410.742 37.688C411.292 37.8373 411.74 37.9867 412.086 38.136C412.431 38.276 412.725 38.4907 412.968 38.78C413.22 39.0693 413.35 39.4473 413.36 39.914C413.36 40.334 413.243 40.712 413.01 41.048C412.776 41.384 412.445 41.65 412.016 41.846C411.596 42.0327 411.11 42.126 410.56 42.126Z" fill="#14171B"/>
<path d="M647.627 317.595L647.627 148" stroke="#034737" stroke-width="0.747117" stroke-linecap="round" stroke-dasharray="4.48 4.48"/>
<path d="M647.596 318.374L478 318.374" stroke="#034737" stroke-width="0.747117" stroke-linecap="round" stroke-dasharray="4.48 4.48"/>
<path d="M15.3733 317.595L15.3733 148" stroke="#034737" stroke-width="0.747117" stroke-linecap="round" stroke-dasharray="4.48 4.48"/>
<path d="M15.4045 318.373L185 318.373" stroke="#034737" stroke-width="0.747117" stroke-linecap="round" stroke-dasharray="4.48 4.48"/>
<rect x="94.959" y="131.885" width="53.8128" height="54" rx="8.15346" transform="rotate(-180 94.959 131.885)" fill="#034737"/>
<path d="M64.0905 104.693L64.0905 99.801" stroke="white" stroke-width="1.58993" stroke-linecap="round" stroke-linejoin="round"/>
<path d="M71.4286 104.693L71.4286 102.247" stroke="white" stroke-width="1.58993" stroke-linecap="round" stroke-linejoin="round"/>
<path d="M67.7595 104.693L67.7595 103.47" stroke="white" stroke-width="1.58993" stroke-linecap="round" stroke-linejoin="round"/>
<path d="M56.7522 94.9089L78.7666 94.9089" stroke="white" stroke-width="1.58993" stroke-linecap="round" stroke-linejoin="round"/>
<path d="M57.9753 94.9089L57.9753 107.139C57.9753 108.49 59.0705 109.585 60.4214 109.585L75.0976 109.585C76.4485 109.585 77.5437 108.49 77.5437 107.139L77.5437 94.9089" stroke="white" stroke-width="1.58993" stroke-linecap="round" stroke-linejoin="round"/>
<path d="M67.7595 109.585L67.7595 114.477" stroke="white" stroke-width="1.58993" stroke-linecap="round" stroke-linejoin="round"/>
<path d="M64.0903 114.477L71.4284 114.477" stroke="white" stroke-width="1.58993" stroke-linecap="round" stroke-linejoin="round"/>
<path d="M55.3389 147.073C54.8577 147.073 54.4254 146.99 54.0419 146.822C53.6653 146.648 53.369 146.411 53.1528 146.111C52.9366 145.804 52.8251 145.452 52.8181 145.055H53.8327C53.8675 145.396 54.007 145.686 54.251 145.923C54.5021 146.153 54.8647 146.268 55.3389 146.268C55.7921 146.268 56.1477 146.156 56.4057 145.933C56.6707 145.703 56.8032 145.41 56.8032 145.055C56.8032 144.776 56.7265 144.549 56.5731 144.375C56.4197 144.2 56.2279 144.068 55.9978 143.977C55.7677 143.887 55.4574 143.789 55.0669 143.684C54.5858 143.559 54.1988 143.433 53.9059 143.308C53.62 143.182 53.3724 142.987 53.1632 142.722C52.961 142.45 52.8599 142.087 52.8599 141.634C52.8599 141.237 52.961 140.885 53.1632 140.578C53.3655 140.271 53.6479 140.034 54.0105 139.867C54.3801 139.699 54.8019 139.615 55.2761 139.615C55.9595 139.615 56.5173 139.786 56.9496 140.128C57.3889 140.47 57.6365 140.923 57.6923 141.488H56.6463C56.6114 141.209 56.465 140.965 56.207 140.756C55.949 140.539 55.6073 140.431 55.182 140.431C54.7845 140.431 54.4602 140.536 54.2092 140.745C53.9582 140.947 53.8327 141.233 53.8327 141.603C53.8327 141.868 53.9059 142.084 54.0523 142.251C54.2057 142.419 54.3905 142.548 54.6067 142.638C54.8298 142.722 55.1401 142.82 55.5376 142.931C56.0187 143.064 56.4057 143.196 56.6986 143.329C56.9915 143.454 57.2425 143.653 57.4517 143.925C57.6609 144.19 57.7655 144.552 57.7655 145.013C57.7655 145.368 57.6714 145.703 57.4831 146.017C57.2948 146.331 57.0159 146.585 56.6463 146.78C56.2767 146.976 55.8409 147.073 55.3389 147.073ZM61.6974 147.094C61.1605 147.094 60.6724 146.972 60.2331 146.728C59.8007 146.484 59.4591 146.139 59.208 145.693C58.964 145.239 58.8419 144.716 58.8419 144.124C58.8419 143.538 58.9674 143.022 59.2185 142.576C59.4765 142.122 59.8251 141.777 60.2644 141.54C60.7037 141.296 61.1954 141.174 61.7393 141.174C62.2832 141.174 62.7748 141.296 63.2141 141.54C63.6534 141.777 63.9985 142.119 64.2496 142.565C64.5076 143.011 64.6366 143.531 64.6366 144.124C64.6366 144.716 64.5041 145.239 64.2391 145.693C63.9811 146.139 63.629 146.484 63.1827 146.728C62.7364 146.972 62.2413 147.094 61.6974 147.094ZM61.6974 146.257C62.0391 146.257 62.3599 146.177 62.6597 146.017C62.9595 145.856 63.2001 145.616 63.3814 145.295C63.5697 144.974 63.6638 144.584 63.6638 144.124C63.6638 143.663 63.5732 143.273 63.3919 142.952C63.2106 142.631 62.9735 142.394 62.6806 142.241C62.3877 142.08 62.0705 142 61.7288 142C61.3801 142 61.0594 142.08 60.7665 142.241C60.4806 142.394 60.2505 142.631 60.0762 142.952C59.9018 143.273 59.8147 143.663 59.8147 144.124C59.8147 144.591 59.8984 144.985 60.0657 145.306C60.24 145.626 60.4701 145.867 60.756 146.027C61.0419 146.181 61.3557 146.257 61.6974 146.257ZM65.5638 144.124C65.5638 143.531 65.6823 143.015 65.9194 142.576C66.1565 142.129 66.4843 141.784 66.9026 141.54C67.328 141.296 67.8126 141.174 68.3565 141.174C69.0608 141.174 69.6396 141.345 70.0928 141.687C70.5531 142.028 70.8564 142.502 71.0028 143.109H69.9778C69.8801 142.76 69.6884 142.485 69.4025 142.283C69.1236 142.08 68.7749 141.979 68.3565 141.979C67.8126 141.979 67.3733 142.168 67.0386 142.544C66.7039 142.914 66.5365 143.44 66.5365 144.124C66.5365 144.814 66.7039 145.347 67.0386 145.724C67.3733 146.1 67.8126 146.289 68.3565 146.289C68.7749 146.289 69.1236 146.191 69.4025 145.996C69.6814 145.801 69.8732 145.522 69.9778 145.159H71.0028C70.8494 145.745 70.5426 146.216 70.0824 146.571C69.6221 146.92 69.0469 147.094 68.3565 147.094C67.8126 147.094 67.328 146.972 66.9026 146.728C66.4843 146.484 66.1565 146.139 65.9194 145.693C65.6823 145.246 65.5638 144.723 65.5638 144.124ZM72.7958 140.337C72.6145 140.337 72.4611 140.274 72.3356 140.149C72.2101 140.023 72.1473 139.87 72.1473 139.689C72.1473 139.507 72.2101 139.354 72.3356 139.228C72.4611 139.103 72.6145 139.04 72.7958 139.04C72.9702 139.04 73.1166 139.103 73.2351 139.228C73.3606 139.354 73.4234 139.507 73.4234 139.689C73.4234 139.87 73.3606 140.023 73.2351 140.149C73.1166 140.274 72.9702 140.337 72.7958 140.337ZM73.2561 141.268V147H72.3042V141.268H73.2561ZM74.554 144.113C74.554 143.527 74.6726 143.015 74.9097 142.576C75.1467 142.129 75.471 141.784 75.8824 141.54C76.3008 141.296 76.7645 141.174 77.2735 141.174C77.7756 141.174 78.2114 141.282 78.581 141.498C78.9506 141.714 79.226 141.986 79.4073 142.314V141.268H80.3696V147H79.4073V145.933C79.219 146.268 78.9366 146.547 78.5601 146.77C78.1905 146.986 77.7582 147.094 77.2631 147.094C76.754 147.094 76.2938 146.969 75.8824 146.718C75.471 146.467 75.1467 146.114 74.9097 145.661C74.6726 145.208 74.554 144.692 74.554 144.113ZM79.4073 144.124C79.4073 143.691 79.3201 143.315 79.1458 142.994C78.9715 142.673 78.7344 142.429 78.4346 142.262C78.1417 142.087 77.8174 142 77.4618 142C77.1062 142 76.7819 142.084 76.4891 142.251C76.1962 142.419 75.9626 142.663 75.7883 142.983C75.6139 143.304 75.5268 143.681 75.5268 144.113C75.5268 144.552 75.6139 144.936 75.7883 145.264C75.9626 145.584 76.1962 145.832 76.4891 146.006C76.7819 146.174 77.1062 146.257 77.4618 146.257C77.8174 146.257 78.1417 146.174 78.4346 146.006C78.7344 145.832 78.9715 145.584 79.1458 145.264C79.3201 144.936 79.4073 144.556 79.4073 144.124ZM82.9613 139.26V147H82.0095V139.26H82.9613ZM60.0345 151.762V159H59.0826V153.603L56.6769 159H56.0075L53.5913 153.592V159H52.6395V151.762H53.6645L56.3422 157.745L59.0199 151.762H60.0345ZM66.9099 155.914C66.9099 156.096 66.8994 156.287 66.8785 156.49H62.2972C62.332 157.055 62.5238 157.497 62.8724 157.818C63.2281 158.132 63.6569 158.289 64.159 158.289C64.5704 158.289 64.9121 158.195 65.184 158.006C65.463 157.811 65.6582 157.553 65.7698 157.232H66.7948C66.6414 157.783 66.3346 158.233 65.8744 158.582C65.4141 158.923 64.8423 159.094 64.159 159.094C63.6151 159.094 63.127 158.972 62.6946 158.728C62.2693 158.484 61.9346 158.139 61.6905 157.693C61.4465 157.239 61.3244 156.716 61.3244 156.124C61.3244 155.531 61.443 155.011 61.68 154.565C61.9171 154.119 62.2484 153.777 62.6737 153.54C63.106 153.296 63.6011 153.174 64.159 153.174C64.7029 153.174 65.184 153.293 65.6024 153.53C66.0208 153.767 66.3416 154.094 66.5647 154.513C66.7948 154.924 66.9099 155.391 66.9099 155.914ZM65.9267 155.716C65.9267 155.353 65.8465 155.043 65.6861 154.785C65.5257 154.52 65.3061 154.321 65.0271 154.189C64.7552 154.049 64.4519 153.979 64.1171 153.979C63.636 153.979 63.2246 154.133 62.8829 154.44C62.5482 154.746 62.3564 155.172 62.3076 155.716H65.9267ZM67.842 156.113C67.842 155.527 67.9605 155.015 68.1976 154.576C68.4347 154.129 68.759 153.784 69.1704 153.54C69.5888 153.296 70.056 153.174 70.572 153.174C71.0182 153.174 71.4331 153.279 71.8167 153.488C72.2002 153.69 72.4931 153.958 72.6953 154.293V151.26H73.6576V159H72.6953V157.923C72.507 158.264 72.2281 158.547 71.8585 158.77C71.4889 158.986 71.0566 159.094 70.5615 159.094C70.0525 159.094 69.5888 158.969 69.1704 158.718C68.759 158.467 68.4347 158.114 68.1976 157.661C67.9605 157.208 67.842 156.692 67.842 156.113ZM72.6953 156.124C72.6953 155.691 72.6081 155.315 72.4338 154.994C72.2595 154.673 72.0224 154.429 71.7225 154.262C71.4297 154.087 71.1054 154 70.7498 154C70.3942 154 70.0699 154.084 69.777 154.251C69.4842 154.419 69.2506 154.663 69.0762 154.983C68.9019 155.304 68.8147 155.681 68.8147 156.113C68.8147 156.552 68.9019 156.936 69.0762 157.264C69.2506 157.584 69.4842 157.832 69.777 158.006C70.0699 158.174 70.3942 158.257 70.7498 158.257C71.1054 158.257 71.4297 158.174 71.7225 158.006C72.0224 157.832 72.2595 157.584 72.4338 157.264C72.6081 156.936 72.6953 156.556 72.6953 156.124ZM75.789 152.337C75.6077 152.337 75.4543 152.274 75.3288 152.149C75.2033 152.023 75.1405 151.87 75.1405 151.689C75.1405 151.507 75.2033 151.354 75.3288 151.228C75.4543 151.103 75.6077 151.04 75.789 151.04C75.9634 151.04 76.1098 151.103 76.2283 151.228C76.3539 151.354 76.4166 151.507 76.4166 151.689C76.4166 151.87 76.3539 152.023 76.2283 152.149C76.1098 152.274 75.9634 152.337 75.789 152.337ZM76.2493 153.268V159H75.2974V153.268H76.2493ZM77.5472 156.113C77.5472 155.527 77.6658 155.015 77.9029 154.576C78.14 154.129 78.4642 153.784 78.8756 153.54C79.294 153.296 79.7577 153.174 80.2667 153.174C80.7688 153.174 81.2046 153.282 81.5742 153.498C81.9438 153.714 82.2192 153.986 82.4005 154.314V153.268H83.3628V159H82.4005V157.933C82.2122 158.268 81.9298 158.547 81.5533 158.77C81.1837 158.986 80.7514 159.094 80.2563 159.094C79.7472 159.094 79.287 158.969 78.8756 158.718C78.4642 158.467 78.14 158.114 77.9029 157.661C77.6658 157.208 77.5472 156.692 77.5472 156.113ZM82.4005 156.124C82.4005 155.691 82.3133 155.315 82.139 154.994C81.9647 154.673 81.7276 154.429 81.4278 154.262C81.1349 154.087 80.8106 154 80.455 154C80.0994 154 79.7751 154.084 79.4823 154.251C79.1894 154.419 78.9558 154.663 78.7815 154.983C78.6071 155.304 78.52 155.681 78.52 156.113C78.52 156.552 78.6071 156.936 78.7815 157.264C78.9558 157.584 79.1894 157.832 79.4823 158.006C79.7751 158.174 80.0994 158.257 80.455 158.257C80.8106 158.257 81.1349 158.174 81.4278 158.006C81.7276 157.832 81.9647 157.584 82.139 157.264C82.3133 156.936 82.4005 156.556 82.4005 156.124ZM49.2508 169.379H46.071L45.4853 171H44.4812L47.117 163.751H48.2153L50.8406 171H49.8365L49.2508 169.379ZM48.9788 168.605L47.6609 164.923L46.343 168.605H48.9788ZM54.8135 165.164C55.5108 165.164 56.0756 165.376 56.508 165.802C56.9403 166.22 57.1565 166.827 57.1565 167.622V171H56.2151V167.758C56.2151 167.186 56.0721 166.75 55.7862 166.45C55.5003 166.143 55.1099 165.99 54.6148 165.99C54.1127 165.99 53.7118 166.147 53.4119 166.461C53.119 166.774 52.9726 167.231 52.9726 167.831V171H52.0208V165.268H52.9726V166.084C53.1609 165.791 53.4154 165.564 53.7362 165.404C54.0639 165.244 54.423 165.164 54.8135 165.164ZM58.387 168.113C58.387 167.527 58.5056 167.015 58.7426 166.576C58.9797 166.129 59.304 165.784 59.7154 165.54C60.1338 165.296 60.5975 165.174 61.1065 165.174C61.6086 165.174 62.0444 165.282 62.414 165.498C62.7836 165.714 63.059 165.986 63.2403 166.314V165.268H64.2026V171H63.2403V169.933C63.052 170.268 62.7696 170.547 62.3931 170.77C62.0235 170.986 61.5912 171.094 61.0961 171.094C60.587 171.094 60.1268 170.969 59.7154 170.718C59.304 170.467 58.9797 170.114 58.7426 169.661C58.5056 169.208 58.387 168.692 58.387 168.113ZM63.2403 168.124C63.2403 167.691 63.1531 167.315 62.9788 166.994C62.8045 166.673 62.5674 166.429 62.2675 166.262C61.9747 166.087 61.6504 166 61.2948 166C60.9392 166 60.6149 166.084 60.3221 166.251C60.0292 166.419 59.7956 166.663 59.6213 166.983C59.4469 167.304 59.3598 167.681 59.3598 168.113C59.3598 168.552 59.4469 168.936 59.6213 169.264C59.7956 169.584 60.0292 169.832 60.3221 170.006C60.6149 170.174 60.9392 170.257 61.2948 170.257C61.6504 170.257 61.9747 170.174 62.2675 170.006C62.5674 169.832 62.8045 169.584 62.9788 169.264C63.1531 168.936 63.2403 168.556 63.2403 168.124ZM66.7943 163.26V171H65.8425V163.26H66.7943ZM73.3848 165.268L69.9332 173.699H68.9499L70.0796 170.937L67.768 165.268H68.8244L70.6235 169.912L72.4016 165.268H73.3848ZM75.534 166.053V169.431C75.534 169.71 75.5933 169.909 75.7119 170.027C75.8304 170.139 76.0361 170.195 76.329 170.195H77.0298V171H76.1721C75.6421 171 75.2447 170.878 74.9797 170.634C74.7147 170.39 74.5822 169.989 74.5822 169.431V166.053H73.8396V165.268H74.5822V163.825H75.534V165.268H77.0298V166.053H75.534ZM78.706 164.337C78.5247 164.337 78.3713 164.274 78.2458 164.149C78.1203 164.023 78.0575 163.87 78.0575 163.689C78.0575 163.507 78.1203 163.354 78.2458 163.228C78.3713 163.103 78.5247 163.04 78.706 163.04C78.8803 163.04 79.0268 163.103 79.1453 163.228C79.2708 163.354 79.3336 163.507 79.3336 163.689C79.3336 163.87 79.2708 164.023 79.1453 164.149C79.0268 164.274 78.8803 164.337 78.706 164.337ZM79.1662 165.268V171H78.2144V165.268H79.1662ZM80.4642 168.124C80.4642 167.531 80.5828 167.015 80.8198 166.576C81.0569 166.129 81.3847 165.784 81.803 165.54C82.2284 165.296 82.713 165.174 83.2569 165.174C83.9612 165.174 84.54 165.345 84.9932 165.687C85.4535 166.028 85.7568 166.502 85.9032 167.109H84.8782C84.7806 166.76 84.5888 166.485 84.3029 166.283C84.024 166.08 83.6753 165.979 83.2569 165.979C82.713 165.979 82.2737 166.168 81.939 166.544C81.6043 166.914 81.437 167.44 81.437 168.124C81.437 168.814 81.6043 169.347 81.939 169.724C82.2737 170.1 82.713 170.289 83.2569 170.289C83.6753 170.289 84.024 170.191 84.3029 169.996C84.5818 169.801 84.7736 169.522 84.8782 169.159H85.9032C85.7498 169.745 85.443 170.216 84.9828 170.571C84.5226 170.92 83.9473 171.094 83.2569 171.094C82.713 171.094 82.2284 170.972 81.803 170.728C81.3847 170.484 81.0569 170.139 80.8198 169.693C80.5828 169.246 80.4642 168.723 80.4642 168.124ZM89.2338 171.094C88.7945 171.094 88.4005 171.021 88.0519 170.874C87.7032 170.721 87.4278 170.512 87.2256 170.247C87.0233 169.975 86.9118 169.665 86.8908 169.316H87.8741C87.9019 169.602 88.0344 169.835 88.2715 170.017C88.5156 170.198 88.8329 170.289 89.2233 170.289C89.5859 170.289 89.8718 170.209 90.081 170.048C90.2902 169.888 90.3948 169.686 90.3948 169.442C90.3948 169.19 90.2833 169.006 90.0601 168.887C89.837 168.762 89.4918 168.64 89.0246 168.521C88.5993 168.409 88.2506 168.298 87.9786 168.186C87.7137 168.068 87.4836 167.897 87.2883 167.674C87.1 167.444 87.0059 167.144 87.0059 166.774C87.0059 166.481 87.0931 166.213 87.2674 165.969C87.4417 165.725 87.6893 165.533 88.01 165.394C88.3308 165.247 88.6969 165.174 89.1083 165.174C89.7428 165.174 90.2554 165.334 90.6459 165.655C91.0363 165.976 91.2455 166.415 91.2734 166.973H90.3216C90.3007 166.673 90.1787 166.433 89.9555 166.251C89.7394 166.07 89.4465 165.979 89.0769 165.979C88.7352 165.979 88.4633 166.053 88.2611 166.199C88.0588 166.345 87.9577 166.537 87.9577 166.774C87.9577 166.963 88.017 167.119 88.1355 167.245C88.2611 167.364 88.4145 167.461 88.5958 167.538C88.784 167.608 89.042 167.688 89.3698 167.778C89.7812 167.89 90.1159 168.002 90.3739 168.113C90.6319 168.218 90.8516 168.378 91.0329 168.594C91.2211 168.81 91.3188 169.093 91.3257 169.442C91.3257 169.755 91.2386 170.038 91.0642 170.289C90.8899 170.54 90.6424 170.739 90.3216 170.885C90.0078 171.024 89.6452 171.094 89.2338 171.094Z" fill="#666666"/>
<rect x="118" y="91" width="505" height="205" rx="14.2628" fill="#034737"/>
<path d="M104 93C104 85.268 110.268 79 118 79H595C602.732 79 609 85.268 609 93V272C609 279.732 602.732 286 595 286H118C110.268 286 104 279.732 104 272V93Z" fill="white"/>
<rect x="226" y="94" width="261" height="35" rx="12" fill="#F5F5F5"/>
<path d="M261.328 116L259.336 112.58H258.016V116H256.924V107.636H259.624C260.256 107.636 260.788 107.744 261.22 107.96C261.66 108.176 261.988 108.468 262.204 108.836C262.42 109.204 262.528 109.624 262.528 110.096C262.528 110.672 262.36 111.18 262.024 111.62C261.696 112.06 261.2 112.352 260.536 112.496L262.636 116H261.328ZM258.016 111.704H259.624C260.216 111.704 260.66 111.56 260.956 111.272C261.252 110.976 261.4 110.584 261.4 110.096C261.4 109.6 261.252 109.216 260.956 108.944C260.668 108.672 260.224 108.536 259.624 108.536H258.016V111.704ZM270.225 112.46C270.225 112.668 270.213 112.888 270.189 113.12H264.933C264.973 113.768 265.193 114.276 265.593 114.644C266.001 115.004 266.493 115.184 267.069 115.184C267.541 115.184 267.933 115.076 268.245 114.86C268.565 114.636 268.789 114.34 268.917 113.972H270.093C269.917 114.604 269.565 115.12 269.037 115.52C268.509 115.912 267.853 116.108 267.069 116.108C266.445 116.108 265.885 115.968 265.389 115.688C264.901 115.408 264.517 115.012 264.237 114.5C263.957 113.98 263.817 113.38 263.817 112.7C263.817 112.02 263.953 111.424 264.225 110.912C264.497 110.4 264.877 110.008 265.365 109.736C265.861 109.456 266.429 109.316 267.069 109.316C267.693 109.316 268.245 109.452 268.725 109.724C269.205 109.996 269.573 110.372 269.829 110.852C270.093 111.324 270.225 111.86 270.225 112.46ZM269.097 112.232C269.097 111.816 269.005 111.46 268.821 111.164C268.637 110.86 268.385 110.632 268.065 110.48C267.753 110.32 267.405 110.24 267.021 110.24C266.469 110.24 265.997 110.416 265.605 110.768C265.221 111.12 265.001 111.608 264.945 112.232H269.097ZM271.258 112.688C271.258 112.016 271.394 111.428 271.666 110.924C271.938 110.412 272.31 110.016 272.782 109.736C273.262 109.456 273.794 109.316 274.378 109.316C274.954 109.316 275.454 109.44 275.878 109.688C276.302 109.936 276.618 110.248 276.826 110.624V109.424H277.93V116H276.826V114.776C276.61 115.16 276.286 115.48 275.854 115.736C275.43 115.984 274.934 116.108 274.366 116.108C273.782 116.108 273.254 115.964 272.782 115.676C272.31 115.388 271.938 114.984 271.666 114.464C271.394 113.944 271.258 113.352 271.258 112.688ZM276.826 112.7C276.826 112.204 276.726 111.772 276.526 111.404C276.326 111.036 276.054 110.756 275.71 110.564C275.374 110.364 275.002 110.264 274.594 110.264C274.186 110.264 273.814 110.36 273.478 110.552C273.142 110.744 272.874 111.024 272.674 111.392C272.474 111.76 272.374 112.192 272.374 112.688C272.374 113.192 272.474 113.632 272.674 114.008C272.874 114.376 273.142 114.66 273.478 114.86C273.814 115.052 274.186 115.148 274.594 115.148C275.002 115.148 275.374 115.052 275.71 114.86C276.054 114.66 276.326 114.376 276.526 114.008C276.726 113.632 276.826 113.196 276.826 112.7ZM280.868 107.12V116H279.776V107.12H280.868ZM287.289 111.14V112.064H282.501V111.14H287.289ZM294.486 107.636V108.524H292.206V116H291.114V108.524H288.822V107.636H294.486ZM296.394 108.356C296.186 108.356 296.01 108.284 295.866 108.14C295.722 107.996 295.65 107.82 295.65 107.612C295.65 107.404 295.722 107.228 295.866 107.084C296.01 106.94 296.186 106.868 296.394 106.868C296.594 106.868 296.762 106.94 296.898 107.084C297.042 107.228 297.114 107.404 297.114 107.612C297.114 107.82 297.042 107.996 296.898 108.14C296.762 108.284 296.594 108.356 296.394 108.356ZM296.922 109.424V116H295.83V109.424H296.922ZM306.691 109.304C307.203 109.304 307.659 109.412 308.059 109.628C308.459 109.836 308.775 110.152 309.007 110.576C309.239 111 309.355 111.516 309.355 112.124V116H308.275V112.28C308.275 111.624 308.111 111.124 307.783 110.78C307.463 110.428 307.027 110.252 306.475 110.252C305.907 110.252 305.455 110.436 305.119 110.804C304.783 111.164 304.615 111.688 304.615 112.376V116H303.535V112.28C303.535 111.624 303.371 111.124 303.043 110.78C302.723 110.428 302.287 110.252 301.735 110.252C301.167 110.252 300.715 110.436 300.379 110.804C300.043 111.164 299.875 111.688 299.875 112.376V116H298.783V109.424H299.875V110.372C300.091 110.028 300.379 109.764 300.739 109.58C301.107 109.396 301.511 109.304 301.951 109.304C302.503 109.304 302.991 109.428 303.415 109.676C303.839 109.924 304.155 110.288 304.363 110.768C304.547 110.304 304.851 109.944 305.275 109.688C305.699 109.432 306.171 109.304 306.691 109.304ZM317.147 112.46C317.147 112.668 317.135 112.888 317.111 113.12H311.855C311.895 113.768 312.115 114.276 312.515 114.644C312.923 115.004 313.415 115.184 313.991 115.184C314.463 115.184 314.855 115.076 315.167 114.86C315.487 114.636 315.711 114.34 315.839 113.972H317.015C316.839 114.604 316.487 115.12 315.959 115.52C315.431 115.912 314.775 116.108 313.991 116.108C313.367 116.108 312.807 115.968 312.311 115.688C311.823 115.408 311.439 115.012 311.159 114.5C310.879 113.98 310.739 113.38 310.739 112.7C310.739 112.02 310.875 111.424 311.147 110.912C311.419 110.4 311.799 110.008 312.287 109.736C312.783 109.456 313.351 109.316 313.991 109.316C314.615 109.316 315.167 109.452 315.647 109.724C316.127 109.996 316.495 110.372 316.751 110.852C317.015 111.324 317.147 111.86 317.147 112.46ZM316.019 112.232C316.019 111.816 315.927 111.46 315.743 111.164C315.559 110.86 315.307 110.632 314.987 110.48C314.675 110.32 314.327 110.24 313.943 110.24C313.391 110.24 312.919 110.416 312.527 110.768C312.143 111.12 311.923 111.608 311.867 112.232H316.019ZM322.879 108.524V111.32H325.927V112.22H322.879V115.1H326.287V116H321.787V107.624H326.287V108.524H322.879ZM331.144 109.304C331.944 109.304 332.592 109.548 333.088 110.036C333.584 110.516 333.832 111.212 333.832 112.124V116H332.752V112.28C332.752 111.624 332.588 111.124 332.26 110.78C331.932 110.428 331.484 110.252 330.916 110.252C330.34 110.252 329.88 110.432 329.536 110.792C329.2 111.152 329.032 111.676 329.032 112.364V116H327.94V109.424H329.032V110.36C329.248 110.024 329.54 109.764 329.908 109.58C330.284 109.396 330.696 109.304 331.144 109.304ZM338.327 109.316C338.895 109.316 339.391 109.44 339.815 109.688C340.247 109.936 340.567 110.248 340.775 110.624V109.424H341.879V116.144C341.879 116.744 341.751 117.276 341.495 117.74C341.239 118.212 340.871 118.58 340.391 118.844C339.919 119.108 339.367 119.24 338.735 119.24C337.871 119.24 337.151 119.036 336.575 118.628C335.999 118.22 335.659 117.664 335.555 116.96H336.635C336.755 117.36 337.003 117.68 337.379 117.92C337.755 118.168 338.207 118.292 338.735 118.292C339.335 118.292 339.823 118.104 340.199 117.728C340.583 117.352 340.775 116.824 340.775 116.144V114.764C340.559 115.148 340.239 115.468 339.815 115.724C339.391 115.98 338.895 116.108 338.327 116.108C337.743 116.108 337.211 115.964 336.731 115.676C336.259 115.388 335.887 114.984 335.615 114.464C335.343 113.944 335.207 113.352 335.207 112.688C335.207 112.016 335.343 111.428 335.615 110.924C335.887 110.412 336.259 110.016 336.731 109.736C337.211 109.456 337.743 109.316 338.327 109.316ZM340.775 112.7C340.775 112.204 340.675 111.772 340.475 111.404C340.275 111.036 340.003 110.756 339.659 110.564C339.323 110.364 338.951 110.264 338.543 110.264C338.135 110.264 337.763 110.36 337.427 110.552C337.091 110.744 336.823 111.024 336.623 111.392C336.423 111.76 336.323 112.192 336.323 112.688C336.323 113.192 336.423 113.632 336.623 114.008C336.823 114.376 337.091 114.66 337.427 114.86C337.763 115.052 338.135 115.148 338.543 115.148C338.951 115.148 339.323 115.052 339.659 114.86C340.003 114.66 340.275 114.376 340.475 114.008C340.675 113.632 340.775 113.196 340.775 112.7ZM343.317 112.688C343.317 112.016 343.453 111.428 343.725 110.924C343.997 110.412 344.369 110.016 344.841 109.736C345.321 109.456 345.853 109.316 346.437 109.316C347.013 109.316 347.513 109.44 347.937 109.688C348.361 109.936 348.677 110.248 348.885 110.624V109.424H349.989V116H348.885V114.776C348.669 115.16 348.345 115.48 347.913 115.736C347.489 115.984 346.993 116.108 346.425 116.108C345.841 116.108 345.313 115.964 344.841 115.676C344.369 115.388 343.997 114.984 343.725 114.464C343.453 113.944 343.317 113.352 343.317 112.688ZM348.885 112.7C348.885 112.204 348.785 111.772 348.585 111.404C348.385 111.036 348.113 110.756 347.769 110.564C347.433 110.364 347.061 110.264 346.653 110.264C346.245 110.264 345.873 110.36 345.537 110.552C345.201 110.744 344.933 111.024 344.733 111.392C344.533 111.76 344.433 112.192 344.433 112.688C344.433 113.192 344.533 113.632 344.733 114.008C344.933 114.376 345.201 114.66 345.537 114.86C345.873 115.052 346.245 115.148 346.653 115.148C347.061 115.148 347.433 115.052 347.769 114.86C348.113 114.66 348.385 114.376 348.585 114.008C348.785 113.632 348.885 113.196 348.885 112.7ZM354.546 109.316C355.114 109.316 355.61 109.44 356.034 109.688C356.466 109.936 356.786 110.248 356.994 110.624V109.424H358.098V116.144C358.098 116.744 357.97 117.276 357.714 117.74C357.458 118.212 357.09 118.58 356.61 118.844C356.138 119.108 355.586 119.24 354.954 119.24C354.09 119.24 353.37 119.036 352.794 118.628C352.218 118.22 351.878 117.664 351.774 116.96H352.854C352.974 117.36 353.222 117.68 353.598 117.92C353.974 118.168 354.426 118.292 354.954 118.292C355.554 118.292 356.042 118.104 356.418 117.728C356.802 117.352 356.994 116.824 356.994 116.144V114.764C356.778 115.148 356.458 115.468 356.034 115.724C355.61 115.98 355.114 116.108 354.546 116.108C353.962 116.108 353.43 115.964 352.95 115.676C352.478 115.388 352.106 114.984 351.834 114.464C351.562 113.944 351.426 113.352 351.426 112.688C351.426 112.016 351.562 111.428 351.834 110.924C352.106 110.412 352.478 110.016 352.95 109.736C353.43 109.456 353.962 109.316 354.546 109.316ZM356.994 112.7C356.994 112.204 356.894 111.772 356.694 111.404C356.494 111.036 356.222 110.756 355.878 110.564C355.542 110.364 355.17 110.264 354.762 110.264C354.354 110.264 353.982 110.36 353.646 110.552C353.31 110.744 353.042 111.024 352.842 111.392C352.642 111.76 352.542 112.192 352.542 112.688C352.542 113.192 352.642 113.632 352.842 114.008C353.042 114.376 353.31 114.66 353.646 114.86C353.982 115.052 354.354 115.148 354.762 115.148C355.17 115.148 355.542 115.052 355.878 114.86C356.222 114.66 356.494 114.376 356.694 114.008C356.894 113.632 356.994 113.196 356.994 112.7ZM365.944 112.46C365.944 112.668 365.932 112.888 365.908 113.12H360.652C360.692 113.768 360.912 114.276 361.312 114.644C361.72 115.004 362.212 115.184 362.788 115.184C363.26 115.184 363.652 115.076 363.964 114.86C364.284 114.636 364.508 114.34 364.636 113.972H365.812C365.636 114.604 365.284 115.12 364.756 115.52C364.228 115.912 363.572 116.108 362.788 116.108C362.164 116.108 361.604 115.968 361.108 115.688C360.62 115.408 360.236 115.012 359.956 114.5C359.676 113.98 359.536 113.38 359.536 112.7C359.536 112.02 359.672 111.424 359.944 110.912C360.216 110.4 360.596 110.008 361.084 109.736C361.58 109.456 362.148 109.316 362.788 109.316C363.412 109.316 363.964 109.452 364.444 109.724C364.924 109.996 365.292 110.372 365.548 110.852C365.812 111.324 365.944 111.86 365.944 112.46ZM364.816 112.232C364.816 111.816 364.724 111.46 364.54 111.164C364.356 110.86 364.104 110.632 363.784 110.48C363.472 110.32 363.124 110.24 362.74 110.24C362.188 110.24 361.716 110.416 361.324 110.768C360.94 111.12 360.72 111.608 360.664 112.232H364.816ZM375.293 109.304C375.805 109.304 376.261 109.412 376.661 109.628C377.061 109.836 377.377 110.152 377.609 110.576C377.841 111 377.957 111.516 377.957 112.124V116H376.877V112.28C376.877 111.624 376.713 111.124 376.385 110.78C376.065 110.428 375.629 110.252 375.077 110.252C374.509 110.252 374.057 110.436 373.721 110.804C373.385 111.164 373.217 111.688 373.217 112.376V116H372.137V112.28C372.137 111.624 371.973 111.124 371.645 110.78C371.325 110.428 370.889 110.252 370.337 110.252C369.769 110.252 369.317 110.436 368.981 110.804C368.645 111.164 368.477 111.688 368.477 112.376V116H367.385V109.424H368.477V110.372C368.693 110.028 368.981 109.764 369.341 109.58C369.709 109.396 370.113 109.304 370.553 109.304C371.105 109.304 371.593 109.428 372.017 109.676C372.441 109.924 372.757 110.288 372.965 110.768C373.149 110.304 373.453 109.944 373.877 109.688C374.301 109.432 374.773 109.304 375.293 109.304ZM385.748 112.46C385.748 112.668 385.736 112.888 385.712 113.12H380.456C380.496 113.768 380.716 114.276 381.116 114.644C381.524 115.004 382.016 115.184 382.592 115.184C383.064 115.184 383.456 115.076 383.768 114.86C384.088 114.636 384.312 114.34 384.44 113.972H385.616C385.44 114.604 385.088 115.12 384.56 115.52C384.032 115.912 383.376 116.108 382.592 116.108C381.968 116.108 381.408 115.968 380.912 115.688C380.424 115.408 380.04 115.012 379.76 114.5C379.48 113.98 379.34 113.38 379.34 112.7C379.34 112.02 379.476 111.424 379.748 110.912C380.02 110.4 380.4 110.008 380.888 109.736C381.384 109.456 381.952 109.316 382.592 109.316C383.216 109.316 383.768 109.452 384.248 109.724C384.728 109.996 385.096 110.372 385.352 110.852C385.616 111.324 385.748 111.86 385.748 112.46ZM384.62 112.232C384.62 111.816 384.528 111.46 384.344 111.164C384.16 110.86 383.908 110.632 383.588 110.48C383.276 110.32 382.928 110.24 382.544 110.24C381.992 110.24 381.52 110.416 381.128 110.768C380.744 111.12 380.524 111.608 380.468 112.232H384.62ZM390.394 109.304C391.194 109.304 391.842 109.548 392.338 110.036C392.834 110.516 393.082 111.212 393.082 112.124V116H392.002V112.28C392.002 111.624 391.838 111.124 391.51 110.78C391.182 110.428 390.734 110.252 390.166 110.252C389.59 110.252 389.13 110.432 388.786 110.792C388.45 111.152 388.282 111.676 388.282 112.364V116H387.19V109.424H388.282V110.36C388.498 110.024 388.79 109.764 389.158 109.58C389.534 109.396 389.946 109.304 390.394 109.304ZM396.197 110.324V114.2C396.197 114.52 396.265 114.748 396.401 114.884C396.537 115.012 396.773 115.076 397.109 115.076H397.913V116H396.929C396.321 116 395.865 115.86 395.561 115.58C395.257 115.3 395.105 114.84 395.105 114.2V110.324H394.253V109.424H395.105V107.768H396.197V109.424H397.913V110.324H396.197ZM406.228 116.084C405.452 116.084 404.744 115.904 404.104 115.544C403.464 115.176 402.956 114.668 402.58 114.02C402.212 113.364 402.028 112.628 402.028 111.812C402.028 110.996 402.212 110.264 402.58 109.616C402.956 108.96 403.464 108.452 404.104 108.092C404.744 107.724 405.452 107.54 406.228 107.54C407.012 107.54 407.724 107.724 408.364 108.092C409.004 108.452 409.508 108.956 409.876 109.604C410.244 110.252 410.428 110.988 410.428 111.812C410.428 112.636 410.244 113.372 409.876 114.02C409.508 114.668 409.004 115.176 408.364 115.544C407.724 115.904 407.012 116.084 406.228 116.084ZM406.228 115.136C406.812 115.136 407.336 115 407.8 114.728C408.272 114.456 408.64 114.068 408.904 113.564C409.176 113.06 409.312 112.476 409.312 111.812C409.312 111.14 409.176 110.556 408.904 110.06C408.64 109.556 408.276 109.168 407.812 108.896C407.348 108.624 406.82 108.488 406.228 108.488C405.636 108.488 405.108 108.624 404.644 108.896C404.18 109.168 403.812 109.556 403.54 110.06C403.276 110.556 403.144 111.14 403.144 111.812C403.144 112.476 403.276 113.06 403.54 113.564C403.812 114.068 404.18 114.456 404.644 114.728C405.116 115 405.644 115.136 406.228 115.136ZM414.317 114.992L416.357 109.424H417.521L414.941 116H413.669L411.089 109.424H412.265L414.317 114.992ZM424.596 112.46C424.596 112.668 424.584 112.888 424.56 113.12H419.304C419.344 113.768 419.564 114.276 419.964 114.644C420.372 115.004 420.864 115.184 421.44 115.184C421.912 115.184 422.304 115.076 422.616 114.86C422.936 114.636 423.16 114.34 423.288 113.972H424.464C424.288 114.604 423.936 115.12 423.408 115.52C422.88 115.912 422.224 116.108 421.44 116.108C420.816 116.108 420.256 115.968 419.76 115.688C419.272 115.408 418.888 115.012 418.608 114.5C418.328 113.98 418.188 113.38 418.188 112.7C418.188 112.02 418.324 111.424 418.596 110.912C418.868 110.4 419.248 110.008 419.736 109.736C420.232 109.456 420.8 109.316 421.44 109.316C422.064 109.316 422.616 109.452 423.096 109.724C423.576 109.996 423.944 110.372 424.2 110.852C424.464 111.324 424.596 111.86 424.596 112.46ZM423.468 112.232C423.468 111.816 423.376 111.46 423.192 111.164C423.008 110.86 422.756 110.632 422.436 110.48C422.124 110.32 421.776 110.24 421.392 110.24C420.84 110.24 420.368 110.416 419.976 110.768C419.592 111.12 419.372 111.608 419.316 112.232H423.468ZM427.129 110.492C427.321 110.116 427.593 109.824 427.945 109.616C428.305 109.408 428.741 109.304 429.253 109.304V110.432H428.965C427.741 110.432 427.129 111.096 427.129 112.424V116H426.037V109.424H427.129V110.492ZM432.962 114.992L435.002 109.424H436.166L433.586 116H432.314L429.734 109.424H430.91L432.962 114.992ZM437.804 108.356C437.596 108.356 437.42 108.284 437.276 108.14C437.132 107.996 437.06 107.82 437.06 107.612C437.06 107.404 437.132 107.228 437.276 107.084C437.42 106.94 437.596 106.868 437.804 106.868C438.004 106.868 438.172 106.94 438.308 107.084C438.452 107.228 438.524 107.404 438.524 107.612C438.524 107.82 438.452 107.996 438.308 108.14C438.172 108.284 438.004 108.356 437.804 108.356ZM438.332 109.424V116H437.24V109.424H438.332ZM446.194 112.46C446.194 112.668 446.182 112.888 446.158 113.12H440.902C440.942 113.768 441.162 114.276 441.562 114.644C441.97 115.004 442.462 115.184 443.038 115.184C443.51 115.184 443.902 115.076 444.214 114.86C444.534 114.636 444.758 114.34 444.886 113.972H446.062C445.886 114.604 445.534 115.12 445.006 115.52C444.478 115.912 443.822 116.108 443.038 116.108C442.414 116.108 441.854 115.968 441.358 115.688C440.87 115.408 440.486 115.012 440.206 114.5C439.926 113.98 439.786 113.38 439.786 112.7C439.786 112.02 439.922 111.424 440.194 110.912C440.466 110.4 440.846 110.008 441.334 109.736C441.83 109.456 442.398 109.316 443.038 109.316C443.662 109.316 444.214 109.452 444.694 109.724C445.174 109.996 445.542 110.372 445.798 110.852C446.062 111.324 446.194 111.86 446.194 112.46ZM445.066 112.232C445.066 111.816 444.974 111.46 444.79 111.164C444.606 110.86 444.354 110.632 444.034 110.48C443.722 110.32 443.374 110.24 442.99 110.24C442.438 110.24 441.966 110.416 441.574 110.768C441.19 111.12 440.97 111.608 440.914 112.232H445.066ZM456.395 109.424L454.343 116H453.215L451.631 110.78L450.047 116H448.919L446.855 109.424H447.971L449.483 114.944L451.115 109.424H452.231L453.827 114.956L455.315 109.424H456.395Z" fill="#14171B"/>
</g>
<defs>
<clipPath id="clip0_68_1519">
<rect width="663" height="333" fill="white"/>
</clipPath>
</defs>
</svg>
