<svg width="364" height="257" viewBox="0 0 364 257" fill="none" xmlns="http://www.w3.org/2000/svg">
<g filter="url(#filter0_bd_11523_37735)">
<rect x="78" y="234" width="66" height="66" rx="10" transform="rotate(-180 78 234)" fill="#2DA771"/>
<rect x="78.5171" y="234.517" width="67.0342" height="67.0342" rx="10.5171" transform="rotate(-180 78.5171 234.517)" stroke="#EAEAEA" stroke-width="1.03417"/>
</g>
<path d="M27.9102 201.287H33.0539" stroke="white" stroke-width="1.5" stroke-linecap="round" stroke-linejoin="round"/>
<path d="M26.625 191C28.7556 191 30.4828 192.727 30.4828 194.858V207.716C30.4828 209.847 28.7556 211.574 26.625 211.574" stroke="white" stroke-width="1.5" stroke-linecap="round" stroke-linejoin="round"/>
<path d="M34.3383 191C32.2077 191 30.4805 192.727 30.4805 194.858V207.716C30.4805 209.847 32.2077 211.574 34.3383 211.574" stroke="white" stroke-width="1.5" stroke-linecap="round" stroke-linejoin="round"/>
<path fill-rule="evenodd" clip-rule="evenodd" d="M54.9141 198.717L60.7689 195.79C61.1674 195.591 61.6406 195.612 62.0196 195.846C62.3986 196.08 62.6294 196.494 62.6296 196.939V205.637C62.6294 206.082 62.3986 206.496 62.0196 206.73C61.6406 206.964 61.1674 206.986 60.7689 206.787L54.9141 203.86V198.717Z" stroke="white" stroke-width="1.5" stroke-linecap="round" stroke-linejoin="round"/>
<rect x="39.4844" y="193.572" width="15.4312" height="15.4302" rx="2.57178" stroke="white" stroke-width="1.5" stroke-linecap="round" stroke-linejoin="round"/>
<g filter="url(#filter1_bd_11523_37735)">
<rect x="214" y="89" width="66" height="66" rx="10" transform="rotate(-180 214 89)" fill="#2DA771"/>
<rect x="214.517" y="89.5171" width="67.0342" height="67.0342" rx="10.5171" transform="rotate(-180 214.517 89.5171)" stroke="#EAEAEA" stroke-width="1.03417"/>
<path fill-rule="evenodd" clip-rule="evenodd" d="M195.656 48.2109C195.656 47.5476 195.394 46.9113 194.925 46.4426C194.456 45.9738 193.819 45.7101 193.157 45.7101H187.166L184.222 42.7688C184.106 42.6516 183.947 42.5859 183.782 42.5859H177.531C177.366 42.5859 177.206 42.6516 177.09 42.7688L174.146 45.7101H168.156C167.494 45.7101 166.856 45.9738 166.387 46.4426C165.919 46.9113 165.656 47.5476 165.656 48.2109V65.7104C165.656 66.3737 165.919 67.01 166.387 67.4787C166.856 67.9475 167.494 68.21 168.156 68.21H193.155C193.817 68.21 194.455 67.9463 194.924 67.4776C195.394 67.01 195.656 66.3737 195.656 65.7104L195.656 48.2109ZM194.406 48.2109V65.7104C194.406 66.042 194.275 66.3596 194.04 66.594C193.806 66.8283 193.487 66.9608 193.157 66.9608H168.156C167.826 66.9608 167.507 66.8284 167.272 66.594C167.038 66.3596 166.907 66.042 166.907 65.7104V48.2109C166.907 47.8792 167.038 47.5617 167.272 47.3273C167.507 47.0918 167.826 46.9605 168.156 46.9605H174.406C174.571 46.9605 174.73 46.8949 174.846 46.7777L177.791 43.8351H183.523L186.466 46.7765C186.581 46.8949 186.741 46.9605 186.906 46.9605H193.155C193.487 46.9605 193.806 47.0918 194.04 47.3273C194.274 47.5617 194.406 47.8792 194.406 48.2109ZM187.809 56.2406C187.832 56.4774 187.843 56.7176 187.843 56.9602C187.843 60.927 184.622 64.1484 180.656 64.1484C176.691 64.1484 173.469 60.927 173.469 56.9602C173.469 52.9933 176.691 49.7731 180.656 49.7731C181.009 49.7731 181.36 49.7989 181.701 49.8481C182.042 49.8973 182.357 49.6606 182.407 49.3196C182.456 48.9786 182.219 48.661 181.879 48.6118C181.478 48.5532 181.072 48.5227 180.656 48.5227C176 48.5227 172.219 52.3033 172.219 56.9602C172.219 61.617 176 65.3976 180.656 65.3976C185.312 65.3976 189.094 61.617 189.094 56.9602C189.094 56.6754 189.079 56.3942 189.053 56.1176C189.019 55.7742 188.712 55.5234 188.369 55.5574C188.025 55.5914 187.774 55.8985 187.809 56.2406ZM179.368 55.4942C179.278 55.2481 179.044 55.0852 178.781 55.0852C178.519 55.0852 178.284 55.2481 178.194 55.493L177.45 57.5051L175.44 58.2492C175.194 58.3406 175.031 58.5738 175.031 58.8352C175.031 59.0965 175.194 59.3308 175.44 59.4211L177.45 60.1652L178.194 62.1773C178.284 62.4222 178.519 62.5851 178.781 62.5851C179.044 62.5851 179.278 62.4222 179.368 62.1773L180.113 60.1652L182.122 59.4211C182.368 59.3308 182.531 59.0977 182.531 58.8352C182.531 58.5738 182.368 58.3406 182.122 58.2492L180.113 57.5051L179.368 55.4942ZM178.781 57.5121L179.04 58.2094C179.102 58.3805 179.237 58.5152 179.409 58.5785L180.107 58.8352L179.409 59.093C179.237 59.1563 179.104 59.291 179.04 59.4621L178.781 60.1594L178.525 59.4621C178.459 59.291 178.324 59.1563 178.153 59.093L177.456 58.8352L178.153 58.5774C178.325 58.5141 178.459 58.3793 178.525 58.2082L178.781 57.5121ZM184.982 47.3686C184.89 47.1237 184.656 46.9608 184.397 46.9608C184.134 46.9608 183.9 47.1237 183.81 47.3686L182.306 51.4327L178.241 52.9362C177.997 53.0276 177.834 53.2608 177.834 53.5221C177.834 53.7834 177.997 54.0178 178.241 54.108L182.306 55.6115L183.81 59.6756C183.9 59.9205 184.134 60.0834 184.397 60.0834C184.656 60.0834 184.89 59.9205 184.982 59.6756L186.488 55.6115L190.55 54.108C190.798 54.0166 190.959 53.7834 190.959 53.5221C190.959 53.2608 190.797 53.0264 190.55 52.9362L186.488 51.4327L184.982 47.3686ZM184.397 49.3866L185.413 52.1358C185.479 52.3069 185.613 52.4416 185.784 52.5049L188.531 53.5233L185.784 54.5404C185.612 54.6037 185.479 54.7385 185.413 54.9096L184.397 57.6588L183.379 54.9096C183.317 54.7385 183.182 54.6037 183.009 54.5404L180.259 53.5233L183.009 52.5061C183.182 52.4428 183.315 52.308 183.379 52.1369L184.397 49.3866ZM189.094 49.1487H188.469C188.126 49.1487 187.845 49.4287 187.845 49.7733C187.845 50.1178 188.126 50.3979 188.469 50.3979H189.094V51.0225C189.094 51.367 189.375 51.6471 189.718 51.6471C190.062 51.6471 190.343 51.367 190.343 51.0225V50.3979H190.968C191.311 50.3979 191.592 50.1178 191.592 49.7733C191.592 49.4287 191.311 49.1487 190.968 49.1487H190.343V48.5241C190.343 48.1796 190.062 47.8995 189.718 47.8995C189.375 47.8995 189.094 48.1796 189.094 48.5241V49.1487Z" fill="white"/>
</g>
<g filter="url(#filter2_bd_11523_37735)">
<rect x="352" y="231" width="66" height="66" rx="10" transform="rotate(-180 352 231)" fill="#2DA771"/>
<rect x="352.517" y="231.517" width="67.0342" height="67.0342" rx="10.5171" transform="rotate(-180 352.517 231.517)" stroke="#EAEAEA" stroke-width="1.03417"/>
<path fill-rule="evenodd" clip-rule="evenodd" d="M320.132 183.75L303.251 183.75C302.654 183.75 302.08 183.987 301.657 184.409C301.236 184.83 301 185.403 301 186L301 213.75C301 214.346 301.236 214.919 301.657 215.34C302.08 215.762 302.654 216 303.251 216L328.76 216C329.357 216 329.927 215.762 330.351 215.34C330.772 214.919 331.011 214.346 331.011 213.75L331.011 200.25C331.011 199.837 330.674 199.5 330.261 199.5C329.845 199.5 329.512 199.837 329.512 200.25L329.512 213.75C329.512 213.948 329.433 214.14 329.291 214.28C329.151 214.421 328.96 214.5 328.762 214.5L303.251 214.5C303.052 214.5 302.861 214.421 302.719 214.28C302.58 214.14 302.501 213.948 302.501 213.75L302.501 186C302.501 185.801 302.58 185.611 302.719 185.47C302.861 185.33 303.052 185.249 303.251 185.249L320.132 185.249C320.545 185.249 320.882 184.913 320.882 184.5C320.882 184.087 320.545 183.75 320.132 183.75ZM311.497 209.625C311.884 209.625 312.274 209.512 312.6 209.302C314.273 208.221 322.122 203.145 324.41 201.663C325.018 201.271 325.385 200.597 325.385 199.876C325.385 199.153 325.018 198.481 324.41 198.089C322.122 196.606 314.273 191.53 312.6 190.448C312.274 190.239 311.883 190.125 311.497 190.125C310.998 190.125 310.529 190.322 310.176 190.673C309.823 191.025 309.629 191.501 309.629 191.998L309.629 207.749C309.629 208.786 310.462 209.624 311.497 209.624L311.497 209.625ZM311.497 208.125C311.291 208.125 311.13 207.956 311.13 207.75L311.13 191.998C311.13 191.898 311.168 191.804 311.239 191.734C311.306 191.665 311.399 191.625 311.497 191.625C311.599 191.625 311.7 191.653 311.786 191.708L323.596 199.347C323.776 199.463 323.884 199.661 323.884 199.875C323.884 200.087 323.776 200.287 323.596 200.402C321.303 201.885 313.459 206.961 311.786 208.042C311.7 208.097 311.599 208.125 311.497 208.125ZM333.203 190.24C333.095 189.945 332.813 189.749 332.498 189.749C332.187 189.749 331.906 189.945 331.796 190.239L330.903 192.653L328.487 193.546C328.195 193.656 327.996 193.936 327.996 194.249C327.996 194.563 328.195 194.844 328.487 194.952L330.903 195.845L331.796 198.26C331.905 198.554 332.186 198.749 332.498 198.749C332.813 198.749 333.095 198.554 333.203 198.26L334.096 195.845L336.512 194.952C336.804 194.843 337 194.563 337 194.249C337 193.936 336.804 193.655 336.512 193.546L334.096 192.653L333.203 190.239L333.203 190.24ZM332.498 192.662L332.809 193.498C332.884 193.704 333.045 193.865 333.252 193.941L334.088 194.249L333.251 194.559C333.044 194.635 332.884 194.796 332.808 195.002L332.497 195.838L332.189 195.002C332.114 194.796 331.948 194.635 331.746 194.559L330.911 194.249L331.748 193.94C331.951 193.864 332.116 193.702 332.192 193.497L332.498 192.662ZM326.462 180.489C326.353 180.195 326.072 180 325.76 180C325.444 180 325.163 180.195 325.055 180.489L323.25 185.366L318.37 187.171C318.077 187.28 317.881 187.56 317.881 187.874C317.881 188.187 318.077 188.468 318.37 188.577L323.25 190.381L325.055 195.258C325.163 195.552 325.444 195.747 325.76 195.747C326.07 195.747 326.352 195.552 326.462 195.258L328.266 190.382L333.147 188.578C333.439 188.469 333.638 188.189 333.638 187.875C333.638 187.561 333.439 187.28 333.147 187.172L328.266 185.368L326.462 180.491L326.462 180.489ZM325.76 182.911L326.979 186.21C327.054 186.415 327.22 186.577 327.422 186.653L330.723 187.875L327.421 189.096C327.218 189.172 327.054 189.333 326.978 189.539L325.758 192.838L324.536 189.539C324.461 189.333 324.299 189.172 324.093 189.096L320.794 187.875L324.095 186.654C324.302 186.578 324.462 186.417 324.538 186.211L325.76 182.911ZM331.762 182.625L331.013 182.625C330.596 182.625 330.263 182.962 330.263 183.375C330.263 183.788 330.596 184.125 331.013 184.125L331.762 184.125L331.762 184.874C331.762 185.287 332.096 185.624 332.512 185.624C332.924 185.624 333.262 185.287 333.262 184.874L333.262 184.125L334.012 184.125C334.424 184.125 334.762 183.788 334.762 183.375C334.762 182.962 334.424 182.625 334.012 182.625L333.262 182.625L333.263 181.875C333.263 181.461 332.926 181.125 332.514 181.125C332.097 181.125 331.764 181.461 331.764 181.875L331.762 182.625Z" fill="white"/>
</g>
<path d="M289.81 243.333V244.147H287.72V251H286.719V244.147H284.618V243.333H289.81ZM296.576 247.755C296.576 247.946 296.565 248.147 296.543 248.36H291.725C291.761 248.954 291.963 249.42 292.33 249.757C292.704 250.087 293.155 250.252 293.683 250.252C294.115 250.252 294.475 250.153 294.761 249.955C295.054 249.75 295.259 249.478 295.377 249.141H296.455C296.293 249.72 295.971 250.193 295.487 250.56C295.003 250.919 294.401 251.099 293.683 251.099C293.111 251.099 292.597 250.971 292.143 250.714C291.695 250.457 291.343 250.094 291.087 249.625C290.83 249.148 290.702 248.598 290.702 247.975C290.702 247.352 290.826 246.805 291.076 246.336C291.325 245.867 291.673 245.507 292.121 245.258C292.575 245.001 293.096 244.873 293.683 244.873C294.255 244.873 294.761 244.998 295.201 245.247C295.641 245.496 295.978 245.841 296.213 246.281C296.455 246.714 296.576 247.205 296.576 247.755ZM295.542 247.546C295.542 247.165 295.457 246.838 295.289 246.567C295.12 246.288 294.889 246.079 294.596 245.94C294.31 245.793 293.991 245.72 293.639 245.72C293.133 245.72 292.7 245.881 292.341 246.204C291.989 246.527 291.787 246.974 291.736 247.546H295.542ZM301.076 251L299.646 248.756L298.271 251H297.226L299.173 248.008L297.226 244.972H298.359L299.789 247.205L301.153 244.972H302.198L300.262 247.953L302.209 251H301.076ZM304.448 245.797V249.35C304.448 249.643 304.51 249.852 304.635 249.977C304.759 250.094 304.976 250.153 305.284 250.153H306.021V251H305.119C304.561 251 304.143 250.872 303.865 250.615C303.586 250.358 303.447 249.937 303.447 249.35V245.797H302.666V244.972H303.447V243.454H304.448V244.972H306.021V245.797H304.448ZM311.453 245.797V249.35C311.453 249.643 311.515 249.852 311.64 249.977C311.765 250.094 311.981 250.153 312.289 250.153H313.026V251H312.124C311.567 251 311.149 250.872 310.87 250.615C310.591 250.358 310.452 249.937 310.452 249.35V245.797H309.671V244.972H310.452V243.454H311.453V244.972H313.026V245.797H311.453ZM316.901 251.099C316.336 251.099 315.823 250.971 315.361 250.714C314.906 250.457 314.547 250.094 314.283 249.625C314.026 249.148 313.898 248.598 313.898 247.975C313.898 247.359 314.03 246.816 314.294 246.347C314.565 245.87 314.932 245.507 315.394 245.258C315.856 245.001 316.373 244.873 316.945 244.873C317.517 244.873 318.034 245.001 318.496 245.258C318.958 245.507 319.321 245.867 319.585 246.336C319.856 246.805 319.992 247.352 319.992 247.975C319.992 248.598 319.852 249.148 319.574 249.625C319.302 250.094 318.932 250.457 318.463 250.714C317.993 250.971 317.473 251.099 316.901 251.099ZM316.901 250.219C317.26 250.219 317.597 250.135 317.913 249.966C318.228 249.797 318.481 249.544 318.672 249.207C318.87 248.87 318.969 248.459 318.969 247.975C318.969 247.491 318.873 247.08 318.683 246.743C318.492 246.406 318.243 246.156 317.935 245.995C317.627 245.826 317.293 245.742 316.934 245.742C316.567 245.742 316.23 245.826 315.922 245.995C315.621 246.156 315.379 246.406 315.196 246.743C315.012 247.08 314.921 247.491 314.921 247.975C314.921 248.466 315.009 248.881 315.185 249.218C315.368 249.555 315.61 249.808 315.911 249.977C316.211 250.138 316.541 250.219 316.901 250.219ZM326.551 250.076L328.421 244.972H329.488L327.123 251H325.957L323.592 244.972H324.67L326.551 250.076ZM331.023 243.993C330.832 243.993 330.671 243.927 330.539 243.795C330.407 243.663 330.341 243.502 330.341 243.311C330.341 243.12 330.407 242.959 330.539 242.827C330.671 242.695 330.832 242.629 331.023 242.629C331.206 242.629 331.36 242.695 331.485 242.827C331.617 242.959 331.683 243.12 331.683 243.311C331.683 243.502 331.617 243.663 331.485 243.795C331.36 243.927 331.206 243.993 331.023 243.993ZM331.507 244.972V251H330.506V244.972H331.507ZM332.872 247.964C332.872 247.348 332.996 246.809 333.246 246.347C333.495 245.878 333.836 245.515 334.269 245.258C334.709 245.001 335.2 244.873 335.743 244.873C336.212 244.873 336.648 244.983 337.052 245.203C337.455 245.416 337.763 245.698 337.976 246.05V242.86H338.988V251H337.976V249.867C337.778 250.226 337.484 250.523 337.096 250.758C336.707 250.985 336.252 251.099 335.732 251.099C335.196 251.099 334.709 250.967 334.269 250.703C333.836 250.439 333.495 250.069 333.246 249.592C332.996 249.115 332.872 248.573 332.872 247.964ZM337.976 247.975C337.976 247.52 337.884 247.124 337.701 246.787C337.517 246.45 337.268 246.193 336.953 246.017C336.645 245.834 336.304 245.742 335.93 245.742C335.556 245.742 335.215 245.83 334.907 246.006C334.599 246.182 334.353 246.439 334.17 246.776C333.986 247.113 333.895 247.509 333.895 247.964C333.895 248.426 333.986 248.829 334.17 249.174C334.353 249.511 334.599 249.772 334.907 249.955C335.215 250.131 335.556 250.219 335.93 250.219C336.304 250.219 336.645 250.131 336.953 249.955C337.268 249.772 337.517 249.511 337.701 249.174C337.884 248.829 337.976 248.43 337.976 247.975ZM346.212 247.755C346.212 247.946 346.201 248.147 346.179 248.36H341.361C341.398 248.954 341.6 249.42 341.966 249.757C342.34 250.087 342.791 250.252 343.319 250.252C343.752 250.252 344.111 250.153 344.397 249.955C344.691 249.75 344.896 249.478 345.013 249.141H346.091C345.93 249.72 345.607 250.193 345.123 250.56C344.639 250.919 344.038 251.099 343.319 251.099C342.747 251.099 342.234 250.971 341.779 250.714C341.332 250.457 340.98 250.094 340.723 249.625C340.467 249.148 340.338 248.598 340.338 247.975C340.338 247.352 340.463 246.805 340.712 246.336C340.962 245.867 341.31 245.507 341.757 245.258C342.212 245.001 342.733 244.873 343.319 244.873C343.891 244.873 344.397 244.998 344.837 245.247C345.277 245.496 345.615 245.841 345.849 246.281C346.091 246.714 346.212 247.205 346.212 247.755ZM345.178 247.546C345.178 247.165 345.094 246.838 344.925 246.567C344.757 246.288 344.526 246.079 344.232 245.94C343.946 245.793 343.627 245.72 343.275 245.72C342.769 245.72 342.337 245.881 341.977 246.204C341.625 246.527 341.424 246.974 341.372 247.546H345.178ZM350.195 251.099C349.631 251.099 349.117 250.971 348.655 250.714C348.201 250.457 347.841 250.094 347.577 249.625C347.321 249.148 347.192 248.598 347.192 247.975C347.192 247.359 347.324 246.816 347.588 246.347C347.86 245.87 348.226 245.507 348.688 245.258C349.15 245.001 349.667 244.873 350.239 244.873C350.811 244.873 351.328 245.001 351.79 245.258C352.252 245.507 352.615 245.867 352.879 246.336C353.151 246.805 353.286 247.352 353.286 247.975C353.286 248.598 353.147 249.148 352.868 249.625C352.597 250.094 352.227 250.457 351.757 250.714C351.288 250.971 350.767 251.099 350.195 251.099ZM350.195 250.219C350.555 250.219 350.892 250.135 351.207 249.966C351.523 249.797 351.776 249.544 351.966 249.207C352.164 248.87 352.263 248.459 352.263 247.975C352.263 247.491 352.168 247.08 351.977 246.743C351.787 246.406 351.537 246.156 351.229 245.995C350.921 245.826 350.588 245.742 350.228 245.742C349.862 245.742 349.524 245.826 349.216 245.995C348.916 246.156 348.674 246.406 348.49 246.743C348.307 247.08 348.215 247.491 348.215 247.975C348.215 248.466 348.303 248.881 348.479 249.218C348.663 249.555 348.905 249.808 349.205 249.977C349.506 250.138 349.836 250.219 350.195 250.219Z" fill="#666666"/>
<path d="M117.626 8.295H114.282L113.666 10H112.61L115.382 2.377H116.537L119.298 10H118.242L117.626 8.295ZM117.34 7.481L115.954 3.609L114.568 7.481H117.34ZM121.54 2.333V10H120.539V2.333H121.54ZM127.246 5.094C127.451 4.73467 127.752 4.44133 128.148 4.214C128.544 3.98667 128.995 3.873 129.501 3.873C130.043 3.873 130.531 4.00133 130.964 4.258C131.396 4.51467 131.737 4.87767 131.987 5.347C132.236 5.809 132.361 6.348 132.361 6.964C132.361 7.57267 132.236 8.11533 131.987 8.592C131.737 9.06867 131.393 9.439 130.953 9.703C130.52 9.967 130.036 10.099 129.501 10.099C128.98 10.099 128.522 9.98533 128.126 9.758C127.737 9.53067 127.444 9.241 127.246 8.889V10H126.245V1.86H127.246V5.094ZM131.338 6.964C131.338 6.50933 131.246 6.11333 131.063 5.776C130.879 5.43867 130.63 5.182 130.315 5.006C130.007 4.83 129.666 4.742 129.292 4.742C128.925 4.742 128.584 4.83367 128.269 5.017C127.961 5.193 127.711 5.45333 127.521 5.798C127.337 6.13533 127.246 6.52767 127.246 6.975C127.246 7.42967 127.337 7.82933 127.521 8.174C127.711 8.51133 127.961 8.77167 128.269 8.955C128.584 9.131 128.925 9.219 129.292 9.219C129.666 9.219 130.007 9.131 130.315 8.955C130.63 8.77167 130.879 8.51133 131.063 8.174C131.246 7.82933 131.338 7.426 131.338 6.964ZM133.337 6.964C133.337 6.348 133.462 5.809 133.711 5.347C133.961 4.87767 134.302 4.51467 134.734 4.258C135.174 4.00133 135.662 3.873 136.197 3.873C136.725 3.873 137.184 3.98667 137.572 4.214C137.961 4.44133 138.251 4.72733 138.441 5.072V3.972H139.453V10H138.441V8.878C138.243 9.23 137.946 9.52333 137.55 9.758C137.162 9.98533 136.707 10.099 136.186 10.099C135.651 10.099 135.167 9.967 134.734 9.703C134.302 9.439 133.961 9.06867 133.711 8.592C133.462 8.11533 133.337 7.57267 133.337 6.964ZM138.441 6.975C138.441 6.52033 138.35 6.12433 138.166 5.787C137.983 5.44967 137.734 5.193 137.418 5.017C137.11 4.83367 136.769 4.742 136.395 4.742C136.021 4.742 135.68 4.83 135.372 5.006C135.064 5.182 134.819 5.43867 134.635 5.776C134.452 6.11333 134.36 6.50933 134.36 6.964C134.36 7.426 134.452 7.82933 134.635 8.174C134.819 8.51133 135.064 8.77167 135.372 8.955C135.68 9.131 136.021 9.219 136.395 9.219C136.769 9.219 137.11 9.131 137.418 8.955C137.734 8.77167 137.983 8.51133 138.166 8.174C138.35 7.82933 138.441 7.42967 138.441 6.975ZM140.804 6.975C140.804 6.35167 140.928 5.809 141.178 5.347C141.427 4.87767 141.772 4.51467 142.212 4.258C142.659 4.00133 143.169 3.873 143.741 3.873C144.481 3.873 145.09 4.05267 145.567 4.412C146.051 4.77133 146.37 5.27 146.524 5.908H145.446C145.343 5.54133 145.141 5.25167 144.841 5.039C144.547 4.82633 144.181 4.72 143.741 4.72C143.169 4.72 142.707 4.918 142.355 5.314C142.003 5.70267 141.827 6.25633 141.827 6.975C141.827 7.701 142.003 8.262 142.355 8.658C142.707 9.054 143.169 9.252 143.741 9.252C144.181 9.252 144.547 9.14933 144.841 8.944C145.134 8.73867 145.336 8.44533 145.446 8.064H146.524C146.362 8.68 146.04 9.175 145.556 9.549C145.072 9.91567 144.467 10.099 143.741 10.099C143.169 10.099 142.659 9.97067 142.212 9.714C141.772 9.45733 141.427 9.09433 141.178 8.625C140.928 8.15567 140.804 7.60567 140.804 6.975ZM151.258 10L148.893 7.338V10H147.892V1.86H148.893V6.645L151.214 3.972H152.611L149.773 6.975L152.622 10H151.258ZM156.073 3.873C156.593 3.873 157.048 3.98667 157.437 4.214C157.833 4.44133 158.126 4.72733 158.317 5.072V3.972H159.329V10.132C159.329 10.682 159.211 11.1697 158.977 11.595C158.742 12.0277 158.405 12.365 157.965 12.607C157.532 12.849 157.026 12.97 156.447 12.97C155.655 12.97 154.995 12.783 154.467 12.409C153.939 12.035 153.627 11.5253 153.532 10.88H154.522C154.632 11.2467 154.859 11.54 155.204 11.76C155.548 11.9873 155.963 12.101 156.447 12.101C156.997 12.101 157.444 11.9287 157.789 11.584C158.141 11.2393 158.317 10.7553 158.317 10.132V8.867C158.119 9.219 157.825 9.51233 157.437 9.747C157.048 9.98167 156.593 10.099 156.073 10.099C155.537 10.099 155.05 9.967 154.61 9.703C154.177 9.439 153.836 9.06867 153.587 8.592C153.337 8.11533 153.213 7.57267 153.213 6.964C153.213 6.348 153.337 5.809 153.587 5.347C153.836 4.87767 154.177 4.51467 154.61 4.258C155.05 4.00133 155.537 3.873 156.073 3.873ZM158.317 6.975C158.317 6.52033 158.225 6.12433 158.042 5.787C157.858 5.44967 157.609 5.193 157.294 5.017C156.986 4.83367 156.645 4.742 156.271 4.742C155.897 4.742 155.556 4.83 155.248 5.006C154.94 5.182 154.694 5.43867 154.511 5.776C154.327 6.11333 154.236 6.50933 154.236 6.964C154.236 7.426 154.327 7.82933 154.511 8.174C154.694 8.51133 154.94 8.77167 155.248 8.955C155.556 9.131 155.897 9.219 156.271 9.219C156.645 9.219 156.986 9.131 157.294 8.955C157.609 8.77167 157.858 8.51133 158.042 8.174C158.225 7.82933 158.317 7.42967 158.317 6.975ZM162.054 4.951C162.23 4.60633 162.48 4.33867 162.802 4.148C163.132 3.95733 163.532 3.862 164.001 3.862V4.896H163.737C162.615 4.896 162.054 5.50467 162.054 6.722V10H161.053V3.972H162.054V4.951ZM167.819 10.099C167.254 10.099 166.741 9.97067 166.279 9.714C165.824 9.45733 165.465 9.09433 165.201 8.625C164.944 8.14833 164.816 7.59833 164.816 6.975C164.816 6.359 164.948 5.81633 165.212 5.347C165.483 4.87033 165.85 4.50733 166.312 4.258C166.774 4.00133 167.291 3.873 167.863 3.873C168.435 3.873 168.952 4.00133 169.414 4.258C169.876 4.50733 170.239 4.86667 170.503 5.336C170.774 5.80533 170.91 6.35167 170.91 6.975C170.91 7.59833 170.77 8.14833 170.492 8.625C170.22 9.09433 169.85 9.45733 169.381 9.714C168.911 9.97067 168.391 10.099 167.819 10.099ZM167.819 9.219C168.178 9.219 168.515 9.13467 168.831 8.966C169.146 8.79733 169.399 8.54433 169.59 8.207C169.788 7.86967 169.887 7.459 169.887 6.975C169.887 6.491 169.791 6.08033 169.601 5.743C169.41 5.40567 169.161 5.15633 168.853 4.995C168.545 4.82633 168.211 4.742 167.852 4.742C167.485 4.742 167.148 4.82633 166.84 4.995C166.539 5.15633 166.297 5.40567 166.114 5.743C165.93 6.08033 165.839 6.491 165.839 6.975C165.839 7.46633 165.927 7.88067 166.103 8.218C166.286 8.55533 166.528 8.80833 166.829 8.977C167.129 9.13833 167.459 9.219 167.819 9.219ZM177.605 3.972V10H176.604V9.109C176.413 9.417 176.145 9.659 175.801 9.835C175.463 10.0037 175.089 10.088 174.679 10.088C174.209 10.088 173.788 9.99267 173.414 9.802C173.04 9.604 172.743 9.31067 172.523 8.922C172.31 8.53333 172.204 8.06033 172.204 7.503V3.972H173.194V7.371C173.194 7.965 173.344 8.42333 173.645 8.746C173.945 9.06133 174.356 9.219 174.877 9.219C175.412 9.219 175.834 9.054 176.142 8.724C176.45 8.394 176.604 7.91367 176.604 7.283V3.972H177.605ZM182.265 3.862C182.998 3.862 183.592 4.08567 184.047 4.533C184.502 4.973 184.729 5.611 184.729 6.447V10H183.739V6.59C183.739 5.98867 183.589 5.53033 183.288 5.215C182.987 4.89233 182.577 4.731 182.056 4.731C181.528 4.731 181.106 4.896 180.791 5.226C180.483 5.556 180.329 6.03633 180.329 6.667V10H179.328V3.972H180.329V4.83C180.527 4.522 180.795 4.28367 181.132 4.115C181.477 3.94633 181.854 3.862 182.265 3.862ZM186.023 6.964C186.023 6.348 186.148 5.809 186.397 5.347C186.646 4.87767 186.987 4.51467 187.42 4.258C187.86 4.00133 188.351 3.873 188.894 3.873C189.363 3.873 189.8 3.983 190.203 4.203C190.606 4.41567 190.914 4.698 191.127 5.05V1.86H192.139V10H191.127V8.867C190.929 9.22633 190.636 9.52333 190.247 9.758C189.858 9.98533 189.404 10.099 188.883 10.099C188.348 10.099 187.86 9.967 187.42 9.703C186.987 9.439 186.646 9.06867 186.397 8.592C186.148 8.11533 186.023 7.57267 186.023 6.964ZM191.127 6.975C191.127 6.52033 191.035 6.12433 190.852 5.787C190.669 5.44967 190.419 5.193 190.104 5.017C189.796 4.83367 189.455 4.742 189.081 4.742C188.707 4.742 188.366 4.83 188.058 5.006C187.75 5.182 187.504 5.43867 187.321 5.776C187.138 6.11333 187.046 6.50933 187.046 6.964C187.046 7.426 187.138 7.82933 187.321 8.174C187.504 8.51133 187.75 8.77167 188.058 8.955C188.366 9.131 188.707 9.219 189.081 9.219C189.455 9.219 189.796 9.131 190.104 8.955C190.419 8.77167 190.669 8.51133 190.852 8.174C191.035 7.82933 191.127 7.42967 191.127 6.975ZM199.315 3.873C199.836 3.873 200.291 3.98667 200.679 4.214C201.075 4.44133 201.369 4.72733 201.559 5.072V3.972H202.571V10.132C202.571 10.682 202.454 11.1697 202.219 11.595C201.985 12.0277 201.647 12.365 201.207 12.607C200.775 12.849 200.269 12.97 199.689 12.97C198.897 12.97 198.237 12.783 197.709 12.409C197.181 12.035 196.87 11.5253 196.774 10.88H197.764C197.874 11.2467 198.102 11.54 198.446 11.76C198.791 11.9873 199.205 12.101 199.689 12.101C200.239 12.101 200.687 11.9287 201.031 11.584C201.383 11.2393 201.559 10.7553 201.559 10.132V8.867C201.361 9.219 201.068 9.51233 200.679 9.747C200.291 9.98167 199.836 10.099 199.315 10.099C198.78 10.099 198.292 9.967 197.852 9.703C197.42 9.439 197.079 9.06867 196.829 8.592C196.58 8.11533 196.455 7.57267 196.455 6.964C196.455 6.348 196.58 5.809 196.829 5.347C197.079 4.87767 197.42 4.51467 197.852 4.258C198.292 4.00133 198.78 3.873 199.315 3.873ZM201.559 6.975C201.559 6.52033 201.468 6.12433 201.284 5.787C201.101 5.44967 200.852 5.193 200.536 5.017C200.228 4.83367 199.887 4.742 199.513 4.742C199.139 4.742 198.798 4.83 198.49 5.006C198.182 5.182 197.937 5.43867 197.753 5.776C197.57 6.11333 197.478 6.50933 197.478 6.964C197.478 7.426 197.57 7.82933 197.753 8.174C197.937 8.51133 198.182 8.77167 198.49 8.955C198.798 9.131 199.139 9.219 199.513 9.219C199.887 9.219 200.228 9.131 200.536 8.955C200.852 8.77167 201.101 8.51133 201.284 8.174C201.468 7.82933 201.559 7.42967 201.559 6.975ZM209.796 6.755C209.796 6.94567 209.785 7.14733 209.763 7.36H204.945C204.982 7.954 205.183 8.41967 205.55 8.757C205.924 9.087 206.375 9.252 206.903 9.252C207.336 9.252 207.695 9.153 207.981 8.955C208.274 8.74967 208.48 8.47833 208.597 8.141H209.675C209.514 8.72033 209.191 9.19333 208.707 9.56C208.223 9.91933 207.622 10.099 206.903 10.099C206.331 10.099 205.818 9.97067 205.363 9.714C204.916 9.45733 204.564 9.09433 204.307 8.625C204.05 8.14833 203.922 7.59833 203.922 6.975C203.922 6.35167 204.047 5.80533 204.296 5.336C204.545 4.86667 204.894 4.50733 205.341 4.258C205.796 4.00133 206.316 3.873 206.903 3.873C207.475 3.873 207.981 3.99767 208.421 4.247C208.861 4.49633 209.198 4.841 209.433 5.281C209.675 5.71367 209.796 6.205 209.796 6.755ZM208.762 6.546C208.762 6.16467 208.678 5.83833 208.509 5.567C208.34 5.28833 208.109 5.07933 207.816 4.94C207.53 4.79333 207.211 4.72 206.859 4.72C206.353 4.72 205.92 4.88133 205.561 5.204C205.209 5.52667 205.007 5.974 204.956 6.546H208.762ZM214.087 3.862C214.821 3.862 215.415 4.08567 215.869 4.533C216.324 4.973 216.551 5.611 216.551 6.447V10H215.561V6.59C215.561 5.98867 215.411 5.53033 215.11 5.215C214.81 4.89233 214.399 4.731 213.878 4.731C213.35 4.731 212.929 4.896 212.613 5.226C212.305 5.556 212.151 6.03633 212.151 6.667V10H211.15V3.972H212.151V4.83C212.349 4.522 212.617 4.28367 212.954 4.115C213.299 3.94633 213.677 3.862 214.087 3.862ZM223.719 6.755C223.719 6.94567 223.708 7.14733 223.686 7.36H218.868C218.905 7.954 219.107 8.41967 219.473 8.757C219.847 9.087 220.298 9.252 220.826 9.252C221.259 9.252 221.618 9.153 221.904 8.955C222.198 8.74967 222.403 8.47833 222.52 8.141H223.598C223.437 8.72033 223.114 9.19333 222.63 9.56C222.146 9.91933 221.545 10.099 220.826 10.099C220.254 10.099 219.741 9.97067 219.286 9.714C218.839 9.45733 218.487 9.09433 218.23 8.625C217.974 8.14833 217.845 7.59833 217.845 6.975C217.845 6.35167 217.97 5.80533 218.219 5.336C218.469 4.86667 218.817 4.50733 219.264 4.258C219.719 4.00133 220.24 3.873 220.826 3.873C221.398 3.873 221.904 3.99767 222.344 4.247C222.784 4.49633 223.122 4.841 223.356 5.281C223.598 5.71367 223.719 6.205 223.719 6.755ZM222.685 6.546C222.685 6.16467 222.601 5.83833 222.432 5.567C222.264 5.28833 222.033 5.07933 221.739 4.94C221.453 4.79333 221.134 4.72 220.782 4.72C220.276 4.72 219.844 4.88133 219.484 5.204C219.132 5.52667 218.931 5.974 218.879 6.546H222.685ZM226.075 4.951C226.251 4.60633 226.5 4.33867 226.823 4.148C227.153 3.95733 227.552 3.862 228.022 3.862V4.896H227.758C226.636 4.896 226.075 5.50467 226.075 6.722V10H225.074V3.972H226.075V4.951ZM228.836 6.964C228.836 6.348 228.961 5.809 229.21 5.347C229.459 4.87767 229.8 4.51467 230.233 4.258C230.673 4.00133 231.161 3.873 231.696 3.873C232.224 3.873 232.682 3.98667 233.071 4.214C233.46 4.44133 233.749 4.72733 233.94 5.072V3.972H234.952V10H233.94V8.878C233.742 9.23 233.445 9.52333 233.049 9.758C232.66 9.98533 232.206 10.099 231.685 10.099C231.15 10.099 230.666 9.967 230.233 9.703C229.8 9.439 229.459 9.06867 229.21 8.592C228.961 8.11533 228.836 7.57267 228.836 6.964ZM233.94 6.975C233.94 6.52033 233.848 6.12433 233.665 5.787C233.482 5.44967 233.232 5.193 232.917 5.017C232.609 4.83367 232.268 4.742 231.894 4.742C231.52 4.742 231.179 4.83 230.871 5.006C230.563 5.182 230.317 5.43867 230.134 5.776C229.951 6.11333 229.859 6.50933 229.859 6.964C229.859 7.426 229.951 7.82933 230.134 8.174C230.317 8.51133 230.563 8.77167 230.871 8.955C231.179 9.131 231.52 9.219 231.894 9.219C232.268 9.219 232.609 9.131 232.917 8.955C233.232 8.77167 233.482 8.51133 233.665 8.174C233.848 7.82933 233.94 7.42967 233.94 6.975ZM237.898 4.797V8.35C237.898 8.64333 237.96 8.85233 238.085 8.977C238.209 9.09433 238.426 9.153 238.734 9.153H239.471V10H238.569C238.011 10 237.593 9.87167 237.315 9.615C237.036 9.35833 236.897 8.93667 236.897 8.35V4.797H236.116V3.972H236.897V2.454H237.898V3.972H239.471V4.797H237.898ZM243.346 10.099C242.781 10.099 242.268 9.97067 241.806 9.714C241.351 9.45733 240.992 9.09433 240.728 8.625C240.471 8.14833 240.343 7.59833 240.343 6.975C240.343 6.359 240.475 5.81633 240.739 5.347C241.01 4.87033 241.377 4.50733 241.839 4.258C242.301 4.00133 242.818 3.873 243.39 3.873C243.962 3.873 244.479 4.00133 244.941 4.258C245.403 4.50733 245.766 4.86667 246.03 5.336C246.301 5.80533 246.437 6.35167 246.437 6.975C246.437 7.59833 246.297 8.14833 246.019 8.625C245.747 9.09433 245.377 9.45733 244.908 9.714C244.438 9.97067 243.918 10.099 243.346 10.099ZM243.346 9.219C243.705 9.219 244.042 9.13467 244.358 8.966C244.673 8.79733 244.926 8.54433 245.117 8.207C245.315 7.86967 245.414 7.459 245.414 6.975C245.414 6.491 245.318 6.08033 245.128 5.743C244.937 5.40567 244.688 5.15633 244.38 4.995C244.072 4.82633 243.738 4.742 243.379 4.742C243.012 4.742 242.675 4.82633 242.367 4.995C242.066 5.15633 241.824 5.40567 241.641 5.743C241.457 6.08033 241.366 6.491 241.366 6.975C241.366 7.46633 241.454 7.88067 241.63 8.218C241.813 8.55533 242.055 8.80833 242.356 8.977C242.656 9.13833 242.986 9.219 243.346 9.219ZM248.787 4.951C248.963 4.60633 249.212 4.33867 249.535 4.148C249.865 3.95733 250.264 3.862 250.734 3.862V4.896H250.47C249.348 4.896 248.787 5.50467 248.787 6.722V10H247.786V3.972H248.787V4.951Z" fill="#666666"/>
<path d="M8.58734 246.333V247.147H6.49734V254H5.49634V247.147H3.39534V246.333H8.58734ZM15.3525 250.755C15.3525 250.946 15.3415 251.147 15.3195 251.36H10.5015C10.5382 251.954 10.7398 252.42 11.1065 252.757C11.4805 253.087 11.9315 253.252 12.4595 253.252C12.8922 253.252 13.2515 253.153 13.5375 252.955C13.8308 252.75 14.0362 252.478 14.1535 252.141H15.2315C15.0702 252.72 14.7475 253.193 14.2635 253.56C13.7795 253.919 13.1782 254.099 12.4595 254.099C11.8875 254.099 11.3742 253.971 10.9195 253.714C10.4722 253.457 10.1202 253.094 9.86351 252.625C9.60684 252.148 9.47851 251.598 9.47851 250.975C9.47851 250.352 9.60318 249.805 9.85251 249.336C10.1018 248.867 10.4502 248.507 10.8975 248.258C11.3522 248.001 11.8728 247.873 12.4595 247.873C13.0315 247.873 13.5375 247.998 13.9775 248.247C14.4175 248.496 14.7548 248.841 14.9895 249.281C15.2315 249.714 15.3525 250.205 15.3525 250.755ZM14.3185 250.546C14.3185 250.165 14.2342 249.838 14.0655 249.567C13.8968 249.288 13.6658 249.079 13.3725 248.94C13.0865 248.793 12.7675 248.72 12.4155 248.72C11.9095 248.72 11.4768 248.881 11.1175 249.204C10.7655 249.527 10.5638 249.974 10.5125 250.546H14.3185ZM19.8528 254L18.4228 251.756L17.0478 254H16.0028L17.9498 251.008L16.0028 247.972H17.1358L18.5658 250.205L19.9298 247.972H20.9748L19.0388 250.953L20.9858 254H19.8528ZM23.2245 248.797V252.35C23.2245 252.643 23.2868 252.852 23.4115 252.977C23.5361 253.094 23.7525 253.153 24.0605 253.153H24.7975V254H23.8955C23.3381 254 22.9201 253.872 22.6415 253.615C22.3628 253.358 22.2235 252.937 22.2235 252.35V248.797H21.4425V247.972H22.2235V246.454H23.2245V247.972H24.7975V248.797H23.2245ZM30.2299 248.797V252.35C30.2299 252.643 30.2923 252.852 30.4169 252.977C30.5416 253.094 30.7579 253.153 31.0659 253.153H31.8029V254H30.9009C30.3436 254 29.9256 253.872 29.6469 253.615C29.3683 253.358 29.2289 252.937 29.2289 252.35V248.797H28.4479V247.972H29.2289V246.454H30.2299V247.972H31.8029V248.797H30.2299ZM35.6778 254.099C35.1131 254.099 34.5998 253.971 34.1378 253.714C33.6831 253.457 33.3238 253.094 33.0598 252.625C32.8031 252.148 32.6748 251.598 32.6748 250.975C32.6748 250.359 32.8068 249.816 33.0708 249.347C33.3421 248.87 33.7088 248.507 34.1708 248.258C34.6328 248.001 35.1498 247.873 35.7218 247.873C36.2938 247.873 36.8108 248.001 37.2728 248.258C37.7348 248.507 38.0978 248.867 38.3618 249.336C38.6331 249.805 38.7688 250.352 38.7688 250.975C38.7688 251.598 38.6294 252.148 38.3508 252.625C38.0794 253.094 37.7091 253.457 37.2398 253.714C36.7704 253.971 36.2498 254.099 35.6778 254.099ZM35.6778 253.219C36.0371 253.219 36.3744 253.135 36.6898 252.966C37.0051 252.797 37.2581 252.544 37.4488 252.207C37.6468 251.87 37.7458 251.459 37.7458 250.975C37.7458 250.491 37.6504 250.08 37.4598 249.743C37.2691 249.406 37.0198 249.156 36.7118 248.995C36.4038 248.826 36.0701 248.742 35.7108 248.742C35.3441 248.742 35.0068 248.826 34.6988 248.995C34.3981 249.156 34.1561 249.406 33.9728 249.743C33.7894 250.08 33.6978 250.491 33.6978 250.975C33.6978 251.466 33.7858 251.881 33.9618 252.218C34.1451 252.555 34.3871 252.808 34.6878 252.977C34.9884 253.138 35.3184 253.219 35.6778 253.219ZM42.7095 250.964C42.7095 250.348 42.8342 249.809 43.0835 249.347C43.3328 248.878 43.6738 248.515 44.1065 248.258C44.5465 248.001 45.0342 247.873 45.5695 247.873C46.0975 247.873 46.5558 247.987 46.9445 248.214C47.3332 248.441 47.6228 248.727 47.8135 249.072V247.972H48.8255V254H47.8135V252.878C47.6155 253.23 47.3185 253.523 46.9225 253.758C46.5338 253.985 46.0792 254.099 45.5585 254.099C45.0232 254.099 44.5392 253.967 44.1065 253.703C43.6738 253.439 43.3328 253.069 43.0835 252.592C42.8342 252.115 42.7095 251.573 42.7095 250.964ZM47.8135 250.975C47.8135 250.52 47.7218 250.124 47.5385 249.787C47.3552 249.45 47.1058 249.193 46.7905 249.017C46.4825 248.834 46.1415 248.742 45.7675 248.742C45.3935 248.742 45.0525 248.83 44.7445 249.006C44.4365 249.182 44.1908 249.439 44.0075 249.776C43.8242 250.113 43.7325 250.509 43.7325 250.964C43.7325 251.426 43.8242 251.829 44.0075 252.174C44.1908 252.511 44.4365 252.772 44.7445 252.955C45.0525 253.131 45.3935 253.219 45.7675 253.219C46.1415 253.219 46.4825 253.131 46.7905 252.955C47.1058 252.772 47.3552 252.511 47.5385 252.174C47.7218 251.829 47.8135 251.43 47.8135 250.975ZM52.7941 253.076L54.6641 247.972H55.7311L53.3661 254H52.2001L49.8351 247.972H50.9131L52.7941 253.076ZM56.3751 250.964C56.3751 250.348 56.4998 249.809 56.7491 249.347C56.9985 248.878 57.3395 248.515 57.7721 248.258C58.2121 248.001 58.6998 247.873 59.2351 247.873C59.7631 247.873 60.2215 247.987 60.6101 248.214C60.9988 248.441 61.2885 248.727 61.4791 249.072V247.972H62.4911V254H61.4791V252.878C61.2811 253.23 60.9841 253.523 60.5881 253.758C60.1995 253.985 59.7448 254.099 59.2241 254.099C58.6888 254.099 58.2048 253.967 57.7721 253.703C57.3395 253.439 56.9985 253.069 56.7491 252.592C56.4998 252.115 56.3751 251.573 56.3751 250.964ZM61.4791 250.975C61.4791 250.52 61.3875 250.124 61.2041 249.787C61.0208 249.45 60.7715 249.193 60.4561 249.017C60.1481 248.834 59.8071 248.742 59.4331 248.742C59.0591 248.742 58.7181 248.83 58.4101 249.006C58.1021 249.182 57.8565 249.439 57.6731 249.776C57.4898 250.113 57.3981 250.509 57.3981 250.964C57.3981 251.426 57.4898 251.829 57.6731 252.174C57.8565 252.511 58.1021 252.772 58.4101 252.955C58.7181 253.131 59.0591 253.219 59.4331 253.219C59.8071 253.219 60.1481 253.131 60.4561 252.955C60.7715 252.772 61.0208 252.511 61.2041 252.174C61.3875 251.829 61.4791 251.43 61.4791 250.975ZM65.4367 248.797V252.35C65.4367 252.643 65.499 252.852 65.6237 252.977C65.7484 253.094 65.9647 253.153 66.2727 253.153H67.0097V254H66.1077C65.5504 254 65.1324 253.872 64.8537 253.615C64.575 253.358 64.4357 252.937 64.4357 252.35V248.797H63.6547V247.972H64.4357V246.454H65.4367V247.972H67.0097V248.797H65.4367ZM67.8816 250.964C67.8816 250.348 68.0062 249.809 68.2556 249.347C68.5049 248.878 68.8459 248.515 69.2786 248.258C69.7186 248.001 70.2062 247.873 70.7416 247.873C71.2696 247.873 71.7279 247.987 72.1166 248.214C72.5052 248.441 72.7949 248.727 72.9856 249.072V247.972H73.9976V254H72.9856V252.878C72.7876 253.23 72.4906 253.523 72.0946 253.758C71.7059 253.985 71.2512 254.099 70.7306 254.099C70.1952 254.099 69.7112 253.967 69.2786 253.703C68.8459 253.439 68.5049 253.069 68.2556 252.592C68.0062 252.115 67.8816 251.573 67.8816 250.964ZM72.9856 250.975C72.9856 250.52 72.8939 250.124 72.7106 249.787C72.5272 249.45 72.2779 249.193 71.9626 249.017C71.6546 248.834 71.3136 248.742 70.9396 248.742C70.5656 248.742 70.2246 248.83 69.9166 249.006C69.6086 249.182 69.3629 249.439 69.1796 249.776C68.9962 250.113 68.9046 250.509 68.9046 250.964C68.9046 251.426 68.9962 251.829 69.1796 252.174C69.3629 252.511 69.6086 252.772 69.9166 252.955C70.2246 253.131 70.5656 253.219 70.9396 253.219C71.3136 253.219 71.6546 253.131 71.9626 252.955C72.2779 252.772 72.5272 252.511 72.7106 252.174C72.8939 251.829 72.9856 251.43 72.9856 250.975ZM76.7231 248.951C76.8991 248.606 77.1485 248.339 77.4711 248.148C77.8011 247.957 78.2008 247.862 78.6701 247.862V248.896H78.4061C77.2841 248.896 76.7231 249.505 76.7231 250.722V254H75.7221V247.972H76.7231V248.951Z" fill="#666666"/>
<circle cx="180.105" cy="201.144" r="8.8951" transform="rotate(-180 180.105 201.144)" fill="#2DA771"/>
<path d="M321.021 208.011C321.021 131.789 259.232 70 183.011 70C106.789 70 45 131.789 45 208.011" stroke="#2DA771" stroke-width="0.88951" stroke-dasharray="5.34 5.34"/>
<line x1="75" y1="200.698" x2="284.035" y2="200.698" stroke="#2DA771" stroke-width="0.88951" stroke-dasharray="5.34 5.34"/>
<line x1="180.445" y1="86" x2="180.445" y2="201" stroke="#2DA771" stroke-width="0.88951" stroke-dasharray="5.34 5.34"/>
<defs>
<filter id="filter0_bd_11523_37735" x="-32.6072" y="123.394" width="155.214" height="155.212" filterUnits="userSpaceOnUse" color-interpolation-filters="sRGB">
<feFlood flood-opacity="0" result="BackgroundImageFix"/>
<feGaussianBlur in="BackgroundImageFix" stdDeviation="21.7865"/>
<feComposite in2="SourceAlpha" operator="in" result="effect1_backgroundBlur_11523_37735"/>
<feColorMatrix in="SourceAlpha" type="matrix" values="0 0 0 0 0 0 0 0 0 0 0 0 0 0 0 0 0 0 127 0" result="hardAlpha"/>
<feOffset dy="6.61869"/>
<feGaussianBlur stdDeviation="5.23979"/>
<feComposite in2="hardAlpha" operator="out"/>
<feColorMatrix type="matrix" values="0 0 0 0 0.0867708 0 0 0 0 0.115317 0 0 0 0 0.141667 0 0 0 0.08 0"/>
<feBlend mode="normal" in2="effect1_backgroundBlur_11523_37735" result="effect2_dropShadow_11523_37735"/>
<feBlend mode="normal" in="SourceGraphic" in2="effect2_dropShadow_11523_37735" result="shape"/>
</filter>
<filter id="filter1_bd_11523_37735" x="103.393" y="-21.6062" width="155.214" height="155.212" filterUnits="userSpaceOnUse" color-interpolation-filters="sRGB">
<feFlood flood-opacity="0" result="BackgroundImageFix"/>
<feGaussianBlur in="BackgroundImageFix" stdDeviation="21.7865"/>
<feComposite in2="SourceAlpha" operator="in" result="effect1_backgroundBlur_11523_37735"/>
<feColorMatrix in="SourceAlpha" type="matrix" values="0 0 0 0 0 0 0 0 0 0 0 0 0 0 0 0 0 0 127 0" result="hardAlpha"/>
<feOffset dy="6.61869"/>
<feGaussianBlur stdDeviation="5.23979"/>
<feComposite in2="hardAlpha" operator="out"/>
<feColorMatrix type="matrix" values="0 0 0 0 0.0867708 0 0 0 0 0.115317 0 0 0 0 0.141667 0 0 0 0.08 0"/>
<feBlend mode="normal" in2="effect1_backgroundBlur_11523_37735" result="effect2_dropShadow_11523_37735"/>
<feBlend mode="normal" in="SourceGraphic" in2="effect2_dropShadow_11523_37735" result="shape"/>
</filter>
<filter id="filter2_bd_11523_37735" x="241.393" y="120.394" width="155.214" height="155.212" filterUnits="userSpaceOnUse" color-interpolation-filters="sRGB">
<feFlood flood-opacity="0" result="BackgroundImageFix"/>
<feGaussianBlur in="BackgroundImageFix" stdDeviation="21.7865"/>
<feComposite in2="SourceAlpha" operator="in" result="effect1_backgroundBlur_11523_37735"/>
<feColorMatrix in="SourceAlpha" type="matrix" values="0 0 0 0 0 0 0 0 0 0 0 0 0 0 0 0 0 0 127 0" result="hardAlpha"/>
<feOffset dy="6.61869"/>
<feGaussianBlur stdDeviation="5.23979"/>
<feComposite in2="hardAlpha" operator="out"/>
<feColorMatrix type="matrix" values="0 0 0 0 0.0867708 0 0 0 0 0.115317 0 0 0 0 0.141667 0 0 0 0.08 0"/>
<feBlend mode="normal" in2="effect1_backgroundBlur_11523_37735" result="effect2_dropShadow_11523_37735"/>
<feBlend mode="normal" in="SourceGraphic" in2="effect2_dropShadow_11523_37735" result="shape"/>
</filter>
</defs>
</svg>
