<svg width="393" height="258" viewBox="0 0 393 258" fill="none" xmlns="http://www.w3.org/2000/svg">
<rect x="59.5039" y="128.998" width="181.018" height="181.018" transform="rotate(-45 59.5039 128.998)" stroke="#2DA771" stroke-width="0.88951" stroke-dasharray="5.34 5.34"/>
<g filter="url(#filter0_bd_11523_37495)">
<rect x="217" y="30.998" width="66" height="66" rx="10" fill="#2DA771"/>
<rect x="216.571" y="30.569" width="66.8581" height="66.8581" rx="10.4291" stroke="#EAEAEA" stroke-width="0.858128"/>
</g>
<path d="M249 51.498C249.414 51.498 249.75 51.1623 249.75 50.748C249.75 50.3338 249.414 49.998 249 49.998C248.586 49.998 248.25 50.3338 248.25 50.748C248.25 51.1623 248.586 51.498 249 51.498Z" fill="white"/>
<path d="M254.625 57.873V53.373C254.625 52.9589 254.29 52.623 253.875 52.623C253.461 52.623 253.125 52.9589 253.125 53.373V57.873C253.125 58.2872 253.461 58.623 253.875 58.623C254.29 58.623 254.625 58.2872 254.625 57.873ZM246.04 58.5439C246.411 58.7289 246.86 58.5791 247.046 58.2085L247.214 57.873H250.037L250.204 58.2085C250.336 58.4714 250.601 58.6234 250.876 58.623C250.989 58.623 251.103 58.5978 251.211 58.5439C251.581 58.3586 251.731 57.9082 251.546 57.5376L249.296 53.0376C249.041 52.5293 248.209 52.5293 247.954 53.0376L245.704 57.5376C245.519 57.9082 245.669 58.3586 246.04 58.5439ZM248.625 55.0499L249.287 56.373H247.964L248.625 55.0499Z" fill="white"/>
<path d="M263.25 49.998C262.838 49.998 262.5 50.3356 262.5 50.748V54.498C262.5 54.9105 262.162 55.248 261.75 55.248H261.375C261.375 54.0105 260.363 52.998 259.125 52.998H258.375C258.375 51.3405 257.033 49.998 255.375 49.998H252C251.588 49.998 251.25 50.3356 251.25 50.748C251.25 51.1605 251.588 51.498 252 51.498H255.375C256.2 51.498 256.875 52.173 256.875 52.998V58.248C256.875 59.073 256.2 59.748 255.375 59.748H245.625C244.8 59.748 244.125 59.073 244.125 58.248V52.998C244.125 52.173 244.8 51.498 245.625 51.498H246C246.412 51.498 246.75 51.1605 246.75 50.748C246.75 50.3356 246.412 49.998 246 49.998H245.625C243.967 49.998 242.625 51.3405 242.625 52.998H241.875C240.637 52.998 239.625 54.0105 239.625 55.248H239.25C238.838 55.248 238.5 54.9105 238.5 54.498V50.748C238.5 50.3356 238.162 49.998 237.75 49.998C237.338 49.998 237 50.3356 237 50.748V54.498C237 55.7355 238.012 56.748 239.25 56.748H239.625C239.625 57.9855 240.637 58.998 241.875 58.998H242.73C243.068 60.288 244.23 61.248 245.625 61.248H248.25V63.498C243.697 63.498 240 67.1955 240 71.748V76.248C240 77.4855 241.012 78.498 242.25 78.498H258.75C259.988 78.498 261 77.4855 261 76.248V71.748C261 67.1955 257.303 63.498 252.75 63.498V61.248H255.375C256.77 61.248 257.932 60.288 258.27 58.998H259.125C260.363 58.998 261.375 57.9855 261.375 56.748H261.75C262.988 56.748 264 55.7355 264 54.498V50.748C264 50.3356 263.662 49.998 263.25 49.998ZM242.625 57.498H241.875C241.463 57.498 241.125 57.1605 241.125 56.748V55.248C241.125 54.8356 241.463 54.498 241.875 54.498H242.625V57.498ZM249.75 61.248H251.25V63.498H249.75V61.248ZM259.5 71.748V76.248C259.5 76.6605 259.162 76.998 258.75 76.998H242.25C241.838 76.998 241.5 76.6605 241.5 76.248V71.748C241.5 68.028 244.53 64.998 248.25 64.998H252.75C256.47 64.998 259.5 68.028 259.5 71.748ZM259.875 56.748C259.875 57.1605 259.537 57.498 259.125 57.498H258.375V54.498H259.125C259.537 54.498 259.875 54.8356 259.875 55.248V56.748Z" fill="white"/>
<path d="M256.5 70.248H255.75V68.748C255.75 68.3356 255.412 67.998 255 67.998H254.25V67.248C254.25 66.8356 253.912 66.498 253.5 66.498C253.088 66.498 252.75 66.8356 252.75 67.248V67.998H251.25V67.248C251.25 66.8356 250.912 66.498 250.5 66.498C250.088 66.498 249.75 66.8356 249.75 67.248V67.998H248.25V67.248C248.25 66.8356 247.912 66.498 247.5 66.498C247.088 66.498 246.75 66.8356 246.75 67.248V67.998H246C245.588 67.998 245.25 68.3356 245.25 68.748V70.248H244.5C244.088 70.248 243.75 70.5856 243.75 70.998C243.75 71.4105 244.088 71.748 244.5 71.748H245.25V73.248C245.25 73.6605 245.588 73.998 246 73.998H246.75V74.748C246.75 75.1605 247.088 75.498 247.5 75.498C247.912 75.498 248.25 75.1605 248.25 74.748V73.998H249.75V74.748C249.75 75.1605 250.088 75.498 250.5 75.498C250.912 75.498 251.25 75.1605 251.25 74.748V73.998H252.75V74.748C252.75 75.1605 253.088 75.498 253.5 75.498C253.912 75.498 254.25 75.1605 254.25 74.748V73.998H255C255.412 73.998 255.75 73.6605 255.75 73.248V71.748H256.5C256.912 71.748 257.25 71.4105 257.25 70.998C257.25 70.5856 256.912 70.248 256.5 70.248ZM254.25 72.498H246.75V69.498H254.25V72.498Z" fill="white"/>
<path d="M298.849 65.293H295.505L294.889 66.998H293.833L296.605 59.375H297.76L300.521 66.998H299.465L298.849 65.293ZM298.563 64.479L297.177 60.607L295.791 64.479H298.563ZM302.763 59.331V66.998H301.762V59.331H302.763ZM307.094 63.962C307.094 63.346 307.218 62.807 307.468 62.345C307.717 61.8757 308.058 61.5127 308.491 61.256C308.931 60.9994 309.418 60.871 309.954 60.871C310.482 60.871 310.94 60.9847 311.329 61.212C311.717 61.4394 312.007 61.7254 312.198 62.07V60.97H313.21V66.998H312.198V65.876C312 66.228 311.703 66.5214 311.307 66.756C310.918 66.9834 310.463 67.097 309.943 67.097C309.407 67.097 308.923 66.965 308.491 66.701C308.058 66.437 307.717 66.0667 307.468 65.59C307.218 65.1134 307.094 64.5707 307.094 63.962ZM312.198 63.973C312.198 63.5184 312.106 63.1224 311.923 62.785C311.739 62.4477 311.49 62.191 311.175 62.015C310.867 61.8317 310.526 61.74 310.152 61.74C309.778 61.74 309.437 61.828 309.129 62.004C308.821 62.18 308.575 62.4367 308.392 62.774C308.208 63.1114 308.117 63.5074 308.117 63.962C308.117 64.424 308.208 64.8274 308.392 65.172C308.575 65.5094 308.821 65.7697 309.129 65.953C309.437 66.129 309.778 66.217 310.152 66.217C310.526 66.217 310.867 66.129 311.175 65.953C311.49 65.7697 311.739 65.5094 311.923 65.172C312.106 64.8274 312.198 64.4277 312.198 63.973ZM317.068 67.097C316.606 67.097 316.192 67.02 315.825 66.866C315.459 66.7047 315.169 66.4847 314.956 66.206C314.744 65.92 314.626 65.5937 314.604 65.227H315.638C315.668 65.5277 315.807 65.7734 316.056 65.964C316.313 66.1547 316.647 66.25 317.057 66.25C317.439 66.25 317.739 66.1657 317.959 65.997C318.179 65.8284 318.289 65.6157 318.289 65.359C318.289 65.095 318.172 64.9007 317.937 64.776C317.703 64.644 317.34 64.5157 316.848 64.391C316.401 64.2737 316.034 64.1564 315.748 64.039C315.47 63.9144 315.228 63.7347 315.022 63.5C314.824 63.258 314.725 62.9427 314.725 62.554C314.725 62.246 314.817 61.9637 315 61.707C315.184 61.4504 315.444 61.2487 315.781 61.102C316.119 60.948 316.504 60.871 316.936 60.871C317.604 60.871 318.143 61.0397 318.553 61.377C318.964 61.7144 319.184 62.1764 319.213 62.763H318.212C318.19 62.4477 318.062 62.1947 317.827 62.004C317.6 61.8134 317.292 61.718 316.903 61.718C316.544 61.718 316.258 61.795 316.045 61.949C315.833 62.103 315.726 62.3047 315.726 62.554C315.726 62.752 315.789 62.917 315.913 63.049C316.045 63.1737 316.207 63.2764 316.397 63.357C316.595 63.4304 316.867 63.5147 317.211 63.61C317.644 63.7274 317.996 63.8447 318.267 63.962C318.539 64.072 318.77 64.2407 318.96 64.468C319.158 64.6954 319.261 64.9924 319.268 65.359C319.268 65.689 319.177 65.986 318.993 66.25C318.81 66.514 318.55 66.723 318.212 66.877C317.882 67.0237 317.501 67.097 317.068 67.097ZM322.848 67.097C322.386 67.097 321.972 67.02 321.605 66.866C321.239 66.7047 320.949 66.4847 320.736 66.206C320.524 65.92 320.406 65.5937 320.384 65.227H321.418C321.448 65.5277 321.587 65.7734 321.836 65.964C322.093 66.1547 322.427 66.25 322.837 66.25C323.219 66.25 323.519 66.1657 323.739 65.997C323.959 65.8284 324.069 65.6157 324.069 65.359C324.069 65.095 323.952 64.9007 323.717 64.776C323.483 64.644 323.12 64.5157 322.628 64.391C322.181 64.2737 321.814 64.1564 321.528 64.039C321.25 63.9144 321.008 63.7347 320.802 63.5C320.604 63.258 320.505 62.9427 320.505 62.554C320.505 62.246 320.597 61.9637 320.78 61.707C320.964 61.4504 321.224 61.2487 321.561 61.102C321.899 60.948 322.284 60.871 322.716 60.871C323.384 60.871 323.923 61.0397 324.333 61.377C324.744 61.7144 324.964 62.1764 324.993 62.763H323.992C323.97 62.4477 323.842 62.1947 323.607 62.004C323.38 61.8134 323.072 61.718 322.683 61.718C322.324 61.718 322.038 61.795 321.825 61.949C321.613 62.103 321.506 62.3047 321.506 62.554C321.506 62.752 321.569 62.917 321.693 63.049C321.825 63.1737 321.987 63.2764 322.177 63.357C322.375 63.4304 322.647 63.5147 322.991 63.61C323.424 63.7274 323.776 63.8447 324.047 63.962C324.319 64.072 324.55 64.2407 324.74 64.468C324.938 64.6954 325.041 64.9924 325.048 65.359C325.048 65.689 324.957 65.986 324.773 66.25C324.59 66.514 324.33 66.723 323.992 66.877C323.662 67.0237 323.281 67.097 322.848 67.097ZM327.011 59.991C326.821 59.991 326.659 59.925 326.527 59.793C326.395 59.661 326.329 59.4997 326.329 59.309C326.329 59.1184 326.395 58.957 326.527 58.825C326.659 58.693 326.821 58.627 327.011 58.627C327.195 58.627 327.349 58.693 327.473 58.825C327.605 58.957 327.671 59.1184 327.671 59.309C327.671 59.4997 327.605 59.661 327.473 59.793C327.349 59.925 327.195 59.991 327.011 59.991ZM327.495 60.97V66.998H326.494V60.97H327.495ZM331.368 67.097C330.906 67.097 330.492 67.02 330.125 66.866C329.759 66.7047 329.469 66.4847 329.256 66.206C329.044 65.92 328.926 65.5937 328.904 65.227H329.938C329.968 65.5277 330.107 65.7734 330.356 65.964C330.613 66.1547 330.947 66.25 331.357 66.25C331.739 66.25 332.039 66.1657 332.259 65.997C332.479 65.8284 332.589 65.6157 332.589 65.359C332.589 65.095 332.472 64.9007 332.237 64.776C332.003 64.644 331.64 64.5157 331.148 64.391C330.701 64.2737 330.334 64.1564 330.048 64.039C329.77 63.9144 329.528 63.7347 329.322 63.5C329.124 63.258 329.025 62.9427 329.025 62.554C329.025 62.246 329.117 61.9637 329.3 61.707C329.484 61.4504 329.744 61.2487 330.081 61.102C330.419 60.948 330.804 60.871 331.236 60.871C331.904 60.871 332.443 61.0397 332.853 61.377C333.264 61.7144 333.484 62.1764 333.513 62.763H332.512C332.49 62.4477 332.362 62.1947 332.127 62.004C331.9 61.8134 331.592 61.718 331.203 61.718C330.844 61.718 330.558 61.795 330.345 61.949C330.133 62.103 330.026 62.3047 330.026 62.554C330.026 62.752 330.089 62.917 330.213 63.049C330.345 63.1737 330.507 63.2764 330.697 63.357C330.895 63.4304 331.167 63.5147 331.511 63.61C331.944 63.7274 332.296 63.8447 332.567 63.962C332.839 64.072 333.07 64.2407 333.26 64.468C333.458 64.6954 333.561 64.9924 333.568 65.359C333.568 65.689 333.477 65.986 333.293 66.25C333.11 66.514 332.85 66.723 332.512 66.877C332.182 67.0237 331.801 67.097 331.368 67.097ZM336.236 61.795V65.348C336.236 65.6414 336.298 65.8504 336.423 65.975C336.547 66.0924 336.764 66.151 337.072 66.151H337.809V66.998H336.907C336.349 66.998 335.931 66.8697 335.653 66.613C335.374 66.3564 335.235 65.9347 335.235 65.348V61.795H334.454V60.97H335.235V59.452H336.236V60.97H337.809V61.795H336.236ZM338.68 63.962C338.68 63.346 338.805 62.807 339.054 62.345C339.304 61.8757 339.645 61.5127 340.077 61.256C340.517 60.9994 341.005 60.871 341.54 60.871C342.068 60.871 342.527 60.9847 342.915 61.212C343.304 61.4394 343.594 61.7254 343.784 62.07V60.97H344.796V66.998H343.784V65.876C343.586 66.228 343.289 66.5214 342.893 66.756C342.505 66.9834 342.05 67.097 341.529 67.097C340.994 67.097 340.51 66.965 340.077 66.701C339.645 66.437 339.304 66.0667 339.054 65.59C338.805 65.1134 338.68 64.5707 338.68 63.962ZM343.784 63.973C343.784 63.5184 343.693 63.1224 343.509 62.785C343.326 62.4477 343.077 62.191 342.761 62.015C342.453 61.8317 342.112 61.74 341.738 61.74C341.364 61.74 341.023 61.828 340.715 62.004C340.407 62.18 340.162 62.4367 339.978 62.774C339.795 63.1114 339.703 63.5074 339.703 63.962C339.703 64.424 339.795 64.8274 339.978 65.172C340.162 65.5094 340.407 65.7697 340.715 65.953C341.023 66.129 341.364 66.217 341.738 66.217C342.112 66.217 342.453 66.129 342.761 65.953C343.077 65.7697 343.326 65.5094 343.509 65.172C343.693 64.8274 343.784 64.4277 343.784 63.973ZM349.458 60.86C350.191 60.86 350.785 61.0837 351.24 61.531C351.695 61.971 351.922 62.609 351.922 63.445V66.998H350.932V63.588C350.932 62.9867 350.782 62.5284 350.481 62.213C350.18 61.8904 349.77 61.729 349.249 61.729C348.721 61.729 348.299 61.894 347.984 62.224C347.676 62.554 347.522 63.0344 347.522 63.665V66.998H346.521V60.97H347.522V61.828C347.72 61.52 347.988 61.2817 348.325 61.113C348.67 60.9444 349.047 60.86 349.458 60.86ZM354.811 61.795V65.348C354.811 65.6414 354.873 65.8504 354.998 65.975C355.123 66.0924 355.339 66.151 355.647 66.151H356.384V66.998H355.482C354.925 66.998 354.507 66.8697 354.228 66.613C353.949 66.3564 353.81 65.9347 353.81 65.348V61.795H353.029V60.97H353.81V59.452H354.811V60.97H356.384V61.795H354.811ZM359.764 67.097C359.302 67.097 358.888 67.02 358.521 66.866C358.154 66.7047 357.865 66.4847 357.652 66.206C357.439 65.92 357.322 65.5937 357.3 65.227H358.334C358.363 65.5277 358.503 65.7734 358.752 65.964C359.009 66.1547 359.342 66.25 359.753 66.25C360.134 66.25 360.435 66.1657 360.655 65.997C360.875 65.8284 360.985 65.6157 360.985 65.359C360.985 65.095 360.868 64.9007 360.633 64.776C360.398 64.644 360.035 64.5157 359.544 64.391C359.097 64.2737 358.73 64.1564 358.444 64.039C358.165 63.9144 357.923 63.7347 357.718 63.5C357.52 63.258 357.421 62.9427 357.421 62.554C357.421 62.246 357.513 61.9637 357.696 61.707C357.879 61.4504 358.14 61.2487 358.477 61.102C358.814 60.948 359.199 60.871 359.632 60.871C360.299 60.871 360.838 61.0397 361.249 61.377C361.66 61.7144 361.88 62.1764 361.909 62.763H360.908C360.886 62.4477 360.758 62.1947 360.523 62.004C360.296 61.8134 359.988 61.718 359.599 61.718C359.24 61.718 358.954 61.795 358.741 61.949C358.528 62.103 358.422 62.3047 358.422 62.554C358.422 62.752 358.484 62.917 358.609 63.049C358.741 63.1737 358.902 63.2764 359.093 63.357C359.291 63.4304 359.562 63.5147 359.907 63.61C360.34 63.7274 360.692 63.8447 360.963 63.962C361.234 64.072 361.465 64.2407 361.656 64.468C361.854 64.6954 361.957 64.9924 361.964 65.359C361.964 65.689 361.872 65.986 361.689 66.25C361.506 66.514 361.245 66.723 360.908 66.877C360.578 67.0237 360.197 67.097 359.764 67.097Z" fill="#666666"/>
<g filter="url(#filter1_bd_11523_37495)">
<rect x="91" y="155.998" width="66" height="66" rx="10" fill="#2DA771"/>
<rect x="90.5709" y="155.569" width="66.8581" height="66.8581" rx="10.4291" stroke="#EAEAEA" stroke-width="0.858128"/>
</g>
<path d="M132.663 186.885C134.378 185.697 134.925 183.366 133.864 181.528C132.802 179.69 130.51 178.998 128.625 179.889L126.428 176.084C125.942 175.243 125.075 174.749 124.1 174.769C123.129 174.786 122.277 175.31 121.822 176.169C121.51 176.758 121.216 177.371 120.907 178.019C119.648 180.648 118.221 183.628 115.144 185.405L111.168 187.701C109.784 188.5 108.793 189.795 108.377 191.347C107.96 192.9 108.171 194.517 108.97 195.9C109.769 197.284 111.064 198.275 112.616 198.691C113.137 198.831 113.664 198.899 114.189 198.899C114.937 198.899 115.678 198.758 116.377 198.48L119.128 203.246C119.716 204.262 120.784 204.831 121.881 204.831C122.418 204.831 122.963 204.694 123.462 204.406C124.977 203.532 125.498 201.588 124.624 200.072L121.925 195.396C124.771 194.069 127.759 194.297 130.421 194.504C131.138 194.559 131.815 194.613 132.482 194.637C133.45 194.673 134.331 194.197 134.833 193.364C135.334 192.531 135.343 191.532 134.858 190.691L132.661 186.886L132.663 186.885ZM132.345 182.406C132.922 183.404 132.66 184.662 131.78 185.357L129.506 181.418C130.548 181.004 131.766 181.406 132.343 182.406L132.345 182.406ZM113.073 196.996C111.972 196.702 111.057 196 110.491 195.023C109.927 194.046 109.779 192.901 110.073 191.802C110.368 190.702 111.069 189.787 112.046 189.221L115.262 187.364L119.509 194.722L116.294 196.578C115.317 197.143 114.171 197.291 113.073 196.996ZM122.588 202.888C121.911 203.278 121.043 203.045 120.651 202.368L117.931 197.658L120.388 196.24L123.107 200.95C123.498 201.627 123.265 202.496 122.588 202.888ZM121.047 193.872L116.767 186.458C119.789 184.41 121.217 181.44 122.484 178.793L130.544 192.754C127.618 192.528 124.329 192.279 121.047 193.872ZM133.333 192.46C133.175 192.721 132.939 192.867 132.645 192.883L123.422 176.909C123.584 176.664 123.827 176.529 124.132 176.524H124.153C124.482 176.524 124.743 176.676 124.909 176.962L133.341 191.566C133.511 191.86 133.508 192.168 133.333 192.457L133.333 192.46ZM131.221 176.509L132.9 173.603C133.142 173.183 133.679 173.039 134.099 173.282C134.518 173.524 134.662 174.062 134.419 174.481L132.741 177.387C132.578 177.668 132.283 177.825 131.98 177.825C131.831 177.825 131.68 177.787 131.543 177.707C131.124 177.465 130.98 176.928 131.223 176.509H131.221ZM138.853 179.663L135.877 181.381C135.739 181.46 135.588 181.499 135.44 181.499C135.137 181.499 134.843 181.341 134.679 181.06C134.437 180.641 134.581 180.104 135 179.861L137.976 178.143C138.395 177.901 138.932 178.044 139.175 178.464C139.417 178.883 139.274 179.42 138.854 179.663H138.853ZM141.125 185.451C141.125 185.936 140.731 186.33 140.246 186.33H136.891C136.406 186.33 136.013 185.936 136.013 185.453C136.013 184.968 136.406 184.575 136.891 184.575H140.246C140.731 184.575 141.125 184.968 141.125 185.451Z" fill="white"/>
<path d="M29.6878 184.386V191.998H28.6868V186.322L26.1568 191.998H25.4528L22.9118 186.311V191.998H21.9108V184.386H22.9888L25.8048 190.678L28.6208 184.386H29.6878ZM33.8054 184.331C34.6414 184.331 35.3637 184.489 35.9724 184.804C36.5884 185.112 37.0577 185.556 37.3804 186.135C37.7104 186.714 37.8754 187.396 37.8754 188.181C37.8754 188.966 37.7104 189.648 37.3804 190.227C37.0577 190.799 36.5884 191.239 35.9724 191.547C35.3637 191.848 34.6414 191.998 33.8054 191.998H31.4184V184.331H33.8054ZM33.8054 191.173C34.7954 191.173 35.5507 190.913 36.0714 190.392C36.5921 189.864 36.8524 189.127 36.8524 188.181C36.8524 187.228 36.5884 186.483 36.0604 185.948C35.5397 185.413 34.7881 185.145 33.8054 185.145H32.4194V191.173H33.8054ZM43.2658 191.998L41.4398 188.863H40.2298V191.998H39.2288V184.331H41.7038C42.2831 184.331 42.7708 184.43 43.1668 184.628C43.5701 184.826 43.8708 185.094 44.0688 185.431C44.2668 185.768 44.3658 186.153 44.3658 186.586C44.3658 187.114 44.2118 187.58 43.9038 187.983C43.6031 188.386 43.1484 188.654 42.5398 188.786L44.4648 191.998H43.2658ZM40.2298 188.06H41.7038C42.2464 188.06 42.6534 187.928 42.9248 187.664C43.1961 187.393 43.3318 187.033 43.3318 186.586C43.3318 186.131 43.1961 185.779 42.9248 185.53C42.6608 185.281 42.2538 185.156 41.7038 185.156H40.2298V188.06ZM48.5458 188.962C48.5458 188.346 48.6704 187.807 48.9198 187.345C49.1691 186.876 49.5101 186.513 49.9428 186.256C50.3828 185.999 50.8704 185.871 51.4058 185.871C51.9338 185.871 52.3921 185.985 52.7808 186.212C53.1694 186.439 53.4591 186.725 53.6498 187.07V185.97H54.6618V191.998H53.6498V190.876C53.4518 191.228 53.1548 191.521 52.7588 191.756C52.3701 191.983 51.9154 192.097 51.3948 192.097C50.8594 192.097 50.3754 191.965 49.9428 191.701C49.5101 191.437 49.1691 191.067 48.9198 190.59C48.6704 190.113 48.5458 189.571 48.5458 188.962ZM53.6498 188.973C53.6498 188.518 53.5581 188.122 53.3748 187.785C53.1914 187.448 52.9421 187.191 52.6268 187.015C52.3188 186.832 51.9778 186.74 51.6038 186.74C51.2298 186.74 50.8888 186.828 50.5808 187.004C50.2728 187.18 50.0271 187.437 49.8438 187.774C49.6604 188.111 49.5688 188.507 49.5688 188.962C49.5688 189.424 49.6604 189.827 49.8438 190.172C50.0271 190.509 50.2728 190.77 50.5808 190.953C50.8888 191.129 51.2298 191.217 51.6038 191.217C51.9778 191.217 52.3188 191.129 52.6268 190.953C52.9421 190.77 53.1914 190.509 53.3748 190.172C53.5581 189.827 53.6498 189.428 53.6498 188.973ZM58.8723 185.871C59.393 185.871 59.8477 185.985 60.2363 186.212C60.6323 186.439 60.9257 186.725 61.1163 187.07V185.97H62.1283V192.13C62.1283 192.68 62.011 193.168 61.7763 193.593C61.5417 194.026 61.2043 194.363 60.7643 194.605C60.3317 194.847 59.8257 194.968 59.2463 194.968C58.4543 194.968 57.7943 194.781 57.2663 194.407C56.7383 194.033 56.4267 193.523 56.3313 192.878H57.3213C57.4313 193.245 57.6587 193.538 58.0033 193.758C58.348 193.985 58.7623 194.099 59.2463 194.099C59.7963 194.099 60.2437 193.927 60.5883 193.582C60.9403 193.237 61.1163 192.753 61.1163 192.13V190.865C60.9183 191.217 60.625 191.51 60.2363 191.745C59.8477 191.98 59.393 192.097 58.8723 192.097C58.337 192.097 57.8493 191.965 57.4093 191.701C56.9767 191.437 56.6357 191.067 56.3863 190.59C56.137 190.113 56.0123 189.571 56.0123 188.962C56.0123 188.346 56.137 187.807 56.3863 187.345C56.6357 186.876 56.9767 186.513 57.4093 186.256C57.8493 185.999 58.337 185.871 58.8723 185.871ZM61.1163 188.973C61.1163 188.518 61.0247 188.122 60.8413 187.785C60.658 187.448 60.4087 187.191 60.0933 187.015C59.7853 186.832 59.4443 186.74 59.0703 186.74C58.6963 186.74 58.3553 186.828 58.0473 187.004C57.7393 187.18 57.4937 187.437 57.3103 187.774C57.127 188.111 57.0353 188.507 57.0353 188.962C57.0353 189.424 57.127 189.827 57.3103 190.172C57.4937 190.509 57.7393 190.77 58.0473 190.953C58.3553 191.129 58.6963 191.217 59.0703 191.217C59.4443 191.217 59.7853 191.129 60.0933 190.953C60.4087 190.77 60.658 190.509 60.8413 190.172C61.0247 189.827 61.1163 189.428 61.1163 188.973ZM69.3529 188.753C69.3529 188.944 69.3419 189.145 69.3199 189.358H64.5019C64.5386 189.952 64.7403 190.418 65.1069 190.755C65.4809 191.085 65.9319 191.25 66.4599 191.25C66.8926 191.25 67.2519 191.151 67.5379 190.953C67.8313 190.748 68.0366 190.476 68.1539 190.139H69.2319C69.0706 190.718 68.7479 191.191 68.2639 191.558C67.7799 191.917 67.1786 192.097 66.4599 192.097C65.8879 192.097 65.3746 191.969 64.9199 191.712C64.4726 191.455 64.1206 191.092 63.8639 190.623C63.6073 190.146 63.4789 189.596 63.4789 188.973C63.4789 188.35 63.6036 187.803 63.8529 187.334C64.1023 186.865 64.4506 186.505 64.8979 186.256C65.3526 185.999 65.8733 185.871 66.4599 185.871C67.0319 185.871 67.5379 185.996 67.9779 186.245C68.4179 186.494 68.7553 186.839 68.9899 187.279C69.2319 187.712 69.3529 188.203 69.3529 188.753ZM68.3189 188.544C68.3189 188.163 68.2346 187.836 68.0659 187.565C67.8973 187.286 67.6663 187.077 67.3729 186.938C67.0869 186.791 66.7679 186.718 66.4159 186.718C65.9099 186.718 65.4773 186.879 65.1179 187.202C64.7659 187.525 64.5643 187.972 64.5129 188.544H68.3189ZM73.6442 185.86C74.3776 185.86 74.9716 186.084 75.4262 186.531C75.8809 186.971 76.1082 187.609 76.1082 188.445V191.998H75.1182V188.588C75.1182 187.987 74.9679 187.528 74.6672 187.213C74.3666 186.89 73.9559 186.729 73.4352 186.729C72.9072 186.729 72.4856 186.894 72.1702 187.224C71.8622 187.554 71.7082 188.034 71.7082 188.665V191.998H70.7072V185.97H71.7082V186.828C71.9062 186.52 72.1739 186.282 72.5112 186.113C72.8559 185.944 73.2336 185.86 73.6442 185.86ZM78.9974 186.795V190.348C78.9974 190.641 79.0597 190.85 79.1844 190.975C79.309 191.092 79.5254 191.151 79.8334 191.151H80.5704V191.998H79.6684C79.111 191.998 78.693 191.87 78.4144 191.613C78.1357 191.356 77.9964 190.935 77.9964 190.348V186.795H77.2154V185.97H77.9964V184.452H78.9974V185.97H80.5704V186.795H78.9974Z" fill="#666666"/>
<g filter="url(#filter2_bd_11523_37495)">
<rect x="91" y="30.998" width="66" height="66" rx="10" fill="#2DA771"/>
<rect x="90.5709" y="30.569" width="66.8581" height="66.8581" rx="10.4291" stroke="#EAEAEA" stroke-width="0.858128"/>
</g>
<path d="M113.955 49.066C111.63 49.4852 109.788 51.175 109.152 53.4618L109 54.0589V64.0066V73.9543L109.152 74.5387C109.737 76.635 111.35 78.2612 113.459 78.8456L114.044 78.998H123.991H133.939L134.524 78.8456C134.841 78.7566 135.375 78.5407 135.692 78.3882C137.217 77.6259 138.36 76.2157 138.818 74.5387L138.97 73.9543V64.0066V54.0589L138.818 53.4745C138.233 51.3782 136.62 49.752 134.511 49.1676L133.926 49.0152L124.169 49.0025C116.153 48.9898 114.323 49.0025 113.955 49.066ZM133.393 50.2094C134.142 50.2856 134.663 50.4381 135.26 50.743C136.112 51.2004 136.785 51.8737 137.242 52.7249C137.56 53.322 137.712 53.8429 137.776 54.5925C137.852 55.4437 137.852 72.5441 137.776 73.3953C137.7 74.1449 137.547 74.6658 137.242 75.2629C136.785 76.1141 136.112 76.7874 135.26 77.2448C134.663 77.5624 134.142 77.7149 133.393 77.7784C132.542 77.8546 115.441 77.8546 114.59 77.7784C113.84 77.7022 113.32 77.5497 112.722 77.2448C111.871 76.7874 111.198 76.1141 110.741 75.2629C110.423 74.6658 110.27 74.1449 110.207 73.3953C110.131 72.5441 110.131 55.4437 110.207 54.5925C110.283 53.8429 110.436 53.322 110.741 52.7249C111.503 51.302 112.9 50.3619 114.488 50.2094C115.238 50.1459 132.643 50.1459 133.393 50.2094Z" fill="white"/>
<path d="M115.546 53.8546C115.368 53.8927 115.012 54.0198 114.758 54.1468C113.767 54.6296 113.195 55.5189 113.195 56.6242C113.195 58.4156 114.796 59.7114 116.664 59.4446C118.353 59.2032 119.433 57.7168 119.103 56.116C118.874 55.0488 118.163 54.2612 117.134 53.9435C116.778 53.8292 115.952 53.7784 115.546 53.8546ZM116.537 55.0234C116.74 55.0488 116.994 55.1251 117.07 55.1759C118.061 55.6841 118.277 57.0181 117.489 57.8057C117.121 58.1869 116.384 58.3647 115.787 58.2504C115.33 58.1615 115.076 58.0217 114.796 57.7168C114.491 57.3865 114.402 57.107 114.402 56.5861C114.402 55.773 114.936 55.1759 115.787 55.0361C115.965 55.0107 116.117 54.9853 116.13 54.9726C116.155 54.9726 116.333 54.998 116.537 55.0234Z" fill="white"/>
<path d="M113.625 59.8145C113.549 59.8272 113.435 59.9034 113.359 59.9796L113.219 60.1321V67.3102V74.4883L113.359 74.628L113.498 74.7678L116.128 74.7805L118.758 74.7932L118.949 74.6153L119.139 74.4502L119.152 67.361C119.165 61.771 119.152 60.2464 119.088 60.1321C119.05 60.0559 118.923 59.9415 118.809 59.8907C118.618 59.8018 118.377 59.7891 116.166 59.7891C114.845 59.7891 113.689 59.8018 113.625 59.8145ZM118.008 67.3102V73.6117H116.192H114.375V67.3102V61.0087H116.192H118.008V67.3102Z" fill="white"/>
<path d="M120.254 59.8148C120.178 59.8275 120.051 59.9165 119.962 60.0181L119.797 60.196V67.3233V74.4505L119.962 74.603L120.114 74.7682L122.757 74.7809L125.387 74.7936L125.577 74.6157L125.768 74.4505L125.793 70.1437C125.819 67.247 125.844 65.786 125.895 65.659C126.225 64.7442 126.962 64.4012 127.941 64.7061C128.182 64.7823 128.461 65.0745 128.627 65.4303L128.766 65.7225L128.792 70.0802L128.817 74.4505L129.008 74.6157L129.198 74.7936L131.828 74.7809L134.458 74.7682L134.598 74.6284L134.737 74.4887V69.8134C134.737 64.6934 134.75 64.8459 134.369 63.7024C133.645 61.4791 131.879 60.0435 129.567 59.8275C128.868 59.764 127.979 59.8275 127.407 59.98C127 60.0943 126.276 60.412 126.022 60.5898C125.933 60.666 125.844 60.7169 125.819 60.7169C125.806 60.7169 125.781 60.5898 125.755 60.4374C125.73 60.2214 125.679 60.107 125.539 59.98L125.387 59.8021H122.884C121.512 59.7894 120.318 59.8021 120.254 59.8148ZM124.587 61.7459L124.612 62.4828L124.802 62.648C124.942 62.775 125.044 62.8131 125.222 62.8131C125.425 62.8131 125.476 62.775 125.87 62.3431C126.721 61.3902 127.636 60.9964 128.97 60.9964C131.015 60.9964 132.565 62.0763 133.213 63.9692C133.569 64.9983 133.569 64.9856 133.594 69.483L133.619 73.612H131.803H129.973V69.7117C129.973 67.0565 129.948 65.7098 129.91 65.5065C129.605 64.109 128.55 63.3213 127.077 63.4229C126.441 63.4611 125.997 63.6389 125.603 63.9947C125.184 64.3758 124.955 64.7315 124.752 65.3032L124.599 65.7733L124.587 69.6863L124.574 73.612H122.795H121.004V67.3106V61.0091H122.782H124.561L124.587 61.7459Z" fill="white"/>
<path d="M2.22627 66.184H4.91027V66.998H1.22527V59.331H2.22627V66.184ZM6.52332 59.991C6.33265 59.991 6.17132 59.925 6.03932 59.793C5.90732 59.661 5.84132 59.4997 5.84132 59.309C5.84132 59.1184 5.90732 58.957 6.03932 58.825C6.17132 58.693 6.33265 58.627 6.52332 58.627C6.70665 58.627 6.86065 58.693 6.98532 58.825C7.11732 58.957 7.18332 59.1184 7.18332 59.309C7.18332 59.4997 7.11732 59.661 6.98532 59.793C6.86065 59.925 6.70665 59.991 6.52332 59.991ZM7.00732 60.97V66.998H6.00632V60.97H7.00732ZM11.6834 60.86C12.4167 60.86 13.0107 61.0837 13.4654 61.531C13.92 61.971 14.1474 62.609 14.1474 63.445V66.998H13.1574V63.588C13.1574 62.9867 13.007 62.5284 12.7064 62.213C12.4057 61.8904 11.995 61.729 11.4744 61.729C10.9464 61.729 10.5247 61.894 10.2094 62.224C9.90135 62.554 9.74735 63.0344 9.74735 63.665V66.998H8.74635V60.97H9.74735V61.828C9.94535 61.52 10.213 61.2817 10.5504 61.113C10.895 60.9444 11.2727 60.86 11.6834 60.86ZM19.1815 66.998L16.8165 64.336V66.998H15.8155V58.858H16.8165V63.643L19.1375 60.97H20.5345L17.6965 63.973L20.5455 66.998H19.1815ZM27.0096 63.753C27.0096 63.9437 26.9986 64.1454 26.9766 64.358H22.1586C22.1953 64.952 22.397 65.4177 22.7636 65.755C23.1376 66.085 23.5886 66.25 24.1166 66.25C24.5493 66.25 24.9086 66.151 25.1946 65.953C25.488 65.7477 25.6933 65.4764 25.8106 65.139H26.8886C26.7273 65.7184 26.4046 66.1914 25.9206 66.558C25.4366 66.9174 24.8353 67.097 24.1166 67.097C23.5446 67.097 23.0313 66.9687 22.5766 66.712C22.1293 66.4554 21.7773 66.0924 21.5206 65.623C21.264 65.1464 21.1356 64.5964 21.1356 63.973C21.1356 63.3497 21.2603 62.8034 21.5096 62.334C21.759 61.8647 22.1073 61.5054 22.5546 61.256C23.0093 60.9994 23.53 60.871 24.1166 60.871C24.6886 60.871 25.1946 60.9957 25.6346 61.245C26.0746 61.4944 26.412 61.839 26.6466 62.279C26.8886 62.7117 27.0096 63.203 27.0096 63.753ZM25.9756 63.544C25.9756 63.1627 25.8913 62.8364 25.7226 62.565C25.554 62.2864 25.323 62.0774 25.0296 61.938C24.7436 61.7914 24.4246 61.718 24.0726 61.718C23.5666 61.718 23.134 61.8794 22.7746 62.202C22.4226 62.5247 22.221 62.972 22.1696 63.544H25.9756ZM27.9899 63.962C27.9899 63.346 28.1146 62.807 28.3639 62.345C28.6132 61.8757 28.9542 61.5127 29.3869 61.256C29.8269 60.9994 30.3182 60.871 30.8609 60.871C31.3302 60.871 31.7666 60.981 32.1699 61.201C32.5732 61.4137 32.8812 61.696 33.0939 62.048V58.858H34.1059V66.998H33.0939V65.865C32.8959 66.2244 32.6026 66.5214 32.2139 66.756C31.8252 66.9834 31.3706 67.097 30.8499 67.097C30.3146 67.097 29.8269 66.965 29.3869 66.701C28.9542 66.437 28.6132 66.0667 28.3639 65.59C28.1146 65.1134 27.9899 64.5707 27.9899 63.962ZM33.0939 63.973C33.0939 63.5184 33.0022 63.1224 32.8189 62.785C32.6356 62.4477 32.3862 62.191 32.0709 62.015C31.7629 61.8317 31.4219 61.74 31.0479 61.74C30.6739 61.74 30.3329 61.828 30.0249 62.004C29.7169 62.18 29.4712 62.4367 29.2879 62.774C29.1046 63.1114 29.0129 63.5074 29.0129 63.962C29.0129 64.424 29.1046 64.8274 29.2879 65.172C29.4712 65.5094 29.7169 65.7697 30.0249 65.953C30.3329 66.129 30.6739 66.217 31.0479 66.217C31.4219 66.217 31.7629 66.129 32.0709 65.953C32.3862 65.7697 32.6356 65.5094 32.8189 65.172C33.0022 64.8274 33.0939 64.4277 33.0939 63.973ZM36.8315 59.331V66.998H35.8305V59.331H36.8315ZM41.5075 60.86C42.2409 60.86 42.8349 61.0837 43.2895 61.531C43.7442 61.971 43.9715 62.609 43.9715 63.445V66.998H42.9815V63.588C42.9815 62.9867 42.8312 62.5284 42.5305 62.213C42.2299 61.8904 41.8192 61.729 41.2985 61.729C40.7705 61.729 40.3489 61.894 40.0335 62.224C39.7255 62.554 39.5715 63.0344 39.5715 63.665V66.998H38.5705V60.97H39.5715V61.828C39.7695 61.52 40.0372 61.2817 40.3745 61.113C40.7192 60.9444 41.0969 60.86 41.5075 60.86ZM48.2313 63.962C48.2313 63.346 48.3559 62.807 48.6053 62.345C48.8546 61.8757 49.1956 61.5127 49.6283 61.256C50.0683 60.9994 50.5559 60.871 51.0913 60.871C51.6193 60.871 52.0776 60.9847 52.4663 61.212C52.8549 61.4394 53.1446 61.7254 53.3353 62.07V60.97H54.3473V66.998H53.3353V65.876C53.1373 66.228 52.8403 66.5214 52.4443 66.756C52.0556 66.9834 51.6009 67.097 51.0803 67.097C50.5449 67.097 50.0609 66.965 49.6283 66.701C49.1956 66.437 48.8546 66.0667 48.6053 65.59C48.3559 65.1134 48.2313 64.5707 48.2313 63.962ZM53.3353 63.973C53.3353 63.5184 53.2436 63.1224 53.0603 62.785C52.8769 62.4477 52.6276 62.191 52.3123 62.015C52.0043 61.8317 51.6633 61.74 51.2893 61.74C50.9153 61.74 50.5743 61.828 50.2663 62.004C49.9583 62.18 49.7126 62.4367 49.5293 62.774C49.3459 63.1114 49.2543 63.5074 49.2543 63.962C49.2543 64.424 49.3459 64.8274 49.5293 65.172C49.7126 65.5094 49.9583 65.7697 50.2663 65.953C50.5743 66.129 50.9153 66.217 51.2893 66.217C51.6633 66.217 52.0043 66.129 52.3123 65.953C52.6276 65.7697 52.8769 65.5094 53.0603 65.172C53.2436 64.8274 53.3353 64.4277 53.3353 63.973ZM58.5579 60.871C59.0785 60.871 59.5332 60.9847 59.9219 61.212C60.3179 61.4394 60.6112 61.7254 60.8019 62.07V60.97H61.8139V67.13C61.8139 67.68 61.6965 68.1677 61.4619 68.593C61.2272 69.0257 60.8899 69.363 60.4499 69.605C60.0172 69.847 59.5112 69.968 58.9319 69.968C58.1399 69.968 57.4799 69.781 56.9519 69.407C56.4239 69.033 56.1122 68.5234 56.0169 67.878H57.0069C57.1169 68.2447 57.3442 68.538 57.6889 68.758C58.0335 68.9854 58.4479 69.099 58.9319 69.099C59.4819 69.099 59.9292 68.9267 60.2739 68.582C60.6259 68.2374 60.8019 67.7534 60.8019 67.13V65.865C60.6039 66.217 60.3105 66.5104 59.9219 66.745C59.5332 66.9797 59.0785 67.097 58.5579 67.097C58.0225 67.097 57.5349 66.965 57.0949 66.701C56.6622 66.437 56.3212 66.0667 56.0719 65.59C55.8225 65.1134 55.6979 64.5707 55.6979 63.962C55.6979 63.346 55.8225 62.807 56.0719 62.345C56.3212 61.8757 56.6622 61.5127 57.0949 61.256C57.5349 60.9994 58.0225 60.871 58.5579 60.871ZM60.8019 63.973C60.8019 63.5184 60.7102 63.1224 60.5269 62.785C60.3435 62.4477 60.0942 62.191 59.7789 62.015C59.4709 61.8317 59.1299 61.74 58.7559 61.74C58.3819 61.74 58.0409 61.828 57.7329 62.004C57.4249 62.18 57.1792 62.4367 56.9959 62.774C56.8125 63.1114 56.7209 63.5074 56.7209 63.962C56.7209 64.424 56.8125 64.8274 56.9959 65.172C57.1792 65.5094 57.4249 65.7697 57.7329 65.953C58.0409 66.129 58.3819 66.217 58.7559 66.217C59.1299 66.217 59.4709 66.129 59.7789 65.953C60.0942 65.7697 60.3435 65.5094 60.5269 65.172C60.7102 64.8274 60.8019 64.4277 60.8019 63.973ZM69.0385 63.753C69.0385 63.9437 69.0275 64.1454 69.0055 64.358H64.1875C64.2241 64.952 64.4258 65.4177 64.7925 65.755C65.1665 66.085 65.6175 66.25 66.1455 66.25C66.5781 66.25 66.9375 66.151 67.2235 65.953C67.5168 65.7477 67.7221 65.4764 67.8395 65.139H68.9175C68.7561 65.7184 68.4335 66.1914 67.9495 66.558C67.4655 66.9174 66.8641 67.097 66.1455 67.097C65.5735 67.097 65.0601 66.9687 64.6055 66.712C64.1581 66.4554 63.8061 66.0924 63.5495 65.623C63.2928 65.1464 63.1645 64.5964 63.1645 63.973C63.1645 63.3497 63.2891 62.8034 63.5385 62.334C63.7878 61.8647 64.1361 61.5054 64.5835 61.256C65.0381 60.9994 65.5588 60.871 66.1455 60.871C66.7175 60.871 67.2235 60.9957 67.6635 61.245C68.1035 61.4944 68.4408 61.839 68.6755 62.279C68.9175 62.7117 69.0385 63.203 69.0385 63.753ZM68.0045 63.544C68.0045 63.1627 67.9201 62.8364 67.7515 62.565C67.5828 62.2864 67.3518 62.0774 67.0585 61.938C66.7725 61.7914 66.4535 61.718 66.1015 61.718C65.5955 61.718 65.1628 61.8794 64.8035 62.202C64.4515 62.5247 64.2498 62.972 64.1985 63.544H68.0045ZM73.3298 60.86C74.0631 60.86 74.6571 61.0837 75.1118 61.531C75.5664 61.971 75.7938 62.609 75.7938 63.445V66.998H74.8038V63.588C74.8038 62.9867 74.6534 62.5284 74.3528 62.213C74.0521 61.8904 73.6414 61.729 73.1208 61.729C72.5928 61.729 72.1711 61.894 71.8558 62.224C71.5478 62.554 71.3938 63.0344 71.3938 63.665V66.998H70.3928V60.97H71.3938V61.828C71.5918 61.52 71.8594 61.2817 72.1968 61.113C72.5414 60.9444 72.9191 60.86 73.3298 60.86ZM78.6829 61.795V65.348C78.6829 65.6414 78.7452 65.8504 78.8699 65.975C78.9946 66.0924 79.2109 66.151 79.5189 66.151H80.2559V66.998H79.3539C78.7966 66.998 78.3786 66.8697 78.0999 66.613C77.8212 66.3564 77.6819 65.9347 77.6819 65.348V61.795H76.9009V60.97H77.6819V59.452H78.6829V60.97H80.2559V61.795H78.6829Z" fill="#666666"/>
<g filter="url(#filter3_bd_11523_37495)">
<rect x="217" y="155.998" width="66" height="66" rx="10" fill="#2DA771"/>
<rect x="216.571" y="155.569" width="66.8581" height="66.8581" rx="10.4291" stroke="#EAEAEA" stroke-width="0.858128"/>
</g>
<g clip-path="url(#clip0_11523_37495)">
<path d="M263.5 188.998C263.5 196.454 257.456 202.498 250 202.498C242.544 202.498 236.5 196.454 236.5 188.998C236.5 181.542 242.544 175.498 250 175.498" stroke="white" stroke-width="2.05833" stroke-linecap="round" stroke-linejoin="round"/>
<ellipse cx="250" cy="185.998" rx="4.5" ry="4.5" stroke="white" stroke-width="2.05833" stroke-linecap="round" stroke-linejoin="round"/>
<path d="M241.254 199.272C242.016 196.734 244.353 194.997 247.002 194.998H253.002C255.655 194.997 257.994 196.739 258.753 199.281" stroke="white" stroke-width="2.05833" stroke-linecap="round" stroke-linejoin="round"/>
<path fill-rule="evenodd" clip-rule="evenodd" d="M254.361 174.122C254.332 173.957 254.093 173.957 254.065 174.122C253.848 175.369 252.871 176.346 251.624 176.563C251.459 176.591 251.459 176.83 251.624 176.859C252.871 177.076 253.848 178.053 254.065 179.3C254.093 179.465 254.332 179.465 254.361 179.3C254.578 178.053 255.554 177.076 256.802 176.859C256.967 176.83 256.967 176.591 256.802 176.563C255.554 176.346 254.578 175.369 254.361 174.122ZM260.399 177.337C260.45 177.047 260.867 177.047 260.918 177.337C261.298 179.519 263.007 181.228 265.189 181.608C265.48 181.66 265.48 182.076 265.189 182.127C263.007 182.507 261.298 184.216 260.918 186.399C260.867 186.689 260.45 186.689 260.399 186.399C260.019 184.216 258.31 182.507 256.128 182.127C255.838 182.076 255.838 181.66 256.128 181.608C258.31 181.228 260.019 179.519 260.399 177.337Z" fill="white"/>
</g>
<path d="M297.884 186.998L296.058 183.863H294.848V186.998H293.847V179.331H296.322C296.901 179.331 297.389 179.43 297.785 179.628C298.188 179.826 298.489 180.094 298.687 180.431C298.885 180.768 298.984 181.153 298.984 181.586C298.984 182.114 298.83 182.58 298.522 182.983C298.221 183.386 297.767 183.654 297.158 183.786L299.083 186.998H297.884ZM294.848 183.06H296.322C296.865 183.06 297.272 182.928 297.543 182.664C297.814 182.393 297.95 182.033 297.95 181.586C297.95 181.131 297.814 180.779 297.543 180.53C297.279 180.281 296.872 180.156 296.322 180.156H294.848V183.06ZM306.072 183.753C306.072 183.944 306.061 184.145 306.039 184.358H301.221C301.258 184.952 301.46 185.418 301.826 185.755C302.2 186.085 302.651 186.25 303.179 186.25C303.612 186.25 303.971 186.151 304.257 185.953C304.551 185.748 304.756 185.476 304.873 185.139H305.951C305.79 185.718 305.467 186.191 304.983 186.558C304.499 186.917 303.898 187.097 303.179 187.097C302.607 187.097 302.094 186.969 301.639 186.712C301.192 186.455 300.84 186.092 300.583 185.623C300.327 185.146 300.198 184.596 300.198 183.973C300.198 183.35 300.323 182.803 300.572 182.334C300.822 181.865 301.17 181.505 301.617 181.256C302.072 180.999 302.593 180.871 303.179 180.871C303.751 180.871 304.257 180.996 304.697 181.245C305.137 181.494 305.475 181.839 305.709 182.279C305.951 182.712 306.072 183.203 306.072 183.753ZM305.038 183.544C305.038 183.163 304.954 182.836 304.785 182.565C304.617 182.286 304.386 182.077 304.092 181.938C303.806 181.791 303.487 181.718 303.135 181.718C302.629 181.718 302.197 181.879 301.837 182.202C301.485 182.525 301.284 182.972 301.232 183.544H305.038ZM307.053 183.973C307.053 183.35 307.177 182.807 307.427 182.345C307.676 181.876 308.021 181.513 308.461 181.256C308.908 180.999 309.418 180.871 309.99 180.871C310.73 180.871 311.339 181.051 311.816 181.41C312.3 181.769 312.619 182.268 312.773 182.906H311.695C311.592 182.539 311.39 182.25 311.09 182.037C310.796 181.824 310.43 181.718 309.99 181.718C309.418 181.718 308.956 181.916 308.604 182.312C308.252 182.701 308.076 183.254 308.076 183.973C308.076 184.699 308.252 185.26 308.604 185.656C308.956 186.052 309.418 186.25 309.99 186.25C310.43 186.25 310.796 186.147 311.09 185.942C311.383 185.737 311.585 185.443 311.695 185.062H312.773C312.611 185.678 312.289 186.173 311.805 186.547C311.321 186.914 310.716 187.097 309.99 187.097C309.418 187.097 308.908 186.969 308.461 186.712C308.021 186.455 307.676 186.092 307.427 185.623C307.177 185.154 307.053 184.604 307.053 183.973ZM316.77 187.097C316.206 187.097 315.692 186.969 315.23 186.712C314.776 186.455 314.416 186.092 314.152 185.623C313.896 185.146 313.767 184.596 313.767 183.973C313.767 183.357 313.899 182.814 314.163 182.345C314.435 181.868 314.801 181.505 315.263 181.256C315.725 180.999 316.242 180.871 316.814 180.871C317.386 180.871 317.903 180.999 318.365 181.256C318.827 181.505 319.19 181.865 319.454 182.334C319.726 182.803 319.861 183.35 319.861 183.973C319.861 184.596 319.722 185.146 319.443 185.623C319.172 186.092 318.802 186.455 318.332 186.712C317.863 186.969 317.342 187.097 316.77 187.097ZM316.77 186.217C317.13 186.217 317.467 186.133 317.782 185.964C318.098 185.795 318.351 185.542 318.541 185.205C318.739 184.868 318.838 184.457 318.838 183.973C318.838 183.489 318.743 183.078 318.552 182.741C318.362 182.404 318.112 182.154 317.804 181.993C317.496 181.824 317.163 181.74 316.803 181.74C316.437 181.74 316.099 181.824 315.791 181.993C315.491 182.154 315.249 182.404 315.065 182.741C314.882 183.078 314.79 183.489 314.79 183.973C314.79 184.464 314.878 184.879 315.054 185.216C315.238 185.553 315.48 185.806 315.78 185.975C316.081 186.136 316.411 186.217 316.77 186.217ZM328.459 180.86C328.929 180.86 329.347 180.959 329.713 181.157C330.08 181.348 330.37 181.637 330.582 182.026C330.795 182.415 330.901 182.888 330.901 183.445V186.998H329.911V183.588C329.911 182.987 329.761 182.528 329.46 182.213C329.167 181.89 328.767 181.729 328.261 181.729C327.741 181.729 327.326 181.898 327.018 182.235C326.71 182.565 326.556 183.045 326.556 183.676V186.998H325.566V183.588C325.566 182.987 325.416 182.528 325.115 182.213C324.822 181.89 324.422 181.729 323.916 181.729C323.396 181.729 322.981 181.898 322.673 182.235C322.365 182.565 322.211 183.045 322.211 183.676V186.998H321.21V180.97H322.211V181.839C322.409 181.524 322.673 181.282 323.003 181.113C323.341 180.944 323.711 180.86 324.114 180.86C324.62 180.86 325.068 180.974 325.456 181.201C325.845 181.428 326.135 181.762 326.325 182.202C326.494 181.777 326.773 181.447 327.161 181.212C327.55 180.977 327.983 180.86 328.459 180.86ZM339.825 180.86C340.295 180.86 340.713 180.959 341.079 181.157C341.446 181.348 341.736 181.637 341.948 182.026C342.161 182.415 342.267 182.888 342.267 183.445V186.998H341.277V183.588C341.277 182.987 341.127 182.528 340.826 182.213C340.533 181.89 340.133 181.729 339.627 181.729C339.107 181.729 338.692 181.898 338.384 182.235C338.076 182.565 337.922 183.045 337.922 183.676V186.998H336.932V183.588C336.932 182.987 336.782 182.528 336.481 182.213C336.188 181.89 335.788 181.729 335.282 181.729C334.762 181.729 334.347 181.898 334.039 182.235C333.731 182.565 333.577 183.045 333.577 183.676V186.998H332.576V180.97H333.577V181.839C333.775 181.524 334.039 181.282 334.369 181.113C334.707 180.944 335.077 180.86 335.48 180.86C335.986 180.86 336.434 180.974 336.822 181.201C337.211 181.428 337.501 181.762 337.691 182.202C337.86 181.777 338.139 181.447 338.527 181.212C338.916 180.977 339.349 180.86 339.825 180.86ZM349.442 183.753C349.442 183.944 349.431 184.145 349.409 184.358H344.591C344.628 184.952 344.83 185.418 345.196 185.755C345.57 186.085 346.021 186.25 346.549 186.25C346.982 186.25 347.341 186.151 347.627 185.953C347.921 185.748 348.126 185.476 348.243 185.139H349.321C349.16 185.718 348.837 186.191 348.353 186.558C347.869 186.917 347.268 187.097 346.549 187.097C345.977 187.097 345.464 186.969 345.009 186.712C344.562 186.455 344.21 186.092 343.953 185.623C343.697 185.146 343.568 184.596 343.568 183.973C343.568 183.35 343.693 182.803 343.942 182.334C344.192 181.865 344.54 181.505 344.987 181.256C345.442 180.999 345.963 180.871 346.549 180.871C347.121 180.871 347.627 180.996 348.067 181.245C348.507 181.494 348.845 181.839 349.079 182.279C349.321 182.712 349.442 183.203 349.442 183.753ZM348.408 183.544C348.408 183.163 348.324 182.836 348.155 182.565C347.987 182.286 347.756 182.077 347.462 181.938C347.176 181.791 346.857 181.718 346.505 181.718C345.999 181.718 345.567 181.879 345.207 182.202C344.855 182.525 344.654 182.972 344.602 183.544H348.408ZM353.734 180.86C354.467 180.86 355.061 181.084 355.516 181.531C355.97 181.971 356.198 182.609 356.198 183.445V186.998H355.208V183.588C355.208 182.987 355.057 182.528 354.757 182.213C354.456 181.89 354.045 181.729 353.525 181.729C352.997 181.729 352.575 181.894 352.26 182.224C351.952 182.554 351.798 183.034 351.798 183.665V186.998H350.797V180.97H351.798V181.828C351.996 181.52 352.263 181.282 352.601 181.113C352.945 180.944 353.323 180.86 353.734 180.86ZM357.492 183.962C357.492 183.346 357.617 182.807 357.866 182.345C358.115 181.876 358.456 181.513 358.889 181.256C359.329 180.999 359.82 180.871 360.363 180.871C360.832 180.871 361.269 180.981 361.672 181.201C362.075 181.414 362.383 181.696 362.596 182.048V178.858H363.608V186.998H362.596V185.865C362.398 186.224 362.105 186.521 361.716 186.756C361.327 186.983 360.873 187.097 360.352 187.097C359.817 187.097 359.329 186.965 358.889 186.701C358.456 186.437 358.115 186.067 357.866 185.59C357.617 185.113 357.492 184.571 357.492 183.962ZM362.596 183.973C362.596 183.518 362.504 183.122 362.321 182.785C362.138 182.448 361.888 182.191 361.573 182.015C361.265 181.832 360.924 181.74 360.55 181.74C360.176 181.74 359.835 181.828 359.527 182.004C359.219 182.18 358.973 182.437 358.79 182.774C358.607 183.111 358.515 183.507 358.515 183.962C358.515 184.424 358.607 184.827 358.79 185.172C358.973 185.509 359.219 185.77 359.527 185.953C359.835 186.129 360.176 186.217 360.55 186.217C360.924 186.217 361.265 186.129 361.573 185.953C361.888 185.77 362.138 185.509 362.321 185.172C362.504 184.827 362.596 184.428 362.596 183.973ZM364.958 183.962C364.958 183.346 365.083 182.807 365.332 182.345C365.582 181.876 365.923 181.513 366.355 181.256C366.795 180.999 367.283 180.871 367.818 180.871C368.346 180.871 368.805 180.985 369.193 181.212C369.582 181.439 369.872 181.725 370.062 182.07V180.97H371.074V186.998H370.062V185.876C369.864 186.228 369.567 186.521 369.171 186.756C368.783 186.983 368.328 187.097 367.807 187.097C367.272 187.097 366.788 186.965 366.355 186.701C365.923 186.437 365.582 186.067 365.332 185.59C365.083 185.113 364.958 184.571 364.958 183.962ZM370.062 183.973C370.062 183.518 369.971 183.122 369.787 182.785C369.604 182.448 369.355 182.191 369.039 182.015C368.731 181.832 368.39 181.74 368.016 181.74C367.642 181.74 367.301 181.828 366.993 182.004C366.685 182.18 366.44 182.437 366.256 182.774C366.073 183.111 365.981 183.507 365.981 183.962C365.981 184.424 366.073 184.827 366.256 185.172C366.44 185.509 366.685 185.77 366.993 185.953C367.301 186.129 367.642 186.217 368.016 186.217C368.39 186.217 368.731 186.129 369.039 185.953C369.355 185.77 369.604 185.509 369.787 185.172C369.971 184.827 370.062 184.428 370.062 183.973ZM374.02 181.795V185.348C374.02 185.641 374.082 185.85 374.207 185.975C374.332 186.092 374.548 186.151 374.856 186.151H375.593V186.998H374.691C374.134 186.998 373.716 186.87 373.437 186.613C373.158 186.356 373.019 185.935 373.019 185.348V181.795H372.238V180.97H373.019V179.452H374.02V180.97H375.593V181.795H374.02ZM377.356 179.991C377.165 179.991 377.004 179.925 376.872 179.793C376.74 179.661 376.674 179.5 376.674 179.309C376.674 179.118 376.74 178.957 376.872 178.825C377.004 178.693 377.165 178.627 377.356 178.627C377.539 178.627 377.693 178.693 377.818 178.825C377.95 178.957 378.016 179.118 378.016 179.309C378.016 179.5 377.95 179.661 377.818 179.793C377.693 179.925 377.539 179.991 377.356 179.991ZM377.84 180.97V186.998H376.839V180.97H377.84ZM382.208 187.097C381.643 187.097 381.13 186.969 380.668 186.712C380.213 186.455 379.854 186.092 379.59 185.623C379.333 185.146 379.205 184.596 379.205 183.973C379.205 183.357 379.337 182.814 379.601 182.345C379.872 181.868 380.239 181.505 380.701 181.256C381.163 180.999 381.68 180.871 382.252 180.871C382.824 180.871 383.341 180.999 383.803 181.256C384.265 181.505 384.628 181.865 384.892 182.334C385.163 182.803 385.299 183.35 385.299 183.973C385.299 184.596 385.16 185.146 384.881 185.623C384.61 186.092 384.239 186.455 383.77 186.712C383.301 186.969 382.78 187.097 382.208 187.097ZM382.208 186.217C382.567 186.217 382.905 186.133 383.22 185.964C383.535 185.795 383.788 185.542 383.979 185.205C384.177 184.868 384.276 184.457 384.276 183.973C384.276 183.489 384.181 183.078 383.99 182.741C383.799 182.404 383.55 182.154 383.242 181.993C382.934 181.824 382.6 181.74 382.241 181.74C381.874 181.74 381.537 181.824 381.229 181.993C380.928 182.154 380.686 182.404 380.503 182.741C380.32 183.078 380.228 183.489 380.228 183.973C380.228 184.464 380.316 184.879 380.492 185.216C380.675 185.553 380.917 185.806 381.218 185.975C381.519 186.136 381.849 186.217 382.208 186.217ZM389.585 180.86C390.318 180.86 390.912 181.084 391.367 181.531C391.822 181.971 392.049 182.609 392.049 183.445V186.998H391.059V183.588C391.059 182.987 390.909 182.528 390.608 182.213C390.307 181.89 389.897 181.729 389.376 181.729C388.848 181.729 388.426 181.894 388.111 182.224C387.803 182.554 387.649 183.034 387.649 183.665V186.998H386.648V180.97H387.649V181.828C387.847 181.52 388.115 181.282 388.452 181.113C388.797 180.944 389.174 180.86 389.585 180.86ZM299.347 195.753C299.347 195.944 299.336 196.145 299.314 196.358H294.496C294.533 196.952 294.734 197.418 295.101 197.755C295.475 198.085 295.926 198.25 296.454 198.25C296.887 198.25 297.246 198.151 297.532 197.953C297.825 197.748 298.031 197.476 298.148 197.139H299.226C299.065 197.718 298.742 198.191 298.258 198.558C297.774 198.917 297.173 199.097 296.454 199.097C295.882 199.097 295.369 198.969 294.914 198.712C294.467 198.455 294.115 198.092 293.858 197.623C293.601 197.146 293.473 196.596 293.473 195.973C293.473 195.35 293.598 194.803 293.847 194.334C294.096 193.865 294.445 193.505 294.892 193.256C295.347 192.999 295.867 192.871 296.454 192.871C297.026 192.871 297.532 192.996 297.972 193.245C298.412 193.494 298.749 193.839 298.984 194.279C299.226 194.712 299.347 195.203 299.347 195.753ZM298.313 195.544C298.313 195.163 298.229 194.836 298.06 194.565C297.891 194.286 297.66 194.077 297.367 193.938C297.081 193.791 296.762 193.718 296.41 193.718C295.904 193.718 295.471 193.879 295.112 194.202C294.76 194.525 294.558 194.972 294.507 195.544H298.313ZM303.638 192.86C304.372 192.86 304.966 193.084 305.42 193.531C305.875 193.971 306.102 194.609 306.102 195.445V198.998H305.112V195.588C305.112 194.987 304.962 194.528 304.661 194.213C304.361 193.89 303.95 193.729 303.429 193.729C302.901 193.729 302.48 193.894 302.164 194.224C301.856 194.554 301.702 195.034 301.702 195.665V198.998H300.701V192.97H301.702V193.828C301.9 193.52 302.168 193.282 302.505 193.113C302.85 192.944 303.228 192.86 303.638 192.86ZM310.256 192.871C310.777 192.871 311.232 192.985 311.62 193.212C312.016 193.439 312.31 193.725 312.5 194.07V192.97H313.512V199.13C313.512 199.68 313.395 200.168 313.16 200.593C312.926 201.026 312.588 201.363 312.148 201.605C311.716 201.847 311.21 201.968 310.63 201.968C309.838 201.968 309.178 201.781 308.65 201.407C308.122 201.033 307.811 200.523 307.715 199.878H308.705C308.815 200.245 309.043 200.538 309.387 200.758C309.732 200.985 310.146 201.099 310.63 201.099C311.18 201.099 311.628 200.927 311.972 200.582C312.324 200.237 312.5 199.753 312.5 199.13V197.865C312.302 198.217 312.009 198.51 311.62 198.745C311.232 198.98 310.777 199.097 310.256 199.097C309.721 199.097 309.233 198.965 308.793 198.701C308.361 198.437 308.02 198.067 307.77 197.59C307.521 197.113 307.396 196.571 307.396 195.962C307.396 195.346 307.521 194.807 307.77 194.345C308.02 193.876 308.361 193.513 308.793 193.256C309.233 192.999 309.721 192.871 310.256 192.871ZM312.5 195.973C312.5 195.518 312.409 195.122 312.225 194.785C312.042 194.448 311.793 194.191 311.477 194.015C311.169 193.832 310.828 193.74 310.454 193.74C310.08 193.74 309.739 193.828 309.431 194.004C309.123 194.18 308.878 194.437 308.694 194.774C308.511 195.111 308.419 195.507 308.419 195.962C308.419 196.424 308.511 196.827 308.694 197.172C308.878 197.509 309.123 197.77 309.431 197.953C309.739 198.129 310.08 198.217 310.454 198.217C310.828 198.217 311.169 198.129 311.477 197.953C311.793 197.77 312.042 197.509 312.225 197.172C312.409 196.827 312.5 196.428 312.5 195.973ZM315.754 191.991C315.563 191.991 315.402 191.925 315.27 191.793C315.138 191.661 315.072 191.5 315.072 191.309C315.072 191.118 315.138 190.957 315.27 190.825C315.402 190.693 315.563 190.627 315.754 190.627C315.937 190.627 316.091 190.693 316.216 190.825C316.348 190.957 316.414 191.118 316.414 191.309C316.414 191.5 316.348 191.661 316.216 191.793C316.091 191.925 315.937 191.991 315.754 191.991ZM316.238 192.97V198.998H315.237V192.97H316.238ZM320.914 192.86C321.647 192.86 322.241 193.084 322.696 193.531C323.151 193.971 323.378 194.609 323.378 195.445V198.998H322.388V195.588C322.388 194.987 322.238 194.528 321.937 194.213C321.636 193.89 321.226 193.729 320.705 193.729C320.177 193.729 319.755 193.894 319.44 194.224C319.132 194.554 318.978 195.034 318.978 195.665V198.998H317.977V192.97H318.978V193.828C319.176 193.52 319.444 193.282 319.781 193.113C320.126 192.944 320.503 192.86 320.914 192.86ZM330.546 195.753C330.546 195.944 330.535 196.145 330.513 196.358H325.695C325.732 196.952 325.934 197.418 326.3 197.755C326.674 198.085 327.125 198.25 327.653 198.25C328.086 198.25 328.445 198.151 328.731 197.953C329.025 197.748 329.23 197.476 329.347 197.139H330.425C330.264 197.718 329.941 198.191 329.457 198.558C328.973 198.917 328.372 199.097 327.653 199.097C327.081 199.097 326.568 198.969 326.113 198.712C325.666 198.455 325.314 198.092 325.057 197.623C324.801 197.146 324.672 196.596 324.672 195.973C324.672 195.35 324.797 194.803 325.046 194.334C325.296 193.865 325.644 193.505 326.091 193.256C326.546 192.999 327.067 192.871 327.653 192.871C328.225 192.871 328.731 192.996 329.171 193.245C329.611 193.494 329.949 193.839 330.183 194.279C330.425 194.712 330.546 195.203 330.546 195.753ZM329.512 195.544C329.512 195.163 329.428 194.836 329.259 194.565C329.091 194.286 328.86 194.077 328.566 193.938C328.28 193.791 327.961 193.718 327.609 193.718C327.103 193.718 326.671 193.879 326.311 194.202C325.959 194.525 325.758 194.972 325.706 195.544H329.512Z" fill="#666666"/>
<defs>
<filter id="filter0_bd_11523_37495" x="179.986" y="-6.01516" width="140.028" height="140.026" filterUnits="userSpaceOnUse" color-interpolation-filters="sRGB">
<feFlood flood-opacity="0" result="BackgroundImageFix"/>
<feGaussianBlur in="BackgroundImageFix" stdDeviation="18.0779"/>
<feComposite in2="SourceAlpha" operator="in" result="effect1_backgroundBlur_11523_37495"/>
<feColorMatrix in="SourceAlpha" type="matrix" values="0 0 0 0 0 0 0 0 0 0 0 0 0 0 0 0 0 0 127 0" result="hardAlpha"/>
<feOffset dy="5.49202"/>
<feGaussianBlur stdDeviation="4.34785"/>
<feComposite in2="hardAlpha" operator="out"/>
<feColorMatrix type="matrix" values="0 0 0 0 0.0867708 0 0 0 0 0.115317 0 0 0 0 0.141667 0 0 0 0.08 0"/>
<feBlend mode="normal" in2="effect1_backgroundBlur_11523_37495" result="effect2_dropShadow_11523_37495"/>
<feBlend mode="normal" in="SourceGraphic" in2="effect2_dropShadow_11523_37495" result="shape"/>
</filter>
<filter id="filter1_bd_11523_37495" x="53.9858" y="118.985" width="140.028" height="140.026" filterUnits="userSpaceOnUse" color-interpolation-filters="sRGB">
<feFlood flood-opacity="0" result="BackgroundImageFix"/>
<feGaussianBlur in="BackgroundImageFix" stdDeviation="18.0779"/>
<feComposite in2="SourceAlpha" operator="in" result="effect1_backgroundBlur_11523_37495"/>
<feColorMatrix in="SourceAlpha" type="matrix" values="0 0 0 0 0 0 0 0 0 0 0 0 0 0 0 0 0 0 127 0" result="hardAlpha"/>
<feOffset dy="5.49202"/>
<feGaussianBlur stdDeviation="4.34785"/>
<feComposite in2="hardAlpha" operator="out"/>
<feColorMatrix type="matrix" values="0 0 0 0 0.0867708 0 0 0 0 0.115317 0 0 0 0 0.141667 0 0 0 0.08 0"/>
<feBlend mode="normal" in2="effect1_backgroundBlur_11523_37495" result="effect2_dropShadow_11523_37495"/>
<feBlend mode="normal" in="SourceGraphic" in2="effect2_dropShadow_11523_37495" result="shape"/>
</filter>
<filter id="filter2_bd_11523_37495" x="53.9858" y="-6.01516" width="140.028" height="140.026" filterUnits="userSpaceOnUse" color-interpolation-filters="sRGB">
<feFlood flood-opacity="0" result="BackgroundImageFix"/>
<feGaussianBlur in="BackgroundImageFix" stdDeviation="18.0779"/>
<feComposite in2="SourceAlpha" operator="in" result="effect1_backgroundBlur_11523_37495"/>
<feColorMatrix in="SourceAlpha" type="matrix" values="0 0 0 0 0 0 0 0 0 0 0 0 0 0 0 0 0 0 127 0" result="hardAlpha"/>
<feOffset dy="5.49202"/>
<feGaussianBlur stdDeviation="4.34785"/>
<feComposite in2="hardAlpha" operator="out"/>
<feColorMatrix type="matrix" values="0 0 0 0 0.0867708 0 0 0 0 0.115317 0 0 0 0 0.141667 0 0 0 0.08 0"/>
<feBlend mode="normal" in2="effect1_backgroundBlur_11523_37495" result="effect2_dropShadow_11523_37495"/>
<feBlend mode="normal" in="SourceGraphic" in2="effect2_dropShadow_11523_37495" result="shape"/>
</filter>
<filter id="filter3_bd_11523_37495" x="179.986" y="118.985" width="140.028" height="140.026" filterUnits="userSpaceOnUse" color-interpolation-filters="sRGB">
<feFlood flood-opacity="0" result="BackgroundImageFix"/>
<feGaussianBlur in="BackgroundImageFix" stdDeviation="18.0779"/>
<feComposite in2="SourceAlpha" operator="in" result="effect1_backgroundBlur_11523_37495"/>
<feColorMatrix in="SourceAlpha" type="matrix" values="0 0 0 0 0 0 0 0 0 0 0 0 0 0 0 0 0 0 127 0" result="hardAlpha"/>
<feOffset dy="5.49202"/>
<feGaussianBlur stdDeviation="4.34785"/>
<feComposite in2="hardAlpha" operator="out"/>
<feColorMatrix type="matrix" values="0 0 0 0 0.0867708 0 0 0 0 0.115317 0 0 0 0 0.141667 0 0 0 0.08 0"/>
<feBlend mode="normal" in2="effect1_backgroundBlur_11523_37495" result="effect2_dropShadow_11523_37495"/>
<feBlend mode="normal" in="SourceGraphic" in2="effect2_dropShadow_11523_37495" result="shape"/>
</filter>
<clipPath id="clip0_11523_37495">
<rect width="36" height="36" fill="white" transform="translate(232 170.998)"/>
</clipPath>
</defs>
</svg>
