<svg width="469" height="257" viewBox="0 0 469 257" fill="none" xmlns="http://www.w3.org/2000/svg">
<circle cx="230.393" cy="205.393" r="9.39216" transform="rotate(-180 230.393 205.393)" fill="#2DA771"/>
<line x1="83" y1="204.555" x2="401" y2="204.555" stroke="#2DA771" stroke-width="0.88951" stroke-dasharray="5.34 5.34"/>
<path d="M438 214C438 112.932 348.457 31 238 31C127.543 31 38 112.932 38 214" stroke="#2DA771" stroke-width="0.88951" stroke-dasharray="5.34 5.34"/>
<rect x="13.5508" y="163" width="66" height="66" rx="10" fill="#2DA771"/>
<path d="M35 197.686C40.5053 198.34 44.8457 202.68 45.5 208.186C48.1956 206.631 49.8973 203.795 50 200.686C55.1507 198.874 58.7027 194.138 59 188.686C59 186.2 56.9853 184.186 54.5 184.186C49.048 184.483 44.3119 188.035 42.5 193.186C39.3902 193.288 36.554 194.99 35 197.686" stroke="white" stroke-width="1.95" stroke-linecap="round" stroke-linejoin="round"/>
<path d="M39.4995 199.186C36.3059 200.989 34.5257 204.549 34.9995 208.186C38.6362 208.659 42.1966 206.879 43.9995 203.686" stroke="white" stroke-width="1.95" stroke-linecap="round" stroke-linejoin="round"/>
<circle cx="51.5" cy="191.686" r="1.5" stroke="white" stroke-width="1.95" stroke-linecap="round" stroke-linejoin="round"/>
<rect x="401" y="166" width="66" height="66" rx="10" fill="#2DA771"/>
<ellipse cx="434" cy="191.5" rx="4.5" ry="4.5" stroke="white" stroke-width="2.05833" stroke-linecap="round" stroke-linejoin="round"/>
<ellipse cx="441.5" cy="205" rx="4.5" ry="4.5" stroke="white" stroke-width="2.05833" stroke-linecap="round" stroke-linejoin="round"/>
<circle cx="426.5" cy="205" r="4.5" stroke="white" stroke-width="2.05833" stroke-linecap="round" stroke-linejoin="round"/>
<path d="M5.4568 250.295H2.1128L1.4968 252H0.440797L3.2128 244.377H4.3678L7.1288 252H6.0728L5.4568 250.295ZM5.1708 249.481L3.7848 245.609L2.3988 249.481H5.1708ZM9.37091 244.333V252H8.36991V244.333H9.37091ZM13.7016 248.975C13.7016 248.352 13.8262 247.809 14.0756 247.347C14.3249 246.878 14.6696 246.515 15.1096 246.258C15.5569 246.001 16.0666 245.873 16.6386 245.873C17.3792 245.873 17.9879 246.053 18.4646 246.412C18.9486 246.771 19.2676 247.27 19.4216 247.908H18.3436C18.2409 247.541 18.0392 247.252 17.7386 247.039C17.4452 246.826 17.0786 246.72 16.6386 246.72C16.0666 246.72 15.6046 246.918 15.2526 247.314C14.9006 247.703 14.7246 248.256 14.7246 248.975C14.7246 249.701 14.9006 250.262 15.2526 250.658C15.6046 251.054 16.0666 251.252 16.6386 251.252C17.0786 251.252 17.4452 251.149 17.7386 250.944C18.0319 250.739 18.2336 250.445 18.3436 250.064H19.4216C19.2602 250.68 18.9376 251.175 18.4536 251.549C17.9696 251.916 17.3646 252.099 16.6386 252.099C16.0666 252.099 15.5569 251.971 15.1096 251.714C14.6696 251.457 14.3249 251.094 14.0756 250.625C13.8262 250.156 13.7016 249.606 13.7016 248.975ZM23.4192 252.099C22.8545 252.099 22.3412 251.971 21.8792 251.714C21.4245 251.457 21.0652 251.094 20.8012 250.625C20.5445 250.148 20.4162 249.598 20.4162 248.975C20.4162 248.359 20.5482 247.816 20.8122 247.347C21.0835 246.87 21.4502 246.507 21.9122 246.258C22.3742 246.001 22.8912 245.873 23.4632 245.873C24.0352 245.873 24.5522 246.001 25.0142 246.258C25.4762 246.507 25.8392 246.867 26.1032 247.336C26.3745 247.805 26.5102 248.352 26.5102 248.975C26.5102 249.598 26.3709 250.148 26.0922 250.625C25.8209 251.094 25.4505 251.457 24.9812 251.714C24.5119 251.971 23.9912 252.099 23.4192 252.099ZM23.4192 251.219C23.7785 251.219 24.1159 251.135 24.4312 250.966C24.7465 250.797 24.9995 250.544 25.1902 250.207C25.3882 249.87 25.4872 249.459 25.4872 248.975C25.4872 248.491 25.3919 248.08 25.2012 247.743C25.0105 247.406 24.7612 247.156 24.4532 246.995C24.1452 246.826 23.8115 246.742 23.4522 246.742C23.0855 246.742 22.7482 246.826 22.4402 246.995C22.1395 247.156 21.8975 247.406 21.7142 247.743C21.5309 248.08 21.4392 248.491 21.4392 248.975C21.4392 249.466 21.5272 249.881 21.7032 250.218C21.8865 250.555 22.1285 250.808 22.4292 250.977C22.7299 251.138 23.0599 251.219 23.4192 251.219ZM30.7963 245.862C31.5297 245.862 32.1237 246.086 32.5783 246.533C33.033 246.973 33.2603 247.611 33.2603 248.447V252H32.2703V248.59C32.2703 247.989 32.12 247.53 31.8193 247.215C31.5187 246.892 31.108 246.731 30.5873 246.731C30.0593 246.731 29.6377 246.896 29.3223 247.226C29.0143 247.556 28.8603 248.036 28.8603 248.667V252H27.8593V245.972H28.8603V246.83C29.0583 246.522 29.326 246.284 29.6633 246.115C30.008 245.946 30.3857 245.862 30.7963 245.862ZM36.1495 246.797V250.35C36.1495 250.643 36.2118 250.852 36.3365 250.977C36.4611 251.094 36.6775 251.153 36.9855 251.153H37.7225V252H36.8205C36.2631 252 35.8451 251.872 35.5665 251.615C35.2878 251.358 35.1485 250.937 35.1485 250.35V246.797H34.3675V245.972H35.1485V244.454H36.1495V245.972H37.7225V246.797H36.1495ZM44.4683 248.755C44.4683 248.946 44.4573 249.147 44.4353 249.36H39.6173C39.654 249.954 39.8556 250.42 40.2223 250.757C40.5963 251.087 41.0473 251.252 41.5753 251.252C42.008 251.252 42.3673 251.153 42.6533 250.955C42.9466 250.75 43.152 250.478 43.2693 250.141H44.3473C44.186 250.72 43.8633 251.193 43.3793 251.56C42.8953 251.919 42.294 252.099 41.5753 252.099C41.0033 252.099 40.49 251.971 40.0353 251.714C39.588 251.457 39.236 251.094 38.9793 250.625C38.7226 250.148 38.5943 249.598 38.5943 248.975C38.5943 248.352 38.719 247.805 38.9683 247.336C39.2176 246.867 39.566 246.507 40.0133 246.258C40.468 246.001 40.9886 245.873 41.5753 245.873C42.1473 245.873 42.6533 245.998 43.0933 246.247C43.5333 246.496 43.8706 246.841 44.1053 247.281C44.3473 247.714 44.4683 248.205 44.4683 248.755ZM43.4343 248.546C43.4343 248.165 43.35 247.838 43.1813 247.567C43.0126 247.288 42.7816 247.079 42.4883 246.94C42.2023 246.793 41.8833 246.72 41.5313 246.72C41.0253 246.72 40.5926 246.881 40.2333 247.204C39.8813 247.527 39.6796 247.974 39.6283 248.546H43.4343ZM48.7596 245.862C49.4929 245.862 50.0869 246.086 50.5416 246.533C50.9963 246.973 51.2236 247.611 51.2236 248.447V252H50.2336V248.59C50.2336 247.989 50.0833 247.53 49.7826 247.215C49.4819 246.892 49.0713 246.731 48.5506 246.731C48.0226 246.731 47.6009 246.896 47.2856 247.226C46.9776 247.556 46.8236 248.036 46.8236 248.667V252H45.8226V245.972H46.8236V246.83C47.0216 246.522 47.2893 246.284 47.6266 246.115C47.9713 245.946 48.3489 245.862 48.7596 245.862ZM54.1127 246.797V250.35C54.1127 250.643 54.1751 250.852 54.2997 250.977C54.4244 251.094 54.6407 251.153 54.9487 251.153H55.6857V252H54.7837C54.2264 252 53.8084 251.872 53.5297 251.615C53.2511 251.358 53.1117 250.937 53.1117 250.35V246.797H52.3307V245.972H53.1117V244.454H54.1127V245.972H55.6857V246.797H54.1127ZM67.9272 245.972L66.0462 252H65.0122L63.5602 247.215L62.1082 252H61.0742L59.1822 245.972H60.2052L61.5912 251.032L63.0872 245.972H64.1102L65.5732 251.043L66.9372 245.972H67.9272ZM69.4706 244.993C69.2799 244.993 69.1186 244.927 68.9866 244.795C68.8546 244.663 68.7886 244.502 68.7886 244.311C68.7886 244.12 68.8546 243.959 68.9866 243.827C69.1186 243.695 69.2799 243.629 69.4706 243.629C69.6539 243.629 69.8079 243.695 69.9326 243.827C70.0646 243.959 70.1306 244.12 70.1306 244.311C70.1306 244.502 70.0646 244.663 69.9326 244.795C69.8079 244.927 69.6539 244.993 69.4706 244.993ZM69.9546 245.972V252H68.9536V245.972H69.9546ZM72.4416 251.175H75.4006V252H71.2976V251.175L74.2236 246.786H71.3196V245.972H75.3786V246.786L72.4416 251.175ZM76.3585 248.964C76.3585 248.348 76.4832 247.809 76.7325 247.347C76.9818 246.878 77.3228 246.515 77.7555 246.258C78.1955 246.001 78.6832 245.873 79.2185 245.873C79.7465 245.873 80.2048 245.987 80.5935 246.214C80.9822 246.441 81.2718 246.727 81.4625 247.072V245.972H82.4745V252H81.4625V250.878C81.2645 251.23 80.9675 251.523 80.5715 251.758C80.1828 251.985 79.7282 252.099 79.2075 252.099C78.6722 252.099 78.1882 251.967 77.7555 251.703C77.3228 251.439 76.9818 251.069 76.7325 250.592C76.4832 250.115 76.3585 249.573 76.3585 248.964ZM81.4625 248.975C81.4625 248.52 81.3708 248.124 81.1875 247.787C81.0042 247.45 80.7548 247.193 80.4395 247.017C80.1315 246.834 79.7905 246.742 79.4165 246.742C79.0425 246.742 78.7015 246.83 78.3935 247.006C78.0855 247.182 77.8398 247.439 77.6565 247.776C77.4732 248.113 77.3815 248.509 77.3815 248.964C77.3815 249.426 77.4732 249.829 77.6565 250.174C77.8398 250.511 78.0855 250.772 78.3935 250.955C78.7015 251.131 79.0425 251.219 79.4165 251.219C79.7905 251.219 80.1315 251.131 80.4395 250.955C80.7548 250.772 81.0042 250.511 81.1875 250.174C81.3708 249.829 81.4625 249.43 81.4625 248.975ZM85.2001 246.951C85.3761 246.606 85.6254 246.339 85.9481 246.148C86.2781 245.957 86.6778 245.862 87.1471 245.862V246.896H86.8831C85.7611 246.896 85.2001 247.505 85.2001 248.722V252H84.1991V245.972H85.2001V246.951ZM87.9616 248.964C87.9616 248.348 88.0863 247.809 88.3356 247.347C88.5849 246.878 88.9259 246.515 89.3586 246.258C89.7986 246.001 90.2899 245.873 90.8326 245.873C91.3019 245.873 91.7383 245.983 92.1416 246.203C92.5449 246.416 92.8529 246.698 93.0656 247.05V243.86H94.0776V252H93.0656V250.867C92.8676 251.226 92.5743 251.523 92.1856 251.758C91.7969 251.985 91.3423 252.099 90.8216 252.099C90.2863 252.099 89.7986 251.967 89.3586 251.703C88.9259 251.439 88.5849 251.069 88.3356 250.592C88.0863 250.115 87.9616 249.573 87.9616 248.964ZM93.0656 248.975C93.0656 248.52 92.9739 248.124 92.7906 247.787C92.6073 247.45 92.3579 247.193 92.0426 247.017C91.7346 246.834 91.3936 246.742 91.0196 246.742C90.6456 246.742 90.3046 246.83 89.9966 247.006C89.6886 247.182 89.4429 247.439 89.2596 247.776C89.0763 248.113 88.9846 248.509 88.9846 248.964C88.9846 249.426 89.0763 249.829 89.2596 250.174C89.4429 250.511 89.6886 250.772 89.9966 250.955C90.3046 251.131 90.6456 251.219 91.0196 251.219C91.3936 251.219 91.7346 251.131 92.0426 250.955C92.3579 250.772 92.6073 250.511 92.7906 250.174C92.9739 249.829 93.0656 249.43 93.0656 248.975Z" fill="#666666"/>
<path d="M404.516 251.295H401.172L400.556 253H399.5L402.272 245.377H403.427L406.188 253H405.132L404.516 251.295ZM404.23 250.481L402.844 246.609L401.458 250.481H404.23ZM408.43 245.333V253H407.429V245.333H408.43ZM414.356 247.797V251.35C414.356 251.643 414.418 251.852 414.543 251.977C414.668 252.094 414.884 252.153 415.192 252.153H415.929V253H415.027C414.47 253 414.052 252.872 413.773 252.615C413.494 252.358 413.355 251.937 413.355 251.35V247.797H412.574V246.972H413.355V245.454H414.356V246.972H415.929V247.797H414.356ZM422.675 249.755C422.675 249.946 422.664 250.147 422.642 250.36H417.824C417.861 250.954 418.062 251.42 418.429 251.757C418.803 252.087 419.254 252.252 419.782 252.252C420.215 252.252 420.574 252.153 420.86 251.955C421.153 251.75 421.359 251.478 421.476 251.141H422.554C422.393 251.72 422.07 252.193 421.586 252.56C421.102 252.919 420.501 253.099 419.782 253.099C419.21 253.099 418.697 252.971 418.242 252.714C417.795 252.457 417.443 252.094 417.186 251.625C416.929 251.148 416.801 250.598 416.801 249.975C416.801 249.352 416.926 248.805 417.175 248.336C417.424 247.867 417.773 247.507 418.22 247.258C418.675 247.001 419.195 246.873 419.782 246.873C420.354 246.873 420.86 246.998 421.3 247.247C421.74 247.496 422.077 247.841 422.312 248.281C422.554 248.714 422.675 249.205 422.675 249.755ZM421.641 249.546C421.641 249.165 421.557 248.838 421.388 248.567C421.219 248.288 420.988 248.079 420.695 247.94C420.409 247.793 420.09 247.72 419.738 247.72C419.232 247.72 418.799 247.881 418.44 248.204C418.088 248.527 417.886 248.974 417.835 249.546H421.641ZM431.278 246.862C431.748 246.862 432.166 246.961 432.532 247.159C432.899 247.35 433.189 247.639 433.401 248.028C433.614 248.417 433.72 248.89 433.72 249.447V253H432.73V249.59C432.73 248.989 432.58 248.53 432.279 248.215C431.986 247.892 431.586 247.731 431.08 247.731C430.56 247.731 430.145 247.9 429.837 248.237C429.529 248.567 429.375 249.047 429.375 249.678V253H428.385V249.59C428.385 248.989 428.235 248.53 427.934 248.215C427.641 247.892 427.241 247.731 426.735 247.731C426.215 247.731 425.8 247.9 425.492 248.237C425.184 248.567 425.03 249.047 425.03 249.678V253H424.029V246.972H425.03V247.841C425.228 247.526 425.492 247.284 425.822 247.115C426.16 246.946 426.53 246.862 426.933 246.862C427.439 246.862 427.887 246.976 428.275 247.203C428.664 247.43 428.954 247.764 429.144 248.204C429.313 247.779 429.592 247.449 429.98 247.214C430.369 246.979 430.802 246.862 431.278 246.862ZM436.396 248.083C436.594 247.738 436.888 247.452 437.276 247.225C437.672 246.99 438.131 246.873 438.651 246.873C439.187 246.873 439.671 247.001 440.103 247.258C440.543 247.515 440.888 247.878 441.137 248.347C441.387 248.809 441.511 249.348 441.511 249.964C441.511 250.573 441.387 251.115 441.137 251.592C440.888 252.069 440.543 252.439 440.103 252.703C439.671 252.967 439.187 253.099 438.651 253.099C438.138 253.099 437.683 252.985 437.287 252.758C436.899 252.523 436.602 252.234 436.396 251.889V255.86H435.395V246.972H436.396V248.083ZM440.488 249.964C440.488 249.509 440.397 249.113 440.213 248.776C440.03 248.439 439.781 248.182 439.465 248.006C439.157 247.83 438.816 247.742 438.442 247.742C438.076 247.742 437.735 247.834 437.419 248.017C437.111 248.193 436.862 248.453 436.671 248.798C436.488 249.135 436.396 249.528 436.396 249.975C436.396 250.43 436.488 250.829 436.671 251.174C436.862 251.511 437.111 251.772 437.419 251.955C437.735 252.131 438.076 252.219 438.442 252.219C438.816 252.219 439.157 252.131 439.465 251.955C439.781 251.772 440.03 251.511 440.213 251.174C440.397 250.829 440.488 250.426 440.488 249.964ZM443.863 244.86V253H442.862V244.86H443.863ZM445.228 249.964C445.228 249.348 445.353 248.809 445.602 248.347C445.851 247.878 446.192 247.515 446.625 247.258C447.065 247.001 447.553 246.873 448.088 246.873C448.616 246.873 449.074 246.987 449.463 247.214C449.852 247.441 450.141 247.727 450.332 248.072V246.972H451.344V253H450.332V251.878C450.134 252.23 449.837 252.523 449.441 252.758C449.052 252.985 448.598 253.099 448.077 253.099C447.542 253.099 447.058 252.967 446.625 252.703C446.192 252.439 445.851 252.069 445.602 251.592C445.353 251.115 445.228 250.573 445.228 249.964ZM450.332 249.975C450.332 249.52 450.24 249.124 450.057 248.787C449.874 248.45 449.624 248.193 449.309 248.017C449.001 247.834 448.66 247.742 448.286 247.742C447.912 247.742 447.571 247.83 447.263 248.006C446.955 248.182 446.709 248.439 446.526 248.776C446.343 249.113 446.251 249.509 446.251 249.964C446.251 250.426 446.343 250.829 446.526 251.174C446.709 251.511 446.955 251.772 447.263 251.955C447.571 252.131 447.912 252.219 448.286 252.219C448.66 252.219 449.001 252.131 449.309 251.955C449.624 251.772 449.874 251.511 450.057 251.174C450.24 250.829 450.332 250.43 450.332 249.975ZM454.289 247.797V251.35C454.289 251.643 454.352 251.852 454.476 251.977C454.601 252.094 454.817 252.153 455.125 252.153H455.862V253H454.96C454.403 253 453.985 252.872 453.706 252.615C453.428 252.358 453.288 251.937 453.288 251.35V247.797H452.507V246.972H453.288V245.454H454.289V246.972H455.862V247.797H454.289ZM462.608 249.755C462.608 249.946 462.597 250.147 462.575 250.36H457.757C457.794 250.954 457.996 251.42 458.362 251.757C458.736 252.087 459.187 252.252 459.715 252.252C460.148 252.252 460.507 252.153 460.793 251.955C461.087 251.75 461.292 251.478 461.409 251.141H462.487C462.326 251.72 462.003 252.193 461.519 252.56C461.035 252.919 460.434 253.099 459.715 253.099C459.143 253.099 458.63 252.971 458.175 252.714C457.728 252.457 457.376 252.094 457.119 251.625C456.863 251.148 456.734 250.598 456.734 249.975C456.734 249.352 456.859 248.805 457.108 248.336C457.358 247.867 457.706 247.507 458.153 247.258C458.608 247.001 459.129 246.873 459.715 246.873C460.287 246.873 460.793 246.998 461.233 247.247C461.673 247.496 462.011 247.841 462.245 248.281C462.487 248.714 462.608 249.205 462.608 249.755ZM461.574 249.546C461.574 249.165 461.49 248.838 461.321 248.567C461.153 248.288 460.922 248.079 460.628 247.94C460.342 247.793 460.023 247.72 459.671 247.72C459.165 247.72 458.733 247.881 458.373 248.204C458.021 248.527 457.82 248.974 457.768 249.546H461.574ZM466.097 253.099C465.635 253.099 465.22 253.022 464.854 252.868C464.487 252.707 464.197 252.487 463.985 252.208C463.772 251.922 463.655 251.596 463.633 251.229H464.667C464.696 251.53 464.835 251.775 465.085 251.966C465.341 252.157 465.675 252.252 466.086 252.252C466.467 252.252 466.768 252.168 466.988 251.999C467.208 251.83 467.318 251.618 467.318 251.361C467.318 251.097 467.2 250.903 466.966 250.778C466.731 250.646 466.368 250.518 465.877 250.393C465.429 250.276 465.063 250.158 464.777 250.041C464.498 249.916 464.256 249.737 464.051 249.502C463.853 249.26 463.754 248.945 463.754 248.556C463.754 248.248 463.845 247.966 464.029 247.709C464.212 247.452 464.472 247.251 464.81 247.104C465.147 246.95 465.532 246.873 465.965 246.873C466.632 246.873 467.171 247.042 467.582 247.379C467.992 247.716 468.212 248.178 468.242 248.765H467.241C467.219 248.45 467.09 248.197 466.856 248.006C466.628 247.815 466.32 247.72 465.932 247.72C465.572 247.72 465.286 247.797 465.074 247.951C464.861 248.105 464.755 248.307 464.755 248.556C464.755 248.754 464.817 248.919 464.942 249.051C465.074 249.176 465.235 249.278 465.426 249.359C465.624 249.432 465.895 249.517 466.24 249.612C466.672 249.729 467.024 249.847 467.296 249.964C467.567 250.074 467.798 250.243 467.989 250.47C468.187 250.697 468.289 250.994 468.297 251.361C468.297 251.691 468.205 251.988 468.022 252.252C467.838 252.516 467.578 252.725 467.241 252.879C466.911 253.026 466.529 253.099 466.097 253.099Z" fill="#666666"/>
<path d="M34 115.554C34 98.6796 47.6796 85 64.5542 85C81.4289 85 95.1084 98.6796 95.1084 115.554C95.1084 132.429 81.4288 146.108 64.5542 146.108C47.6796 146.108 34 132.429 34 115.554Z" fill="#DD504E"/>
<path d="M67.8835 103.508L61.2256 103.508C60.504 103.508 59.8121 103.795 59.3019 104.305C58.7917 104.816 58.5048 105.507 58.5044 106.229L58.5044 124.879C58.5048 125.6 58.7917 126.292 59.3019 126.802C59.8121 127.312 60.504 127.599 61.2256 127.6L67.8835 127.6C68.6051 127.599 69.297 127.312 69.8072 126.802C70.3174 126.292 70.6043 125.6 70.6048 124.879L70.6048 106.229C70.6043 105.507 70.3174 104.816 69.8072 104.305C69.297 103.795 68.6051 103.508 67.8835 103.508ZM54.8661 105.318L52.7625 105.318C52.522 105.318 52.2913 105.414 52.1211 105.584C51.951 105.754 51.8555 105.985 51.8555 106.225C51.8555 106.466 51.951 106.697 52.1211 106.867C52.2913 107.037 52.522 107.132 52.7625 107.132L54.8661 107.132C55.08 107.133 55.2851 107.218 55.4363 107.369C55.5875 107.521 55.6725 107.726 55.6725 107.94L55.6725 122.039C55.6725 122.253 55.5874 122.458 55.436 122.609C55.2846 122.761 55.0793 122.846 54.8652 122.846L52.7625 122.846C52.522 122.846 52.2913 122.941 52.1211 123.111C51.951 123.282 51.8555 123.512 51.8555 123.753C51.8555 123.993 51.951 124.224 52.1211 124.394C52.2913 124.564 52.522 124.66 52.7625 124.66L54.8661 124.66C55.561 124.659 56.2273 124.383 56.7186 123.891C57.2099 123.4 57.4861 122.733 57.4866 122.039L57.4866 107.939C57.4861 107.244 57.2098 106.577 56.7183 106.086C56.2268 105.594 55.5603 105.318 54.8652 105.317L54.8661 105.318ZM76.3466 122.846L74.244 122.846C74.0299 122.846 73.8247 122.76 73.6734 122.609C73.522 122.458 73.4369 122.253 73.4367 122.039L73.4367 107.939C73.4369 107.725 73.5221 107.52 73.6734 107.368C73.8247 107.217 74.0299 107.132 74.244 107.132L76.3466 107.132C76.5872 107.132 76.8179 107.036 76.988 106.866C77.1581 106.696 77.2537 106.465 77.2537 106.225C77.2537 105.984 77.1581 105.753 76.988 105.583C76.8179 105.413 76.5872 105.317 76.3466 105.317L74.244 105.317C73.5489 105.318 72.8824 105.594 72.3909 106.086C71.8993 106.577 71.623 107.244 71.6225 107.939L71.6225 122.039C71.623 122.735 71.8993 123.401 72.3909 123.893C72.8824 124.384 73.5489 124.66 74.244 124.661L76.3466 124.661C76.5872 124.661 76.8179 124.565 76.988 124.395C77.1581 124.225 77.2537 123.994 77.2537 123.754C77.2537 123.513 77.1581 123.283 76.988 123.112C76.8179 122.942 76.5872 122.847 76.3466 122.847L76.3466 122.846Z" fill="white"/>
<path d="M102.109 61.5249C102.109 44.6503 115.789 30.9707 132.664 30.9707C149.538 30.9707 163.218 44.6503 163.218 61.5249C163.218 78.3996 149.538 92.0792 132.664 92.0792C115.789 92.0792 102.109 78.3996 102.109 61.5249Z" fill="#E6A55B"/>
<path d="M120.506 61.5241C121.379 61.5241 122.132 61.046 122.541 60.3445L132.313 60.3445L132.313 57.983L122.541 57.983C122.132 57.2797 121.379 56.8023 120.506 56.8023C120.196 56.8024 119.889 56.8636 119.603 56.9823C119.316 57.101 119.056 57.275 118.837 57.4943C118.618 57.7136 118.444 57.9739 118.326 58.2603C118.207 58.5468 118.147 58.8538 118.147 59.1637C118.147 59.7895 118.396 60.3895 118.838 60.8321C119.28 61.2746 119.88 61.5235 120.506 61.5241ZM120.506 70.9687C121.379 70.9687 122.132 70.4892 122.541 69.788L132.313 69.788L132.313 67.4263L122.541 67.4263C122.132 66.7229 121.379 66.2455 120.506 66.2455C119.88 66.2459 119.28 66.4949 118.837 66.9379C118.395 67.3808 118.146 67.9813 118.147 68.6073C118.147 69.2332 118.395 69.8336 118.838 70.2764C119.28 70.7191 119.88 70.9682 120.506 70.9687Z" fill="white"/>
<path d="M134.676 72.1483L129.953 72.1483C129.953 72.4585 130.014 72.7656 130.133 73.0521C130.252 73.3387 130.425 73.599 130.645 73.8183C130.864 74.0376 131.124 74.2116 131.411 74.3302C131.697 74.4488 132.005 74.5099 132.315 74.5098L144.12 74.5098C144.746 74.5095 145.347 74.2606 145.789 73.8177C146.232 73.3749 146.48 72.7744 146.48 72.1483L146.48 50.8994C146.481 50.5894 146.419 50.2824 146.301 49.996C146.182 49.7096 146.008 49.4494 145.789 49.2301C145.57 49.0109 145.31 48.837 145.023 48.7184C144.737 48.5997 144.43 48.5387 144.12 48.5387L132.315 48.5387C132.005 48.5385 131.698 48.5995 131.411 48.7181C131.125 48.8367 130.864 49.0105 130.645 49.2298C130.426 49.449 130.252 49.7093 130.133 49.9958C130.014 50.2822 129.953 50.5893 129.953 50.8994L134.676 50.8994L134.676 72.1483ZM137.037 53.2605L144.12 53.2605L144.12 55.6212L137.037 55.6212L137.037 53.2605ZM137.037 57.9826L144.12 57.9826L144.12 60.344L137.037 60.344L137.037 57.9826ZM137.037 62.7044L144.12 62.7044L144.12 65.0655L137.037 65.0655L137.037 62.7044ZM137.037 67.4262L144.12 67.4262L144.12 69.788L137.037 69.788L137.037 67.4262Z" fill="white"/>
<path d="M127.59 56.8025C128.462 56.8025 129.214 56.3237 129.624 55.6218L132.313 55.6218L132.313 53.2611L129.624 53.2611C129.214 52.5578 128.462 52.0804 127.59 52.0804C127.28 52.0804 126.973 52.1414 126.686 52.2601C126.4 52.3788 126.139 52.5528 125.92 52.7721C125.701 52.9913 125.527 53.2517 125.408 53.5382C125.29 53.8247 125.229 54.1317 125.229 54.4418C125.229 55.0678 125.478 55.668 125.921 56.1107C126.363 56.5533 126.964 56.8021 127.59 56.8025ZM125.228 66.2461C126.101 66.2461 126.854 65.7676 127.263 65.0664L132.313 65.0664L132.313 62.705L127.263 62.705C126.854 62.0017 126.101 61.5243 125.228 61.5243C124.918 61.5244 124.611 61.5856 124.325 61.7043C124.039 61.823 123.778 61.997 123.559 62.2163C123.34 62.4355 123.166 62.6958 123.048 62.9823C122.929 63.2687 122.868 63.5757 122.869 63.8857C122.869 64.5115 123.118 65.1116 123.56 65.5542C124.002 65.9968 124.602 66.2456 125.228 66.2461Z" fill="white"/>
<path d="M199.883 30.5542C199.883 13.6796 213.562 2.39182e-06 230.437 5.34227e-06C247.312 8.29272e-06 260.991 13.6796 260.991 30.5542C260.991 47.4289 247.312 61.1085 230.437 61.1085C213.562 61.1085 199.883 47.4289 199.883 30.5542Z" fill="#5ABA87"/>
<path d="M224.534 17.968L224.186 19.6592L222.389 22.5331L221.901 22.5331L221.901 30.273L229.756 30.273C230.349 30.273 230.832 29.7898 230.832 29.1964L230.832 28.1294C230.727 28.1638 230.617 28.1873 230.5 28.1873L228.707 28.1873L228.707 27.3913L230.5 27.3913C230.656 27.3913 230.784 27.264 230.784 27.1073C230.784 27.0673 230.783 26.1575 230.783 26.0982C230.742 26.0982 228.832 26.0993 228.707 26.0993L228.707 25.3033L230.821 25.3033C230.825 25.3033 230.828 25.3012 230.832 25.301L230.832 24.076C231.214 23.9107 231.477 23.5334 231.477 23.0926L231.477 22.2618C231.477 21.8507 231.142 21.5158 230.731 21.5158L226.606 21.5158C227.343 19.4999 227.344 19.5795 227.344 19.4515L227.344 18.2223C227.344 17.4381 226.708 16.8065 225.928 16.8065C225.237 16.8065 224.652 17.2982 224.534 17.968ZM216.688 30.3154L221.105 30.3154L221.105 22.5331L216.688 22.5331L216.688 30.3154ZM219.061 27.7868L219.857 27.7868L219.857 28.512L219.061 28.512L219.061 27.7868ZM243.109 23.9274L242.386 24.2586C243.053 25.7181 243.392 27.2853 243.392 28.9166L244.188 28.9166C244.188 27.1702 243.825 25.4917 243.109 23.9274ZM232.075 17.5999C233.707 17.5999 235.274 17.9383 236.733 18.606L237.064 17.8824C235.5 17.1667 233.822 16.8039 232.075 16.8039L232.075 17.5999ZM217.485 32.19L216.689 32.19C216.689 34.0867 217.137 35.9691 217.986 37.6338L218.695 37.2724C217.903 35.7191 217.485 33.9617 217.485 32.19ZM228.802 44.3027L228.802 43.5067C227.009 43.5067 225.297 43.1011 223.714 42.3005L223.355 43.0108C225.051 43.8679 226.883 44.3027 228.802 44.3027ZM240.412 17.8662C238.92 17.8662 237.703 19.0827 237.703 20.579C237.703 22.071 238.92 23.2876 240.412 23.2876C241.908 23.2876 243.125 22.071 243.125 20.579C243.125 19.0827 241.908 17.8662 240.412 17.8662ZM217.828 40.4544C217.828 41.9507 219.04 43.1672 220.537 43.1672C222.029 43.1672 223.245 41.9507 223.245 40.4544C223.245 38.9624 222.029 37.7459 220.537 37.7459C219.04 37.7459 217.828 38.9624 217.828 40.4544ZM233.519 42.8835C233.519 43.6677 234.155 44.2993 234.935 44.2993C235.625 44.2993 236.21 43.8076 236.329 43.1379L236.677 41.4466L238.474 38.5727L238.961 38.5727L238.961 30.8328L231.107 30.8328C230.514 30.8328 230.03 31.316 230.03 31.9094L230.03 32.9765C230.136 32.942 230.246 32.9186 230.363 32.9186L232.156 32.9186L232.156 33.7146L230.363 33.7146C230.207 33.7146 230.079 33.8418 230.079 33.9985C230.079 34.0385 230.08 34.9484 230.08 35.0076C230.121 35.0076 232.03 35.0065 232.156 35.0065L232.156 35.8025L230.042 35.8025C230.038 35.8025 230.034 35.8046 230.03 35.8048L230.03 37.0298C229.649 37.1951 229.386 37.5724 229.386 38.0132L229.386 38.844C229.386 39.2552 229.721 39.59 230.132 39.59L234.256 39.59C233.519 41.6059 233.519 41.5263 233.519 41.6543L233.519 42.8835ZM239.758 38.5727L244.175 38.5727L244.175 30.7904L239.758 30.7904L239.758 38.5727ZM241.006 32.5938L241.802 32.5938L241.802 33.319L241.006 33.319L241.006 32.5938Z" fill="white"/>
<path d="M293.836 61.5249C293.836 44.6503 307.516 30.9707 324.39 30.9707C341.265 30.9707 354.944 44.6503 354.944 61.5249C354.944 78.3996 341.265 92.0792 324.39 92.0792C307.516 92.0792 293.836 78.3996 293.836 61.5249Z" fill="#7243D5"/>
<path d="M318.761 73.7461C318.765 73.7461 318.768 73.7461 318.772 73.7461C318.816 73.7444 318.86 73.7397 318.903 73.7319L335.668 73.7319C335.793 73.7323 335.916 73.7082 336.031 73.6608C336.146 73.6134 336.251 73.5438 336.339 73.4558C336.427 73.3679 336.496 73.2635 336.543 73.1487C336.59 73.0338 336.614 72.9108 336.613 72.7867L336.613 53.0621C336.613 50.9977 334.922 49.3027 332.854 49.3027L315.933 49.3027C315.87 49.3035 315.806 49.3106 315.745 49.324C315.742 49.324 315.74 49.324 315.737 49.324C314.778 49.3748 313.874 49.7906 313.21 50.4862C312.547 51.1818 312.175 52.1046 312.17 53.0657L312.17 60.5774C312.169 60.7012 312.193 60.824 312.24 60.9386C312.286 61.0532 312.356 61.1575 312.443 61.2454C312.531 61.3332 312.635 61.403 312.75 61.4505C312.864 61.4981 312.987 61.5226 313.112 61.5226L317.809 61.5226L317.809 72.7867C317.806 72.9122 317.829 73.0371 317.875 73.1539C317.922 73.2706 317.991 73.3769 318.08 73.4664C318.168 73.5558 318.274 73.6267 318.39 73.6747C318.507 73.7228 318.635 73.747 318.761 73.7461ZM331.909 68.0963L322.517 68.0963C322.267 68.0963 322.026 67.9971 321.849 67.8205C321.672 67.6439 321.572 67.4044 321.572 67.1546C321.572 66.9049 321.672 66.6654 321.849 66.4888C322.026 66.3122 322.267 66.213 322.517 66.213L331.909 66.213C332.159 66.213 332.4 66.3122 332.577 66.4888C332.754 66.6654 332.854 66.9049 332.854 67.1546C332.854 67.4044 332.754 67.6439 332.577 67.8205C332.4 67.9971 332.159 68.0963 331.909 68.0963ZM331.909 64.3369L322.517 64.3369C322.267 64.3369 322.026 64.2376 321.849 64.0611C321.672 63.8845 321.572 63.645 321.572 63.3952C321.572 63.1455 321.672 62.906 321.849 62.7294C322.026 62.5528 322.267 62.4536 322.517 62.4536L331.909 62.4536C332.159 62.4536 332.4 62.5528 332.577 62.7294C332.754 62.906 332.854 63.1455 332.854 63.3952C332.854 63.645 332.754 63.8845 332.577 64.0611C332.4 64.2376 332.159 64.3369 331.909 64.3369ZM331.912 60.5774C331.913 60.5774 331.911 60.5774 331.912 60.5774L322.517 60.5774C322.267 60.5774 322.028 60.4782 321.851 60.3016C321.675 60.125 321.576 59.8855 321.576 59.6358C321.576 59.3861 321.675 59.1466 321.851 58.97C322.028 58.7934 322.267 58.6942 322.517 58.6942L331.909 58.6942C332.158 58.6814 332.403 58.7685 332.589 58.936C332.774 59.1036 332.886 59.3381 332.898 59.5878C332.911 59.8376 332.824 60.0821 332.656 60.2677C332.489 60.4533 332.254 60.5647 332.005 60.5774C331.974 60.5789 331.943 60.5789 331.912 60.5774ZM317.809 59.6394L314.05 59.6394L314.05 53.0586C314.05 51.9997 314.874 51.1753 315.933 51.1753C316.181 51.1725 316.427 51.2193 316.656 51.313C316.885 51.4067 317.094 51.5454 317.268 51.721C317.443 51.8965 317.581 52.1053 317.674 52.3351C317.767 52.5648 317.813 52.8108 317.809 53.0586L317.809 59.6394ZM331.912 56.818C331.913 56.818 331.911 56.818 331.912 56.818L322.517 56.818C322.267 56.818 322.026 56.7188 321.849 56.5422C321.672 56.3656 321.572 56.1261 321.572 55.8764C321.572 55.6266 321.672 55.3871 321.849 55.2105C322.026 55.034 322.267 54.9348 322.517 54.9348L331.909 54.9348C332.158 54.922 332.403 55.009 332.589 55.1766C332.774 55.3442 332.886 55.5787 332.898 55.8284C332.911 56.0781 332.824 56.3227 332.656 56.5083C332.489 56.6939 332.254 56.8053 332.005 56.818C331.974 56.8195 331.943 56.8195 331.912 56.818Z" fill="white"/>
<path d="M376 115.554C376 98.6796 389.68 85 406.554 85C423.429 85 437.108 98.6796 437.108 115.554C437.108 132.429 423.429 146.108 406.554 146.108C389.68 146.108 376 132.429 376 115.554Z" fill="#CC63D2"/>
<g clip-path="url(#clip0_11523_37763)">
<path d="M395.097 123.576L402.545 123.576C402.697 123.576 402.843 123.516 402.95 123.408C403.058 123.301 403.118 123.155 403.118 123.003L403.118 120.712C403.118 120.256 403.299 119.819 403.621 119.496C403.944 119.174 404.381 118.993 404.837 118.993L408.274 118.993C408.73 118.993 409.167 119.174 409.489 119.496C409.812 119.819 409.993 120.256 409.993 120.712L409.993 123.003C409.993 123.155 410.053 123.301 410.16 123.408C410.268 123.516 410.414 123.576 410.566 123.576L418.013 123.576C418.621 123.576 419.204 123.335 419.634 122.905C420.063 122.475 420.305 121.892 420.305 121.285L420.305 107.535C420.305 106.927 420.063 106.345 419.634 105.915C419.204 105.485 418.621 105.244 418.013 105.244L395.097 105.244C394.49 105.244 393.907 105.485 393.477 105.915C393.047 106.345 392.806 106.927 392.806 107.535L392.806 121.285C392.806 121.892 393.047 122.475 393.477 122.905C393.907 123.335 394.49 123.576 395.097 123.576ZM412.857 118.993C412.291 118.993 411.737 118.825 411.266 118.51C410.795 118.196 410.427 117.748 410.211 117.225C409.994 116.701 409.937 116.125 410.048 115.57C410.158 115.014 410.431 114.504 410.832 114.103C411.232 113.702 411.743 113.43 412.298 113.319C412.854 113.209 413.43 113.265 413.953 113.482C414.477 113.699 414.924 114.066 415.239 114.537C415.554 115.008 415.722 115.562 415.722 116.129C415.722 116.888 415.42 117.617 414.883 118.154C414.345 118.691 413.617 118.993 412.857 118.993ZM407.701 108.864C407.689 108.526 407.811 108.196 408.04 107.947C408.27 107.698 408.589 107.55 408.927 107.535L416.787 107.535C417.126 107.55 417.444 107.698 417.674 107.947C417.904 108.196 418.026 108.526 418.013 108.864L418.013 109.231C418.023 109.687 417.914 110.139 417.697 110.54C417.48 110.942 417.163 111.28 416.776 111.523C415.591 112.239 414.241 112.634 412.857 112.668C411.473 112.634 410.123 112.239 408.939 111.523C408.551 111.28 408.234 110.942 408.017 110.54C407.8 110.139 407.691 109.687 407.701 109.231L407.701 108.864ZM396.816 110.973L403.691 110.973C403.843 110.973 403.988 111.033 404.096 111.14C404.203 111.248 404.264 111.394 404.264 111.545C404.264 111.697 404.203 111.843 404.096 111.951C403.988 112.058 403.843 112.118 403.691 112.118L396.816 112.118C396.664 112.118 396.518 112.058 396.411 111.951C396.304 111.843 396.243 111.697 396.243 111.545C396.243 111.394 396.304 111.248 396.411 111.14C396.518 111.033 396.664 110.973 396.816 110.973ZM396.816 114.41L405.982 114.41C406.134 114.41 406.28 114.47 406.387 114.578C406.495 114.685 406.555 114.831 406.555 114.983C406.555 115.135 406.495 115.28 406.387 115.388C406.28 115.495 406.134 115.556 405.982 115.556L396.816 115.556C396.664 115.556 396.518 115.495 396.411 115.388C396.304 115.28 396.243 115.135 396.243 114.983C396.243 114.831 396.304 114.685 396.411 114.578C396.518 114.47 396.664 114.41 396.816 114.41Z" fill="white"/>
<path d="M408.275 120.138L404.837 120.138C404.685 120.138 404.54 120.199 404.432 120.306C404.325 120.414 404.265 120.559 404.265 120.711L404.265 123.576C404.265 124.183 404.506 124.766 404.936 125.196C405.365 125.626 405.948 125.867 406.556 125.867C407.164 125.867 407.747 125.626 408.176 125.196C408.606 124.766 408.848 124.183 408.848 123.576L408.848 120.711C408.848 120.559 408.787 120.414 408.68 120.306C408.572 120.199 408.427 120.138 408.275 120.138Z" fill="white"/>
</g>
<line x1="230.47" y1="67" x2="230.47" y2="205.063" stroke="#2DA771" stroke-width="0.939216" stroke-dasharray="5.64 5.64"/>
<line x1="303.39" y1="96.2612" x2="230.39" y2="205.325" stroke="#2DA771" stroke-width="0.939216" stroke-dasharray="5.64 5.64"/>
<line x1="368.21" y1="136.42" x2="230.21" y2="205.483" stroke="#2DA771" stroke-width="0.939216" stroke-dasharray="5.64 5.64"/>
<line x1="158.392" y1="95.7413" x2="230.392" y2="204.805" stroke="#2DA771" stroke-width="0.939216" stroke-dasharray="5.64 5.64"/>
<line x1="100.22" y1="135.585" x2="230.22" y2="204.649" stroke="#2DA771" stroke-width="0.939216" stroke-dasharray="5.64 5.64"/>
<defs>
<clipPath id="clip0_11523_37763">
<rect width="27.4988" height="27.4988" fill="white" transform="translate(420.305 129.305) rotate(-180)"/>
</clipPath>
</defs>
</svg>
