<svg width="372" height="257" viewBox="0 0 372 257" fill="none" xmlns="http://www.w3.org/2000/svg">
<path d="M24.1989 50.9668C24.1989 130.515 88.7617 195.002 168.404 195.002C248.046 195.002 312.609 130.515 312.609 50.9668" stroke="#2DA771" stroke-width="0.88951" stroke-dasharray="5.34 5.34"/>
<rect x="346" y="92" width="66" height="66" rx="10" transform="rotate(-180 346 92)" fill="#2DA771"/>
<path d="M323.145 65.07L321.649 63.5775C321.81 63.2427 321.952 62.899 322.073 62.548H324.189C324.392 62.548 324.587 62.4674 324.73 62.3238C324.874 62.1803 324.954 61.9856 324.954 61.7826V56.6698C324.954 56.4668 324.874 56.2721 324.73 56.1285C324.587 55.985 324.392 55.9044 324.189 55.9044H322.073C321.952 55.5533 321.81 55.2096 321.649 54.8749L323.145 53.3824C323.216 53.3113 323.272 53.2269 323.311 53.134C323.349 53.041 323.369 52.9414 323.369 52.8408C323.369 52.7403 323.349 52.6407 323.311 52.5477C323.272 52.4548 323.216 52.3704 323.145 52.2993L319.529 48.6828C319.458 48.6119 319.373 48.5558 319.28 48.5177C319.186 48.4796 319.087 48.4603 318.986 48.4609C318.784 48.4607 318.59 48.5405 318.446 48.6828L316.954 50.1792C316.619 50.0186 316.276 49.8768 315.925 49.7544V47.6381C315.925 47.4351 315.844 47.2404 315.701 47.0968C315.557 46.9533 315.363 46.8727 315.16 46.8727H310.049C309.846 46.8727 309.651 46.9533 309.507 47.0968C309.364 47.2404 309.283 47.4351 309.283 47.6381V49.7544C308.933 49.8768 308.589 50.0186 308.254 50.1792L306.762 48.6828C306.616 48.5445 306.422 48.4674 306.221 48.4674C306.019 48.4674 305.826 48.5445 305.679 48.6828L302.064 52.2993C301.993 52.3704 301.936 52.4548 301.898 52.5477C301.859 52.6407 301.839 52.7403 301.839 52.8408C301.839 52.9414 301.859 53.041 301.898 53.134C301.936 53.2269 301.993 53.3113 302.064 53.3824L303.56 54.8749C303.399 55.2096 303.257 55.5533 303.135 55.9044H301.019C300.817 55.9044 300.622 55.985 300.478 56.1285C300.335 56.2721 300.254 56.4668 300.254 56.6698V61.7826C300.254 61.9856 300.335 62.1803 300.478 62.3238C300.622 62.4674 300.817 62.548 301.019 62.548H303.135C303.257 62.899 303.399 63.2427 303.56 63.5775L302.064 65.07C301.993 65.1411 301.936 65.2255 301.898 65.3184C301.859 65.4113 301.839 65.5109 301.839 65.6115C301.839 65.7121 301.859 65.8117 301.898 65.9046C301.936 65.9975 301.993 66.082 302.064 66.153L305.679 69.7695C305.751 69.8405 305.836 69.8966 305.929 69.9347C306.022 69.9728 306.122 69.9921 306.223 69.9915C306.425 69.9917 306.619 69.9119 306.762 69.7695L308.254 68.2732C308.589 68.4337 308.933 68.5756 309.283 68.698V70.8143C309.283 71.0173 309.364 71.212 309.507 71.3555C309.651 71.4991 309.846 71.5797 310.049 71.5797H315.16C315.363 71.5797 315.557 71.4991 315.701 71.3555C315.844 71.212 315.925 71.0173 315.925 70.8143V68.698C316.276 68.5756 316.619 68.4337 316.954 68.2732L318.446 69.7695C318.593 69.9079 318.786 69.985 318.988 69.985C319.189 69.985 319.383 69.9079 319.529 69.7695L323.145 66.153C323.216 66.082 323.272 65.9975 323.311 65.9046C323.349 65.8117 323.369 65.7121 323.369 65.6115C323.369 65.5109 323.349 65.4113 323.311 65.3184C323.272 65.2255 323.216 65.1411 323.145 65.07ZM318.986 68.1316L317.639 66.7845C317.521 66.6676 317.369 66.5921 317.205 66.5693C317.041 66.5465 316.874 66.5777 316.729 66.6582C316.165 66.9697 315.568 67.2162 314.949 67.393C314.79 67.4387 314.649 67.5351 314.549 67.6676C314.449 67.8002 314.395 67.9617 314.395 68.1278V70.0413H310.814V68.1278C310.813 67.9617 310.759 67.8002 310.659 67.6676C310.559 67.5351 310.419 67.4387 310.259 67.393C309.64 67.2162 309.043 66.9697 308.48 66.6582C308.335 66.5777 308.168 66.5465 308.004 66.5693C307.839 66.5921 307.687 66.6676 307.569 66.7845L306.223 68.1431L303.69 65.6096L305.037 64.2625C305.153 64.1449 305.229 63.9924 305.252 63.8282C305.274 63.6639 305.243 63.4967 305.163 63.3517C304.851 62.7885 304.604 62.1915 304.428 61.5721C304.383 61.4124 304.286 61.2719 304.154 61.1718C304.021 61.0717 303.86 61.0175 303.694 61.0172H301.781V57.4352H303.694C303.86 57.4349 304.021 57.3806 304.154 57.2805C304.286 57.1804 304.383 57.0399 304.428 56.8802C304.604 56.2609 304.851 55.6638 305.163 55.1007C305.243 54.9557 305.274 54.7885 305.252 54.6242C305.229 54.4599 305.153 54.3075 305.037 54.1899L303.69 52.8428L306.223 50.3093L307.569 51.6564C307.687 51.7733 307.839 51.8488 308.004 51.8716C308.168 51.8943 308.335 51.8631 308.48 51.7827C309.043 51.4712 309.64 51.2247 310.259 51.0479C310.419 51.0022 310.559 50.9058 310.659 50.7733C310.759 50.6407 310.813 50.4792 310.814 50.3131V48.3996H314.395V50.3131C314.395 50.4792 314.449 50.6407 314.549 50.7733C314.649 50.9058 314.79 51.0022 314.949 51.0479C315.568 51.2247 316.165 51.4712 316.729 51.7827C316.874 51.8631 317.041 51.8943 317.205 51.8716C317.369 51.8488 317.521 51.7733 317.639 51.6564L318.986 50.3093L321.519 52.8428L320.172 54.1899C320.055 54.3075 319.979 54.4599 319.957 54.6242C319.934 54.7885 319.965 54.9557 320.046 55.1007C320.358 55.6638 320.604 56.2609 320.78 56.8802C320.826 57.0399 320.922 57.1804 321.055 57.2805C321.187 57.3806 321.349 57.4349 321.515 57.4352H323.428V61.0172H321.515C321.349 61.0175 321.187 61.0717 321.055 61.1718C320.922 61.2719 320.826 61.4124 320.78 61.5721C320.604 62.1915 320.358 62.7885 320.046 63.3517C319.965 63.4967 319.934 63.6639 319.957 63.8282C319.979 63.9924 320.055 64.1449 320.172 64.2625L321.519 65.6096L318.986 68.1316ZM312.604 52.2037C311.216 52.2037 309.858 52.6155 308.704 53.3872C307.549 54.1588 306.649 55.2556 306.118 56.5388C305.587 57.822 305.448 59.234 305.719 60.5962C305.99 61.9585 306.658 63.2097 307.64 64.1919C308.622 65.174 309.873 65.8428 311.235 66.1138C312.596 66.3847 314.008 66.2457 315.291 65.7142C316.574 65.1826 317.67 64.2825 318.442 63.1277C319.213 61.9728 319.625 60.6151 319.625 59.2262C319.623 57.3643 318.882 55.5793 317.566 54.2627C316.25 52.9462 314.466 52.2057 312.604 52.2037ZM312.604 64.7179C311.518 64.7179 310.457 64.3958 309.554 63.7924C308.651 63.189 307.948 62.3313 307.532 61.3278C307.116 60.3243 307.008 59.2201 307.22 58.1548C307.431 57.0895 307.954 56.111 308.722 55.3429C309.49 54.5749 310.468 54.0519 311.533 53.84C312.598 53.6281 313.702 53.7368 314.705 54.1525C315.708 54.5681 316.566 55.272 317.169 56.1751C317.772 57.0783 318.094 58.14 318.094 59.2262C318.092 60.6821 317.513 62.0777 316.484 63.1072C315.455 64.1367 314.06 64.7159 312.604 64.7179ZM330.586 59.2262C330.586 55.9605 329.697 52.7565 328.014 49.9579C326.332 47.1592 323.92 44.8715 321.036 43.3402C318.152 41.8089 314.906 41.0918 311.646 41.2658C308.386 41.4397 305.235 42.4982 302.531 44.3277C301.878 43.8093 301.068 43.5298 300.235 43.5355C299.534 43.5345 298.847 43.7337 298.255 44.1098C297.662 44.4858 297.19 45.0232 296.893 45.6586C296.595 46.294 296.485 47.0011 296.576 47.6968C296.667 48.3925 296.954 49.0479 297.404 49.586C295.191 53.0585 294.237 57.1854 294.7 61.2771C295.163 65.3689 297.016 69.1777 299.949 72.0675C302.882 74.9572 306.717 76.7529 310.814 77.1545C314.911 77.5561 319.022 76.5392 322.46 74.2739C323.167 74.8555 324.065 75.1529 324.979 75.1082C325.894 75.0635 326.759 74.68 327.406 74.0322C328.053 73.3845 328.436 72.519 328.48 71.6043C328.524 70.6897 328.226 69.7914 327.644 69.0845C329.57 66.1581 330.593 62.7298 330.586 59.2262ZM300.254 45.0663C300.827 45.0663 301.375 45.2937 301.78 45.6985C302.185 46.1033 302.412 46.6523 302.412 47.2247C302.412 47.7972 302.185 48.3462 301.78 48.751C301.375 49.1558 300.827 49.3832 300.254 49.3832C299.683 49.3801 299.136 49.1518 298.732 48.7476C298.328 48.3435 298.099 47.7963 298.096 47.2247C298.097 46.6526 298.325 46.1042 298.73 45.6996C299.134 45.2951 299.682 45.0673 300.254 45.0663ZM312.604 75.6823C309.67 75.6827 306.79 74.8983 304.261 73.4105C301.732 71.9227 299.647 69.7855 298.222 67.2204C296.797 64.6553 296.083 61.7556 296.155 58.8219C296.228 55.8881 297.083 53.0271 298.632 50.5351H298.67C298.783 50.592 298.899 50.6418 299.018 50.6843C299.133 50.7226 299.248 50.7571 299.367 50.7877L299.478 50.8106C299.569 50.8285 299.661 50.8438 299.753 50.8566H299.864C299.991 50.872 300.119 50.8797 300.247 50.8795C301.224 50.8785 302.162 50.4895 302.853 49.7978C303.545 49.1062 303.934 48.1684 303.935 47.1903C303.935 47.0564 303.935 46.9224 303.912 46.7885C303.912 46.7502 303.912 46.7119 303.912 46.6737C303.897 46.5742 303.877 46.4746 303.854 46.3751L303.831 46.268C303.797 46.1417 303.759 46.0154 303.713 45.8853L303.69 45.8355C303.648 45.7284 303.598 45.6212 303.548 45.5179L303.525 45.472C306.675 43.373 310.452 42.4245 314.219 42.7864C317.987 43.1484 321.514 44.7986 324.207 47.4589C326.9 50.1191 328.593 53.6268 329.002 57.3905C329.41 61.1541 328.509 64.9436 326.45 68.1201H326.404C326.3 68.0667 326.193 68.0195 326.083 67.9785H326.048C325.923 67.9341 325.795 67.897 325.666 67.8675L325.559 67.8407C325.463 67.8407 325.367 67.8025 325.272 67.791H325.161C325.034 67.776 324.906 67.7683 324.778 67.768C323.8 67.769 322.863 68.1581 322.171 68.8497C321.48 69.5413 321.091 70.4791 321.09 71.4573C321.09 71.5852 321.098 71.713 321.113 71.84C321.113 71.8782 321.113 71.9165 321.113 71.9548C321.113 72.0504 321.144 72.1461 321.163 72.2418C321.17 72.2779 321.179 72.3137 321.19 72.3489C321.218 72.4787 321.255 72.6066 321.3 72.7316C321.299 72.7469 321.299 72.7623 321.3 72.7776C321.339 72.8835 321.384 72.987 321.434 73.0876C321.44 73.1048 321.448 73.1215 321.457 73.1373C318.811 74.8155 315.738 75.6988 312.604 75.6823ZM324.782 73.5698C324.225 73.5463 323.699 73.3084 323.313 72.9059C322.927 72.5033 322.711 71.9671 322.711 71.4094C322.711 70.8517 322.927 70.3155 323.313 69.913C323.699 69.5104 324.225 69.2725 324.782 69.2491C325.291 69.2498 325.784 69.4285 326.175 69.7542C326.518 70.0388 326.765 70.4226 326.882 70.8531C326.998 71.2835 326.979 71.7395 326.827 72.1586C326.674 72.5777 326.396 72.9394 326.03 73.194C325.664 73.4487 325.228 73.584 324.782 73.5812V73.5698ZM316.22 56.5473C316.291 56.6184 316.347 56.7028 316.386 56.7957C316.424 56.8886 316.444 56.9882 316.444 57.0888C316.444 57.1894 316.424 57.289 316.386 57.3819C316.347 57.4748 316.291 57.5592 316.22 57.6303L311.958 61.9051C311.887 61.9762 311.802 62.0327 311.709 62.0712C311.616 62.1097 311.517 62.1296 311.416 62.1296C311.316 62.1296 311.216 62.1097 311.123 62.0712C311.03 62.0327 310.946 61.9762 310.875 61.9051L308.989 60.0145C308.845 59.8709 308.765 59.6761 308.765 59.473C308.765 59.2699 308.845 59.0751 308.989 58.9315C309.132 58.7879 309.327 58.7072 309.53 58.7072C309.733 58.7072 309.928 58.7879 310.071 58.9315L311.414 60.2786L315.137 56.5473C315.208 56.4761 315.292 56.4197 315.385 56.3812C315.478 56.3426 315.578 56.3228 315.678 56.3228C315.779 56.3228 315.878 56.3426 315.971 56.3812C316.064 56.4197 316.149 56.4761 316.22 56.5473Z" fill="white"/>
<rect x="118.184" y="231.98" width="66" height="66" rx="10" transform="rotate(-180 118.184 231.98)" fill="#2DA771"/>
<path d="M103 211L99 215L99 209C99 201.268 92.732 195 85 195C77.268 195 71 201.268 71 209L71 215L67 211" stroke="white" stroke-width="2.03497" stroke-linecap="round" stroke-linejoin="round"/>
<path d="M86.0253 181C86.0253 180.438 85.5698 179.983 85.0078 179.983C84.4459 179.983 83.9903 180.438 83.9903 181L86.0253 181ZM85.0078 217L83.9903 217C83.9903 217.412 84.2382 217.783 84.6184 217.94C84.9986 218.098 85.4363 218.01 85.7273 217.719L85.0078 217ZM89.7273 213.719C90.1246 213.322 90.1246 212.678 89.7273 212.281C89.3299 211.883 88.6857 211.883 88.2883 212.281L89.7273 213.719ZM81.7273 212.281C81.3299 211.883 80.6857 211.883 80.2883 212.281C79.891 212.678 79.891 213.322 80.2883 213.719L81.7273 212.281ZM84.2883 217.719C84.6857 218.117 85.3299 218.117 85.7273 217.719C86.1246 217.322 86.1246 216.678 85.7273 216.281L84.2883 217.719ZM83.9903 181L83.9903 217L86.0253 217L86.0253 181L83.9903 181ZM85.7273 217.719L89.7273 213.719L88.2883 212.281L84.2883 216.281L85.7273 217.719ZM80.2883 213.719L84.2883 217.719L85.7273 216.281L81.7273 212.281L80.2883 213.719Z" fill="white"/>
<rect x="66" y="92" width="66" height="66" rx="10" transform="rotate(-180 66 92)" fill="#2DA771"/>
<circle cx="19.4727" cy="73.2402" r="4" transform="rotate(-90 19.4727 73.2402)" stroke="white" stroke-width="1.56536" stroke-linecap="round" stroke-linejoin="round"/>
<circle cx="19.4727" cy="45.2402" r="4" transform="rotate(-90 19.4727 45.2402)" stroke="white" stroke-width="1.56536" stroke-linecap="round" stroke-linejoin="round"/>
<circle cx="47.4727" cy="73.2402" r="4" transform="rotate(-90 47.4727 73.2402)" stroke="white" stroke-width="1.56536" stroke-linecap="round" stroke-linejoin="round"/>
<circle cx="47.4727" cy="45.2402" r="4" transform="rotate(-90 47.4727 45.2402)" stroke="white" stroke-width="1.56536" stroke-linecap="round" stroke-linejoin="round"/>
<path d="M23.4727 73.2402L43.4726 73.2402" stroke="white" stroke-width="1.56536" stroke-linecap="round" stroke-linejoin="round"/>
<path d="M19.4727 69.2402L19.4727 49.2403" stroke="white" stroke-width="1.56536" stroke-linecap="round" stroke-linejoin="round"/>
<path d="M47.4727 69.2402L47.4727 49.2403" stroke="white" stroke-width="1.56536" stroke-linecap="round" stroke-linejoin="round"/>
<path d="M23.4727 45.2402L43.4726 45.2402" stroke="white" stroke-width="1.56536" stroke-linecap="round" stroke-linejoin="round"/>
<rect x="295" y="231" width="66" height="66" rx="10" transform="rotate(-180 295 231)" fill="#2DA771"/>
<circle cx="261.965" cy="198.02" r="18" stroke="white" stroke-width="2.03497" stroke-linecap="round" stroke-linejoin="round"/>
<circle cx="261.965" cy="194.02" r="6" stroke="white" stroke-width="2.03497" stroke-linecap="round" stroke-linejoin="round"/>
<path d="M250.297 211.718C251.313 208.334 254.428 206.018 257.961 206.02L265.961 206.02C269.498 206.018 272.616 208.34 273.629 211.73" stroke="white" stroke-width="2.03497" stroke-linecap="round" stroke-linejoin="round"/>
<circle cx="173.608" cy="194.393" r="9.39216" transform="rotate(-180 173.608 194.393)" fill="#2DA771"/>
<path d="M265.877 3.333L263.655 11H262.533L260.751 4.829L258.903 11L257.792 11.011L255.647 3.333H256.714L258.386 9.834L260.234 3.333H261.356L263.116 9.812L264.799 3.333H265.877ZM271.537 9.295H268.193L267.577 11H266.521L269.293 3.377H270.448L273.209 11H272.153L271.537 9.295ZM271.251 8.481L269.865 4.609L268.479 8.481H271.251ZM283.301 11L282.3 9.988C281.926 10.3767 281.526 10.6663 281.101 10.857C280.676 11.0403 280.195 11.132 279.66 11.132C279.132 11.132 278.663 11.0367 278.252 10.846C277.849 10.6553 277.533 10.384 277.306 10.032C277.086 9.68 276.976 9.26933 276.976 8.8C276.976 8.26467 277.126 7.79533 277.427 7.392C277.735 6.98133 278.186 6.65867 278.78 6.424C278.545 6.14533 278.377 5.88867 278.274 5.654C278.171 5.41933 278.12 5.16267 278.12 4.884C278.12 4.56133 278.201 4.27167 278.362 4.015C278.531 3.751 278.769 3.54567 279.077 3.399C279.385 3.25233 279.741 3.179 280.144 3.179C280.54 3.179 280.885 3.256 281.178 3.41C281.471 3.564 281.691 3.78033 281.838 4.059C281.985 4.33033 282.051 4.63467 282.036 4.972H281.035C281.042 4.67133 280.958 4.43667 280.782 4.268C280.606 4.092 280.379 4.004 280.1 4.004C279.807 4.004 279.568 4.08833 279.385 4.257C279.209 4.41833 279.121 4.62733 279.121 4.884C279.121 5.104 279.18 5.31667 279.297 5.522C279.422 5.72733 279.627 5.98033 279.913 6.281L282.201 8.58L282.399 8.272L283.147 7.018H284.225L283.323 8.58C283.198 8.8 283.052 9.031 282.883 9.273L284.61 11H283.301ZM279.66 10.274C280.056 10.274 280.412 10.197 280.727 10.043C281.05 9.889 281.354 9.65067 281.64 9.328L279.385 7.062C278.446 7.42133 277.977 7.98967 277.977 8.767C277.977 9.19967 278.131 9.559 278.439 9.845C278.754 10.131 279.161 10.274 279.66 10.274ZM293.266 3.333V4.147H291.176V11H290.175V4.147H288.074V3.333H293.266ZM300.031 7.755C300.031 7.94567 300.02 8.14733 299.998 8.36H295.18C295.216 8.954 295.418 9.41967 295.785 9.757C296.159 10.087 296.61 10.252 297.138 10.252C297.57 10.252 297.93 10.153 298.216 9.955C298.509 9.74967 298.714 9.47833 298.832 9.141H299.91C299.748 9.72033 299.426 10.1933 298.942 10.56C298.458 10.9193 297.856 11.099 297.138 11.099C296.566 11.099 296.052 10.9707 295.598 10.714C295.15 10.4573 294.798 10.0943 294.542 9.625C294.285 9.14833 294.157 8.59833 294.157 7.975C294.157 7.35167 294.281 6.80533 294.531 6.336C294.78 5.86667 295.128 5.50733 295.576 5.258C296.03 5.00133 296.551 4.873 297.138 4.873C297.71 4.873 298.216 4.99767 298.656 5.247C299.096 5.49633 299.433 5.841 299.668 6.281C299.91 6.71367 300.031 7.205 300.031 7.755ZM298.997 7.546C298.997 7.16467 298.912 6.83833 298.744 6.567C298.575 6.28833 298.344 6.07933 298.051 5.94C297.765 5.79333 297.446 5.72 297.094 5.72C296.588 5.72 296.155 5.88133 295.796 6.204C295.444 6.52667 295.242 6.974 295.191 7.546H298.997ZM302.386 2.86V11H301.385V2.86H302.386ZM306.717 7.964C306.717 7.348 306.841 6.809 307.091 6.347C307.34 5.87767 307.681 5.51467 308.114 5.258C308.554 5.00133 309.041 4.873 309.577 4.873C310.105 4.873 310.563 4.98667 310.952 5.214C311.34 5.44133 311.63 5.72733 311.821 6.072V4.972H312.833V11H311.821V9.878C311.623 10.23 311.326 10.5233 310.93 10.758C310.541 10.9853 310.086 11.099 309.566 11.099C309.03 11.099 308.546 10.967 308.114 10.703C307.681 10.439 307.34 10.0687 307.091 9.592C306.841 9.11533 306.717 8.57267 306.717 7.964ZM311.821 7.975C311.821 7.52033 311.729 7.12433 311.546 6.787C311.362 6.44967 311.113 6.193 310.798 6.017C310.49 5.83367 310.149 5.742 309.775 5.742C309.401 5.742 309.06 5.83 308.752 6.006C308.444 6.182 308.198 6.43867 308.015 6.776C307.831 7.11333 307.74 7.50933 307.74 7.964C307.74 8.426 307.831 8.82933 308.015 9.174C308.198 9.51133 308.444 9.77167 308.752 9.955C309.06 10.131 309.401 10.219 309.775 10.219C310.149 10.219 310.49 10.131 310.798 9.955C311.113 9.77167 311.362 9.51133 311.546 9.174C311.729 8.82933 311.821 8.42967 311.821 7.975ZM319.903 4.972V11H318.902V10.109C318.712 10.417 318.444 10.659 318.099 10.835C317.762 11.0037 317.388 11.088 316.977 11.088C316.508 11.088 316.086 10.9927 315.712 10.802C315.338 10.604 315.041 10.3107 314.821 9.922C314.609 9.53333 314.502 9.06033 314.502 8.503V4.972H315.492V8.371C315.492 8.965 315.643 9.42333 315.943 9.746C316.244 10.0613 316.655 10.219 317.175 10.219C317.711 10.219 318.132 10.054 318.44 9.724C318.748 9.394 318.902 8.91367 318.902 8.283V4.972H319.903ZM322.847 5.797V9.35C322.847 9.64333 322.91 9.85233 323.034 9.977C323.159 10.0943 323.375 10.153 323.683 10.153H324.42V11H323.518C322.961 11 322.543 10.8717 322.264 10.615C321.986 10.3583 321.846 9.93667 321.846 9.35V5.797H321.065V4.972H321.846V3.454H322.847V4.972H324.42V5.797H322.847ZM328.295 11.099C327.731 11.099 327.217 10.9707 326.755 10.714C326.301 10.4573 325.941 10.0943 325.677 9.625C325.421 9.14833 325.292 8.59833 325.292 7.975C325.292 7.359 325.424 6.81633 325.688 6.347C325.96 5.87033 326.326 5.50733 326.788 5.258C327.25 5.00133 327.767 4.873 328.339 4.873C328.911 4.873 329.428 5.00133 329.89 5.258C330.352 5.50733 330.715 5.86667 330.979 6.336C331.251 6.80533 331.386 7.35167 331.386 7.975C331.386 8.59833 331.247 9.14833 330.968 9.625C330.697 10.0943 330.327 10.4573 329.857 10.714C329.388 10.9707 328.867 11.099 328.295 11.099ZM328.295 10.219C328.655 10.219 328.992 10.1347 329.307 9.966C329.623 9.79733 329.876 9.54433 330.066 9.207C330.264 8.86967 330.363 8.459 330.363 7.975C330.363 7.491 330.268 7.08033 330.077 6.743C329.887 6.40567 329.637 6.15633 329.329 5.995C329.021 5.82633 328.688 5.742 328.328 5.742C327.962 5.742 327.624 5.82633 327.316 5.995C327.016 6.15633 326.774 6.40567 326.59 6.743C326.407 7.08033 326.315 7.491 326.315 7.975C326.315 8.46633 326.403 8.88067 326.579 9.218C326.763 9.55533 327.005 9.80833 327.305 9.977C327.606 10.1383 327.936 10.219 328.295 10.219ZM339.984 4.862C340.454 4.862 340.872 4.961 341.238 5.159C341.605 5.34967 341.895 5.63933 342.107 6.028C342.32 6.41667 342.426 6.88967 342.426 7.447V11H341.436V7.59C341.436 6.98867 341.286 6.53033 340.985 6.215C340.692 5.89233 340.292 5.731 339.786 5.731C339.266 5.731 338.851 5.89967 338.543 6.237C338.235 6.567 338.081 7.04733 338.081 7.678V11H337.091V7.59C337.091 6.98867 336.941 6.53033 336.64 6.215C336.347 5.89233 335.947 5.731 335.441 5.731C334.921 5.731 334.506 5.89967 334.198 6.237C333.89 6.567 333.736 7.04733 333.736 7.678V11H332.735V4.972H333.736V5.841C333.934 5.52567 334.198 5.28367 334.528 5.115C334.866 4.94633 335.236 4.862 335.639 4.862C336.145 4.862 336.593 4.97567 336.981 5.203C337.37 5.43033 337.66 5.764 337.85 6.204C338.019 5.77867 338.298 5.44867 338.686 5.214C339.075 4.97933 339.508 4.862 339.984 4.862ZM343.727 7.964C343.727 7.348 343.852 6.809 344.101 6.347C344.351 5.87767 344.692 5.51467 345.124 5.258C345.564 5.00133 346.052 4.873 346.587 4.873C347.115 4.873 347.574 4.98667 347.962 5.214C348.351 5.44133 348.641 5.72733 348.831 6.072V4.972H349.843V11H348.831V9.878C348.633 10.23 348.336 10.5233 347.94 10.758C347.552 10.9853 347.097 11.099 346.576 11.099C346.041 11.099 345.557 10.967 345.124 10.703C344.692 10.439 344.351 10.0687 344.101 9.592C343.852 9.11533 343.727 8.57267 343.727 7.964ZM348.831 7.975C348.831 7.52033 348.74 7.12433 348.556 6.787C348.373 6.44967 348.124 6.193 347.808 6.017C347.5 5.83367 347.159 5.742 346.785 5.742C346.411 5.742 346.07 5.83 345.762 6.006C345.454 6.182 345.209 6.43867 345.025 6.776C344.842 7.11333 344.75 7.50933 344.75 7.964C344.75 8.426 344.842 8.82933 345.025 9.174C345.209 9.51133 345.454 9.77167 345.762 9.955C346.07 10.131 346.411 10.219 346.785 10.219C347.159 10.219 347.5 10.131 347.808 9.955C348.124 9.77167 348.373 9.51133 348.556 9.174C348.74 8.82933 348.831 8.42967 348.831 7.975ZM352.789 5.797V9.35C352.789 9.64333 352.851 9.85233 352.976 9.977C353.101 10.0943 353.317 10.153 353.625 10.153H354.362V11H353.46C352.903 11 352.485 10.8717 352.206 10.615C351.927 10.3583 351.788 9.93667 351.788 9.35V5.797H351.007V4.972H351.788V3.454H352.789V4.972H354.362V5.797H352.789ZM356.125 3.993C355.934 3.993 355.773 3.927 355.641 3.795C355.509 3.663 355.443 3.50167 355.443 3.311C355.443 3.12033 355.509 2.959 355.641 2.827C355.773 2.695 355.934 2.629 356.125 2.629C356.308 2.629 356.462 2.695 356.587 2.827C356.719 2.959 356.785 3.12033 356.785 3.311C356.785 3.50167 356.719 3.663 356.587 3.795C356.462 3.927 356.308 3.993 356.125 3.993ZM356.609 4.972V11H355.608V4.972H356.609ZM360.977 11.099C360.412 11.099 359.899 10.9707 359.437 10.714C358.982 10.4573 358.623 10.0943 358.359 9.625C358.102 9.14833 357.974 8.59833 357.974 7.975C357.974 7.359 358.106 6.81633 358.37 6.347C358.641 5.87033 359.008 5.50733 359.47 5.258C359.932 5.00133 360.449 4.873 361.021 4.873C361.593 4.873 362.11 5.00133 362.572 5.258C363.034 5.50733 363.397 5.86667 363.661 6.336C363.932 6.80533 364.068 7.35167 364.068 7.975C364.068 8.59833 363.928 9.14833 363.65 9.625C363.378 10.0943 363.008 10.4573 362.539 10.714C362.069 10.9707 361.549 11.099 360.977 11.099ZM360.977 10.219C361.336 10.219 361.673 10.1347 361.989 9.966C362.304 9.79733 362.557 9.54433 362.748 9.207C362.946 8.86967 363.045 8.459 363.045 7.975C363.045 7.491 362.949 7.08033 362.759 6.743C362.568 6.40567 362.319 6.15633 362.011 5.995C361.703 5.82633 361.369 5.742 361.01 5.742C360.643 5.742 360.306 5.82633 359.998 5.995C359.697 6.15633 359.455 6.40567 359.272 6.743C359.088 7.08033 358.997 7.491 358.997 7.975C358.997 8.46633 359.085 8.88067 359.261 9.218C359.444 9.55533 359.686 9.80833 359.987 9.977C360.287 10.1383 360.617 10.219 360.977 10.219ZM368.354 4.862C369.087 4.862 369.681 5.08567 370.136 5.533C370.591 5.973 370.818 6.611 370.818 7.447V11H369.828V7.59C369.828 6.98867 369.678 6.53033 369.377 6.215C369.076 5.89233 368.666 5.731 368.145 5.731C367.617 5.731 367.195 5.896 366.88 6.226C366.572 6.556 366.418 7.03633 366.418 7.667V11H365.417V4.972H366.418V5.83C366.616 5.522 366.884 5.28367 367.221 5.115C367.566 4.94633 367.943 4.862 368.354 4.862Z" fill="#666666"/>
<path d="M117.601 7.161C117.601 6.413 117.77 5.742 118.107 5.148C118.444 4.54667 118.903 4.07733 119.482 3.74C120.069 3.40267 120.718 3.234 121.429 3.234C122.265 3.234 122.995 3.43567 123.618 3.839C124.241 4.24233 124.696 4.81433 124.982 5.555H123.783C123.57 5.093 123.262 4.73733 122.859 4.488C122.463 4.23867 121.986 4.114 121.429 4.114C120.894 4.114 120.413 4.23867 119.988 4.488C119.563 4.73733 119.229 5.093 118.987 5.555C118.745 6.00967 118.624 6.545 118.624 7.161C118.624 7.76967 118.745 8.305 118.987 8.767C119.229 9.22167 119.563 9.57367 119.988 9.823C120.413 10.0723 120.894 10.197 121.429 10.197C121.986 10.197 122.463 10.076 122.859 9.834C123.262 9.58467 123.57 9.229 123.783 8.767H124.982C124.696 9.50033 124.241 10.0687 123.618 10.472C122.995 10.868 122.265 11.066 121.429 11.066C120.718 11.066 120.069 10.901 119.482 10.571C118.903 10.2337 118.444 9.768 118.107 9.174C117.77 8.58 117.601 7.909 117.601 7.161ZM129.134 11.099C128.569 11.099 128.056 10.9707 127.594 10.714C127.139 10.4573 126.78 10.0943 126.516 9.625C126.259 9.14833 126.131 8.59833 126.131 7.975C126.131 7.359 126.263 6.81633 126.527 6.347C126.798 5.87033 127.165 5.50733 127.627 5.258C128.089 5.00133 128.606 4.873 129.178 4.873C129.75 4.873 130.267 5.00133 130.729 5.258C131.191 5.50733 131.554 5.86667 131.818 6.336C132.089 6.80533 132.225 7.35167 132.225 7.975C132.225 8.59833 132.086 9.14833 131.807 9.625C131.536 10.0943 131.165 10.4573 130.696 10.714C130.227 10.9707 129.706 11.099 129.134 11.099ZM129.134 10.219C129.493 10.219 129.831 10.1347 130.146 9.966C130.461 9.79733 130.714 9.54433 130.905 9.207C131.103 8.86967 131.202 8.459 131.202 7.975C131.202 7.491 131.107 7.08033 130.916 6.743C130.725 6.40567 130.476 6.15633 130.168 5.995C129.86 5.82633 129.526 5.742 129.167 5.742C128.8 5.742 128.463 5.82633 128.155 5.995C127.854 6.15633 127.612 6.40567 127.429 6.743C127.246 7.08033 127.154 7.491 127.154 7.975C127.154 8.46633 127.242 8.88067 127.418 9.218C127.601 9.55533 127.843 9.80833 128.144 9.977C128.445 10.1383 128.775 10.219 129.134 10.219ZM136.511 4.862C137.244 4.862 137.838 5.08567 138.293 5.533C138.748 5.973 138.975 6.611 138.975 7.447V11H137.985V7.59C137.985 6.98867 137.835 6.53033 137.534 6.215C137.233 5.89233 136.823 5.731 136.302 5.731C135.774 5.731 135.352 5.896 135.037 6.226C134.729 6.556 134.575 7.03633 134.575 7.667V11H133.574V4.972H134.575V5.83C134.773 5.522 135.041 5.28367 135.378 5.115C135.723 4.94633 136.1 4.862 136.511 4.862ZM141.864 5.797V9.35C141.864 9.64333 141.927 9.85233 142.051 9.977C142.176 10.0943 142.392 10.153 142.7 10.153H143.437V11H142.535C141.978 11 141.56 10.8717 141.281 10.615C141.003 10.3583 140.863 9.93667 140.863 9.35V5.797H140.082V4.972H140.863V3.454H141.864V4.972H143.437V5.797H141.864ZM144.309 7.964C144.309 7.348 144.434 6.809 144.683 6.347C144.932 5.87767 145.273 5.51467 145.706 5.258C146.146 5.00133 146.634 4.873 147.169 4.873C147.697 4.873 148.155 4.98667 148.544 5.214C148.933 5.44133 149.222 5.72733 149.413 6.072V4.972H150.425V11H149.413V9.878C149.215 10.23 148.918 10.5233 148.522 10.758C148.133 10.9853 147.679 11.099 147.158 11.099C146.623 11.099 146.139 10.967 145.706 10.703C145.273 10.439 144.932 10.0687 144.683 9.592C144.434 9.11533 144.309 8.57267 144.309 7.964ZM149.413 7.975C149.413 7.52033 149.321 7.12433 149.138 6.787C148.955 6.44967 148.705 6.193 148.39 6.017C148.082 5.83367 147.741 5.742 147.367 5.742C146.993 5.742 146.652 5.83 146.344 6.006C146.036 6.182 145.79 6.43867 145.607 6.776C145.424 7.11333 145.332 7.50933 145.332 7.964C145.332 8.426 145.424 8.82933 145.607 9.174C145.79 9.51133 146.036 9.77167 146.344 9.955C146.652 10.131 146.993 10.219 147.367 10.219C147.741 10.219 148.082 10.131 148.39 9.955C148.705 9.77167 148.955 9.51133 149.138 9.174C149.321 8.82933 149.413 8.42967 149.413 7.975ZM151.776 7.975C151.776 7.35167 151.9 6.809 152.15 6.347C152.399 5.87767 152.744 5.51467 153.184 5.258C153.631 5.00133 154.141 4.873 154.713 4.873C155.453 4.873 156.062 5.05267 156.539 5.412C157.023 5.77133 157.342 6.27 157.496 6.908H156.418C156.315 6.54133 156.113 6.25167 155.813 6.039C155.519 5.82633 155.153 5.72 154.713 5.72C154.141 5.72 153.679 5.918 153.327 6.314C152.975 6.70267 152.799 7.25633 152.799 7.975C152.799 8.701 152.975 9.262 153.327 9.658C153.679 10.054 154.141 10.252 154.713 10.252C155.153 10.252 155.519 10.1493 155.813 9.944C156.106 9.73867 156.308 9.44533 156.418 9.064H157.496C157.334 9.68 157.012 10.175 156.528 10.549C156.044 10.9157 155.439 11.099 154.713 11.099C154.141 11.099 153.631 10.9707 153.184 10.714C152.744 10.4573 152.399 10.0943 152.15 9.625C151.9 9.15567 151.776 8.60567 151.776 7.975ZM160.085 5.797V9.35C160.085 9.64333 160.148 9.85233 160.272 9.977C160.397 10.0943 160.613 10.153 160.921 10.153H161.658V11H160.756C160.199 11 159.781 10.8717 159.502 10.615C159.224 10.3583 159.084 9.93667 159.084 9.35V5.797H158.303V4.972H159.084V3.454H160.085V4.972H161.658V5.797H160.085ZM166.387 3.993C166.196 3.993 166.035 3.927 165.903 3.795C165.771 3.663 165.705 3.50167 165.705 3.311C165.705 3.12033 165.771 2.959 165.903 2.827C166.035 2.695 166.196 2.629 166.387 2.629C166.57 2.629 166.724 2.695 166.849 2.827C166.981 2.959 167.047 3.12033 167.047 3.311C167.047 3.50167 166.981 3.663 166.849 3.795C166.724 3.927 166.57 3.993 166.387 3.993ZM166.871 4.972V11H165.87V4.972H166.871ZM171.547 4.862C172.28 4.862 172.874 5.08567 173.329 5.533C173.783 5.973 174.011 6.611 174.011 7.447V11H173.021V7.59C173.021 6.98867 172.87 6.53033 172.57 6.215C172.269 5.89233 171.858 5.731 171.338 5.731C170.81 5.731 170.388 5.896 170.073 6.226C169.765 6.556 169.611 7.03633 169.611 7.667V11H168.61V4.972H169.611V5.83C169.809 5.522 170.076 5.28367 170.414 5.115C170.758 4.94633 171.136 4.862 171.547 4.862ZM176.9 5.797V9.35C176.9 9.64333 176.962 9.85233 177.087 9.977C177.212 10.0943 177.428 10.153 177.736 10.153H178.473V11H177.571C177.014 11 176.596 10.8717 176.317 10.615C176.038 10.3583 175.899 9.93667 175.899 9.35V5.797H175.118V4.972H175.899V3.454H176.9V4.972H178.473V5.797H176.9ZM185.219 7.755C185.219 7.94567 185.208 8.14733 185.186 8.36H180.368C180.404 8.954 180.606 9.41967 180.973 9.757C181.347 10.087 181.798 10.252 182.326 10.252C182.758 10.252 183.118 10.153 183.404 9.955C183.697 9.74967 183.902 9.47833 184.02 9.141H185.098C184.936 9.72033 184.614 10.1933 184.13 10.56C183.646 10.9193 183.044 11.099 182.326 11.099C181.754 11.099 181.24 10.9707 180.786 10.714C180.338 10.4573 179.986 10.0943 179.73 9.625C179.473 9.14833 179.345 8.59833 179.345 7.975C179.345 7.35167 179.469 6.80533 179.719 6.336C179.968 5.86667 180.316 5.50733 180.764 5.258C181.218 5.00133 181.739 4.873 182.326 4.873C182.898 4.873 183.404 4.99767 183.844 5.247C184.284 5.49633 184.621 5.841 184.856 6.281C185.098 6.71367 185.219 7.205 185.219 7.755ZM184.185 7.546C184.185 7.16467 184.1 6.83833 183.932 6.567C183.763 6.28833 183.532 6.07933 183.239 5.94C182.953 5.79333 182.634 5.72 182.282 5.72C181.776 5.72 181.343 5.88133 180.984 6.204C180.632 6.52667 180.43 6.974 180.379 7.546H184.185ZM187.574 2.86V11H186.573V2.86H187.574ZM190.314 2.86V11H189.313V2.86H190.314ZM192.57 3.993C192.379 3.993 192.218 3.927 192.086 3.795C191.954 3.663 191.888 3.50167 191.888 3.311C191.888 3.12033 191.954 2.959 192.086 2.827C192.218 2.695 192.379 2.629 192.57 2.629C192.753 2.629 192.907 2.695 193.032 2.827C193.164 2.959 193.23 3.12033 193.23 3.311C193.23 3.50167 193.164 3.663 193.032 3.795C192.907 3.927 192.753 3.993 192.57 3.993ZM193.054 4.972V11H192.053V4.972H193.054ZM197.279 4.873C197.8 4.873 198.254 4.98667 198.643 5.214C199.039 5.44133 199.332 5.72733 199.523 6.072V4.972H200.535V11.132C200.535 11.682 200.418 12.1697 200.183 12.595C199.948 13.0277 199.611 13.365 199.171 13.607C198.738 13.849 198.232 13.97 197.653 13.97C196.861 13.97 196.201 13.783 195.673 13.409C195.145 13.035 194.833 12.5253 194.738 11.88H195.728C195.838 12.2467 196.065 12.54 196.41 12.76C196.755 12.9873 197.169 13.101 197.653 13.101C198.203 13.101 198.65 12.9287 198.995 12.584C199.347 12.2393 199.523 11.7553 199.523 11.132V9.867C199.325 10.219 199.032 10.5123 198.643 10.747C198.254 10.9817 197.8 11.099 197.279 11.099C196.744 11.099 196.256 10.967 195.816 10.703C195.383 10.439 195.042 10.0687 194.793 9.592C194.544 9.11533 194.419 8.57267 194.419 7.964C194.419 7.348 194.544 6.809 194.793 6.347C195.042 5.87767 195.383 5.51467 195.816 5.258C196.256 5.00133 196.744 4.873 197.279 4.873ZM199.523 7.975C199.523 7.52033 199.431 7.12433 199.248 6.787C199.065 6.44967 198.815 6.193 198.5 6.017C198.192 5.83367 197.851 5.742 197.477 5.742C197.103 5.742 196.762 5.83 196.454 6.006C196.146 6.182 195.9 6.43867 195.717 6.776C195.534 7.11333 195.442 7.50933 195.442 7.964C195.442 8.426 195.534 8.82933 195.717 9.174C195.9 9.51133 196.146 9.77167 196.454 9.955C196.762 10.131 197.103 10.219 197.477 10.219C197.851 10.219 198.192 10.131 198.5 9.955C198.815 9.77167 199.065 9.51133 199.248 9.174C199.431 8.82933 199.523 8.42967 199.523 7.975ZM207.76 7.755C207.76 7.94567 207.749 8.14733 207.727 8.36H202.909C202.945 8.954 203.147 9.41967 203.514 9.757C203.888 10.087 204.339 10.252 204.867 10.252C205.299 10.252 205.659 10.153 205.945 9.955C206.238 9.74967 206.443 9.47833 206.561 9.141H207.639C207.477 9.72033 207.155 10.1933 206.671 10.56C206.187 10.9193 205.585 11.099 204.867 11.099C204.295 11.099 203.781 10.9707 203.327 10.714C202.879 10.4573 202.527 10.0943 202.271 9.625C202.014 9.14833 201.886 8.59833 201.886 7.975C201.886 7.35167 202.01 6.80533 202.26 6.336C202.509 5.86667 202.857 5.50733 203.305 5.258C203.759 5.00133 204.28 4.873 204.867 4.873C205.439 4.873 205.945 4.99767 206.385 5.247C206.825 5.49633 207.162 5.841 207.397 6.281C207.639 6.71367 207.76 7.205 207.76 7.755ZM206.726 7.546C206.726 7.16467 206.641 6.83833 206.473 6.567C206.304 6.28833 206.073 6.07933 205.78 5.94C205.494 5.79333 205.175 5.72 204.823 5.72C204.317 5.72 203.884 5.88133 203.525 6.204C203.173 6.52667 202.971 6.974 202.92 7.546H206.726ZM212.051 4.862C212.784 4.862 213.378 5.08567 213.833 5.533C214.288 5.973 214.515 6.611 214.515 7.447V11H213.525V7.59C213.525 6.98867 213.375 6.53033 213.074 6.215C212.773 5.89233 212.363 5.731 211.842 5.731C211.314 5.731 210.892 5.896 210.577 6.226C210.269 6.556 210.115 7.03633 210.115 7.667V11H209.114V4.972H210.115V5.83C210.313 5.522 210.581 5.28367 210.918 5.115C211.263 4.94633 211.64 4.862 212.051 4.862ZM215.809 7.975C215.809 7.35167 215.934 6.809 216.183 6.347C216.432 5.87767 216.777 5.51467 217.217 5.258C217.664 5.00133 218.174 4.873 218.746 4.873C219.487 4.873 220.095 5.05267 220.572 5.412C221.056 5.77133 221.375 6.27 221.529 6.908H220.451C220.349 6.54133 220.147 6.25167 219.846 6.039C219.553 5.82633 219.186 5.72 218.746 5.72C218.174 5.72 217.712 5.918 217.36 6.314C217.008 6.70267 216.832 7.25633 216.832 7.975C216.832 8.701 217.008 9.262 217.36 9.658C217.712 10.054 218.174 10.252 218.746 10.252C219.186 10.252 219.553 10.1493 219.846 9.944C220.139 9.73867 220.341 9.44533 220.451 9.064H221.529C221.368 9.68 221.045 10.175 220.561 10.549C220.077 10.9157 219.472 11.099 218.746 11.099C218.174 11.099 217.664 10.9707 217.217 10.714C216.777 10.4573 216.432 10.0943 216.183 9.625C215.934 9.15567 215.809 8.60567 215.809 7.975ZM228.398 7.755C228.398 7.94567 228.387 8.14733 228.365 8.36H223.547C223.583 8.954 223.785 9.41967 224.152 9.757C224.526 10.087 224.977 10.252 225.505 10.252C225.937 10.252 226.297 10.153 226.583 9.955C226.876 9.74967 227.081 9.47833 227.199 9.141H228.277C228.115 9.72033 227.793 10.1933 227.309 10.56C226.825 10.9193 226.223 11.099 225.505 11.099C224.933 11.099 224.419 10.9707 223.965 10.714C223.517 10.4573 223.165 10.0943 222.909 9.625C222.652 9.14833 222.524 8.59833 222.524 7.975C222.524 7.35167 222.648 6.80533 222.898 6.336C223.147 5.86667 223.495 5.50733 223.943 5.258C224.397 5.00133 224.918 4.873 225.505 4.873C226.077 4.873 226.583 4.99767 227.023 5.247C227.463 5.49633 227.8 5.841 228.035 6.281C228.277 6.71367 228.398 7.205 228.398 7.755ZM227.364 7.546C227.364 7.16467 227.279 6.83833 227.111 6.567C226.942 6.28833 226.711 6.07933 226.418 5.94C226.132 5.79333 225.813 5.72 225.461 5.72C224.955 5.72 224.522 5.88133 224.163 6.204C223.811 6.52667 223.609 6.974 223.558 7.546H227.364Z" fill="#666666"/>
<path d="M8.39952 11.077C7.89352 11.077 7.43885 10.989 7.03552 10.813C6.63952 10.6297 6.32785 10.3803 6.10052 10.065C5.87319 9.74233 5.75585 9.372 5.74852 8.954H6.81552C6.85219 9.31333 6.99885 9.61767 7.25552 9.867C7.51952 10.109 7.90085 10.23 8.39952 10.23C8.87619 10.23 9.25019 10.1127 9.52152 9.878C9.80019 9.636 9.93952 9.328 9.93952 8.954C9.93952 8.66067 9.85885 8.42233 9.69752 8.239C9.53619 8.05567 9.33452 7.91633 9.09252 7.821C8.85052 7.72567 8.52419 7.623 8.11352 7.513C7.60752 7.381 7.20052 7.249 6.89252 7.117C6.59185 6.985 6.33152 6.77967 6.11152 6.501C5.89885 6.215 5.79252 5.83367 5.79252 5.357C5.79252 4.939 5.89885 4.56867 6.11152 4.246C6.32419 3.92333 6.62119 3.674 7.00252 3.498C7.39119 3.322 7.83485 3.234 8.33352 3.234C9.05219 3.234 9.63885 3.41367 10.0935 3.773C10.5555 4.13233 10.8159 4.609 10.8745 5.203H9.77452C9.73785 4.90967 9.58385 4.653 9.31252 4.433C9.04119 4.20567 8.68185 4.092 8.23452 4.092C7.81652 4.092 7.47552 4.202 7.21152 4.422C6.94752 4.63467 6.81552 4.93533 6.81552 5.324C6.81552 5.60267 6.89252 5.83 7.04652 6.006C7.20785 6.182 7.40219 6.31767 7.62952 6.413C7.86419 6.501 8.19052 6.60367 8.60852 6.721C9.11452 6.86033 9.52152 6.99967 9.82952 7.139C10.1375 7.271 10.4015 7.48 10.6215 7.766C10.8415 8.04467 10.9515 8.426 10.9515 8.91C10.9515 9.284 10.8525 9.636 10.6545 9.966C10.4565 10.296 10.1632 10.5637 9.77452 10.769C9.38585 10.9743 8.92752 11.077 8.39952 11.077ZM15.0866 11.099C14.5219 11.099 14.0086 10.9707 13.5466 10.714C13.0919 10.4573 12.7326 10.0943 12.4686 9.625C12.2119 9.14833 12.0836 8.59833 12.0836 7.975C12.0836 7.359 12.2156 6.81633 12.4796 6.347C12.7509 5.87033 13.1176 5.50733 13.5796 5.258C14.0416 5.00133 14.5586 4.873 15.1306 4.873C15.7026 4.873 16.2196 5.00133 16.6816 5.258C17.1436 5.50733 17.5066 5.86667 17.7706 6.336C18.0419 6.80533 18.1776 7.35167 18.1776 7.975C18.1776 8.59833 18.0382 9.14833 17.7596 9.625C17.4882 10.0943 17.1179 10.4573 16.6486 10.714C16.1792 10.9707 15.6586 11.099 15.0866 11.099ZM15.0866 10.219C15.4459 10.219 15.7832 10.1347 16.0986 9.966C16.4139 9.79733 16.6669 9.54433 16.8576 9.207C17.0556 8.86967 17.1546 8.459 17.1546 7.975C17.1546 7.491 17.0592 7.08033 16.8686 6.743C16.6779 6.40567 16.4286 6.15633 16.1206 5.995C15.8126 5.82633 15.4789 5.742 15.1196 5.742C14.7529 5.742 14.4156 5.82633 14.1076 5.995C13.8069 6.15633 13.5649 6.40567 13.3816 6.743C13.1982 7.08033 13.1066 7.491 13.1066 7.975C13.1066 8.46633 13.1946 8.88067 13.3706 9.218C13.5539 9.55533 13.7959 9.80833 14.0966 9.977C14.3972 10.1383 14.7272 10.219 15.0866 10.219ZM19.1527 7.975C19.1527 7.35167 19.2774 6.809 19.5267 6.347C19.776 5.87767 20.1207 5.51467 20.5607 5.258C21.008 5.00133 21.5177 4.873 22.0897 4.873C22.8304 4.873 23.439 5.05267 23.9157 5.412C24.3997 5.77133 24.7187 6.27 24.8727 6.908H23.7947C23.692 6.54133 23.4904 6.25167 23.1897 6.039C22.8964 5.82633 22.5297 5.72 22.0897 5.72C21.5177 5.72 21.0557 5.918 20.7037 6.314C20.3517 6.70267 20.1757 7.25633 20.1757 7.975C20.1757 8.701 20.3517 9.262 20.7037 9.658C21.0557 10.054 21.5177 10.252 22.0897 10.252C22.5297 10.252 22.8964 10.1493 23.1897 9.944C23.483 9.73867 23.6847 9.44533 23.7947 9.064H24.8727C24.7114 9.68 24.3887 10.175 23.9047 10.549C23.4207 10.9157 22.8157 11.099 22.0897 11.099C21.5177 11.099 21.008 10.9707 20.5607 10.714C20.1207 10.4573 19.776 10.0943 19.5267 9.625C19.2774 9.15567 19.1527 8.60567 19.1527 7.975ZM26.7583 3.993C26.5677 3.993 26.4063 3.927 26.2743 3.795C26.1423 3.663 26.0763 3.50167 26.0763 3.311C26.0763 3.12033 26.1423 2.959 26.2743 2.827C26.4063 2.695 26.5677 2.629 26.7583 2.629C26.9417 2.629 27.0957 2.695 27.2203 2.827C27.3523 2.959 27.4183 3.12033 27.4183 3.311C27.4183 3.50167 27.3523 3.663 27.2203 3.795C27.0957 3.927 26.9417 3.993 26.7583 3.993ZM27.2423 4.972V11H26.2413V4.972H27.2423ZM28.6074 7.964C28.6074 7.348 28.732 6.809 28.9814 6.347C29.2307 5.87767 29.5717 5.51467 30.0044 5.258C30.4444 5.00133 30.932 4.873 31.4674 4.873C31.9954 4.873 32.4537 4.98667 32.8424 5.214C33.231 5.44133 33.5207 5.72733 33.7114 6.072V4.972H34.7234V11H33.7114V9.878C33.5134 10.23 33.2164 10.5233 32.8204 10.758C32.4317 10.9853 31.977 11.099 31.4564 11.099C30.921 11.099 30.437 10.967 30.0044 10.703C29.5717 10.439 29.2307 10.0687 28.9814 9.592C28.732 9.11533 28.6074 8.57267 28.6074 7.964ZM33.7114 7.975C33.7114 7.52033 33.6197 7.12433 33.4364 6.787C33.253 6.44967 33.0037 6.193 32.6884 6.017C32.3804 5.83367 32.0394 5.742 31.6654 5.742C31.2914 5.742 30.9504 5.83 30.6424 6.006C30.3344 6.182 30.0887 6.43867 29.9054 6.776C29.722 7.11333 29.6304 7.50933 29.6304 7.964C29.6304 8.426 29.722 8.82933 29.9054 9.174C30.0887 9.51133 30.3344 9.77167 30.6424 9.955C30.9504 10.131 31.2914 10.219 31.6654 10.219C32.0394 10.219 32.3804 10.131 32.6884 9.955C33.0037 9.77167 33.253 9.51133 33.4364 9.174C33.6197 8.82933 33.7114 8.42967 33.7114 7.975ZM37.449 2.86V11H36.448V2.86H37.449ZM45.1456 4.862C45.6003 4.862 46.011 4.961 46.3776 5.159C46.7443 5.34967 47.0303 5.63933 47.2356 6.028C47.4483 6.41667 47.5546 6.88967 47.5546 7.447V11H46.5646V7.59C46.5646 6.98867 46.4143 6.53033 46.1136 6.215C45.813 5.89233 45.4023 5.731 44.8816 5.731C44.3536 5.731 43.932 5.896 43.6166 6.226C43.3086 6.556 43.1546 7.03633 43.1546 7.667V11H42.1536V2.86H43.1546V5.83C43.3526 5.522 43.624 5.28367 43.9686 5.115C44.3206 4.94633 44.713 4.862 45.1456 4.862ZM54.5688 4.972V11H53.5678V10.109C53.3771 10.417 53.1094 10.659 52.7648 10.835C52.4274 11.0037 52.0534 11.088 51.6428 11.088C51.1734 11.088 50.7518 10.9927 50.3778 10.802C50.0038 10.604 49.7068 10.3107 49.4868 9.922C49.2741 9.53333 49.1678 9.06033 49.1678 8.503V4.972H50.1578V8.371C50.1578 8.965 50.3081 9.42333 50.6088 9.746C50.9094 10.0613 51.3201 10.219 51.8408 10.219C52.3761 10.219 52.7978 10.054 53.1058 9.724C53.4138 9.394 53.5678 8.91367 53.5678 8.283V4.972H54.5688ZM57.2929 6.094C57.4982 5.73467 57.7989 5.44133 58.1949 5.214C58.5909 4.98667 59.0419 4.873 59.5479 4.873C60.0906 4.873 60.5782 5.00133 61.0109 5.258C61.4436 5.51467 61.7846 5.87767 62.0339 6.347C62.2832 6.809 62.4079 7.348 62.4079 7.964C62.4079 8.57267 62.2832 9.11533 62.0339 9.592C61.7846 10.0687 61.4399 10.439 60.9999 10.703C60.5672 10.967 60.0832 11.099 59.5479 11.099C59.0272 11.099 58.5689 10.9853 58.1729 10.758C57.7842 10.5307 57.4909 10.241 57.2929 9.889V11H56.2919V2.86H57.2929V6.094ZM61.3849 7.964C61.3849 7.50933 61.2932 7.11333 61.1099 6.776C60.9266 6.43867 60.6772 6.182 60.3619 6.006C60.0539 5.83 59.7129 5.742 59.3389 5.742C58.9722 5.742 58.6312 5.83367 58.3159 6.017C58.0079 6.193 57.7586 6.45333 57.5679 6.798C57.3846 7.13533 57.2929 7.52767 57.2929 7.975C57.2929 8.42967 57.3846 8.82933 57.5679 9.174C57.7586 9.51133 58.0079 9.77167 58.3159 9.955C58.6312 10.131 58.9722 10.219 59.3389 10.219C59.7129 10.219 60.0539 10.131 60.3619 9.955C60.6772 9.77167 60.9266 9.51133 61.1099 9.174C61.2932 8.82933 61.3849 8.426 61.3849 7.964Z" fill="#666666"/>
<path d="M41.3545 246.577C41.3545 247.215 41.1345 247.747 40.6945 248.172C40.2618 248.59 39.5982 248.799 38.7035 248.799H37.2295V252H36.2285V244.333H38.7035C39.5688 244.333 40.2252 244.542 40.6725 244.96C41.1272 245.378 41.3545 245.917 41.3545 246.577ZM38.7035 247.974C39.2608 247.974 39.6715 247.853 39.9355 247.611C40.1995 247.369 40.3315 247.024 40.3315 246.577C40.3315 245.631 39.7888 245.158 38.7035 245.158H37.2295V247.974H38.7035ZM43.6326 246.951C43.8086 246.606 44.058 246.339 44.3806 246.148C44.7106 245.957 45.1103 245.862 45.5796 245.862V246.896H45.3156C44.1936 246.896 43.6326 247.505 43.6326 248.722V252H42.6316V245.972H43.6326V246.951ZM49.3971 252.099C48.8325 252.099 48.3191 251.971 47.8571 251.714C47.4025 251.457 47.0431 251.094 46.7791 250.625C46.5225 250.148 46.3941 249.598 46.3941 248.975C46.3941 248.359 46.5261 247.816 46.7901 247.347C47.0615 246.87 47.4281 246.507 47.8901 246.258C48.3521 246.001 48.8691 245.873 49.4411 245.873C50.0131 245.873 50.5301 246.001 50.9921 246.258C51.4541 246.507 51.8171 246.867 52.0811 247.336C52.3525 247.805 52.4881 248.352 52.4881 248.975C52.4881 249.598 52.3488 250.148 52.0701 250.625C51.7988 251.094 51.4285 251.457 50.9591 251.714C50.4898 251.971 49.9691 252.099 49.3971 252.099ZM49.3971 251.219C49.7565 251.219 50.0938 251.135 50.4091 250.966C50.7245 250.797 50.9775 250.544 51.1681 250.207C51.3661 249.87 51.4651 249.459 51.4651 248.975C51.4651 248.491 51.3698 248.08 51.1791 247.743C50.9885 247.406 50.7391 247.156 50.4311 246.995C50.1231 246.826 49.7895 246.742 49.4301 246.742C49.0635 246.742 48.7261 246.826 48.4181 246.995C48.1175 247.156 47.8755 247.406 47.6921 247.743C47.5088 248.08 47.4171 248.491 47.4171 248.975C47.4171 249.466 47.5051 249.881 47.6811 250.218C47.8645 250.555 48.1065 250.808 48.4071 250.977C48.7078 251.138 49.0378 251.219 49.3971 251.219ZM55.9713 252.099C55.5093 252.099 55.0949 252.022 54.7283 251.868C54.3616 251.707 54.0719 251.487 53.8593 251.208C53.6466 250.922 53.5293 250.596 53.5073 250.229H54.5413C54.5706 250.53 54.7099 250.775 54.9593 250.966C55.2159 251.157 55.5496 251.252 55.9603 251.252C56.3416 251.252 56.6423 251.168 56.8623 250.999C57.0823 250.83 57.1923 250.618 57.1923 250.361C57.1923 250.097 57.0749 249.903 56.8403 249.778C56.6056 249.646 56.2426 249.518 55.7513 249.393C55.3039 249.276 54.9373 249.158 54.6513 249.041C54.3726 248.916 54.1306 248.737 53.9253 248.502C53.7273 248.26 53.6283 247.945 53.6283 247.556C53.6283 247.248 53.7199 246.966 53.9033 246.709C54.0866 246.452 54.3469 246.251 54.6843 246.104C55.0216 245.95 55.4066 245.873 55.8393 245.873C56.5066 245.873 57.0456 246.042 57.4563 246.379C57.8669 246.716 58.0869 247.178 58.1163 247.765H57.1153C57.0933 247.45 56.9649 247.197 56.7303 247.006C56.5029 246.815 56.1949 246.72 55.8063 246.72C55.4469 246.72 55.1609 246.797 54.9483 246.951C54.7356 247.105 54.6293 247.307 54.6293 247.556C54.6293 247.754 54.6916 247.919 54.8163 248.051C54.9483 248.176 55.1096 248.278 55.3003 248.359C55.4983 248.432 55.7696 248.517 56.1143 248.612C56.5469 248.729 56.8989 248.847 57.1703 248.964C57.4416 249.074 57.6726 249.243 57.8633 249.47C58.0613 249.697 58.1639 249.994 58.1713 250.361C58.1713 250.691 58.0796 250.988 57.8963 251.252C57.7129 251.516 57.4526 251.725 57.1153 251.879C56.7853 252.026 56.4039 252.099 55.9713 252.099ZM60.6183 247.083C60.8163 246.738 61.1097 246.452 61.4983 246.225C61.8943 245.99 62.3527 245.873 62.8733 245.873C63.4087 245.873 63.8927 246.001 64.3253 246.258C64.7653 246.515 65.11 246.878 65.3593 247.347C65.6087 247.809 65.7333 248.348 65.7333 248.964C65.7333 249.573 65.6087 250.115 65.3593 250.592C65.11 251.069 64.7653 251.439 64.3253 251.703C63.8927 251.967 63.4087 252.099 62.8733 252.099C62.36 252.099 61.9053 251.985 61.5093 251.758C61.1207 251.523 60.8237 251.234 60.6183 250.889V254.86H59.6173V245.972H60.6183V247.083ZM64.7103 248.964C64.7103 248.509 64.6187 248.113 64.4353 247.776C64.252 247.439 64.0027 247.182 63.6873 247.006C63.3793 246.83 63.0383 246.742 62.6643 246.742C62.2977 246.742 61.9567 246.834 61.6413 247.017C61.3333 247.193 61.084 247.453 60.8933 247.798C60.71 248.135 60.6183 248.528 60.6183 248.975C60.6183 249.43 60.71 249.829 60.8933 250.174C61.084 250.511 61.3333 250.772 61.6413 250.955C61.9567 251.131 62.2977 251.219 62.6643 251.219C63.0383 251.219 63.3793 251.131 63.6873 250.955C64.0027 250.772 64.252 250.511 64.4353 250.174C64.6187 249.829 64.7103 249.426 64.7103 248.964ZM72.5839 248.755C72.5839 248.946 72.5729 249.147 72.5509 249.36H67.7329C67.7696 249.954 67.9713 250.42 68.3379 250.757C68.7119 251.087 69.1629 251.252 69.6909 251.252C70.1236 251.252 70.4829 251.153 70.7689 250.955C71.0623 250.75 71.2676 250.478 71.3849 250.141H72.4629C72.3016 250.72 71.9789 251.193 71.4949 251.56C71.0109 251.919 70.4096 252.099 69.6909 252.099C69.1189 252.099 68.6056 251.971 68.1509 251.714C67.7036 251.457 67.3516 251.094 67.0949 250.625C66.8383 250.148 66.7099 249.598 66.7099 248.975C66.7099 248.352 66.8346 247.805 67.0839 247.336C67.3333 246.867 67.6816 246.507 68.1289 246.258C68.5836 246.001 69.1043 245.873 69.6909 245.873C70.2629 245.873 70.7689 245.998 71.2089 246.247C71.6489 246.496 71.9863 246.841 72.2209 247.281C72.4629 247.714 72.5839 248.205 72.5839 248.755ZM71.5499 248.546C71.5499 248.165 71.4656 247.838 71.2969 247.567C71.1283 247.288 70.8973 247.079 70.6039 246.94C70.3179 246.793 69.9989 246.72 69.6469 246.72C69.1409 246.72 68.7083 246.881 68.3489 247.204C67.9969 247.527 67.7953 247.974 67.7439 248.546H71.5499ZM73.5642 248.975C73.5642 248.352 73.6889 247.809 73.9382 247.347C74.1876 246.878 74.5322 246.515 74.9722 246.258C75.4196 246.001 75.9292 245.873 76.5012 245.873C77.2419 245.873 77.8506 246.053 78.3272 246.412C78.8112 246.771 79.1302 247.27 79.2842 247.908H78.2062C78.1036 247.541 77.9019 247.252 77.6012 247.039C77.3079 246.826 76.9412 246.72 76.5012 246.72C75.9292 246.72 75.4672 246.918 75.1152 247.314C74.7632 247.703 74.5872 248.256 74.5872 248.975C74.5872 249.701 74.7632 250.262 75.1152 250.658C75.4672 251.054 75.9292 251.252 76.5012 251.252C76.9412 251.252 77.3079 251.149 77.6012 250.944C77.8946 250.739 78.0962 250.445 78.2062 250.064H79.2842C79.1229 250.68 78.8002 251.175 78.3162 251.549C77.8322 251.916 77.2272 252.099 76.5012 252.099C75.9292 252.099 75.4196 251.971 74.9722 251.714C74.5322 251.457 74.1876 251.094 73.9382 250.625C73.6889 250.156 73.5642 249.606 73.5642 248.975ZM81.8739 246.797V250.35C81.8739 250.643 81.9362 250.852 82.0609 250.977C82.1855 251.094 82.4019 251.153 82.7099 251.153H83.4469V252H82.5449C81.9875 252 81.5695 251.872 81.2909 251.615C81.0122 251.358 80.8729 250.937 80.8729 250.35V246.797H80.0919V245.972H80.8729V244.454H81.8739V245.972H83.4469V246.797H81.8739ZM89.7923 252.099C89.3303 252.099 88.916 252.022 88.5493 251.868C88.1827 251.707 87.893 251.487 87.6803 251.208C87.4677 250.922 87.3503 250.596 87.3283 250.229H88.3623C88.3917 250.53 88.531 250.775 88.7803 250.966C89.037 251.157 89.3707 251.252 89.7813 251.252C90.1627 251.252 90.4633 251.168 90.6833 250.999C90.9033 250.83 91.0133 250.618 91.0133 250.361C91.0133 250.097 90.896 249.903 90.6613 249.778C90.4267 249.646 90.0637 249.518 89.5723 249.393C89.125 249.276 88.7583 249.158 88.4723 249.041C88.1937 248.916 87.9517 248.737 87.7463 248.502C87.5483 248.26 87.4493 247.945 87.4493 247.556C87.4493 247.248 87.541 246.966 87.7243 246.709C87.9077 246.452 88.168 246.251 88.5053 246.104C88.8427 245.95 89.2277 245.873 89.6603 245.873C90.3277 245.873 90.8667 246.042 91.2773 246.379C91.688 246.716 91.908 247.178 91.9373 247.765H90.9363C90.9143 247.45 90.786 247.197 90.5513 247.006C90.324 246.815 90.016 246.72 89.6273 246.72C89.268 246.72 88.982 246.797 88.7693 246.951C88.5567 247.105 88.4503 247.307 88.4503 247.556C88.4503 247.754 88.5127 247.919 88.6373 248.051C88.7693 248.176 88.9307 248.278 89.1213 248.359C89.3193 248.432 89.5907 248.517 89.9353 248.612C90.368 248.729 90.72 248.847 90.9913 248.964C91.2627 249.074 91.4937 249.243 91.6843 249.47C91.8823 249.697 91.985 249.994 91.9923 250.361C91.9923 250.691 91.9007 250.988 91.7173 251.252C91.534 251.516 91.2737 251.725 90.9363 251.879C90.6063 252.026 90.225 252.099 89.7923 252.099ZM93.0644 248.975C93.0644 248.352 93.1891 247.809 93.4384 247.347C93.6877 246.878 94.0324 246.515 94.4724 246.258C94.9197 246.001 95.4294 245.873 96.0014 245.873C96.7421 245.873 97.3507 246.053 97.8274 246.412C98.3114 246.771 98.6304 247.27 98.7844 247.908H97.7064C97.6037 247.541 97.4021 247.252 97.1014 247.039C96.8081 246.826 96.4414 246.72 96.0014 246.72C95.4294 246.72 94.9674 246.918 94.6154 247.314C94.2634 247.703 94.0874 248.256 94.0874 248.975C94.0874 249.701 94.2634 250.262 94.6154 250.658C94.9674 251.054 95.4294 251.252 96.0014 251.252C96.4414 251.252 96.8081 251.149 97.1014 250.944C97.3947 250.739 97.5964 250.445 97.7064 250.064H98.7844C98.6231 250.68 98.3004 251.175 97.8164 251.549C97.3324 251.916 96.7274 252.099 96.0014 252.099C95.4294 252.099 94.9197 251.971 94.4724 251.714C94.0324 251.457 93.6877 251.094 93.4384 250.625C93.1891 250.156 93.0644 249.606 93.0644 248.975ZM101.154 246.951C101.33 246.606 101.579 246.339 101.902 246.148C102.232 245.957 102.632 245.862 103.101 245.862V246.896H102.837C101.715 246.896 101.154 247.505 101.154 248.722V252H100.153V245.972H101.154V246.951ZM103.916 248.964C103.916 248.348 104.04 247.809 104.29 247.347C104.539 246.878 104.88 246.515 105.313 246.258C105.753 246.001 106.24 245.873 106.776 245.873C107.304 245.873 107.762 245.987 108.151 246.214C108.539 246.441 108.829 246.727 109.02 247.072V245.972H110.032V252H109.02V250.878C108.822 251.23 108.525 251.523 108.129 251.758C107.74 251.985 107.285 252.099 106.765 252.099C106.229 252.099 105.745 251.967 105.313 251.703C104.88 251.439 104.539 251.069 104.29 250.592C104.04 250.115 103.916 249.573 103.916 248.964ZM109.02 248.975C109.02 248.52 108.928 248.124 108.745 247.787C108.561 247.45 108.312 247.193 107.997 247.017C107.689 246.834 107.348 246.742 106.974 246.742C106.6 246.742 106.259 246.83 105.951 247.006C105.643 247.182 105.397 247.439 105.214 247.776C105.03 248.113 104.939 248.509 104.939 248.964C104.939 249.426 105.03 249.829 105.214 250.174C105.397 250.511 105.643 250.772 105.951 250.955C106.259 251.131 106.6 251.219 106.974 251.219C107.348 251.219 107.689 251.131 107.997 250.955C108.312 250.772 108.561 250.511 108.745 250.174C108.928 249.829 109.02 249.43 109.02 248.975ZM112.757 247.083C112.955 246.738 113.248 246.452 113.637 246.225C114.033 245.99 114.491 245.873 115.012 245.873C115.547 245.873 116.031 246.001 116.464 246.258C116.904 246.515 117.249 246.878 117.498 247.347C117.747 247.809 117.872 248.348 117.872 248.964C117.872 249.573 117.747 250.115 117.498 250.592C117.249 251.069 116.904 251.439 116.464 251.703C116.031 251.967 115.547 252.099 115.012 252.099C114.499 252.099 114.044 251.985 113.648 251.758C113.259 251.523 112.962 251.234 112.757 250.889V254.86H111.756V245.972H112.757V247.083ZM116.849 248.964C116.849 248.509 116.757 248.113 116.574 247.776C116.391 247.439 116.141 247.182 115.826 247.006C115.518 246.83 115.177 246.742 114.803 246.742C114.436 246.742 114.095 246.834 113.78 247.017C113.472 247.193 113.223 247.453 113.032 247.798C112.849 248.135 112.757 248.528 112.757 248.975C112.757 249.43 112.849 249.829 113.032 250.174C113.223 250.511 113.472 250.772 113.78 250.955C114.095 251.131 114.436 251.219 114.803 251.219C115.177 251.219 115.518 251.131 115.826 250.955C116.141 250.772 116.391 250.511 116.574 250.174C116.757 249.829 116.849 249.426 116.849 248.964ZM119.74 244.993C119.549 244.993 119.388 244.927 119.256 244.795C119.124 244.663 119.058 244.502 119.058 244.311C119.058 244.12 119.124 243.959 119.256 243.827C119.388 243.695 119.549 243.629 119.74 243.629C119.923 243.629 120.077 243.695 120.202 243.827C120.334 243.959 120.4 244.12 120.4 244.311C120.4 244.502 120.334 244.663 120.202 244.795C120.077 244.927 119.923 244.993 119.74 244.993ZM120.224 245.972V252H119.223V245.972H120.224ZM124.9 245.862C125.633 245.862 126.227 246.086 126.682 246.533C127.136 246.973 127.364 247.611 127.364 248.447V252H126.374V248.59C126.374 247.989 126.223 247.53 125.923 247.215C125.622 246.892 125.211 246.731 124.691 246.731C124.163 246.731 123.741 246.896 123.426 247.226C123.118 247.556 122.964 248.036 122.964 248.667V252H121.963V245.972H122.964V246.83C123.162 246.522 123.429 246.284 123.767 246.115C124.111 245.946 124.489 245.862 124.9 245.862ZM131.518 245.873C132.039 245.873 132.493 245.987 132.882 246.214C133.278 246.441 133.571 246.727 133.762 247.072V245.972H134.774V252.132C134.774 252.682 134.657 253.17 134.422 253.595C134.187 254.028 133.85 254.365 133.41 254.607C132.977 254.849 132.471 254.97 131.892 254.97C131.1 254.97 130.44 254.783 129.912 254.409C129.384 254.035 129.072 253.525 128.977 252.88H129.967C130.077 253.247 130.304 253.54 130.649 253.76C130.994 253.987 131.408 254.101 131.892 254.101C132.442 254.101 132.889 253.929 133.234 253.584C133.586 253.239 133.762 252.755 133.762 252.132V250.867C133.564 251.219 133.271 251.512 132.882 251.747C132.493 251.982 132.039 252.099 131.518 252.099C130.983 252.099 130.495 251.967 130.055 251.703C129.622 251.439 129.281 251.069 129.032 250.592C128.783 250.115 128.658 249.573 128.658 248.964C128.658 248.348 128.783 247.809 129.032 247.347C129.281 246.878 129.622 246.515 130.055 246.258C130.495 246.001 130.983 245.873 131.518 245.873ZM133.762 248.975C133.762 248.52 133.67 248.124 133.487 247.787C133.304 247.45 133.054 247.193 132.739 247.017C132.431 246.834 132.09 246.742 131.716 246.742C131.342 246.742 131.001 246.83 130.693 247.006C130.385 247.182 130.139 247.439 129.956 247.776C129.773 248.113 129.681 248.509 129.681 248.964C129.681 249.426 129.773 249.829 129.956 250.174C130.139 250.511 130.385 250.772 130.693 250.955C131.001 251.131 131.342 251.219 131.716 251.219C132.09 251.219 132.431 251.131 132.739 250.955C133.054 250.772 133.304 250.511 133.487 250.174C133.67 249.829 133.762 249.43 133.762 248.975Z" fill="#666666"/>
<path d="M210.78 248.161C210.78 247.413 210.949 246.742 211.286 246.148C211.624 245.547 212.082 245.077 212.661 244.74C213.248 244.403 213.897 244.234 214.608 244.234C215.444 244.234 216.174 244.436 216.797 244.839C217.421 245.242 217.875 245.814 218.161 246.555H216.962C216.75 246.093 216.442 245.737 216.038 245.488C215.642 245.239 215.166 245.114 214.608 245.114C214.073 245.114 213.593 245.239 213.167 245.488C212.742 245.737 212.408 246.093 212.166 246.555C211.924 247.01 211.803 247.545 211.803 248.161C211.803 248.77 211.924 249.305 212.166 249.767C212.408 250.222 212.742 250.574 213.167 250.823C213.593 251.072 214.073 251.197 214.608 251.197C215.166 251.197 215.642 251.076 216.038 250.834C216.442 250.585 216.75 250.229 216.962 249.767H218.161C217.875 250.5 217.421 251.069 216.797 251.472C216.174 251.868 215.444 252.066 214.608 252.066C213.897 252.066 213.248 251.901 212.661 251.571C212.082 251.234 211.624 250.768 211.286 250.174C210.949 249.58 210.78 248.909 210.78 248.161ZM222.313 252.099C221.749 252.099 221.235 251.971 220.773 251.714C220.319 251.457 219.959 251.094 219.695 250.625C219.439 250.148 219.31 249.598 219.31 248.975C219.31 248.359 219.442 247.816 219.706 247.347C219.978 246.87 220.344 246.507 220.806 246.258C221.268 246.001 221.785 245.873 222.357 245.873C222.929 245.873 223.446 246.001 223.908 246.258C224.37 246.507 224.733 246.867 224.997 247.336C225.269 247.805 225.404 248.352 225.404 248.975C225.404 249.598 225.265 250.148 224.986 250.625C224.715 251.094 224.345 251.457 223.875 251.714C223.406 251.971 222.885 252.099 222.313 252.099ZM222.313 251.219C222.673 251.219 223.01 251.135 223.325 250.966C223.641 250.797 223.894 250.544 224.084 250.207C224.282 249.87 224.381 249.459 224.381 248.975C224.381 248.491 224.286 248.08 224.095 247.743C223.905 247.406 223.655 247.156 223.347 246.995C223.039 246.826 222.706 246.742 222.346 246.742C221.98 246.742 221.642 246.826 221.334 246.995C221.034 247.156 220.792 247.406 220.608 247.743C220.425 248.08 220.333 248.491 220.333 248.975C220.333 249.466 220.421 249.881 220.597 250.218C220.781 250.555 221.023 250.808 221.323 250.977C221.624 251.138 221.954 251.219 222.313 251.219ZM229.691 245.862C230.424 245.862 231.018 246.086 231.473 246.533C231.927 246.973 232.155 247.611 232.155 248.447V252H231.165V248.59C231.165 247.989 231.014 247.53 230.714 247.215C230.413 246.892 230.002 246.731 229.482 246.731C228.954 246.731 228.532 246.896 228.217 247.226C227.909 247.556 227.755 248.036 227.755 248.667V252H226.754V245.972H227.755V246.83C227.953 246.522 228.22 246.284 228.558 246.115C228.902 245.946 229.28 245.862 229.691 245.862ZM235.044 246.797V250.35C235.044 250.643 235.106 250.852 235.231 250.977C235.355 251.094 235.572 251.153 235.88 251.153H236.617V252H235.715C235.157 252 234.739 251.872 234.461 251.615C234.182 251.358 234.043 250.937 234.043 250.35V246.797H233.262V245.972H234.043V244.454H235.044V245.972H236.617V246.797H235.044ZM237.489 248.964C237.489 248.348 237.613 247.809 237.863 247.347C238.112 246.878 238.453 246.515 238.886 246.258C239.326 246.001 239.813 245.873 240.349 245.873C240.877 245.873 241.335 245.987 241.724 246.214C242.112 246.441 242.402 246.727 242.593 247.072V245.972H243.605V252H242.593V250.878C242.395 251.23 242.098 251.523 241.702 251.758C241.313 251.985 240.858 252.099 240.338 252.099C239.802 252.099 239.318 251.967 238.886 251.703C238.453 251.439 238.112 251.069 237.863 250.592C237.613 250.115 237.489 249.573 237.489 248.964ZM242.593 248.975C242.593 248.52 242.501 248.124 242.318 247.787C242.134 247.45 241.885 247.193 241.57 247.017C241.262 246.834 240.921 246.742 240.547 246.742C240.173 246.742 239.832 246.83 239.524 247.006C239.216 247.182 238.97 247.439 238.787 247.776C238.603 248.113 238.512 248.509 238.512 248.964C238.512 249.426 238.603 249.829 238.787 250.174C238.97 250.511 239.216 250.772 239.524 250.955C239.832 251.131 240.173 251.219 240.547 251.219C240.921 251.219 241.262 251.131 241.57 250.955C241.885 250.772 242.134 250.511 242.318 250.174C242.501 249.829 242.593 249.43 242.593 248.975ZM244.955 248.975C244.955 248.352 245.08 247.809 245.329 247.347C245.578 246.878 245.923 246.515 246.363 246.258C246.81 246.001 247.32 245.873 247.892 245.873C248.633 245.873 249.241 246.053 249.718 246.412C250.202 246.771 250.521 247.27 250.675 247.908H249.597C249.494 247.541 249.293 247.252 248.992 247.039C248.699 246.826 248.332 246.72 247.892 246.72C247.32 246.72 246.858 246.918 246.506 247.314C246.154 247.703 245.978 248.256 245.978 248.975C245.978 249.701 246.154 250.262 246.506 250.658C246.858 251.054 247.32 251.252 247.892 251.252C248.332 251.252 248.699 251.149 248.992 250.944C249.285 250.739 249.487 250.445 249.597 250.064H250.675C250.514 250.68 250.191 251.175 249.707 251.549C249.223 251.916 248.618 252.099 247.892 252.099C247.32 252.099 246.81 251.971 246.363 251.714C245.923 251.457 245.578 251.094 245.329 250.625C245.08 250.156 244.955 249.606 244.955 248.975ZM253.265 246.797V250.35C253.265 250.643 253.327 250.852 253.452 250.977C253.576 251.094 253.793 251.153 254.101 251.153H254.838V252H253.936C253.378 252 252.96 251.872 252.682 251.615C252.403 251.358 252.264 250.937 252.264 250.35V246.797H251.483V245.972H252.264V244.454H253.265V245.972H254.838V246.797H253.265ZM260.05 246.951C260.226 246.606 260.476 246.339 260.798 246.148C261.128 245.957 261.528 245.862 261.997 245.862V246.896H261.733C260.611 246.896 260.05 247.505 260.05 248.722V252H259.049V245.972H260.05V246.951ZM268.686 248.755C268.686 248.946 268.675 249.147 268.653 249.36H263.835C263.871 249.954 264.073 250.42 264.44 250.757C264.814 251.087 265.265 251.252 265.793 251.252C266.225 251.252 266.585 251.153 266.871 250.955C267.164 250.75 267.369 250.478 267.487 250.141H268.565C268.403 250.72 268.081 251.193 267.597 251.56C267.113 251.919 266.511 252.099 265.793 252.099C265.221 252.099 264.707 251.971 264.253 251.714C263.805 251.457 263.453 251.094 263.197 250.625C262.94 250.148 262.812 249.598 262.812 248.975C262.812 248.352 262.936 247.805 263.186 247.336C263.435 246.867 263.783 246.507 264.231 246.258C264.685 246.001 265.206 245.873 265.793 245.873C266.365 245.873 266.871 245.998 267.311 246.247C267.751 246.496 268.088 246.841 268.323 247.281C268.565 247.714 268.686 248.205 268.686 248.755ZM267.652 248.546C267.652 248.165 267.567 247.838 267.399 247.567C267.23 247.288 266.999 247.079 266.706 246.94C266.42 246.793 266.101 246.72 265.749 246.72C265.243 246.72 264.81 246.881 264.451 247.204C264.099 247.527 263.897 247.974 263.846 248.546H267.652ZM271.041 247.083C271.239 246.738 271.532 246.452 271.921 246.225C272.317 245.99 272.775 245.873 273.296 245.873C273.831 245.873 274.315 246.001 274.748 246.258C275.188 246.515 275.533 246.878 275.782 247.347C276.031 247.809 276.156 248.348 276.156 248.964C276.156 249.573 276.031 250.115 275.782 250.592C275.533 251.069 275.188 251.439 274.748 251.703C274.315 251.967 273.831 252.099 273.296 252.099C272.783 252.099 272.328 251.985 271.932 251.758C271.543 251.523 271.246 251.234 271.041 250.889V254.86H270.04V245.972H271.041V247.083ZM275.133 248.964C275.133 248.509 275.041 248.113 274.858 247.776C274.675 247.439 274.425 247.182 274.11 247.006C273.802 246.83 273.461 246.742 273.087 246.742C272.72 246.742 272.379 246.834 272.064 247.017C271.756 247.193 271.507 247.453 271.316 247.798C271.133 248.135 271.041 248.528 271.041 248.975C271.041 249.43 271.133 249.829 271.316 250.174C271.507 250.511 271.756 250.772 272.064 250.955C272.379 251.131 272.72 251.219 273.087 251.219C273.461 251.219 273.802 251.131 274.11 250.955C274.425 250.772 274.675 250.511 274.858 250.174C275.041 249.829 275.133 249.426 275.133 248.964ZM280.136 252.099C279.571 252.099 279.058 251.971 278.596 251.714C278.141 251.457 277.782 251.094 277.518 250.625C277.261 250.148 277.133 249.598 277.133 248.975C277.133 248.359 277.265 247.816 277.529 247.347C277.8 246.87 278.167 246.507 278.629 246.258C279.091 246.001 279.608 245.873 280.18 245.873C280.752 245.873 281.269 246.001 281.731 246.258C282.193 246.507 282.556 246.867 282.82 247.336C283.091 247.805 283.227 248.352 283.227 248.975C283.227 249.598 283.087 250.148 282.809 250.625C282.537 251.094 282.167 251.457 281.698 251.714C281.228 251.971 280.708 252.099 280.136 252.099ZM280.136 251.219C280.495 251.219 280.832 251.135 281.148 250.966C281.463 250.797 281.716 250.544 281.907 250.207C282.105 249.87 282.204 249.459 282.204 248.975C282.204 248.491 282.108 248.08 281.918 247.743C281.727 247.406 281.478 247.156 281.17 246.995C280.862 246.826 280.528 246.742 280.169 246.742C279.802 246.742 279.465 246.826 279.157 246.995C278.856 247.156 278.614 247.406 278.431 247.743C278.247 248.08 278.156 248.491 278.156 248.975C278.156 249.466 278.244 249.881 278.42 250.218C278.603 250.555 278.845 250.808 279.146 250.977C279.446 251.138 279.776 251.219 280.136 251.219ZM286.71 252.099C286.248 252.099 285.833 252.022 285.467 251.868C285.1 251.707 284.81 251.487 284.598 251.208C284.385 250.922 284.268 250.596 284.246 250.229H285.28C285.309 250.53 285.448 250.775 285.698 250.966C285.954 251.157 286.288 251.252 286.699 251.252C287.08 251.252 287.381 251.168 287.601 250.999C287.821 250.83 287.931 250.618 287.931 250.361C287.931 250.097 287.813 249.903 287.579 249.778C287.344 249.646 286.981 249.518 286.49 249.393C286.042 249.276 285.676 249.158 285.39 249.041C285.111 248.916 284.869 248.737 284.664 248.502C284.466 248.26 284.367 247.945 284.367 247.556C284.367 247.248 284.458 246.966 284.642 246.709C284.825 246.452 285.085 246.251 285.423 246.104C285.76 245.95 286.145 245.873 286.578 245.873C287.245 245.873 287.784 246.042 288.195 246.379C288.605 246.716 288.825 247.178 288.855 247.765H287.854C287.832 247.45 287.703 247.197 287.469 247.006C287.241 246.815 286.933 246.72 286.545 246.72C286.185 246.72 285.899 246.797 285.687 246.951C285.474 247.105 285.368 247.307 285.368 247.556C285.368 247.754 285.43 247.919 285.555 248.051C285.687 248.176 285.848 248.278 286.039 248.359C286.237 248.432 286.508 248.517 286.853 248.612C287.285 248.729 287.637 248.847 287.909 248.964C288.18 249.074 288.411 249.243 288.602 249.47C288.8 249.697 288.902 249.994 288.91 250.361C288.91 250.691 288.818 250.988 288.635 251.252C288.451 251.516 288.191 251.725 287.854 251.879C287.524 252.026 287.142 252.099 286.71 252.099ZM290.873 244.993C290.682 244.993 290.521 244.927 290.389 244.795C290.257 244.663 290.191 244.502 290.191 244.311C290.191 244.12 290.257 243.959 290.389 243.827C290.521 243.695 290.682 243.629 290.873 243.629C291.056 243.629 291.21 243.695 291.335 243.827C291.467 243.959 291.533 244.12 291.533 244.311C291.533 244.502 291.467 244.663 291.335 244.795C291.21 244.927 291.056 244.993 290.873 244.993ZM291.357 245.972V252H290.356V245.972H291.357ZM294.317 246.797V250.35C294.317 250.643 294.379 250.852 294.504 250.977C294.629 251.094 294.845 251.153 295.153 251.153H295.89V252H294.988C294.431 252 294.013 251.872 293.734 251.615C293.455 251.358 293.316 250.937 293.316 250.35V246.797H292.535V245.972H293.316V244.454H294.317V245.972H295.89V246.797H294.317ZM299.765 252.099C299.2 252.099 298.687 251.971 298.225 251.714C297.77 251.457 297.411 251.094 297.147 250.625C296.89 250.148 296.762 249.598 296.762 248.975C296.762 248.359 296.894 247.816 297.158 247.347C297.429 246.87 297.796 246.507 298.258 246.258C298.72 246.001 299.237 245.873 299.809 245.873C300.381 245.873 300.898 246.001 301.36 246.258C301.822 246.507 302.185 246.867 302.449 247.336C302.72 247.805 302.856 248.352 302.856 248.975C302.856 249.598 302.716 250.148 302.438 250.625C302.166 251.094 301.796 251.457 301.327 251.714C300.857 251.971 300.337 252.099 299.765 252.099ZM299.765 251.219C300.124 251.219 300.461 251.135 300.777 250.966C301.092 250.797 301.345 250.544 301.536 250.207C301.734 249.87 301.833 249.459 301.833 248.975C301.833 248.491 301.737 248.08 301.547 247.743C301.356 247.406 301.107 247.156 300.799 246.995C300.491 246.826 300.157 246.742 299.798 246.742C299.431 246.742 299.094 246.826 298.786 246.995C298.485 247.156 298.243 247.406 298.06 247.743C297.876 248.08 297.785 248.491 297.785 248.975C297.785 249.466 297.873 249.881 298.049 250.218C298.232 250.555 298.474 250.808 298.775 250.977C299.075 251.138 299.405 251.219 299.765 251.219ZM305.206 246.951C305.382 246.606 305.631 246.339 305.954 246.148C306.284 245.957 306.684 245.862 307.153 245.862V246.896H306.889C305.767 246.896 305.206 247.505 305.206 248.722V252H304.205V245.972H305.206V246.951ZM313.533 245.972L309.903 254.838H308.869L310.057 251.934L307.626 245.972H308.737L310.629 250.856L312.499 245.972H313.533Z" fill="#666666"/>
<line x1="57.1445" y1="58.0265" x2="277.86" y2="58.0265" stroke="#2DA771" stroke-width="0.939216" stroke-dasharray="5.64 5.64"/>
<line x1="283.327" y1="89.3367" x2="174.327" y2="195.337" stroke="#2DA771" stroke-width="0.939216" stroke-dasharray="5.64 5.64"/>
<line x1="173.47" y1="92" x2="173.47" y2="194" stroke="#2DA771" stroke-width="0.939216" stroke-dasharray="5.64 5.64"/>
<line x1="63.3259" y1="88.6618" x2="173.326" y2="194.662" stroke="#2DA771" stroke-width="0.939216" stroke-dasharray="5.64 5.64"/>
<rect x="206" y="92" width="66" height="66" rx="10" transform="rotate(-180 206 92)" fill="#2DA771"/>
<g clip-path="url(#clip0_11523_37797)">
<path d="M186.5 59C186.5 66.4558 180.456 72.5 173 72.5C165.544 72.5 159.5 66.4558 159.5 59C159.5 51.5442 165.544 45.5 173 45.5" stroke="white" stroke-width="1.95" stroke-linecap="round" stroke-linejoin="round"/>
<circle cx="173" cy="56" r="4.5" stroke="white" stroke-width="1.95" stroke-linecap="round" stroke-linejoin="round"/>
<path d="M164.25 69.2735C165.012 66.7362 167.349 64.9992 169.998 65H175.998C178.651 64.9991 180.99 66.7406 181.749 69.2825" stroke="white" stroke-width="1.95" stroke-linecap="round" stroke-linejoin="round"/>
<path fill-rule="evenodd" clip-rule="evenodd" d="M177.361 44.1239C177.332 43.9587 177.093 43.9587 177.065 44.1239C176.848 45.3714 175.871 46.3477 174.624 46.5652C174.459 46.5934 174.459 46.8325 174.624 46.8607C175.871 47.0782 176.848 48.0545 177.065 49.302C177.093 49.4672 177.332 49.4672 177.361 49.302C177.578 48.0545 178.554 47.0782 179.802 46.8607C179.967 46.8325 179.967 46.5934 179.802 46.5652C178.554 46.3477 177.578 45.3714 177.361 44.1239ZM183.399 47.3387C183.45 47.0487 183.867 47.0487 183.918 47.3387C184.298 49.5209 186.007 51.2302 188.189 51.6104C188.48 51.6615 188.48 52.0778 188.189 52.1288C186.007 52.5088 184.298 54.2183 183.918 56.4005C183.867 56.6906 183.45 56.6906 183.399 56.4005C183.019 54.2183 181.31 52.509 179.128 52.1288C178.838 52.0778 178.838 51.6615 179.128 51.6104C181.31 51.2304 183.019 49.521 183.399 47.3387Z" fill="white"/>
</g>
<defs>
<clipPath id="clip0_11523_37797">
<rect width="36" height="36" fill="white" transform="translate(155 41)"/>
</clipPath>
</defs>
</svg>
