<svg width="247" height="251" viewBox="0 0 247 251" fill="none" xmlns="http://www.w3.org/2000/svg">
<rect x="1.40778" y="184.859" width="243.852" height="65.7339" rx="9.37891" fill="white"/>
<rect x="1.40778" y="184.859" width="243.852" height="65.7339" rx="9.37891" stroke="#E5E7EB" stroke-width="0.815557"/>
<g clip-path="url(#clip0_11523_36952)">
<rect x="14.6992" y="198.15" width="39.1467" height="39.1467" rx="4.89334" fill="#2DA771"/>
<path d="M32.234 223.833H29.5155C29.155 223.833 28.8093 223.69 28.5544 223.435C28.2995 223.18 28.1562 222.834 28.1562 222.474V212.959C28.1562 212.598 28.2995 212.253 28.5544 211.998C28.8093 211.743 29.155 211.6 29.5155 211.6H32.234" stroke="white" stroke-width="1.35926" stroke-linecap="round" stroke-linejoin="round"/>
<path d="M36.9922 221.107L40.3903 217.709L36.9922 214.311" stroke="white" stroke-width="1.35926" stroke-linecap="round" stroke-linejoin="round"/>
<path d="M40.386 217.711H32.2305" stroke="white" stroke-width="1.35926" stroke-linecap="round" stroke-linejoin="round"/>
<g clip-path="url(#clip1_11523_36952)">
<path d="M72.0097 212.408C71.1659 212.408 70.3873 212.212 69.6739 211.821C68.9693 211.42 68.4082 210.868 67.9906 210.163C67.5818 209.45 67.3773 208.65 67.3773 207.762C67.3773 206.875 67.5818 206.079 67.9906 205.374C68.4082 204.67 68.9693 204.122 69.6739 203.73C70.3873 203.33 71.1659 203.13 72.0097 203.13C72.8622 203.13 73.6408 203.33 74.3455 203.73C75.0588 204.122 75.6199 204.67 76.0288 205.374C76.4376 206.079 76.6421 206.875 76.6421 207.762C76.6421 208.65 76.4376 209.45 76.0288 210.163C75.6199 210.868 75.0588 211.42 74.3455 211.821C73.6408 212.212 72.8622 212.408 72.0097 212.408ZM72.0097 211.116C72.61 211.116 73.145 210.981 73.6147 210.711C74.0845 210.433 74.4499 210.042 74.7108 209.537C74.9805 209.024 75.1153 208.432 75.1153 207.762C75.1153 207.092 74.9805 206.505 74.7108 206.001C74.4499 205.496 74.0845 205.109 73.6147 204.839C73.145 204.57 72.61 204.435 72.0097 204.435C71.4095 204.435 70.8744 204.57 70.4047 204.839C69.9349 205.109 69.5652 205.496 69.2955 206.001C69.0346 206.505 68.9041 207.092 68.9041 207.762C68.9041 208.432 69.0346 209.024 69.2955 209.537C69.5652 210.042 69.9349 210.433 70.4047 210.711C70.8744 210.981 71.4095 211.116 72.0097 211.116ZM84.6173 205.126V212.316H83.1297V211.468C82.8948 211.764 82.586 211.999 82.2032 212.173C81.8292 212.338 81.429 212.421 81.0027 212.421C80.4373 212.421 79.9284 212.303 79.476 212.068C79.0324 211.834 78.68 211.486 78.4191 211.025C78.1668 210.564 78.0406 210.007 78.0406 209.354V205.126H79.5152V209.132C79.5152 209.776 79.6761 210.272 79.998 210.62C80.3199 210.959 80.7592 211.129 81.3159 211.129C81.8727 211.129 82.312 210.959 82.6339 210.62C82.9644 210.272 83.1297 209.776 83.1297 209.132V205.126H84.6173ZM88.3155 206.34V210.32C88.3155 210.59 88.3764 210.785 88.4982 210.907C88.6287 211.02 88.8462 211.077 89.1507 211.077H90.0641V212.316H88.8897C88.2198 212.316 87.7066 212.16 87.3499 211.847C86.9933 211.533 86.8149 211.025 86.8149 210.32V206.34H85.9667V205.126H86.8149V203.339H88.3155V205.126H90.0641V206.34H88.3155ZM92.9227 206.183C93.175 205.853 93.5186 205.574 93.9536 205.348C94.3886 205.122 94.8801 205.009 95.4281 205.009C96.0545 205.009 96.6243 205.166 97.1375 205.479C97.6595 205.783 98.0683 206.214 98.3641 206.771C98.6599 207.327 98.8078 207.967 98.8078 208.689C98.8078 209.411 98.6599 210.059 98.3641 210.633C98.0683 211.199 97.6595 211.642 97.1375 211.964C96.6243 212.277 96.0545 212.434 95.4281 212.434C94.8801 212.434 94.3929 212.325 93.9666 212.108C93.5404 211.881 93.1924 211.603 92.9227 211.272V215.735H91.4351V205.126H92.9227V206.183ZM97.2941 208.689C97.2941 208.193 97.1897 207.767 96.9809 207.41C96.7809 207.045 96.5112 206.771 96.1719 206.588C95.8413 206.397 95.4847 206.301 95.1019 206.301C94.7278 206.301 94.3712 206.397 94.0319 206.588C93.7013 206.779 93.4316 207.058 93.2228 207.423C93.0228 207.788 92.9227 208.219 92.9227 208.715C92.9227 209.211 93.0228 209.646 93.2228 210.02C93.4316 210.385 93.7013 210.664 94.0319 210.855C94.3712 211.046 94.7278 211.142 95.1019 211.142C95.4847 211.142 95.8413 211.046 96.1719 210.855C96.5112 210.655 96.7809 210.368 96.9809 209.994C97.1897 209.62 97.2941 209.185 97.2941 208.689ZM106.79 205.126V212.316H105.303V211.468C105.068 211.764 104.759 211.999 104.376 212.173C104.002 212.338 103.602 212.421 103.176 212.421C102.61 212.421 102.101 212.303 101.649 212.068C101.205 211.834 100.853 211.486 100.592 211.025C100.34 210.564 100.214 210.007 100.214 209.354V205.126H101.688V209.132C101.688 209.776 101.849 210.272 102.171 210.62C102.493 210.959 102.932 211.129 103.489 211.129C104.046 211.129 104.485 210.959 104.807 210.62C105.137 210.272 105.303 209.776 105.303 209.132V205.126H106.79ZM110.488 206.34V210.32C110.488 210.59 110.549 210.785 110.671 210.907C110.802 211.02 111.019 211.077 111.324 211.077H112.237V212.316H111.063C110.393 212.316 109.88 212.16 109.523 211.847C109.166 211.533 108.988 211.025 108.988 210.32V206.34H108.14V205.126H108.988V203.339H110.488V205.126H112.237V206.34H110.488Z" fill="#14171B"/>
</g>
<path opacity="0.5" d="M67.3154 228.223C67.3154 227.558 67.4654 226.961 67.7655 226.432C68.0657 225.897 68.4734 225.48 68.9889 225.179C69.5108 224.879 70.0883 224.729 70.7211 224.729C71.4649 224.729 72.1141 224.909 72.6687 225.268C73.2233 225.626 73.6278 226.135 73.8822 226.794H72.8155C72.6263 226.383 72.3522 226.067 71.9934 225.845C71.6411 225.623 71.217 225.512 70.7211 225.512C70.2448 225.512 69.8175 225.623 69.4391 225.845C69.0607 226.067 68.7638 226.383 68.5485 226.794C68.3332 227.199 68.2255 227.675 68.2255 228.223C68.2255 228.765 68.3332 229.241 68.5485 229.652C68.7638 230.056 69.0607 230.37 69.4391 230.591C69.8175 230.813 70.2448 230.924 70.7211 230.924C71.217 230.924 71.6411 230.817 71.9934 230.601C72.3522 230.379 72.6263 230.063 72.8155 229.652H73.8822C73.6278 230.304 73.2233 230.81 72.6687 231.169C72.1141 231.521 71.4649 231.697 70.7211 231.697C70.0883 231.697 69.5108 231.551 68.9889 231.257C68.4734 230.957 68.0657 230.543 67.7655 230.014C67.4654 229.486 67.3154 228.889 67.3154 228.223ZM76.0985 224.397V231.639H75.2079V224.397H76.0985ZM78.0764 225.405C77.9067 225.405 77.7632 225.346 77.6457 225.228C77.5283 225.111 77.4696 224.967 77.4696 224.798C77.4696 224.628 77.5283 224.485 77.6457 224.367C77.7632 224.25 77.9067 224.191 78.0764 224.191C78.2395 224.191 78.3765 224.25 78.4874 224.367C78.6048 224.485 78.6636 224.628 78.6636 224.798C78.6636 224.967 78.6048 225.111 78.4874 225.228C78.3765 225.346 78.2395 225.405 78.0764 225.405ZM78.507 226.276V231.639H77.6164V226.276H78.507ZM79.6921 228.947C79.6921 228.393 79.803 227.91 80.0248 227.499C80.2467 227.081 80.5533 226.758 80.9448 226.53C81.3428 226.302 81.7962 226.187 82.3051 226.187C82.9641 226.187 83.5056 226.347 83.9297 226.667C84.3603 226.987 84.6441 227.43 84.7811 227.998H83.8221C83.7307 227.672 83.5513 227.414 83.2838 227.225C83.0228 227.036 82.6966 226.941 82.3051 226.941C81.7962 226.941 81.3852 227.117 81.072 227.47C80.7588 227.815 80.6022 228.308 80.6022 228.947C80.6022 229.593 80.7588 230.092 81.072 230.445C81.3852 230.797 81.7962 230.973 82.3051 230.973C82.6966 230.973 83.0228 230.882 83.2838 230.699C83.5448 230.516 83.7242 230.255 83.8221 229.916H84.7811C84.6376 230.464 84.3505 230.905 83.9199 231.237C83.4893 231.564 82.951 231.727 82.3051 231.727C81.7962 231.727 81.3428 231.613 80.9448 231.384C80.5533 231.156 80.2467 230.833 80.0248 230.415C79.803 229.998 79.6921 229.508 79.6921 228.947ZM88.9642 231.639L86.8601 229.27V231.639H85.9695V224.397H86.8601V228.654L88.925 226.276H90.168L87.643 228.947L90.1777 231.639H88.9642ZM94.7016 227.01V230.171C94.7016 230.432 94.7571 230.618 94.868 230.729C94.9789 230.833 95.1714 230.885 95.4454 230.885H96.1011V231.639H95.2986C94.8028 231.639 94.4309 231.524 94.1829 231.296C93.935 231.068 93.811 230.693 93.811 230.171V227.01H93.1162V226.276H93.811V224.925H94.7016V226.276H96.1011V227.01H94.7016ZM99.5192 231.727C99.0168 231.727 98.5601 231.613 98.1491 231.384C97.7446 231.156 97.4249 230.833 97.19 230.415C96.9616 229.991 96.8474 229.502 96.8474 228.947C96.8474 228.399 96.9649 227.916 97.1998 227.499C97.4412 227.075 97.7674 226.752 98.1784 226.53C98.5895 226.302 99.0494 226.187 99.5584 226.187C100.067 226.187 100.527 226.302 100.938 226.53C101.349 226.752 101.672 227.072 101.907 227.489C102.149 227.907 102.269 228.393 102.269 228.947C102.269 229.502 102.145 229.991 101.897 230.415C101.656 230.833 101.326 231.156 100.909 231.384C100.491 231.613 100.028 231.727 99.5192 231.727ZM99.5192 230.944C99.8389 230.944 100.139 230.869 100.42 230.719C100.7 230.569 100.925 230.344 101.095 230.043C101.271 229.743 101.359 229.378 101.359 228.947C101.359 228.517 101.274 228.151 101.105 227.851C100.935 227.551 100.713 227.329 100.439 227.186C100.165 227.036 99.8683 226.961 99.5486 226.961C99.2223 226.961 98.9222 227.036 98.6482 227.186C98.3807 227.329 98.1654 227.551 98.0023 227.851C97.8392 228.151 97.7576 228.517 97.7576 228.947C97.7576 229.384 97.8359 229.753 97.9925 230.053C98.1556 230.353 98.3709 230.578 98.6384 230.729C98.9059 230.872 99.1995 230.944 99.5192 230.944ZM105.717 228.938C105.717 228.389 105.828 227.91 106.049 227.499C106.271 227.081 106.575 226.758 106.96 226.53C107.351 226.302 107.785 226.187 108.261 226.187C108.731 226.187 109.139 226.289 109.484 226.491C109.83 226.693 110.088 226.948 110.258 227.254V226.276H111.158V231.639H110.258V230.64C110.081 230.954 109.817 231.215 109.465 231.423C109.119 231.626 108.715 231.727 108.251 231.727C107.775 231.727 107.344 231.609 106.96 231.374C106.575 231.14 106.271 230.81 106.049 230.386C105.828 229.962 105.717 229.479 105.717 228.938ZM110.258 228.947C110.258 228.543 110.176 228.19 110.013 227.89C109.85 227.59 109.628 227.362 109.347 227.205C109.073 227.042 108.77 226.961 108.437 226.961C108.105 226.961 107.801 227.039 107.527 227.196C107.253 227.352 107.035 227.58 106.871 227.881C106.708 228.181 106.627 228.533 106.627 228.938C106.627 229.349 106.708 229.707 106.871 230.014C107.035 230.314 107.253 230.546 107.527 230.709C107.801 230.866 108.105 230.944 108.437 230.944C108.77 230.944 109.073 230.866 109.347 230.709C109.628 230.546 109.85 230.314 110.013 230.014C110.176 229.707 110.258 229.352 110.258 228.947ZM112.33 228.938C112.33 228.389 112.441 227.91 112.663 227.499C112.885 227.081 113.188 226.758 113.573 226.53C113.965 226.302 114.402 226.187 114.885 226.187C115.302 226.187 115.69 226.285 116.049 226.481C116.408 226.67 116.682 226.921 116.871 227.235V224.397H117.772V231.639H116.871V230.631C116.695 230.95 116.434 231.215 116.088 231.423C115.743 231.626 115.338 231.727 114.875 231.727C114.399 231.727 113.965 231.609 113.573 231.374C113.188 231.14 112.885 230.81 112.663 230.386C112.441 229.962 112.33 229.479 112.33 228.938ZM116.871 228.947C116.871 228.543 116.79 228.19 116.627 227.89C116.464 227.59 116.242 227.362 115.961 227.205C115.687 227.042 115.384 226.961 115.051 226.961C114.718 226.961 114.415 227.039 114.141 227.196C113.867 227.352 113.648 227.58 113.485 227.881C113.322 228.181 113.24 228.533 113.24 228.938C113.24 229.349 113.322 229.707 113.485 230.014C113.648 230.314 113.867 230.546 114.141 230.709C114.415 230.866 114.718 230.944 115.051 230.944C115.384 230.944 115.687 230.866 115.961 230.709C116.242 230.546 116.464 230.314 116.627 230.014C116.79 229.707 116.871 229.352 116.871 228.947ZM118.944 228.938C118.944 228.389 119.055 227.91 119.277 227.499C119.499 227.081 119.802 226.758 120.187 226.53C120.578 226.302 121.015 226.187 121.498 226.187C121.916 226.187 122.304 226.285 122.663 226.481C123.022 226.67 123.296 226.921 123.485 227.235V224.397H124.385V231.639H123.485V230.631C123.309 230.95 123.048 231.215 122.702 231.423C122.356 231.626 121.952 231.727 121.488 231.727C121.012 231.727 120.578 231.609 120.187 231.374C119.802 231.14 119.499 230.81 119.277 230.386C119.055 229.962 118.944 229.479 118.944 228.938ZM123.485 228.947C123.485 228.543 123.403 228.19 123.24 227.89C123.077 227.59 122.855 227.362 122.575 227.205C122.301 227.042 121.997 226.961 121.665 226.961C121.332 226.961 121.029 227.039 120.754 227.196C120.48 227.352 120.262 227.58 120.099 227.881C119.936 228.181 119.854 228.533 119.854 228.938C119.854 229.349 119.936 229.707 120.099 230.014C120.262 230.314 120.48 230.546 120.754 230.709C121.029 230.866 121.332 230.944 121.665 230.944C121.997 230.944 122.301 230.866 122.575 230.709C122.855 230.546 123.077 230.314 123.24 230.014C123.403 229.707 123.485 229.352 123.485 228.947ZM130.839 231.727C130.336 231.727 129.879 231.613 129.468 231.384C129.064 231.156 128.744 230.833 128.509 230.415C128.281 229.991 128.167 229.502 128.167 228.947C128.167 228.399 128.284 227.916 128.519 227.499C128.76 227.075 129.087 226.752 129.498 226.53C129.909 226.302 130.369 226.187 130.878 226.187C131.387 226.187 131.847 226.302 132.258 226.53C132.669 226.752 132.992 227.072 133.226 227.489C133.468 227.907 133.589 228.393 133.589 228.947C133.589 229.502 133.465 229.991 133.217 230.415C132.975 230.833 132.646 231.156 132.228 231.384C131.811 231.613 131.347 231.727 130.839 231.727ZM130.839 230.944C131.158 230.944 131.458 230.869 131.739 230.719C132.019 230.569 132.245 230.344 132.414 230.043C132.59 229.743 132.678 229.378 132.678 228.947C132.678 228.517 132.594 228.151 132.424 227.851C132.254 227.551 132.032 227.329 131.758 227.186C131.484 227.036 131.188 226.961 130.868 226.961C130.542 226.961 130.242 227.036 129.967 227.186C129.7 227.329 129.485 227.551 129.322 227.851C129.158 228.151 129.077 228.517 129.077 228.947C129.077 229.384 129.155 229.753 129.312 230.053C129.475 230.353 129.69 230.578 129.958 230.729C130.225 230.872 130.519 230.944 130.839 230.944ZM139.516 226.276V231.639H138.625V230.846C138.456 231.12 138.217 231.335 137.911 231.492C137.611 231.642 137.278 231.717 136.913 231.717C136.495 231.717 136.12 231.632 135.787 231.463C135.454 231.286 135.19 231.025 134.994 230.68C134.805 230.334 134.711 229.913 134.711 229.417V226.276H135.591V229.3C135.591 229.828 135.725 230.236 135.993 230.523C136.26 230.804 136.626 230.944 137.089 230.944C137.565 230.944 137.94 230.797 138.214 230.503C138.488 230.21 138.625 229.782 138.625 229.221V226.276H139.516ZM142.106 227.01V230.171C142.106 230.432 142.161 230.618 142.272 230.729C142.383 230.833 142.576 230.885 142.85 230.885H143.505V231.639H142.703C142.207 231.639 141.835 231.524 141.587 231.296C141.339 231.068 141.215 230.693 141.215 230.171V227.01H140.52V226.276H141.215V224.925H142.106V226.276H143.505V227.01H142.106ZM145.475 227.264C145.651 226.957 145.912 226.703 146.258 226.501C146.61 226.292 147.018 226.187 147.481 226.187C147.958 226.187 148.388 226.302 148.773 226.53C149.165 226.758 149.471 227.081 149.693 227.499C149.915 227.91 150.026 228.389 150.026 228.938C150.026 229.479 149.915 229.962 149.693 230.386C149.471 230.81 149.165 231.14 148.773 231.374C148.388 231.609 147.958 231.727 147.481 231.727C147.025 231.727 146.62 231.626 146.268 231.423C145.922 231.215 145.658 230.957 145.475 230.65V234.183H144.584V226.276H145.475V227.264ZM149.116 228.938C149.116 228.533 149.034 228.181 148.871 227.881C148.708 227.58 148.486 227.352 148.206 227.196C147.931 227.039 147.628 226.961 147.295 226.961C146.969 226.961 146.666 227.042 146.385 227.205C146.111 227.362 145.889 227.594 145.72 227.9C145.557 228.2 145.475 228.549 145.475 228.947C145.475 229.352 145.557 229.707 145.72 230.014C145.889 230.314 146.111 230.546 146.385 230.709C146.666 230.866 146.969 230.944 147.295 230.944C147.628 230.944 147.931 230.866 148.206 230.709C148.486 230.546 148.708 230.314 148.871 230.014C149.034 229.707 149.116 229.349 149.116 228.938ZM155.954 226.276V231.639H155.064V230.846C154.894 231.12 154.656 231.335 154.349 231.492C154.049 231.642 153.717 231.717 153.351 231.717C152.934 231.717 152.558 231.632 152.226 231.463C151.893 231.286 151.629 231.025 151.433 230.68C151.244 230.334 151.149 229.913 151.149 229.417V226.276H152.03V229.3C152.03 229.828 152.164 230.236 152.431 230.523C152.699 230.804 153.064 230.944 153.527 230.944C154.004 230.944 154.379 230.797 154.653 230.503C154.927 230.21 155.064 229.782 155.064 229.221V226.276H155.954ZM158.544 227.01V230.171C158.544 230.432 158.6 230.618 158.711 230.729C158.822 230.833 159.014 230.885 159.288 230.885H159.944V231.639H159.141C158.646 231.639 158.274 231.524 158.026 231.296C157.778 231.068 157.654 230.693 157.654 230.171V227.01H156.959V226.276H157.654V224.925H158.544V226.276H159.944V227.01H158.544ZM162.922 231.727C162.511 231.727 162.142 231.658 161.816 231.521C161.49 231.378 161.232 231.182 161.043 230.934C160.853 230.68 160.749 230.389 160.729 230.063H161.649C161.675 230.331 161.799 230.549 162.021 230.719C162.25 230.888 162.546 230.973 162.912 230.973C163.251 230.973 163.519 230.898 163.714 230.748C163.91 230.598 164.008 230.409 164.008 230.18C164.008 229.946 163.904 229.773 163.695 229.662C163.486 229.544 163.163 229.43 162.726 229.319C162.328 229.215 162.002 229.11 161.747 229.006C161.499 228.895 161.284 228.735 161.101 228.527C160.925 228.311 160.837 228.031 160.837 227.685C160.837 227.411 160.919 227.16 161.082 226.931C161.245 226.703 161.476 226.523 161.777 226.393C162.077 226.256 162.419 226.187 162.804 226.187C163.398 226.187 163.877 226.338 164.243 226.638C164.608 226.938 164.804 227.349 164.83 227.871H163.939C163.92 227.59 163.806 227.365 163.597 227.196C163.395 227.026 163.121 226.941 162.775 226.941C162.455 226.941 162.201 227.01 162.011 227.147C161.822 227.284 161.728 227.463 161.728 227.685C161.728 227.861 161.783 228.008 161.894 228.125C162.011 228.236 162.155 228.328 162.325 228.399C162.501 228.465 162.742 228.54 163.049 228.624C163.434 228.729 163.747 228.833 163.988 228.938C164.23 229.035 164.435 229.185 164.605 229.388C164.781 229.59 164.872 229.854 164.879 230.18C164.879 230.474 164.797 230.738 164.634 230.973C164.471 231.208 164.24 231.394 163.939 231.531C163.646 231.662 163.307 231.727 162.922 231.727Z" fill="#14171B"/>
</g>
<rect x="1" y="94.5469" width="244.667" height="65.2446" rx="9.78668" fill="white"/>
<path d="M88.1777 130.673H83.9058L83.1718 132.758H81.4249L85.0802 122.541H87.018L90.6733 132.758H88.9117L88.1777 130.673ZM87.708 129.308L86.0491 124.566L84.3756 129.308H87.708ZM91.7048 128.677C91.7048 127.864 91.8712 127.145 92.2039 126.519C92.5465 125.892 93.0064 125.408 93.5839 125.065C94.1711 124.713 94.8219 124.537 95.5363 124.537C96.0648 124.537 96.5835 124.654 97.0924 124.889C97.6111 125.114 98.0221 125.418 98.3255 125.799V121.895H100.014V132.758H98.3255V131.539C98.0515 131.931 97.6698 132.254 97.1805 132.508C96.7009 132.763 96.148 132.89 95.5216 132.89C94.817 132.89 94.1711 132.714 93.5839 132.361C93.0064 131.999 92.5465 131.5 92.2039 130.864C91.8712 130.218 91.7048 129.489 91.7048 128.677ZM98.3255 128.706C98.3255 128.148 98.2081 127.664 97.9732 127.253C97.7481 126.842 97.4496 126.529 97.0777 126.313C96.7058 126.098 96.3046 125.99 95.8739 125.99C95.4433 125.99 95.0421 126.098 94.6702 126.313C94.2983 126.519 93.9949 126.827 93.76 127.238C93.5349 127.639 93.4224 128.119 93.4224 128.677C93.4224 129.235 93.5349 129.724 93.76 130.145C93.9949 130.566 94.2983 130.889 94.6702 131.114C95.0519 131.329 95.4531 131.437 95.8739 131.437C96.3046 131.437 96.7058 131.329 97.0777 131.114C97.4496 130.898 97.7481 130.585 97.9732 130.174C98.2081 129.753 98.3255 129.264 98.3255 128.706ZM101.654 128.677C101.654 127.864 101.82 127.145 102.153 126.519C102.496 125.892 102.956 125.408 103.533 125.065C104.12 124.713 104.771 124.537 105.485 124.537C106.014 124.537 106.533 124.654 107.042 124.889C107.56 125.114 107.971 125.418 108.275 125.799V121.895H109.963V132.758H108.275V131.539C108.001 131.931 107.619 132.254 107.13 132.508C106.65 132.763 106.097 132.89 105.471 132.89C104.766 132.89 104.12 132.714 103.533 132.361C102.956 131.999 102.496 131.5 102.153 130.864C101.82 130.218 101.654 129.489 101.654 128.677ZM108.275 128.706C108.275 128.148 108.157 127.664 107.922 127.253C107.697 126.842 107.399 126.529 107.027 126.313C106.655 126.098 106.254 125.99 105.823 125.99C105.392 125.99 104.991 126.098 104.619 126.313C104.247 126.519 103.944 126.827 103.709 127.238C103.484 127.639 103.372 128.119 103.372 128.677C103.372 129.235 103.484 129.724 103.709 130.145C103.944 130.566 104.247 130.889 104.619 131.114C105.001 131.329 105.402 131.437 105.823 131.437C106.254 131.437 106.655 131.329 107.027 131.114C107.399 130.898 107.697 130.585 107.922 130.174C108.157 129.753 108.275 129.264 108.275 128.706ZM119.336 132.861C118.651 132.861 118.034 132.743 117.486 132.508C116.938 132.264 116.508 131.921 116.195 131.481C115.881 131.04 115.725 130.526 115.725 129.939H117.516C117.555 130.38 117.726 130.742 118.03 131.026C118.343 131.309 118.778 131.451 119.336 131.451C119.913 131.451 120.364 131.314 120.687 131.04C121.01 130.756 121.171 130.394 121.171 129.954C121.171 129.611 121.068 129.332 120.863 129.117C120.667 128.902 120.417 128.735 120.114 128.618C119.821 128.501 119.409 128.373 118.881 128.236C118.215 128.06 117.672 127.884 117.252 127.708C116.84 127.522 116.488 127.238 116.195 126.856C115.901 126.475 115.754 125.966 115.754 125.33C115.754 124.743 115.901 124.229 116.195 123.788C116.488 123.348 116.899 123.01 117.428 122.775C117.956 122.541 118.568 122.423 119.263 122.423C120.251 122.423 121.059 122.673 121.685 123.172C122.321 123.661 122.673 124.336 122.742 125.198H120.892C120.863 124.826 120.687 124.508 120.364 124.243C120.041 123.979 119.615 123.847 119.087 123.847C118.607 123.847 118.215 123.969 117.912 124.214C117.609 124.459 117.457 124.811 117.457 125.271C117.457 125.584 117.55 125.844 117.736 126.049C117.932 126.245 118.176 126.401 118.47 126.519C118.764 126.636 119.165 126.763 119.674 126.9C120.349 127.086 120.897 127.272 121.318 127.458C121.748 127.644 122.111 127.933 122.404 128.324C122.708 128.706 122.859 129.22 122.859 129.866C122.859 130.385 122.717 130.874 122.434 131.334C122.16 131.794 121.753 132.166 121.215 132.45C120.687 132.724 120.06 132.861 119.336 132.861ZM126.786 126.034V130.512C126.786 130.815 126.855 131.035 126.992 131.172C127.139 131.3 127.383 131.363 127.726 131.363H128.754V132.758H127.432C126.679 132.758 126.101 132.582 125.7 132.229C125.299 131.877 125.098 131.304 125.098 130.512V126.034H124.144V124.669H125.098V122.658H126.786V124.669H128.754V126.034H126.786ZM137.709 128.515C137.709 128.819 137.69 129.093 137.651 129.337H131.47C131.519 129.983 131.759 130.502 132.19 130.893C132.62 131.285 133.149 131.481 133.775 131.481C134.676 131.481 135.312 131.104 135.684 130.35H137.489C137.245 131.094 136.799 131.706 136.153 132.185C135.517 132.655 134.724 132.89 133.775 132.89C133.002 132.89 132.307 132.719 131.691 132.376C131.084 132.024 130.604 131.534 130.252 130.908C129.909 130.272 129.738 129.538 129.738 128.706C129.738 127.874 129.904 127.145 130.237 126.519C130.58 125.883 131.054 125.393 131.661 125.051C132.278 124.708 132.982 124.537 133.775 124.537C134.538 124.537 135.219 124.703 135.816 125.036C136.413 125.369 136.878 125.839 137.21 126.445C137.543 127.042 137.709 127.732 137.709 128.515ZM135.962 127.987C135.953 127.37 135.732 126.876 135.302 126.504C134.871 126.132 134.338 125.946 133.702 125.946C133.124 125.946 132.63 126.132 132.219 126.504C131.808 126.866 131.563 127.36 131.485 127.987H135.962ZM141.03 125.858C141.314 125.486 141.7 125.173 142.19 124.919C142.679 124.664 143.232 124.537 143.848 124.537C144.553 124.537 145.194 124.713 145.771 125.065C146.359 125.408 146.819 125.892 147.151 126.519C147.484 127.145 147.651 127.864 147.651 128.677C147.651 129.489 147.484 130.218 147.151 130.864C146.819 131.5 146.359 131.999 145.771 132.361C145.194 132.714 144.553 132.89 143.848 132.89C143.232 132.89 142.684 132.768 142.204 132.523C141.725 132.268 141.333 131.955 141.03 131.583V136.604H139.356V124.669H141.03V125.858ZM145.948 128.677C145.948 128.119 145.83 127.639 145.595 127.238C145.37 126.827 145.067 126.519 144.685 126.313C144.313 126.098 143.912 125.99 143.481 125.99C143.061 125.99 142.659 126.098 142.278 126.313C141.906 126.529 141.602 126.842 141.367 127.253C141.142 127.664 141.03 128.148 141.03 128.706C141.03 129.264 141.142 129.753 141.367 130.174C141.602 130.585 141.906 130.898 142.278 131.114C142.659 131.329 143.061 131.437 143.481 131.437C143.912 131.437 144.313 131.329 144.685 131.114C145.067 130.889 145.37 130.566 145.595 130.145C145.83 129.724 145.948 129.235 145.948 128.677Z" fill="#14171B"/>
<path d="M155.723 127.258H163.335" stroke="black" stroke-width="1.08741" stroke-linecap="round" stroke-linejoin="round"/>
<path d="M159.527 123.455V131.067" stroke="black" stroke-width="1.08741" stroke-linecap="round" stroke-linejoin="round"/>
<rect x="1.40778" y="1.40778" width="243.852" height="65.7339" rx="9.37891" fill="white"/>
<rect x="1.40778" y="1.40778" width="243.852" height="65.7339" rx="9.37891" stroke="#E5E7EB" stroke-width="0.815557"/>
<rect x="0.592222" y="0.592222" width="245.483" height="67.365" rx="10.1945" stroke="#2DA771" stroke-width="0.815557"/>
<g clip-path="url(#clip2_11523_36952)">
<rect x="14.6992" y="14.6934" width="39.1467" height="39.1467" rx="4.89334" fill="#2DA771"/>
<path d="M36.3125 28.1602H39.031C39.3915 28.1602 39.7373 28.3034 39.9922 28.5583C40.2471 28.8132 40.3903 29.1589 40.3903 29.5194V39.0342C40.3903 39.3947 40.2471 39.7405 39.9922 39.9954C39.7373 40.2503 39.3915 40.3935 39.031 40.3935H36.3125" stroke="white" stroke-width="1.35926" stroke-linecap="round" stroke-linejoin="round"/>
<path d="M32.9141 37.6791L36.3122 34.281L32.9141 30.8828" stroke="white" stroke-width="1.35926" stroke-linecap="round" stroke-linejoin="round"/>
<path d="M36.3118 34.2812H28.1562" stroke="white" stroke-width="1.35926" stroke-linecap="round" stroke-linejoin="round"/>
<g clip-path="url(#clip3_11523_36952)">
<path d="M69.3608 21.431V30.5H67.8732V21.431H69.3608ZM74.9414 23.1926C75.5069 23.1926 76.0114 23.31 76.4551 23.5449C76.9075 23.7798 77.2598 24.1278 77.5121 24.5888C77.7643 25.0499 77.8905 25.6067 77.8905 26.2591V30.5H76.416V26.4809C76.416 25.8372 76.255 25.3457 75.9331 25.0064C75.6113 24.6584 75.172 24.4845 74.6152 24.4845C74.0585 24.4845 73.6148 24.6584 73.2842 25.0064C72.9623 25.3457 72.8014 25.8372 72.8014 26.4809V30.5H71.3138V23.31H72.8014V24.1321C73.045 23.8364 73.3538 23.6058 73.7279 23.4405C74.1106 23.2753 74.5152 23.1926 74.9414 23.1926ZM81.2756 24.367C81.5278 24.0364 81.8715 23.7581 82.3064 23.5319C82.7414 23.3057 83.2329 23.1926 83.7809 23.1926C84.4073 23.1926 84.9771 23.3492 85.4904 23.6624C86.0123 23.9668 86.4212 24.3975 86.7169 24.9542C87.0127 25.511 87.1606 26.1504 87.1606 26.8724C87.1606 27.5944 87.0127 28.2425 86.7169 28.8167C86.4212 29.3821 86.0123 29.8258 85.4904 30.1477C84.9771 30.4609 84.4073 30.6174 83.7809 30.6174C83.2329 30.6174 82.7457 30.5087 82.3195 30.2912C81.8932 30.065 81.5452 29.7867 81.2756 29.4561V33.9188H79.788V23.31H81.2756V24.367ZM85.6469 26.8724C85.6469 26.3765 85.5425 25.9503 85.3338 25.5936C85.1337 25.2282 84.864 24.9542 84.5247 24.7715C84.1942 24.5801 83.8375 24.4845 83.4547 24.4845C83.0807 24.4845 82.724 24.5801 82.3847 24.7715C82.0541 24.9629 81.7845 25.2413 81.5757 25.6067C81.3756 25.972 81.2756 26.4026 81.2756 26.8985C81.2756 27.3944 81.3756 27.8293 81.5757 28.2034C81.7845 28.5688 82.0541 28.8471 82.3847 29.0385C82.724 29.2299 83.0807 29.3256 83.4547 29.3256C83.8375 29.3256 84.1942 29.2299 84.5247 29.0385C84.864 28.8384 85.1337 28.5514 85.3338 28.1773C85.5425 27.8032 85.6469 27.3683 85.6469 26.8724ZM95.1431 23.31V30.5H93.6555V29.6518C93.4206 29.9476 93.1118 30.1825 92.729 30.3565C92.355 30.5217 91.9548 30.6044 91.5285 30.6044C90.9631 30.6044 90.4542 30.487 90.0018 30.2521C89.5581 30.0172 89.2058 29.6692 88.9448 29.2082C88.6926 28.7471 88.5664 28.1903 88.5664 27.5379V23.31H90.041V27.3161C90.041 27.9598 90.2019 28.4557 90.5238 28.8036C90.8456 29.1429 91.285 29.3125 91.8417 29.3125C92.3985 29.3125 92.8378 29.1429 93.1596 28.8036C93.4902 28.4557 93.6555 27.9598 93.6555 27.3161V23.31H95.1431ZM98.8413 24.5236V28.5035C98.8413 28.7732 98.9022 28.9689 99.024 29.0907C99.1545 29.2038 99.372 29.2604 99.6765 29.2604H100.59V30.5H99.4155C98.7456 30.5 98.2324 30.3434 97.8757 30.0302C97.519 29.7171 97.3407 29.2082 97.3407 28.5035V24.5236H96.4925V23.31H97.3407V21.5223H98.8413V23.31H100.59V24.5236H98.8413Z" fill="#14171B"/>
</g>
<path opacity="0.5" d="M67.3154 46.4067C67.3154 45.7412 67.4654 45.1442 67.7655 44.6157C68.0657 44.0807 68.4734 43.6632 68.9889 43.3631C69.5108 43.0629 70.0883 42.9129 70.7211 42.9129C71.4649 42.9129 72.1141 43.0923 72.6687 43.4511C73.2233 43.81 73.6278 44.3189 73.8822 44.9779H72.8155C72.6263 44.5668 72.3522 44.2504 71.9934 44.0285C71.6411 43.8067 71.217 43.6958 70.7211 43.6958C70.2448 43.6958 69.8175 43.8067 69.4391 44.0285C69.0607 44.2504 68.7638 44.5668 68.5485 44.9779C68.3332 45.3824 68.2255 45.8587 68.2255 46.4067C68.2255 46.9482 68.3332 47.4245 68.5485 47.8356C68.7638 48.2401 69.0607 48.5533 69.4391 48.7751C69.8175 48.9969 70.2448 49.1078 70.7211 49.1078C71.217 49.1078 71.6411 49.0002 71.9934 48.7849C72.3522 48.563 72.6263 48.2466 72.8155 47.8356H73.8822C73.6278 48.488 73.2233 48.9937 72.6687 49.3525C72.1141 49.7048 71.4649 49.881 70.7211 49.881C70.0883 49.881 69.5108 49.7342 68.9889 49.4406C68.4734 49.1405 68.0657 48.7262 67.7655 48.1977C67.4654 47.6692 67.3154 47.0722 67.3154 46.4067ZM76.0985 42.5801V49.8223H75.2079V42.5801H76.0985ZM78.0764 43.5881C77.9067 43.5881 77.7632 43.5294 77.6457 43.412C77.5283 43.2945 77.4696 43.151 77.4696 42.9814C77.4696 42.8117 77.5283 42.6682 77.6457 42.5508C77.7632 42.4333 77.9067 42.3746 78.0764 42.3746C78.2395 42.3746 78.3765 42.4333 78.4874 42.5508C78.6048 42.6682 78.6636 42.8117 78.6636 42.9814C78.6636 43.151 78.6048 43.2945 78.4874 43.412C78.3765 43.5294 78.2395 43.5881 78.0764 43.5881ZM78.507 44.4592V49.8223H77.6164V44.4592H78.507ZM79.6921 47.1309C79.6921 46.5763 79.803 46.0935 80.0248 45.6825C80.2467 45.2649 80.5533 44.942 80.9448 44.7136C81.3428 44.4853 81.7962 44.3711 82.3051 44.3711C82.9641 44.3711 83.5056 44.5309 83.9297 44.8506C84.3603 45.1703 84.6441 45.614 84.7811 46.1816H83.8221C83.7307 45.8554 83.5513 45.5977 83.2838 45.4085C83.0228 45.2193 82.6966 45.1247 82.3051 45.1247C81.7962 45.1247 81.3852 45.3008 81.072 45.6531C80.7588 45.9989 80.6022 46.4915 80.6022 47.1309C80.6022 47.7768 80.7588 48.276 81.072 48.6283C81.3852 48.9806 81.7962 49.1568 82.3051 49.1568C82.6966 49.1568 83.0228 49.0654 83.2838 48.8827C83.5448 48.7001 83.7242 48.4391 83.8221 48.0998H84.7811C84.6376 48.6479 84.3505 49.0883 83.9199 49.421C83.4893 49.7472 82.951 49.9103 82.3051 49.9103C81.7962 49.9103 81.3428 49.7962 80.9448 49.5678C80.5533 49.3395 80.2467 49.0165 80.0248 48.5989C79.803 48.1814 79.6921 47.692 79.6921 47.1309ZM88.9642 49.8223L86.8601 47.4539V49.8223H85.9695V42.5801H86.8601V46.8373L88.925 44.4592H90.168L87.643 47.1309L90.1777 49.8223H88.9642ZM94.7016 45.1932V48.3543C94.7016 48.6152 94.7571 48.8012 94.868 48.9121C94.9789 49.0165 95.1714 49.0687 95.4454 49.0687H96.1011V49.8223H95.2986C94.8028 49.8223 94.4309 49.7081 94.1829 49.4797C93.935 49.2514 93.811 48.8762 93.811 48.3543V45.1932H93.1162V44.4592H93.811V43.1086H94.7016V44.4592H96.1011V45.1932H94.7016ZM99.5192 49.9103C99.0168 49.9103 98.5601 49.7962 98.1491 49.5678C97.7446 49.3395 97.4249 49.0165 97.19 48.5989C96.9616 48.1748 96.8474 47.6855 96.8474 47.1309C96.8474 46.5829 96.9649 46.1001 97.1998 45.6825C97.4412 45.2584 97.7674 44.9354 98.1784 44.7136C98.5895 44.4853 99.0494 44.3711 99.5584 44.3711C100.067 44.3711 100.527 44.4853 100.938 44.7136C101.349 44.9354 101.672 45.2551 101.907 45.6727C102.149 46.0903 102.269 46.5763 102.269 47.1309C102.269 47.6855 102.145 48.1748 101.897 48.5989C101.656 49.0165 101.326 49.3395 100.909 49.5678C100.491 49.7962 100.028 49.9103 99.5192 49.9103ZM99.5192 49.1274C99.8389 49.1274 100.139 49.0524 100.42 48.9023C100.7 48.7523 100.925 48.5272 101.095 48.227C101.271 47.9269 101.359 47.5615 101.359 47.1309C101.359 46.7003 101.274 46.3349 101.105 46.0348C100.935 45.7347 100.713 45.5129 100.439 45.3693C100.165 45.2193 99.8683 45.1442 99.5486 45.1442C99.2223 45.1442 98.9222 45.2193 98.6482 45.3693C98.3807 45.5129 98.1654 45.7347 98.0023 46.0348C97.8392 46.3349 97.7576 46.7003 97.7576 47.1309C97.7576 47.5681 97.8359 47.9367 97.9925 48.2368C98.1556 48.5369 98.3709 48.762 98.6384 48.9121C98.9059 49.0556 99.1995 49.1274 99.5192 49.1274ZM110.081 48.3053H107.106L106.558 49.8223H105.619L108.085 43.0401H109.113L111.569 49.8223H110.63L110.081 48.3053ZM109.827 47.5811L108.594 44.1362L107.361 47.5811H109.827ZM112.311 47.1211C112.311 46.5731 112.422 46.0935 112.644 45.6825C112.866 45.2649 113.169 44.942 113.554 44.7136C113.946 44.4853 114.383 44.3711 114.865 44.3711C115.283 44.3711 115.671 44.4689 116.03 44.6647C116.389 44.8539 116.663 45.1051 116.852 45.4183V42.5801H117.753V49.8223H116.852V48.8142C116.676 49.1339 116.415 49.3982 116.069 49.607C115.723 49.8092 115.319 49.9103 114.856 49.9103C114.379 49.9103 113.946 49.7929 113.554 49.558C113.169 49.3231 112.866 48.9937 112.644 48.5696C112.422 48.1455 112.311 47.6627 112.311 47.1211ZM116.852 47.1309C116.852 46.7264 116.771 46.3741 116.608 46.074C116.444 45.7738 116.223 45.5455 115.942 45.3889C115.668 45.2258 115.365 45.1442 115.032 45.1442C114.699 45.1442 114.396 45.2225 114.122 45.3791C113.848 45.5357 113.629 45.7641 113.466 46.0642C113.303 46.3643 113.221 46.7166 113.221 47.1211C113.221 47.5322 113.303 47.891 113.466 48.1977C113.629 48.4978 113.848 48.7294 114.122 48.8925C114.396 49.0491 114.699 49.1274 115.032 49.1274C115.365 49.1274 115.668 49.0491 115.942 48.8925C116.223 48.7294 116.444 48.4978 116.608 48.1977C116.771 47.891 116.852 47.5354 116.852 47.1309ZM118.925 47.1211C118.925 46.5731 119.036 46.0935 119.258 45.6825C119.479 45.2649 119.783 44.942 120.168 44.7136C120.559 44.4853 120.996 44.3711 121.479 44.3711C121.897 44.3711 122.285 44.4689 122.644 44.6647C123.003 44.8539 123.277 45.1051 123.466 45.4183V42.5801H124.366V49.8223H123.466V48.8142C123.29 49.1339 123.029 49.3982 122.683 49.607C122.337 49.8092 121.933 49.9103 121.469 49.9103C120.993 49.9103 120.559 49.7929 120.168 49.558C119.783 49.3231 119.479 48.9937 119.258 48.5696C119.036 48.1455 118.925 47.6627 118.925 47.1211ZM123.466 47.1309C123.466 46.7264 123.384 46.3741 123.221 46.074C123.058 45.7738 122.836 45.5455 122.556 45.3889C122.282 45.2258 121.978 45.1442 121.646 45.1442C121.313 45.1442 121.009 45.2225 120.735 45.3791C120.461 45.5357 120.243 45.7641 120.08 46.0642C119.917 46.3643 119.835 46.7166 119.835 47.1211C119.835 47.5322 119.917 47.891 120.08 48.1977C120.243 48.4978 120.461 48.7294 120.735 48.8925C121.009 49.0491 121.313 49.1274 121.646 49.1274C121.978 49.1274 122.282 49.0491 122.556 48.8925C122.836 48.7294 123.058 48.4978 123.221 48.1977C123.384 47.891 123.466 47.5354 123.466 47.1309ZM129.371 43.0009V49.8223H128.48V43.0009H129.371ZM133.502 44.3613C134.154 44.3613 134.683 44.5603 135.087 44.9583C135.492 45.3498 135.694 45.9174 135.694 46.6612V49.8223H134.813V46.7884C134.813 46.2534 134.68 45.8456 134.412 45.5651C134.145 45.278 133.779 45.1344 133.316 45.1344C132.846 45.1344 132.471 45.2812 132.19 45.5748C131.916 45.8684 131.779 46.2958 131.779 46.8569V49.8223H130.889V44.4592H131.779V45.2225C131.956 44.9485 132.194 44.7365 132.494 44.5864C132.8 44.4363 133.136 44.3613 133.502 44.3613ZM138.039 45.4476C138.216 45.141 138.477 44.8865 138.822 44.6843C139.175 44.4755 139.582 44.3711 140.046 44.3711C140.522 44.3711 140.953 44.4853 141.338 44.7136C141.729 44.942 142.036 45.2649 142.258 45.6825C142.479 46.0935 142.59 46.5731 142.59 47.1211C142.59 47.6627 142.479 48.1455 142.258 48.5696C142.036 48.9937 141.729 49.3231 141.338 49.558C140.953 49.7929 140.522 49.9103 140.046 49.9103C139.589 49.9103 139.184 49.8092 138.832 49.607C138.486 49.3982 138.222 49.1405 138.039 48.8338V52.3668H137.149V44.4592H138.039V45.4476ZM141.68 47.1211C141.68 46.7166 141.599 46.3643 141.435 46.0642C141.272 45.7641 141.05 45.5357 140.77 45.3791C140.496 45.2225 140.193 45.1442 139.86 45.1442C139.534 45.1442 139.23 45.2258 138.95 45.3889C138.676 45.5455 138.454 45.7771 138.284 46.0838C138.121 46.3839 138.039 46.7329 138.039 47.1309C138.039 47.5354 138.121 47.891 138.284 48.1977C138.454 48.4978 138.676 48.7294 138.95 48.8925C139.23 49.0491 139.534 49.1274 139.86 49.1274C140.193 49.1274 140.496 49.0491 140.77 48.8925C141.05 48.7294 141.272 48.4978 141.435 48.1977C141.599 47.891 141.68 47.5322 141.68 47.1211ZM148.519 44.4592V49.8223H147.628V49.0295C147.459 49.3036 147.22 49.5189 146.914 49.6755C146.614 49.8255 146.281 49.9006 145.916 49.9006C145.498 49.9006 145.123 49.8157 144.79 49.6461C144.457 49.4699 144.193 49.209 143.997 48.8632C143.808 48.5174 143.714 48.0965 143.714 47.6007V44.4592H144.594V47.4832C144.594 48.0117 144.728 48.4195 144.996 48.7066C145.263 48.9871 145.629 49.1274 146.092 49.1274C146.568 49.1274 146.943 48.9806 147.217 48.687C147.491 48.3934 147.628 47.9661 147.628 47.405V44.4592H148.519ZM151.109 45.1932V48.3543C151.109 48.6152 151.164 48.8012 151.275 48.9121C151.386 49.0165 151.579 49.0687 151.853 49.0687H152.508V49.8223H151.706C151.21 49.8223 150.838 49.7081 150.59 49.4797C150.342 49.2514 150.218 48.8762 150.218 48.3543V45.1932H149.523V44.4592H150.218V43.1086H151.109V44.4592H152.508V45.1932H151.109ZM155.486 49.9103C155.075 49.9103 154.706 49.8418 154.38 49.7048C154.054 49.5613 153.796 49.3656 153.607 49.1176C153.418 48.8632 153.313 48.5728 153.294 48.2466H154.214C154.24 48.5141 154.364 48.7327 154.586 48.9023C154.814 49.072 155.111 49.1568 155.476 49.1568C155.816 49.1568 156.083 49.0817 156.279 48.9317C156.474 48.7816 156.572 48.5924 156.572 48.364C156.572 48.1292 156.468 47.9563 156.259 47.8454C156.05 47.7279 155.727 47.6137 155.29 47.5028C154.892 47.3984 154.566 47.294 154.312 47.1896C154.064 47.0787 153.848 46.9189 153.666 46.7101C153.49 46.4948 153.401 46.2142 153.401 45.8684C153.401 45.5944 153.483 45.3432 153.646 45.1149C153.809 44.8865 154.041 44.7071 154.341 44.5766C154.641 44.4396 154.984 44.3711 155.369 44.3711C155.962 44.3711 156.442 44.5211 156.807 44.8213C157.173 45.1214 157.368 45.5324 157.394 46.0544H156.504C156.484 45.7738 156.37 45.5487 156.161 45.3791C155.959 45.2095 155.685 45.1247 155.339 45.1247C155.02 45.1247 154.765 45.1932 154.576 45.3302C154.387 45.4672 154.292 45.6466 154.292 45.8684C154.292 46.0446 154.348 46.1914 154.458 46.3088C154.576 46.4198 154.719 46.5111 154.889 46.5829C155.065 46.6481 155.307 46.7231 155.613 46.808C155.998 46.9124 156.311 47.0167 156.553 47.1211C156.794 47.219 157 47.3691 157.169 47.5713C157.346 47.7736 157.437 48.0378 157.443 48.364C157.443 48.6577 157.362 48.9219 157.199 49.1568C157.036 49.3917 156.804 49.5776 156.504 49.7146C156.21 49.8451 155.871 49.9103 155.486 49.9103Z" fill="#14171B"/>
</g>
<path d="M123.707 70.25C123.707 82.399 123.707 82.399 123.707 94.5481" stroke="#2DA771" stroke-width="0.939216" stroke-dasharray="5.64 5.64"/>
<path d="M123.332 160.152C123.332 172.301 123.332 172.301 123.332 184.45" stroke="#2DA771" stroke-width="0.939216" stroke-dasharray="5.64 5.64"/>
<defs>
<clipPath id="clip0_11523_36952">
<rect width="217.264" height="39.1467" fill="white" transform="translate(14.6992 198.156)"/>
</clipPath>
<clipPath id="clip1_11523_36952">
<rect width="95.8361" height="19.5734" fill="white" transform="translate(66.8945 201.412)"/>
</clipPath>
<clipPath id="clip2_11523_36952">
<rect width="217.264" height="39.1467" fill="white" transform="translate(14.6992 14.6914)"/>
</clipPath>
<clipPath id="clip3_11523_36952">
<rect width="87.4603" height="19.5734" fill="white" transform="translate(66.8945 16.5039)"/>
</clipPath>
</defs>
</svg>
