<svg width="401" height="258" viewBox="0 0 401 258" fill="none" xmlns="http://www.w3.org/2000/svg">
<path d="M373.191 225.595C373.191 131.378 296.813 55 202.595 55C108.378 55 32 131.378 32 225.595" stroke="#2DA771" stroke-width="1.1111" stroke-dasharray="6.67 6.67"/>
<rect y="169" width="66" height="66" rx="10" fill="#2DA771"/>
<path d="M34.125 197.5C34.125 196.879 33.6213 196.375 33 196.375C32.3787 196.375 31.875 196.879 31.875 197.5V211C31.875 211.621 32.3787 212.125 33 212.125C33.6213 212.125 34.125 211.621 34.125 211V197.5Z" fill="white"/>
<path d="M40.433 218.875H25.5616C22.8009 218.875 20.4676 216.898 20.0131 214.175L17.0105 196.176C16.7383 194.541 17.1961 192.878 18.2671 191.614C19.3381 190.35 20.9019 189.625 22.5579 189.625H43.4345C45.0916 189.625 46.6554 190.351 47.7264 191.615C48.7974 192.88 49.2541 194.542 48.9819 196.176L45.9804 214.176C45.5259 216.899 43.1915 218.876 40.4319 218.876L40.433 218.875ZM22.559 191.875C21.5645 191.875 20.6263 192.31 19.985 193.069C19.3426 193.827 19.067 194.826 19.2301 195.806L22.2328 213.806C22.505 215.439 23.9045 216.625 25.5616 216.625H40.433C42.089 216.625 43.4885 215.439 43.7619 213.805L46.7634 195.805C46.9276 194.824 46.652 193.827 46.0096 193.069C45.3684 192.309 44.429 191.874 43.4345 191.874L22.559 191.875Z" fill="white"/>
<path d="M45.375 191.875H20.625V189.625C20.625 187.143 22.6432 185.125 25.125 185.125H40.875C43.3568 185.125 45.375 187.143 45.375 189.625V191.875ZM22.875 189.625H43.125C43.125 188.384 42.1159 187.375 40.875 187.375H25.125C23.8841 187.375 22.875 188.384 22.875 189.625Z" fill="white"/>
<path d="M39.75 203.125H26.25C25.6287 203.125 25.125 203.629 25.125 204.25C25.125 204.871 25.6287 205.375 26.25 205.375H39.75C40.3713 205.375 40.875 204.871 40.875 204.25C40.875 203.629 40.3713 203.125 39.75 203.125Z" fill="white"/>
<rect x="171" y="22" width="66" height="66" rx="10" fill="#2DA771"/>
<path d="M205.693 68.5H195.5C193.843 68.5 192.5 67.1569 192.5 65.5V47.5C192.5 45.8431 193.843 44.5 195.5 44.5H213.5C215.157 44.5 216.5 45.8431 216.5 47.5V53.5" stroke="white" stroke-width="1.95" stroke-linecap="round" stroke-linejoin="round"/>
<path d="M210.5 41.5V47.5" stroke="white" stroke-width="1.95" stroke-linecap="round" stroke-linejoin="round"/>
<path d="M198.5 41.5V47.5" stroke="white" stroke-width="1.95" stroke-linecap="round" stroke-linejoin="round"/>
<path d="M192.5 53.5H216.5" stroke="white" stroke-width="1.95" stroke-linecap="round" stroke-linejoin="round"/>
<path d="M202.252 61.7507L203.703 63.4433L207.748 59.3038" stroke="white" stroke-width="1.95" stroke-linecap="round" stroke-linejoin="round"/>
<path d="M203.307 68.5H213.5C215.157 68.5 216.5 67.1569 216.5 65.5V47.5C216.5 45.8431 215.157 44.5 213.5 44.5H195.5C193.843 44.5 192.5 45.8431 192.5 47.5V53.5" stroke="white" stroke-width="1.95" stroke-linecap="round" stroke-linejoin="round"/>
<rect x="335" y="169" width="66" height="66" rx="10" fill="#2DA771"/>
<path d="M366.707 218.369H353.832C351.74 218.369 350.043 216.672 350.043 214.579V191.842C350.043 189.749 351.74 188.053 353.832 188.053H376.569C378.662 188.053 380.358 189.749 380.358 191.842V199.421" stroke="white" stroke-width="2.28067" stroke-linecap="round" stroke-linejoin="round"/>
<path d="M378.465 205.105V212.684H386.044" stroke="white" stroke-width="2.28067" stroke-linecap="round" stroke-linejoin="round"/>
<ellipse cx="378.462" cy="212.684" rx="7.57879" ry="7.57895" stroke="white" stroke-width="2.28067" stroke-linecap="round" stroke-linejoin="round"/>
<path d="M372.779 184.264V191.843" stroke="white" stroke-width="2.28067" stroke-linecap="round" stroke-linejoin="round"/>
<path d="M357.623 184.264V191.843" stroke="white" stroke-width="2.28067" stroke-linecap="round" stroke-linejoin="round"/>
<path d="M350.043 199.422H380.358" stroke="white" stroke-width="2.28067" stroke-linecap="round" stroke-linejoin="round"/>
<circle cx="204.111" cy="203.289" r="11.111" fill="#2DA771"/>
<line x1="335" y1="203.556" x2="66" y2="203.556" stroke="#2DA771" stroke-width="1.1111" stroke-dasharray="6.67 6.67"/>
<line x1="204.556" y1="88" x2="204.556" y2="205" stroke="#2DA771" stroke-width="1.1111" stroke-dasharray="6.67 6.67"/>
<path d="M5.97685 249.832C5.97685 250.44 5.76718 250.946 5.34784 251.352C4.93549 251.75 4.30298 251.949 3.45032 251.949H2.04553V255H1.09153V247.693H3.45032C4.27502 247.693 4.90054 247.892 5.32687 248.291C5.76019 248.689 5.97685 249.203 5.97685 249.832ZM3.45032 251.163C3.98149 251.163 4.37287 251.048 4.62448 250.817C4.87608 250.586 5.00188 250.258 5.00188 249.832C5.00188 248.93 4.48469 248.479 3.45032 248.479H2.04553V251.163H3.45032ZM9.69957 255.094C9.16141 255.094 8.67218 254.972 8.23187 254.727C7.79856 254.483 7.45609 254.137 7.20449 253.69C6.95987 253.235 6.83756 252.711 6.83756 252.117C6.83756 251.53 6.96337 251.013 7.21497 250.565C7.47357 250.111 7.82302 249.765 8.26332 249.528C8.70363 249.283 9.19636 249.161 9.7415 249.161C10.2866 249.161 10.7794 249.283 11.2197 249.528C11.66 249.765 12.0059 250.108 12.2575 250.555C12.5161 251.002 12.6454 251.523 12.6454 252.117C12.6454 252.711 12.5126 253.235 12.2471 253.69C11.9885 254.137 11.6355 254.483 11.1882 254.727C10.7409 254.972 10.2447 255.094 9.69957 255.094ZM9.69957 254.256C10.042 254.256 10.3635 254.175 10.6641 254.015C10.9646 253.854 11.2057 253.613 11.3874 253.291C11.5761 252.97 11.6705 252.578 11.6705 252.117C11.6705 251.656 11.5796 251.264 11.3979 250.943C11.2162 250.621 10.9786 250.384 10.685 250.23C10.3915 250.069 10.0735 249.989 9.73102 249.989C9.38157 249.989 9.06007 250.069 8.76653 250.23C8.47998 250.384 8.24935 250.621 8.07462 250.943C7.8999 251.264 7.81253 251.656 7.81253 252.117C7.81253 252.585 7.8964 252.98 8.06414 253.302C8.23886 253.623 8.4695 253.864 8.75605 254.025C9.0426 254.179 9.35711 254.256 9.69957 254.256ZM15.965 255.094C15.5247 255.094 15.1298 255.021 14.7804 254.874C14.4309 254.72 14.1549 254.511 13.9522 254.245C13.7495 253.973 13.6377 253.662 13.6167 253.312H14.6022C14.6301 253.599 14.7629 253.833 15.0005 254.015C15.2452 254.196 15.5632 254.287 15.9545 254.287C16.318 254.287 16.6045 254.207 16.8142 254.046C17.0239 253.885 17.1287 253.683 17.1287 253.438C17.1287 253.186 17.0169 253.001 16.7932 252.882C16.5696 252.757 16.2236 252.634 15.7554 252.515C15.329 252.404 14.9796 252.292 14.707 252.18C14.4414 252.061 14.2108 251.89 14.0151 251.666C13.8264 251.436 13.732 251.135 13.732 250.765C13.732 250.471 13.8194 250.202 13.9941 249.957C14.1689 249.713 14.417 249.521 14.7385 249.381C15.06 249.234 15.4269 249.161 15.8392 249.161C16.4752 249.161 16.9889 249.321 17.3803 249.643C17.7717 249.964 17.9814 250.405 18.0093 250.964H17.0553C17.0344 250.663 16.912 250.422 16.6884 250.24C16.4717 250.059 16.1782 249.968 15.8078 249.968C15.4653 249.968 15.1927 250.041 14.9901 250.188C14.7874 250.335 14.686 250.527 14.686 250.765C14.686 250.953 14.7454 251.111 14.8643 251.236C14.9901 251.355 15.1438 251.453 15.3255 251.53C15.5142 251.6 15.7728 251.68 16.1013 251.771C16.5137 251.883 16.8491 251.995 17.1077 252.107C17.3663 252.211 17.5865 252.372 17.7682 252.589C17.9569 252.805 18.0548 253.089 18.0617 253.438C18.0617 253.752 17.9744 254.036 17.7997 254.287C17.6249 254.539 17.3768 254.738 17.0553 254.885C16.7408 255.024 16.3774 255.094 15.965 255.094ZM20.6036 250.041V253.427C20.6036 253.707 20.663 253.906 20.7818 254.025C20.9006 254.137 21.1068 254.193 21.4003 254.193H22.1027V255H21.2431C20.7119 255 20.3135 254.878 20.048 254.633C19.7824 254.388 19.6496 253.987 19.6496 253.427V250.041H18.9053V249.255H19.6496V247.808H20.6036V249.255H22.1027V250.041H20.6036ZM23.7828 248.322C23.6011 248.322 23.4473 248.259 23.3215 248.133C23.1957 248.007 23.1328 247.854 23.1328 247.672C23.1328 247.49 23.1957 247.337 23.3215 247.211C23.4473 247.085 23.6011 247.022 23.7828 247.022C23.9575 247.022 24.1043 247.085 24.2231 247.211C24.3489 247.337 24.4118 247.49 24.4118 247.672C24.4118 247.854 24.3489 248.007 24.2231 248.133C24.1043 248.259 23.9575 248.322 23.7828 248.322ZM24.2441 249.255V255H23.2901V249.255H24.2441ZM28.7006 249.15C29.3995 249.15 29.9656 249.363 30.3989 249.79C30.8322 250.209 31.0489 250.817 31.0489 251.614V255H30.1053V251.75C30.1053 251.177 29.9621 250.74 29.6755 250.44C29.389 250.132 28.9976 249.978 28.5014 249.978C27.9982 249.978 27.5963 250.136 27.2958 250.45C27.0022 250.765 26.8555 251.222 26.8555 251.823V255H25.9015V249.255H26.8555V250.073C27.0442 249.779 27.2993 249.552 27.6208 249.391C27.9492 249.231 28.3092 249.15 28.7006 249.15ZM35.008 249.161C35.5042 249.161 35.9375 249.269 36.3079 249.486C36.6853 249.702 36.9649 249.975 37.1466 250.303V249.255H38.1111V255.126C38.1111 255.65 37.9993 256.115 37.7756 256.52C37.552 256.932 37.2305 257.254 36.8111 257.485C36.3988 257.715 35.9165 257.831 35.3644 257.831C34.6096 257.831 33.9806 257.652 33.4774 257.296C32.9741 256.939 32.6771 256.454 32.5863 255.839H33.5298C33.6346 256.188 33.8513 256.468 34.1798 256.677C34.5082 256.894 34.9031 257.002 35.3644 257.002C35.8886 257.002 36.3149 256.838 36.6434 256.51C36.9789 256.181 37.1466 255.72 37.1466 255.126V253.92C36.9579 254.256 36.6783 254.535 36.3079 254.759C35.9375 254.983 35.5042 255.094 35.008 255.094C34.4978 255.094 34.033 254.969 33.6136 254.717C33.2013 254.465 32.8763 254.112 32.6387 253.658C32.401 253.204 32.2822 252.687 32.2822 252.107C32.2822 251.519 32.401 251.006 32.6387 250.565C32.8763 250.118 33.2013 249.772 33.6136 249.528C34.033 249.283 34.4978 249.161 35.008 249.161ZM37.1466 252.117C37.1466 251.684 37.0592 251.306 36.8845 250.985C36.7098 250.663 36.4722 250.419 36.1716 250.251C35.8781 250.076 35.5531 249.989 35.1967 249.989C34.8402 249.989 34.5152 250.073 34.2217 250.24C33.9281 250.408 33.694 250.653 33.5193 250.974C33.3446 251.296 33.2572 251.673 33.2572 252.107C33.2572 252.547 33.3446 252.931 33.5193 253.26C33.694 253.581 33.9281 253.829 34.2217 254.004C34.5152 254.172 34.8402 254.256 35.1967 254.256C35.5531 254.256 35.8781 254.172 36.1716 254.004C36.4722 253.829 36.7098 253.581 36.8845 253.26C37.0592 252.931 37.1466 252.55 37.1466 252.117ZM43.5351 247.242V255H42.5811V247.242H43.5351ZM47.698 255.094C47.1599 255.094 46.6706 254.972 46.2303 254.727C45.797 254.483 45.4545 254.137 45.2029 253.69C44.9583 253.235 44.836 252.711 44.836 252.117C44.836 251.53 44.9618 251.013 45.2134 250.565C45.472 250.111 45.8215 249.765 46.2618 249.528C46.7021 249.283 47.1948 249.161 47.74 249.161C48.2851 249.161 48.7778 249.283 49.2181 249.528C49.6584 249.765 50.0044 250.108 50.256 250.555C50.5146 251.002 50.6439 251.523 50.6439 252.117C50.6439 252.711 50.5111 253.235 50.2455 253.69C49.9869 254.137 49.634 254.483 49.1867 254.727C48.7394 254.972 48.2432 255.094 47.698 255.094ZM47.698 254.256C48.0405 254.256 48.362 254.175 48.6625 254.015C48.963 253.854 49.2042 253.613 49.3859 253.291C49.5746 252.97 49.6689 252.578 49.6689 252.117C49.6689 251.656 49.5781 251.264 49.3964 250.943C49.2146 250.621 48.977 250.384 48.6835 250.23C48.3899 250.069 48.0719 249.989 47.7295 249.989C47.38 249.989 47.0585 250.069 46.765 250.23C46.4784 250.384 46.2478 250.621 46.0731 250.943C45.8983 251.264 45.811 251.656 45.811 252.117C45.811 252.585 45.8949 252.98 46.0626 253.302C46.2373 253.623 46.468 253.864 46.7545 254.025C47.0411 254.179 47.3556 254.256 47.698 254.256ZM54.299 249.161C54.7952 249.161 55.2285 249.269 55.5989 249.486C55.9763 249.702 56.2559 249.975 56.4376 250.303V249.255H57.4021V255.126C57.4021 255.65 57.2903 256.115 57.0666 256.52C56.843 256.932 56.5215 257.254 56.1021 257.485C55.6898 257.715 55.2075 257.831 54.6554 257.831C53.9006 257.831 53.2716 257.652 52.7684 257.296C52.2652 256.939 51.9681 256.454 51.8773 255.839H52.8208C52.9256 256.188 53.1423 256.468 53.4708 256.677C53.7992 256.894 54.1941 257.002 54.6554 257.002C55.1796 257.002 55.6059 256.838 55.9344 256.51C56.2699 256.181 56.4376 255.72 56.4376 255.126V253.92C56.2489 254.256 55.9693 254.535 55.5989 254.759C55.2285 254.983 54.7952 255.094 54.299 255.094C53.7888 255.094 53.324 254.969 52.9046 254.717C52.4923 254.465 52.1673 254.112 51.9297 253.658C51.6921 253.204 51.5732 252.687 51.5732 252.107C51.5732 251.519 51.6921 251.006 51.9297 250.565C52.1673 250.118 52.4923 249.772 52.9046 249.528C53.324 249.283 53.7888 249.161 54.299 249.161ZM56.4376 252.117C56.4376 251.684 56.3502 251.306 56.1755 250.985C56.0008 250.663 55.7632 250.419 55.4626 250.251C55.1691 250.076 54.8441 249.989 54.4877 249.989C54.1312 249.989 53.8062 250.073 53.5127 250.24C53.2192 250.408 52.985 250.653 52.8103 250.974C52.6356 251.296 52.5482 251.673 52.5482 252.107C52.5482 252.547 52.6356 252.931 52.8103 253.26C52.985 253.581 53.2192 253.829 53.5127 254.004C53.8062 254.172 54.1312 254.256 54.4877 254.256C54.8441 254.256 55.1691 254.172 55.4626 254.004C55.7632 253.829 56.0008 253.581 56.1755 253.26C56.3502 252.931 56.4376 252.55 56.4376 252.117ZM61.0795 255.094C60.6392 255.094 60.2443 255.021 59.8949 254.874C59.5454 254.72 59.2694 254.511 59.0667 254.245C58.864 253.973 58.7522 253.662 58.7312 253.312H59.7166C59.7446 253.599 59.8774 253.833 60.115 254.015C60.3596 254.196 60.6776 254.287 61.069 254.287C61.4325 254.287 61.719 254.207 61.9287 254.046C62.1383 253.885 62.2432 253.683 62.2432 253.438C62.2432 253.186 62.1314 253.001 61.9077 252.882C61.6841 252.757 61.3381 252.634 60.8698 252.515C60.4435 252.404 60.0941 252.292 59.8215 252.18C59.5559 252.061 59.3253 251.89 59.1296 251.666C58.9409 251.436 58.8465 251.135 58.8465 250.765C58.8465 250.471 58.9339 250.202 59.1086 249.957C59.2833 249.713 59.5314 249.521 59.8529 249.381C60.1744 249.234 60.5414 249.161 60.9537 249.161C61.5897 249.161 62.1034 249.321 62.4948 249.643C62.8862 249.964 63.0958 250.405 63.1238 250.964H62.1698C62.1488 250.663 62.0265 250.422 61.8029 250.24C61.5862 250.059 61.2927 249.968 60.9223 249.968C60.5798 249.968 60.3072 250.041 60.1045 250.188C59.9019 250.335 59.8005 250.527 59.8005 250.765C59.8005 250.953 59.8599 251.111 59.9787 251.236C60.1045 251.355 60.2583 251.453 60.44 251.53C60.6287 251.6 60.8873 251.68 61.2158 251.771C61.6281 251.883 61.9636 251.995 62.2222 252.107C62.4808 252.211 62.701 252.372 62.8827 252.589C63.0714 252.805 63.1692 253.089 63.1762 253.438C63.1762 253.752 63.0889 254.036 62.9141 254.287C62.7394 254.539 62.4913 254.738 62.1698 254.885C61.8553 255.024 61.4919 255.094 61.0795 255.094Z" fill="#666666"/>
<path d="M346.243 255.073C345.761 255.073 345.328 254.99 344.943 254.822C344.566 254.647 344.269 254.409 344.052 254.109C343.836 253.801 343.724 253.448 343.717 253.05H344.734C344.769 253.393 344.908 253.683 345.153 253.92C345.405 254.151 345.768 254.266 346.243 254.266C346.698 254.266 347.054 254.154 347.313 253.931C347.578 253.7 347.711 253.407 347.711 253.05C347.711 252.771 347.634 252.543 347.48 252.369C347.327 252.194 347.134 252.061 346.904 251.97C346.673 251.879 346.362 251.782 345.971 251.677C345.489 251.551 345.101 251.425 344.807 251.299C344.521 251.174 344.272 250.978 344.063 250.712C343.86 250.44 343.759 250.076 343.759 249.622C343.759 249.224 343.86 248.871 344.063 248.563C344.266 248.256 344.549 248.018 344.912 247.85C345.282 247.682 345.705 247.599 346.18 247.599C346.865 247.599 347.425 247.77 347.858 248.112C348.298 248.455 348.546 248.909 348.602 249.475H347.554C347.519 249.196 347.372 248.951 347.114 248.741C346.855 248.525 346.512 248.416 346.086 248.416C345.688 248.416 345.363 248.521 345.111 248.731C344.86 248.934 344.734 249.22 344.734 249.59C344.734 249.856 344.807 250.073 344.954 250.24C345.108 250.408 345.293 250.538 345.51 250.628C345.733 250.712 346.044 250.81 346.443 250.922C346.925 251.055 347.313 251.187 347.606 251.32C347.9 251.446 348.151 251.645 348.361 251.918C348.571 252.183 348.676 252.547 348.676 253.008C348.676 253.365 348.581 253.7 348.393 254.015C348.204 254.329 347.924 254.584 347.554 254.78C347.183 254.976 346.747 255.073 346.243 255.073ZM349.754 252.117C349.754 251.523 349.873 251.006 350.111 250.565C350.349 250.118 350.677 249.772 351.096 249.528C351.523 249.283 352.008 249.161 352.554 249.161C353.259 249.161 353.84 249.332 354.294 249.674C354.755 250.017 355.059 250.492 355.206 251.1H354.179C354.081 250.751 353.888 250.475 353.602 250.272C353.322 250.069 352.973 249.968 352.554 249.968C352.008 249.968 351.568 250.157 351.233 250.534C350.897 250.904 350.729 251.432 350.729 252.117C350.729 252.809 350.897 253.344 351.233 253.721C351.568 254.098 352.008 254.287 352.554 254.287C352.973 254.287 353.322 254.189 353.602 253.994C353.881 253.798 354.074 253.518 354.179 253.155H355.206C355.052 253.742 354.745 254.214 354.283 254.57C353.822 254.92 353.245 255.094 352.554 255.094C352.008 255.094 351.523 254.972 351.096 254.727C350.677 254.483 350.349 254.137 350.111 253.69C349.873 253.242 349.754 252.718 349.754 252.117ZM359.362 249.15C359.795 249.15 360.187 249.245 360.536 249.433C360.885 249.615 361.158 249.891 361.354 250.261C361.556 250.632 361.658 251.083 361.658 251.614V255H360.714V251.75C360.714 251.177 360.571 250.74 360.284 250.44C359.998 250.132 359.606 249.978 359.11 249.978C358.607 249.978 358.205 250.136 357.905 250.45C357.611 250.765 357.464 251.222 357.464 251.823V255H356.51V247.242H357.464V250.073C357.653 249.779 357.912 249.552 358.24 249.391C358.576 249.231 358.949 249.15 359.362 249.15ZM368.489 251.907C368.489 252.089 368.479 252.281 368.458 252.484H363.866C363.901 253.05 364.093 253.494 364.443 253.815C364.799 254.13 365.229 254.287 365.732 254.287C366.144 254.287 366.487 254.193 366.759 254.004C367.039 253.808 367.235 253.55 367.347 253.228H368.374C368.22 253.78 367.913 254.231 367.451 254.581C366.99 254.923 366.417 255.094 365.732 255.094C365.187 255.094 364.698 254.972 364.264 254.727C363.838 254.483 363.503 254.137 363.258 253.69C363.013 253.235 362.891 252.711 362.891 252.117C362.891 251.523 363.01 251.002 363.248 250.555C363.485 250.108 363.817 249.765 364.243 249.528C364.677 249.283 365.173 249.161 365.732 249.161C366.277 249.161 366.759 249.279 367.179 249.517C367.598 249.755 367.92 250.083 368.143 250.503C368.374 250.915 368.489 251.383 368.489 251.907ZM367.504 251.708C367.504 251.345 367.423 251.034 367.263 250.775C367.102 250.51 366.882 250.31 366.602 250.178C366.33 250.038 366.026 249.968 365.69 249.968C365.208 249.968 364.796 250.122 364.453 250.429C364.118 250.737 363.925 251.163 363.877 251.708H367.504ZM369.424 252.107C369.424 251.519 369.542 251.006 369.78 250.565C370.018 250.118 370.343 249.772 370.755 249.528C371.174 249.283 371.643 249.161 372.16 249.161C372.607 249.161 373.023 249.266 373.407 249.475C373.792 249.678 374.085 249.947 374.288 250.282V247.242H375.252V255H374.288V253.92C374.099 254.263 373.82 254.546 373.449 254.769C373.079 254.986 372.645 255.094 372.149 255.094C371.639 255.094 371.174 254.969 370.755 254.717C370.343 254.465 370.018 254.112 369.78 253.658C369.542 253.204 369.424 252.687 369.424 252.107ZM374.288 252.117C374.288 251.684 374.201 251.306 374.026 250.985C373.851 250.663 373.613 250.419 373.313 250.251C373.019 250.076 372.694 249.989 372.338 249.989C371.982 249.989 371.657 250.073 371.363 250.24C371.069 250.408 370.835 250.653 370.661 250.974C370.486 251.296 370.399 251.673 370.399 252.107C370.399 252.547 370.486 252.931 370.661 253.26C370.835 253.581 371.069 253.829 371.363 254.004C371.657 254.172 371.982 254.256 372.338 254.256C372.694 254.256 373.019 254.172 373.313 254.004C373.613 253.829 373.851 253.581 374.026 253.26C374.201 252.931 374.288 252.55 374.288 252.117ZM381.991 249.255V255H381.037V254.151C380.855 254.444 380.6 254.675 380.272 254.843C379.95 255.003 379.594 255.084 379.202 255.084C378.755 255.084 378.353 254.993 377.997 254.811C377.64 254.623 377.357 254.343 377.148 253.973C376.945 253.602 376.844 253.151 376.844 252.62V249.255H377.787V252.494C377.787 253.061 377.93 253.497 378.217 253.805C378.503 254.105 378.895 254.256 379.391 254.256C379.901 254.256 380.303 254.098 380.597 253.784C380.89 253.469 381.037 253.012 381.037 252.411V249.255H381.991ZM384.587 247.242V255H383.633V247.242H384.587ZM391.486 251.907C391.486 252.089 391.476 252.281 391.455 252.484H386.863C386.898 253.05 387.09 253.494 387.44 253.815C387.796 254.13 388.226 254.287 388.729 254.287C389.142 254.287 389.484 254.193 389.757 254.004C390.036 253.808 390.232 253.55 390.344 253.228H391.371C391.217 253.78 390.91 254.231 390.449 254.581C389.987 254.923 389.414 255.094 388.729 255.094C388.184 255.094 387.695 254.972 387.262 254.727C386.835 254.483 386.5 254.137 386.255 253.69C386.01 253.235 385.888 252.711 385.888 252.117C385.888 251.523 386.007 251.002 386.245 250.555C386.482 250.108 386.814 249.765 387.241 249.528C387.674 249.283 388.17 249.161 388.729 249.161C389.274 249.161 389.757 249.279 390.176 249.517C390.595 249.755 390.917 250.083 391.14 250.503C391.371 250.915 391.486 251.383 391.486 251.907ZM390.501 251.708C390.501 251.345 390.421 251.034 390.26 250.775C390.099 250.51 389.879 250.31 389.599 250.178C389.327 250.038 389.023 249.968 388.687 249.968C388.205 249.968 387.793 250.122 387.45 250.429C387.115 250.737 386.923 251.163 386.874 251.708H390.501ZM393.731 250.188C393.899 249.86 394.136 249.604 394.444 249.423C394.758 249.241 395.139 249.15 395.587 249.15V250.136H395.335C394.266 250.136 393.731 250.716 393.731 251.876V255H392.777V249.255H393.731V250.188Z" fill="#666666"/>
<path d="M158.481 6.34125C158.481 5.62837 158.642 4.98887 158.963 4.42276C159.285 3.84966 159.721 3.40237 160.274 3.08087C160.833 2.75938 161.451 2.59863 162.129 2.59863C162.926 2.59863 163.621 2.79083 164.215 3.17522C164.809 3.55962 165.243 4.10476 165.515 4.81065H164.373C164.17 4.37034 163.876 4.03138 163.492 3.79375C163.115 3.55612 162.66 3.43731 162.129 3.43731C161.619 3.43731 161.161 3.55612 160.756 3.79375C160.35 4.03138 160.032 4.37034 159.802 4.81065C159.571 5.24397 159.456 5.75417 159.456 6.34125C159.456 6.92134 159.571 7.43154 159.802 7.87184C160.032 8.30516 160.35 8.64064 160.756 8.87826C161.161 9.11589 161.619 9.2347 162.129 9.2347C162.66 9.2347 163.115 9.11938 163.492 8.88875C163.876 8.65112 164.17 8.31215 164.373 7.87184H165.515C165.243 8.57075 164.809 9.11239 164.215 9.49679C163.621 9.8742 162.926 10.0629 162.129 10.0629C161.451 10.0629 160.833 9.90565 160.274 9.59114C159.721 9.26965 159.285 8.82584 158.963 8.25973C158.642 7.69362 158.481 7.05413 158.481 6.34125ZM169.472 10.0944C168.934 10.0944 168.445 9.97204 168.005 9.72743C167.571 9.48281 167.229 9.13686 166.977 8.68956C166.733 8.23527 166.61 7.7111 166.61 7.11703C166.61 6.52995 166.736 6.01276 166.988 5.56547C167.246 5.11118 167.596 4.76522 168.036 4.5276C168.477 4.28298 168.969 4.16067 169.514 4.16067C170.06 4.16067 170.552 4.28298 170.993 4.5276C171.433 4.76522 171.779 5.10769 172.03 5.55498C172.289 6.00228 172.418 6.52296 172.418 7.11703C172.418 7.7111 172.286 8.23527 172.02 8.68956C171.761 9.13686 171.408 9.48281 170.961 9.72743C170.514 9.97204 170.018 10.0944 169.472 10.0944ZM169.472 9.25567C169.815 9.25567 170.136 9.1753 170.437 9.01455C170.737 8.8538 170.979 8.61268 171.16 8.29118C171.349 7.96969 171.443 7.5783 171.443 7.11703C171.443 6.65575 171.353 6.26437 171.171 5.94287C170.989 5.62138 170.751 5.38375 170.458 5.22999C170.164 5.06925 169.846 4.98887 169.504 4.98887C169.154 4.98887 168.833 5.06925 168.539 5.22999C168.253 5.38375 168.022 5.62138 167.848 5.94287C167.673 6.26437 167.585 6.65575 167.585 7.11703C167.585 7.58529 167.669 7.98017 167.837 8.30167C168.012 8.62316 168.242 8.86428 168.529 9.02503C168.816 9.17879 169.13 9.25567 169.472 9.25567ZM176.503 4.15019C177.202 4.15019 177.768 4.36336 178.202 4.78969C178.635 5.20903 178.852 5.81707 178.852 6.61382V10H177.908V6.75011C177.908 6.17701 177.765 5.74019 177.478 5.43966C177.192 5.13215 176.8 4.97839 176.304 4.97839C175.801 4.97839 175.399 5.13564 175.098 5.45015C174.805 5.76465 174.658 6.22243 174.658 6.82349V10H173.704V4.25503H174.658V5.07274C174.847 4.7792 175.102 4.55206 175.423 4.39131C175.752 4.23056 176.112 4.15019 176.503 4.15019ZM181.605 5.04129V8.42747C181.605 8.70703 181.664 8.90622 181.783 9.02503C181.902 9.13686 182.108 9.19277 182.402 9.19277H183.104V10H182.245C181.713 10 181.315 9.87769 181.049 9.63308C180.784 9.38846 180.651 8.98659 180.651 8.42747V5.04129H179.907V4.25503H180.651V2.8083H181.605V4.25503H183.104V5.04129H181.605ZM189.533 6.90736C189.533 7.08907 189.523 7.28127 189.502 7.48395H184.91C184.945 8.05006 185.137 8.49387 185.487 8.81536C185.843 9.12987 186.273 9.28712 186.776 9.28712C187.188 9.28712 187.531 9.19277 187.804 9.00406C188.083 8.80837 188.279 8.54978 188.391 8.22828H189.418C189.264 8.78042 188.957 9.23121 188.495 9.58066C188.034 9.92312 187.461 10.0944 186.776 10.0944C186.231 10.0944 185.742 9.97204 185.308 9.72743C184.882 9.48281 184.547 9.13686 184.302 8.68956C184.057 8.23527 183.935 7.7111 183.935 7.11703C183.935 6.52296 184.054 6.00228 184.292 5.55498C184.529 5.10769 184.861 4.76522 185.287 4.5276C185.721 4.28298 186.217 4.16067 186.776 4.16067C187.321 4.16067 187.804 4.27949 188.223 4.51711C188.642 4.75474 188.964 5.08322 189.187 5.50257C189.418 5.91492 189.533 6.38318 189.533 6.90736ZM188.548 6.70817C188.548 6.34474 188.467 6.03373 188.307 5.77514C188.146 5.50955 187.926 5.31037 187.646 5.17758C187.374 5.0378 187.07 4.96791 186.734 4.96791C186.252 4.96791 185.84 5.12166 185.497 5.42918C185.162 5.7367 184.969 6.16303 184.921 6.70817H188.548ZM193.623 4.15019C194.322 4.15019 194.888 4.36336 195.321 4.78969C195.755 5.20903 195.971 5.81707 195.971 6.61382V10H195.028V6.75011C195.028 6.17701 194.885 5.74019 194.598 5.43966C194.312 5.13215 193.92 4.97839 193.424 4.97839C192.921 4.97839 192.519 5.13564 192.218 5.45015C191.925 5.76465 191.778 6.22243 191.778 6.82349V10H190.824V4.25503H191.778V5.07274C191.967 4.7792 192.222 4.55206 192.543 4.39131C192.872 4.23056 193.232 4.15019 193.623 4.15019ZM198.725 5.04129V8.42747C198.725 8.70703 198.784 8.90622 198.903 9.02503C199.022 9.13686 199.228 9.19277 199.522 9.19277H200.224V10H199.364C198.833 10 198.435 9.87769 198.169 9.63308C197.904 9.38846 197.771 8.98659 197.771 8.42747V5.04129H197.027V4.25503H197.771V2.8083H198.725V4.25503H200.224V5.04129H198.725ZM203.881 7.11703C203.881 6.52296 204 6.00578 204.238 5.56547C204.475 5.11817 204.804 4.77221 205.223 4.5276C205.65 4.28298 206.135 4.16067 206.68 4.16067C207.386 4.16067 207.966 4.3319 208.421 4.67437C208.882 5.01683 209.186 5.49208 209.333 6.10013H208.305C208.208 5.75068 208.015 5.47461 207.729 5.27193C207.449 5.06925 207.1 4.96791 206.68 4.96791C206.135 4.96791 205.695 5.15661 205.359 5.53402C205.024 5.90443 204.856 6.43211 204.856 7.11703C204.856 7.80894 205.024 8.3436 205.359 8.72101C205.695 9.09842 206.135 9.28712 206.68 9.28712C207.1 9.28712 207.449 9.18927 207.729 8.99358C208.008 8.79789 208.201 8.51833 208.305 8.1549H209.333C209.179 8.74198 208.871 9.21374 208.41 9.57018C207.949 9.91963 207.372 10.0944 206.68 10.0944C206.135 10.0944 205.65 9.97204 205.223 9.72743C204.804 9.48281 204.475 9.13686 204.238 8.68956C204 8.24226 203.881 7.71809 203.881 7.11703ZM210.281 7.10655C210.281 6.51947 210.399 6.00578 210.637 5.56547C210.875 5.11817 211.2 4.77221 211.612 4.5276C212.031 4.28298 212.496 4.16067 213.006 4.16067C213.51 4.16067 213.946 4.269 214.317 4.48566C214.687 4.70232 214.963 4.97489 215.145 5.30338V4.25503H216.11V10H215.145V8.93068C214.956 9.26615 214.673 9.54571 214.296 9.76936C213.925 9.98602 213.492 10.0944 212.996 10.0944C212.486 10.0944 212.024 9.96855 211.612 9.71694C211.2 9.46534 210.875 9.11239 210.637 8.65811C210.399 8.20382 210.281 7.68663 210.281 7.10655ZM215.145 7.11703C215.145 6.68371 215.058 6.3063 214.883 5.98481C214.708 5.66331 214.471 5.4187 214.17 5.25096C213.877 5.07624 213.552 4.98887 213.195 4.98887C212.839 4.98887 212.514 5.07274 212.22 5.24048C211.927 5.40821 211.692 5.65283 211.518 5.97432C211.343 6.29582 211.256 6.67323 211.256 7.10655C211.256 7.54685 211.343 7.93125 211.518 8.25973C211.692 8.58123 211.927 8.82934 212.22 9.00406C212.514 9.1718 212.839 9.25567 213.195 9.25567C213.552 9.25567 213.877 9.1718 214.17 9.00406C214.471 8.82934 214.708 8.58123 214.883 8.25973C215.058 7.93125 215.145 7.55035 215.145 7.11703ZM218.707 2.24219V10H217.753V2.24219H218.707ZM225.606 6.90736C225.606 7.08907 225.596 7.28127 225.575 7.48395H220.983C221.018 8.05006 221.21 8.49387 221.56 8.81536C221.916 9.12987 222.346 9.28712 222.849 9.28712C223.261 9.28712 223.604 9.19277 223.877 9.00406C224.156 8.80837 224.352 8.54978 224.464 8.22828H225.491C225.337 8.78042 225.03 9.23121 224.568 9.58066C224.107 9.92312 223.534 10.0944 222.849 10.0944C222.304 10.0944 221.815 9.97204 221.381 9.72743C220.955 9.48281 220.62 9.13686 220.375 8.68956C220.13 8.23527 220.008 7.7111 220.008 7.11703C220.008 6.52296 220.127 6.00228 220.365 5.55498C220.602 5.10769 220.934 4.76522 221.36 4.5276C221.794 4.28298 222.29 4.16067 222.849 4.16067C223.394 4.16067 223.877 4.27949 224.296 4.51711C224.715 4.75474 225.037 5.08322 225.26 5.50257C225.491 5.91492 225.606 6.38318 225.606 6.90736ZM224.621 6.70817C224.621 6.34474 224.54 6.03373 224.38 5.77514C224.219 5.50955 223.999 5.31037 223.719 5.17758C223.447 5.0378 223.143 4.96791 222.807 4.96791C222.325 4.96791 221.913 5.12166 221.57 5.42918C221.235 5.7367 221.042 6.16303 220.994 6.70817H224.621ZM229.696 4.15019C230.395 4.15019 230.961 4.36336 231.394 4.78969C231.828 5.20903 232.044 5.81707 232.044 6.61382V10H231.101V6.75011C231.101 6.17701 230.958 5.74019 230.671 5.43966C230.385 5.13215 229.993 4.97839 229.497 4.97839C228.994 4.97839 228.592 5.13564 228.291 5.45015C227.998 5.76465 227.851 6.22243 227.851 6.82349V10H226.897V4.25503H227.851V5.07274C228.04 4.7792 228.295 4.55206 228.616 4.39131C228.945 4.23056 229.305 4.15019 229.696 4.15019ZM233.278 7.10655C233.278 6.51947 233.397 6.00578 233.634 5.56547C233.872 5.11817 234.197 4.77221 234.609 4.5276C235.029 4.28298 235.497 4.16067 236.014 4.16067C236.461 4.16067 236.877 4.26551 237.262 4.47518C237.646 4.67786 237.939 4.94694 238.142 5.28241V2.24219H239.107V10H238.142V8.9202C237.953 9.26266 237.674 9.54571 237.303 9.76936C236.933 9.98602 236.5 10.0944 236.003 10.0944C235.493 10.0944 235.029 9.96855 234.609 9.71694C234.197 9.46534 233.872 9.11239 233.634 8.65811C233.397 8.20382 233.278 7.68663 233.278 7.10655ZM238.142 7.11703C238.142 6.68371 238.055 6.3063 237.88 5.98481C237.705 5.66331 237.468 5.4187 237.167 5.25096C236.874 5.07624 236.549 4.98887 236.192 4.98887C235.836 4.98887 235.511 5.07274 235.217 5.24048C234.924 5.40821 234.69 5.65283 234.515 5.97432C234.34 6.29582 234.253 6.67323 234.253 7.10655C234.253 7.54685 234.34 7.93125 234.515 8.25973C234.69 8.58123 234.924 8.82934 235.217 9.00406C235.511 9.1718 235.836 9.25567 236.192 9.25567C236.549 9.25567 236.874 9.1718 237.167 9.00406C237.468 8.82934 237.705 8.58123 237.88 8.25973C238.055 7.93125 238.142 7.55035 238.142 7.11703ZM240.394 7.10655C240.394 6.51947 240.513 6.00578 240.75 5.56547C240.988 5.11817 241.313 4.77221 241.725 4.5276C242.145 4.28298 242.609 4.16067 243.12 4.16067C243.623 4.16067 244.06 4.269 244.43 4.48566C244.8 4.70232 245.076 4.97489 245.258 5.30338V4.25503H246.223V10H245.258V8.93068C245.069 9.26615 244.786 9.54571 244.409 9.76936C244.039 9.98602 243.605 10.0944 243.109 10.0944C242.599 10.0944 242.138 9.96855 241.725 9.71694C241.313 9.46534 240.988 9.11239 240.75 8.65811C240.513 8.20382 240.394 7.68663 240.394 7.10655ZM245.258 7.11703C245.258 6.68371 245.171 6.3063 244.996 5.98481C244.821 5.66331 244.584 5.4187 244.283 5.25096C243.99 5.07624 243.665 4.98887 243.308 4.98887C242.952 4.98887 242.627 5.07274 242.333 5.24048C242.04 5.40821 241.806 5.65283 241.631 5.97432C241.456 6.29582 241.369 6.67323 241.369 7.10655C241.369 7.54685 241.456 7.93125 241.631 8.25973C241.806 8.58123 242.04 8.82934 242.333 9.00406C242.627 9.1718 242.952 9.25567 243.308 9.25567C243.665 9.25567 243.99 9.1718 244.283 9.00406C244.584 8.82934 244.821 8.58123 244.996 8.25973C245.171 7.93125 245.258 7.55035 245.258 7.11703ZM248.82 5.18806C248.988 4.85958 249.226 4.60448 249.533 4.42276C249.848 4.24105 250.229 4.15019 250.676 4.15019V5.13564H250.424C249.355 5.13564 248.82 5.71573 248.82 6.87591V10H247.866V4.25503H248.82V5.18806Z" fill="#666666"/>
</svg>
