<svg width="60" height="60" viewBox="0 0 60 60" fill="none" xmlns="http://www.w3.org/2000/svg"> <rect x="0.46875" y="0.46875" width="59.0625" height="59.0625" rx="18.2812" stroke="#7243D5" stroke-width="0.9375"/> <rect x="3" y="3" width="54" height="54" rx="18.75" fill="#7243D5"/> <path d="M36.9102 15C36.9058 15 36.9014 15 36.8971 15C36.8429 15.0021 36.789 15.0079 36.7357 15.0175H16.1601C16.0072 15.0169 15.8557 15.0465 15.7144 15.1047C15.5732 15.1628 15.4448 15.2483 15.337 15.3562C15.2291 15.4641 15.1437 15.5923 15.0859 15.7332C15.0281 15.8742 14.9989 16.0252 15 16.1775V40.3859C15 42.9197 17.0759 45 19.6141 45H40.3816C40.4593 44.999 40.5368 44.9903 40.6127 44.9738C40.6156 44.9738 40.6185 44.9738 40.6214 44.9738C41.7994 44.9115 42.909 44.4013 43.723 43.5475C44.537 42.6938 44.9938 41.5612 45 40.3816V31.1622C45.0011 31.0103 44.9721 30.8597 44.9145 30.719C44.857 30.5783 44.772 30.4503 44.6646 30.3425C44.5572 30.2346 44.4294 30.1491 44.2886 30.0907C44.1478 30.0323 43.9968 30.0022 43.8443 30.0022H38.0789V16.1775C38.0824 16.0234 38.0549 15.8702 37.9978 15.7269C37.9408 15.5836 37.8554 15.4531 37.7468 15.3433C37.6382 15.2335 37.5086 15.1465 37.3656 15.0876C37.2227 15.0286 37.0649 14.9988 36.9102 15ZM20.7741 21.9342H32.3005C32.6082 21.9342 32.9032 22.0559 33.1208 22.2727C33.3383 22.4894 33.4605 22.7834 33.4605 23.0899C33.4605 23.3964 33.3383 23.6903 33.1208 23.9071C32.9032 24.1238 32.6082 24.2455 32.3005 24.2455H20.7741C20.4664 24.2455 20.1714 24.1238 19.9538 23.9071C19.7363 23.6903 19.6141 23.3964 19.6141 23.0899C19.6141 22.7834 19.7363 22.4894 19.9538 22.2727C20.1714 22.0559 20.4664 21.9342 20.7741 21.9342ZM20.7741 26.5482H32.3005C32.6082 26.5482 32.9032 26.67 33.1208 26.8867C33.3383 27.1034 33.4605 27.3974 33.4605 27.7039C33.4605 28.0104 33.3383 28.3044 33.1208 28.5211C32.9032 28.7378 32.6082 28.8596 32.3005 28.8596H20.7741C20.4664 28.8596 20.1714 28.7378 19.9538 28.5211C19.7363 28.3044 19.6141 28.0104 19.6141 27.7039C19.6141 27.3974 19.7363 27.1034 19.9538 26.8867C20.1714 26.67 20.4664 26.5482 20.7741 26.5482ZM20.7698 31.1622C20.7683 31.1622 20.7712 31.1622 20.7698 31.1622H32.3005C32.607 31.1622 32.9009 31.284 33.1177 31.5007C33.3344 31.7175 33.4562 32.0114 33.4562 32.3179C33.4562 32.6244 33.3344 32.9184 33.1177 33.1351C32.9009 33.3519 32.607 33.4736 32.3005 33.4736H20.7741C20.4676 33.4892 20.1675 33.3824 19.9397 33.1768C19.7119 32.9711 19.5752 32.6833 19.5596 32.3768C19.5439 32.0703 19.6507 31.7701 19.8564 31.5424C20.0621 31.3146 20.3499 31.1779 20.6564 31.1622C20.6941 31.1604 20.732 31.1604 20.7698 31.1622ZM38.0789 32.3136H42.693V40.3903C42.693 41.6899 41.6812 42.7017 40.3816 42.7017C40.0775 42.7052 39.7757 42.6478 39.4942 42.5328C39.2127 42.4177 38.957 42.2475 38.7424 42.032C38.5277 41.8166 38.3584 41.5603 38.2445 41.2783C38.1305 40.9963 38.0742 40.6944 38.0789 40.3903V32.3136ZM20.7698 35.7763C20.7683 35.7763 20.7712 35.7763 20.7698 35.7763H32.3005C32.6082 35.7763 32.9032 35.898 33.1208 36.1148C33.3383 36.3315 33.4605 36.6255 33.4605 36.932C33.4605 37.2385 33.3383 37.5324 33.1208 37.7492C32.9032 37.9659 32.6082 38.0877 32.3005 38.0877H20.7741C20.4676 38.1033 20.1675 37.9965 19.9397 37.7908C19.7119 37.5851 19.5752 37.2973 19.5596 36.9908C19.5439 36.6843 19.6507 36.3842 19.8564 36.1564C20.0621 35.9286 20.3499 35.7919 20.6564 35.7763C20.6941 35.7744 20.732 35.7744 20.7698 35.7763Z" fill="white"/> </svg>