<svg width="60" height="60" viewBox="0 0 60 60" fill="none" xmlns="http://www.w3.org/2000/svg"> <rect x="0.46875" y="0.46875" width="59.0625" height="59.0625" rx="18.2812" stroke="#DD504E" stroke-width="0.9375"/> <rect x="3" y="3" width="54" height="54" rx="18.75" fill="#DD504E"/> <path d="M33.885 15.885C33.315 15.315 32.55 15 31.755 15H21C19.35 15 18 16.35 18 18V42C18 43.65 19.335 45 20.985 45H39C40.65 45 42 43.65 42 42V25.245C42 24.45 41.685 23.685 41.115 23.13L33.885 15.885ZM34.5 39H25.5C24.675 39 24 38.325 24 37.5C24 36.675 24.675 36 25.5 36H34.5C35.325 36 36 36.675 36 37.5C36 38.325 35.325 39 34.5 39ZM34.5 33H25.5C24.675 33 24 32.325 24 31.5C24 30.675 24.675 30 25.5 30H34.5C35.325 30 36 30.675 36 31.5C36 32.325 35.325 33 34.5 33ZM31.5 24V17.25L39.75 25.5H33C32.175 25.5 31.5 24.825 31.5 24Z" fill="white"/> </svg>