<svg width="52" height="52" viewBox="0 0 52 52" fill="none" xmlns="http://www.w3.org/2000/svg"> <rect width="52" height="52" rx="18.75" fill="#5ABA87"/> <path d="M35.4375 21.1875C32.8125 21.1875 30.75 22.6875 30.5625 22.875L32.8125 25.875C32.8125 25.875 34.125 24.9375 35.4375 24.9375C38.0625 24.9375 38.25 27.1875 38.25 27.9375C37.5 27.75 36.1875 27.375 34.5 27.75C31.875 28.3125 29.25 31.5 30.5625 35.0625C31.875 38.4375 36.375 39 38.25 36.1875V38.0625H42V28.125C42 23.0625 38.4375 21.1875 35.4375 21.1875ZM33.5625 33.375C33.375 29.8125 36.375 29.8125 38.25 30V31.875C38.25 34.125 33.9375 36.1875 33.5625 33.375ZM24.9375 38.25H28.875L22.875 15.75H17.8125L12 38.25H15.9375L17.8125 30.75H22.875L24.9375 38.25ZM18.75 27L20.25 21L21.9375 27H18.75Z" fill="white"/> </svg>