<svg width="639" height="432" viewBox="0 0 639 432" fill="none" xmlns="http://www.w3.org/2000/svg">
<rect width="639" height="432" fill="white"/>
<line x1="639" y1="222.5" y2="222.5" stroke="#034737" stroke-dasharray="6 6"/>
<path d="M206 222.5L201 219.613V225.387L206 222.5ZM196.912 222H190.853V223H196.912V222ZM184.794 222H178.735V223H184.794V222ZM172.676 222H166.618V223H172.676V222ZM160.559 222H154.5V223H160.559V222ZM148.441 222H142.382V223H148.441V222ZM136.324 222H130.265V223H136.324V222ZM124.206 222H118.147V223H124.206V222ZM112.088 222H106.029V223H112.088V222ZM99.9706 222H93.9118V223H99.9706V222ZM87.853 222H81.7941V223H87.853V222ZM75.7353 222H69.6765V223H75.7353V222ZM63.6177 222H57.5588V223H63.6177V222ZM51.5 222H45.4412V223H51.5V222ZM39.3824 222H33.3235V223H39.3824V222ZM27.2647 222H21.2059V223H27.2647V222ZM15.1471 222H9.08826V223H15.1471V222ZM3.02943 222H0V223H3.02943V222Z" fill="#034737"/>
<path d="M604 222.5L599 219.613V225.387L604 222.5ZM594.912 222H588.853V223H594.912V222ZM582.794 222H576.735V223H582.794V222ZM570.676 222H564.618V223H570.676V222ZM558.559 222H552.5V223H558.559V222ZM546.441 222H540.382V223H546.441V222ZM534.324 222H528.265V223H534.324V222ZM522.206 222H516.147V223H522.206V222ZM510.088 222H504.029V223H510.088V222ZM497.971 222H491.912V223H497.971V222ZM485.853 222H479.794V223H485.853V222ZM473.735 222H467.676V223H473.735V222ZM461.618 222H455.559V223H461.618V222ZM449.5 222H443.441V223H449.5V222ZM437.382 222H431.324V223H437.382V222ZM425.265 222H419.206V223H425.265V222ZM413.147 222H407.088V223H413.147V222ZM401.029 222H398V223H401.029V222Z" fill="#034737"/>
<path d="M204 141L206.518 146.196L209.758 141.418L204 141ZM210.907 146.289L215.699 149.539L216.26 148.711L211.468 145.461L210.907 146.289ZM220.49 152.789L225.282 156.039L225.843 155.211L221.051 151.961L220.49 152.789ZM230.074 159.289L234.865 162.539L235.426 161.711L230.635 158.461L230.074 159.289ZM239.657 165.789L244.449 169.039L245.01 168.211L240.218 164.961L239.657 165.789ZM249.24 172.289L254.032 175.539L254.593 174.711L249.801 171.461L249.24 172.289ZM258.824 178.789L263.615 182.039L264.177 181.211L259.385 177.961L258.824 178.789ZM268.407 185.289L273.199 188.539L273.76 187.711L268.968 184.461L268.407 185.289ZM277.99 191.789L282.782 195.039L283.343 194.211L278.552 190.961L277.99 191.789ZM287.574 198.289L292.365 201.539L292.927 200.711L288.135 197.461L287.574 198.289ZM297.157 204.789L301.949 208.039L302.51 207.211L297.718 203.961L297.157 204.789ZM306.74 211.289L311.532 214.539L312.093 213.711L307.302 210.461L306.74 211.289ZM316.324 217.789L318.719 219.414L319.281 218.586L316.885 216.961L316.324 217.789Z" fill="#034737"/>
<path d="M434.41 141L428.652 141.418L431.893 146.196L434.41 141ZM319.281 219.699L321.685 218.068L321.124 217.241L318.719 218.872L319.281 219.699ZM326.494 214.807L331.303 211.545L330.741 210.717L325.932 213.979L326.494 214.807ZM336.111 208.283L340.92 205.021L340.359 204.193L335.55 207.455L336.111 208.283ZM345.729 201.759L350.538 198.497L349.976 197.67L345.167 200.931L345.729 201.759ZM355.346 195.235L360.155 191.973L359.594 191.146L354.785 194.408L355.346 195.235ZM364.964 188.711L369.773 185.45L369.211 184.622L364.403 187.884L364.964 188.711ZM374.581 182.188L379.39 178.926L378.829 178.098L374.02 181.36L374.581 182.188ZM384.199 175.664L389.008 172.402L388.446 171.574L383.638 174.836L384.199 175.664ZM393.816 169.14L398.625 165.878L398.064 165.051L393.255 168.312L393.816 169.14ZM403.434 162.616L408.243 159.354L407.681 158.527L402.873 161.789L403.434 162.616ZM413.051 156.092L417.86 152.831L417.299 152.003L412.49 155.265L413.051 156.092ZM422.669 149.569L427.478 146.307L426.916 145.479L422.108 148.741L422.669 149.569Z" fill="#034737"/>
<path d="M204 141L206.518 146.196L209.758 141.418L204 141ZM210.907 146.289L215.699 149.539L216.26 148.711L211.468 145.461L210.907 146.289ZM220.49 152.789L225.282 156.039L225.843 155.211L221.051 151.961L220.49 152.789ZM230.074 159.289L234.865 162.539L235.426 161.711L230.635 158.461L230.074 159.289ZM239.657 165.789L244.449 169.039L245.01 168.211L240.218 164.961L239.657 165.789ZM249.24 172.289L254.032 175.539L254.593 174.711L249.801 171.461L249.24 172.289ZM258.824 178.789L263.615 182.039L264.177 181.211L259.385 177.961L258.824 178.789ZM268.407 185.289L273.199 188.539L273.76 187.711L268.968 184.461L268.407 185.289ZM277.99 191.789L282.782 195.039L283.343 194.211L278.552 190.961L277.99 191.789ZM287.574 198.289L292.365 201.539L292.927 200.711L288.135 197.461L287.574 198.289ZM297.157 204.789L301.949 208.039L302.51 207.211L297.718 203.961L297.157 204.789ZM306.74 211.289L311.532 214.539L312.093 213.711L307.302 210.461L306.74 211.289ZM316.324 217.789L318.719 219.414L319.281 218.586L316.885 216.961L316.324 217.789Z" fill="#034737"/>
<path d="M434.41 141L428.652 141.418L431.893 146.196L434.41 141ZM319.281 219.699L321.685 218.068L321.124 217.241L318.719 218.872L319.281 219.699ZM326.494 214.807L331.303 211.545L330.741 210.717L325.932 213.979L326.494 214.807ZM336.111 208.283L340.92 205.021L340.359 204.193L335.55 207.455L336.111 208.283ZM345.729 201.759L350.538 198.497L349.976 197.67L345.167 200.931L345.729 201.759ZM355.346 195.235L360.155 191.973L359.594 191.146L354.785 194.408L355.346 195.235ZM364.964 188.711L369.773 185.45L369.211 184.622L364.403 187.884L364.964 188.711ZM374.581 182.188L379.39 178.926L378.829 178.098L374.02 181.36L374.581 182.188ZM384.199 175.664L389.008 172.402L388.446 171.574L383.638 174.836L384.199 175.664ZM393.816 169.14L398.625 165.878L398.064 165.051L393.255 168.312L393.816 169.14ZM403.434 162.616L408.243 159.354L407.681 158.527L402.873 161.789L403.434 162.616ZM413.051 156.092L417.86 152.831L417.299 152.003L412.49 155.265L413.051 156.092ZM422.669 149.569L427.478 146.307L426.916 145.479L422.108 148.741L422.669 149.569Z" fill="#034737"/>
<path d="M204 295L206.523 289.894L209.838 294.621L204 295ZM211.554 289.447L216.781 286.018L217.355 286.837L212.128 290.266L211.554 289.447ZM222.008 282.589L227.236 279.16L227.81 279.979L222.583 283.408L222.008 282.589ZM232.463 275.731L237.69 272.302L238.264 273.121L233.037 276.55L232.463 275.731ZM242.917 268.873L248.145 265.444L248.719 266.263L243.492 269.692L242.917 268.873ZM253.372 262.015L258.599 258.586L259.173 259.405L253.946 262.834L253.372 262.015ZM263.827 255.157L269.054 251.728L269.628 252.547L264.401 255.976L263.827 255.157ZM274.281 248.299L279.508 244.87L280.083 245.689L274.855 249.118L274.281 248.299ZM284.736 241.441L289.963 238.012L290.537 238.831L285.31 242.26L284.736 241.441ZM295.19 234.583L300.417 231.154L300.992 231.973L295.764 235.402L295.19 234.583ZM305.645 227.725L310.872 224.296L311.446 225.115L306.219 228.544L305.645 227.725ZM316.099 220.867L318.713 219.153L319.287 219.971L316.673 221.686L316.099 220.867Z" fill="#034737"/>
<path d="M434.41 295L428.572 294.621L431.887 289.894L434.41 295ZM319.287 218.876L321.691 220.454L321.117 221.272L318.713 219.695L319.287 218.876ZM326.5 223.608L331.309 226.763L330.735 227.582L325.926 224.427L326.5 223.608ZM336.118 229.918L340.927 233.073L340.352 233.891L335.544 230.737L336.118 229.918ZM345.735 236.227L350.544 239.382L349.97 240.201L345.161 237.046L345.735 236.227ZM355.353 242.537L360.162 245.692L359.587 246.51L354.779 243.356L355.353 242.537ZM364.97 248.847L369.779 252.001L369.205 252.82L364.396 249.665L364.97 248.847ZM374.588 255.156L379.397 258.311L378.822 259.13L374.014 255.975L374.588 255.156ZM384.205 261.466L389.014 264.62L388.44 265.439L383.631 262.284L384.205 261.466ZM393.823 267.775L398.632 270.93L398.057 271.749L393.249 268.594L393.823 267.775ZM403.44 274.085L408.249 277.239L407.675 278.058L402.866 274.903L403.44 274.085ZM413.058 280.394L417.867 283.549L417.292 284.368L412.484 281.213L413.058 280.394ZM422.675 286.704L427.484 289.858L426.91 290.677L422.101 287.522L422.675 286.704Z" fill="#034737"/>
<rect x="109" y="295" width="90" height="90" rx="20" fill="#034737"/>
<path d="M153.573 358.75H139.417C137.115 358.75 135.25 356.884 135.25 354.583V329.583C135.25 327.282 137.115 325.417 139.417 325.417H164.417C166.718 325.417 168.583 327.282 168.583 329.583V337.917" stroke="white" stroke-width="2.70833" stroke-linecap="round" stroke-linejoin="round"/>
<path d="M166.5 344.167V352.5H174.833" stroke="white" stroke-width="2.70833" stroke-linecap="round" stroke-linejoin="round"/>
<circle cx="166.501" cy="352.5" r="8.33333" stroke="white" stroke-width="2.70833" stroke-linecap="round" stroke-linejoin="round"/>
<path d="M160.249 321.25V329.583" stroke="white" stroke-width="2.70833" stroke-linecap="round" stroke-linejoin="round"/>
<path d="M143.585 321.25V329.583" stroke="white" stroke-width="2.70833" stroke-linecap="round" stroke-linejoin="round"/>
<path d="M135.25 337.917H168.583" stroke="white" stroke-width="2.70833" stroke-linecap="round" stroke-linejoin="round"/>
<rect x="433" y="295" width="90" height="90" rx="20" fill="#034737"/>
<path d="M483.001 361.014C482.982 361.014 482.965 361.025 482.945 361.025H466.539C466.155 361.025 465.786 360.872 465.514 360.6C465.242 360.328 465.089 359.96 465.089 359.575C465.089 359.191 465.242 358.822 465.514 358.55C465.786 358.278 466.155 358.125 466.539 358.125H482.903L482.945 358.117C485.932 358.117 488.853 357.24 491.345 355.594C493.837 353.948 495.791 351.606 496.963 348.859C498.135 346.112 498.475 343.082 497.939 340.143C497.404 337.205 496.016 334.489 493.95 332.333C491.884 330.176 489.229 328.674 486.317 328.014C483.404 327.353 480.362 327.563 477.567 328.617C474.773 329.672 472.35 331.524 470.599 333.943C468.848 336.363 467.847 339.244 467.72 342.228C467.698 342.608 467.528 342.964 467.246 343.219C466.963 343.475 466.592 343.609 466.212 343.593C465.831 343.577 465.472 343.412 465.213 343.134C464.953 342.856 464.813 342.486 464.823 342.106C464.986 338.065 466.5 334.196 469.121 331.117L468.251 330.247C468.112 330.113 468.002 329.953 467.926 329.776C467.85 329.6 467.81 329.409 467.808 329.217C467.806 329.024 467.843 328.833 467.916 328.655C467.989 328.477 468.097 328.315 468.233 328.179C468.369 328.043 468.531 327.935 468.709 327.862C468.887 327.789 469.078 327.753 469.271 327.754C469.463 327.756 469.653 327.796 469.83 327.872C470.007 327.948 470.167 328.058 470.301 328.197L471.178 329.073C473.4 327.177 476.047 325.845 478.894 325.191C481.74 324.537 484.703 324.579 487.53 325.316C490.357 326.052 492.964 327.46 495.129 329.42C497.295 331.38 498.956 333.834 499.97 336.574C500.984 339.313 501.321 342.257 500.954 345.155C500.586 348.053 499.524 350.819 497.858 353.218C496.192 355.618 493.971 357.579 491.385 358.936C488.798 360.293 485.922 361.007 483.001 361.014ZM489.624 336.205C489.352 335.933 488.984 335.781 488.599 335.781C488.215 335.781 487.846 335.933 487.574 336.205L483.373 340.406C483.233 340.364 483.09 340.335 482.945 340.319C482.438 340.319 481.942 340.47 481.52 340.751C481.099 341.033 480.77 341.434 480.576 341.902C480.382 342.371 480.331 342.887 480.43 343.384C480.529 343.881 480.773 344.338 481.132 344.697C481.49 345.056 481.947 345.3 482.445 345.399C482.942 345.498 483.458 345.447 483.927 345.253C484.395 345.059 484.796 344.73 485.077 344.308C485.359 343.886 485.51 343.39 485.51 342.883C485.493 342.738 485.464 342.595 485.423 342.456L489.624 338.254C489.896 337.982 490.048 337.614 490.048 337.23C490.048 336.846 489.896 336.477 489.624 336.205ZM480.589 321.875H485.303C485.687 321.875 486.056 321.722 486.328 321.45C486.6 321.178 486.753 320.81 486.753 320.425C486.753 320.041 486.6 319.672 486.328 319.4C486.056 319.128 485.687 318.975 485.303 318.975H480.589C480.204 318.975 479.835 319.128 479.563 319.4C479.292 319.672 479.139 320.041 479.139 320.425C479.139 320.81 479.292 321.178 479.563 321.45C479.835 321.722 480.204 321.875 480.589 321.875ZM479.552 353.775C479.552 353.391 479.4 353.022 479.128 352.75C478.856 352.478 478.487 352.325 478.102 352.325H460.055C459.67 352.325 459.302 352.478 459.03 352.75C458.758 353.022 458.605 353.391 458.605 353.775C458.605 354.16 458.758 354.528 459.03 354.8C459.302 355.072 459.67 355.225 460.055 355.225H478.102C478.487 355.225 478.856 355.072 479.128 354.8C479.4 354.528 479.552 354.16 479.552 353.775ZM480.124 347.975C480.124 347.591 479.971 347.222 479.7 346.95C479.428 346.678 479.059 346.525 478.674 346.525H456.352C455.968 346.525 455.599 346.678 455.327 346.95C455.055 347.222 454.902 347.591 454.902 347.975C454.902 348.36 455.055 348.728 455.327 349C455.599 349.272 455.968 349.425 456.352 349.425H478.674C479.059 349.425 479.428 349.272 479.7 349C479.971 348.728 480.124 348.36 480.124 347.975Z" fill="white"/>
<rect x="437" y="53" width="90" height="90" rx="20" fill="#034737"/>
<path d="M502.313 111.155L497.892 115.576L497.892 108.945C497.892 100.4 490.964 93.4725 482.419 93.4725C473.874 93.4725 466.947 100.4 466.947 108.945L466.947 115.576L462.526 111.155" stroke="white" stroke-width="2.16667" stroke-linecap="round" stroke-linejoin="round"/>
<path d="M483.506 78C483.506 77.4017 483.021 76.9167 482.423 76.9167C481.825 76.9167 481.34 77.4017 481.34 78L483.506 78ZM482.423 117.787L481.34 117.787C481.34 118.225 481.604 118.62 482.008 118.787C482.413 118.955 482.879 118.862 483.189 118.553L482.423 117.787ZM487.61 114.132C488.033 113.709 488.033 113.023 487.61 112.6C487.187 112.177 486.501 112.177 486.078 112.6L487.61 114.132ZM478.767 112.6C478.344 112.177 477.658 112.177 477.235 112.6C476.812 113.023 476.812 113.709 477.235 114.132L478.767 112.6ZM481.656 118.553C482.079 118.976 482.765 118.976 483.188 118.553C483.611 118.13 483.611 117.444 483.188 117.021L481.656 118.553ZM481.34 78L481.34 117.787L483.506 117.787L483.506 78L481.34 78ZM483.189 118.553L487.61 114.132L486.078 112.6L481.657 117.021L483.189 118.553ZM477.235 114.132L481.656 118.553L483.188 117.021L478.767 112.6L477.235 114.132Z" fill="white"/>
<path d="M446.432 30.242L443.604 40H442.176L439.908 32.146L437.556 40L436.142 40.014L433.412 30.242H434.77L436.898 38.516L439.25 30.242H440.678L442.918 38.488L445.06 30.242H446.432ZM454.868 35.87C454.868 36.1127 454.854 36.3693 454.826 36.64H448.694C448.741 37.396 448.998 37.9887 449.464 38.418C449.94 38.838 450.514 39.048 451.186 39.048C451.737 39.048 452.194 38.922 452.558 38.67C452.932 38.4087 453.193 38.0633 453.342 37.634H454.714C454.509 38.3713 454.098 38.9733 453.482 39.44C452.866 39.8973 452.101 40.126 451.186 40.126C450.458 40.126 449.805 39.9627 449.226 39.636C448.657 39.3093 448.209 38.8473 447.882 38.25C447.556 37.6433 447.392 36.9433 447.392 36.15C447.392 35.3567 447.551 34.6613 447.868 34.064C448.186 33.4667 448.629 33.0093 449.198 32.692C449.777 32.3653 450.44 32.202 451.186 32.202C451.914 32.202 452.558 32.3607 453.118 32.678C453.678 32.9953 454.108 33.434 454.406 33.994C454.714 34.5447 454.868 35.17 454.868 35.87ZM453.552 35.604C453.552 35.1187 453.445 34.7033 453.23 34.358C453.016 34.0033 452.722 33.7373 452.348 33.56C451.984 33.3733 451.578 33.28 451.13 33.28C450.486 33.28 449.936 33.4853 449.478 33.896C449.03 34.3067 448.774 34.876 448.708 35.604H453.552ZM457.866 33.756C458.127 33.2987 458.51 32.9253 459.014 32.636C459.518 32.3467 460.092 32.202 460.736 32.202C461.427 32.202 462.047 32.3653 462.598 32.692C463.149 33.0187 463.583 33.4807 463.9 34.078C464.217 34.666 464.376 35.352 464.376 36.136C464.376 36.9107 464.217 37.6013 463.9 38.208C463.583 38.8147 463.144 39.286 462.584 39.622C462.033 39.958 461.417 40.126 460.736 40.126C460.073 40.126 459.49 39.9813 458.986 39.692C458.491 39.4027 458.118 39.034 457.866 38.586V40H456.592V29.64H457.866V33.756ZM463.074 36.136C463.074 35.5573 462.957 35.0533 462.724 34.624C462.491 34.1947 462.173 33.868 461.772 33.644C461.38 33.42 460.946 33.308 460.47 33.308C460.003 33.308 459.569 33.4247 459.168 33.658C458.776 33.882 458.459 34.2133 458.216 34.652C457.983 35.0813 457.866 35.5807 457.866 36.15C457.866 36.7287 457.983 37.2373 458.216 37.676C458.459 38.1053 458.776 38.4367 459.168 38.67C459.569 38.894 460.003 39.006 460.47 39.006C460.946 39.006 461.38 38.894 461.772 38.67C462.173 38.4367 462.491 38.1053 462.724 37.676C462.957 37.2373 463.074 36.724 463.074 36.136ZM472.585 40.126C471.997 40.126 471.47 40.028 471.003 39.832C470.537 39.6267 470.168 39.3467 469.897 38.992C469.627 38.628 469.477 38.2127 469.449 37.746H470.765C470.803 38.1287 470.98 38.4413 471.297 38.684C471.624 38.9267 472.049 39.048 472.571 39.048C473.057 39.048 473.439 38.9407 473.719 38.726C473.999 38.5113 474.139 38.2407 474.139 37.914C474.139 37.578 473.99 37.3307 473.691 37.172C473.393 37.004 472.931 36.8407 472.305 36.682C471.736 36.5327 471.269 36.3833 470.905 36.234C470.551 36.0753 470.243 35.8467 469.981 35.548C469.729 35.24 469.603 34.8387 469.603 34.344C469.603 33.952 469.72 33.5927 469.953 33.266C470.187 32.9393 470.518 32.6827 470.947 32.496C471.377 32.3 471.867 32.202 472.417 32.202C473.267 32.202 473.953 32.4167 474.475 32.846C474.998 33.2753 475.278 33.8633 475.315 34.61H474.041C474.013 34.2087 473.85 33.8867 473.551 33.644C473.262 33.4013 472.87 33.28 472.375 33.28C471.918 33.28 471.554 33.378 471.283 33.574C471.013 33.77 470.877 34.0267 470.877 34.344C470.877 34.596 470.957 34.806 471.115 34.974C471.283 35.1327 471.489 35.2633 471.731 35.366C471.983 35.4593 472.329 35.5667 472.767 35.688C473.318 35.8373 473.766 35.9867 474.111 36.136C474.457 36.276 474.751 36.4907 474.993 36.78C475.245 37.0693 475.376 37.4473 475.385 37.914C475.385 38.334 475.269 38.712 475.035 39.048C474.802 39.384 474.471 39.65 474.041 39.846C473.621 40.0327 473.136 40.126 472.585 40.126ZM476.75 36.15C476.75 35.3567 476.909 34.666 477.226 34.078C477.543 33.4807 477.982 33.0187 478.542 32.692C479.111 32.3653 479.76 32.202 480.488 32.202C481.431 32.202 482.205 32.4307 482.812 32.888C483.428 33.3453 483.834 33.98 484.03 34.792H482.658C482.527 34.3253 482.271 33.9567 481.888 33.686C481.515 33.4153 481.048 33.28 480.488 33.28C479.76 33.28 479.172 33.532 478.724 34.036C478.276 34.5307 478.052 35.2353 478.052 36.15C478.052 37.074 478.276 37.788 478.724 38.292C479.172 38.796 479.76 39.048 480.488 39.048C481.048 39.048 481.515 38.9173 481.888 38.656C482.261 38.3947 482.518 38.0213 482.658 37.536H484.03C483.825 38.32 483.414 38.95 482.798 39.426C482.182 39.8927 481.412 40.126 480.488 40.126C479.76 40.126 479.111 39.9627 478.542 39.636C477.982 39.3093 477.543 38.8473 477.226 38.25C476.909 37.6527 476.75 36.9527 476.75 36.15ZM487.046 33.574C487.27 33.1353 487.587 32.7947 487.998 32.552C488.418 32.3093 488.927 32.188 489.524 32.188V33.504H489.188C487.76 33.504 487.046 34.2787 487.046 35.828V40H485.772V32.328H487.046V33.574ZM490.561 36.136C490.561 35.352 490.719 34.666 491.037 34.078C491.354 33.4807 491.788 33.0187 492.339 32.692C492.899 32.3653 493.519 32.202 494.201 32.202C494.873 32.202 495.456 32.3467 495.951 32.636C496.445 32.9253 496.814 33.2893 497.057 33.728V32.328H498.345V40H497.057V38.572C496.805 39.02 496.427 39.3933 495.923 39.692C495.428 39.9813 494.849 40.126 494.187 40.126C493.505 40.126 492.889 39.958 492.339 39.622C491.788 39.286 491.354 38.8147 491.037 38.208C490.719 37.6013 490.561 36.9107 490.561 36.136ZM497.057 36.15C497.057 35.5713 496.94 35.0673 496.707 34.638C496.473 34.2087 496.156 33.882 495.755 33.658C495.363 33.4247 494.929 33.308 494.453 33.308C493.977 33.308 493.543 33.42 493.151 33.644C492.759 33.868 492.446 34.1947 492.213 34.624C491.979 35.0533 491.863 35.5573 491.863 36.136C491.863 36.724 491.979 37.2373 492.213 37.676C492.446 38.1053 492.759 38.4367 493.151 38.67C493.543 38.894 493.977 39.006 494.453 39.006C494.929 39.006 495.363 38.894 495.755 38.67C496.156 38.4367 496.473 38.1053 496.707 37.676C496.94 37.2373 497.057 36.7287 497.057 36.15ZM501.813 33.742C502.065 33.3033 502.439 32.9393 502.933 32.65C503.437 32.3513 504.021 32.202 504.683 32.202C505.365 32.202 505.981 32.3653 506.531 32.692C507.091 33.0187 507.53 33.4807 507.847 34.078C508.165 34.666 508.323 35.352 508.323 36.136C508.323 36.9107 508.165 37.6013 507.847 38.208C507.53 38.8147 507.091 39.286 506.531 39.622C505.981 39.958 505.365 40.126 504.683 40.126C504.03 40.126 503.451 39.9813 502.947 39.692C502.453 39.3933 502.075 39.0247 501.813 38.586V43.64H500.539V32.328H501.813V33.742ZM507.021 36.136C507.021 35.5573 506.905 35.0533 506.671 34.624C506.438 34.1947 506.121 33.868 505.719 33.644C505.327 33.42 504.893 33.308 504.417 33.308C503.951 33.308 503.517 33.4247 503.115 33.658C502.723 33.882 502.406 34.2133 502.163 34.652C501.93 35.0813 501.813 35.5807 501.813 36.15C501.813 36.7287 501.93 37.2373 502.163 37.676C502.406 38.1053 502.723 38.4367 503.115 38.67C503.517 38.894 503.951 39.006 504.417 39.006C504.893 39.006 505.327 38.894 505.719 38.67C506.121 38.4367 506.438 38.1053 506.671 37.676C506.905 37.2373 507.021 36.724 507.021 36.136ZM510.7 31.082C510.458 31.082 510.252 30.998 510.084 30.83C509.916 30.662 509.832 30.4567 509.832 30.214C509.832 29.9713 509.916 29.766 510.084 29.598C510.252 29.43 510.458 29.346 510.7 29.346C510.934 29.346 511.13 29.43 511.288 29.598C511.456 29.766 511.54 29.9713 511.54 30.214C511.54 30.4567 511.456 30.662 511.288 30.83C511.13 30.998 510.934 31.082 510.7 31.082ZM511.316 32.328V40H510.042V32.328H511.316ZM517.268 32.188C518.201 32.188 518.957 32.4727 519.536 33.042C520.114 33.602 520.404 34.414 520.404 35.478V40H519.144V35.66C519.144 34.8947 518.952 34.3113 518.57 33.91C518.187 33.4993 517.664 33.294 517.002 33.294C516.33 33.294 515.793 33.504 515.392 33.924C515 34.344 514.804 34.9553 514.804 35.758V40H513.53V32.328H514.804V33.42C515.056 33.028 515.396 32.7247 515.826 32.51C516.264 32.2953 516.745 32.188 517.268 32.188ZM525.691 32.202C526.353 32.202 526.932 32.3467 527.427 32.636C527.931 32.9253 528.304 33.2893 528.547 33.728V32.328H529.835V40.168C529.835 40.868 529.685 41.4887 529.387 42.03C529.088 42.5807 528.659 43.01 528.099 43.318C527.548 43.626 526.904 43.78 526.167 43.78C525.159 43.78 524.319 43.542 523.647 43.066C522.975 42.59 522.578 41.9413 522.457 41.12H523.717C523.857 41.5867 524.146 41.96 524.585 42.24C525.023 42.5293 525.551 42.674 526.167 42.674C526.867 42.674 527.436 42.4547 527.875 42.016C528.323 41.5773 528.547 40.9613 528.547 40.168V38.558C528.295 39.006 527.921 39.3793 527.427 39.678C526.932 39.9767 526.353 40.126 525.691 40.126C525.009 40.126 524.389 39.958 523.829 39.622C523.278 39.286 522.844 38.8147 522.527 38.208C522.209 37.6013 522.051 36.9107 522.051 36.136C522.051 35.352 522.209 34.666 522.527 34.078C522.844 33.4807 523.278 33.0187 523.829 32.692C524.389 32.3653 525.009 32.202 525.691 32.202ZM528.547 36.15C528.547 35.5713 528.43 35.0673 528.197 34.638C527.963 34.2087 527.646 33.882 527.245 33.658C526.853 33.4247 526.419 33.308 525.943 33.308C525.467 33.308 525.033 33.42 524.641 33.644C524.249 33.868 523.936 34.1947 523.703 34.624C523.469 35.0533 523.353 35.5573 523.353 36.136C523.353 36.724 523.469 37.2373 523.703 37.676C523.936 38.1053 524.249 38.4367 524.641 38.67C525.033 38.894 525.467 39.006 525.943 39.006C526.419 39.006 526.853 38.894 527.245 38.67C527.646 38.4367 527.963 38.1053 528.197 37.676C528.43 37.2373 528.547 36.7287 528.547 36.15Z" fill="#666666"/>
<path d="M439.369 407.848L437.423 405.902C436.947 406.033 436.461 406.098 435.967 406.098C435.061 406.098 434.235 405.888 433.489 405.468C432.742 405.039 432.149 404.446 431.711 403.69C431.281 402.925 431.067 402.066 431.067 401.114C431.067 400.162 431.281 399.308 431.711 398.552C432.149 397.787 432.742 397.194 433.489 396.774C434.235 396.345 435.061 396.13 435.967 396.13C436.881 396.13 437.712 396.345 438.459 396.774C439.205 397.194 439.793 397.782 440.223 398.538C440.652 399.294 440.867 400.153 440.867 401.114C440.867 402.047 440.661 402.887 440.251 403.634C439.84 404.381 439.275 404.969 438.557 405.398L441.021 407.848H439.369ZM432.369 401.114C432.369 401.889 432.523 402.57 432.831 403.158C433.148 403.746 433.577 404.199 434.119 404.516C434.669 404.833 435.285 404.992 435.967 404.992C436.648 404.992 437.259 404.833 437.801 404.516C438.351 404.199 438.781 403.746 439.089 403.158C439.406 402.57 439.565 401.889 439.565 401.114C439.565 400.33 439.406 399.649 439.089 399.07C438.781 398.482 438.356 398.029 437.815 397.712C437.273 397.395 436.657 397.236 435.967 397.236C435.276 397.236 434.66 397.395 434.119 397.712C433.577 398.029 433.148 398.482 432.831 399.07C432.523 399.649 432.369 400.33 432.369 401.114ZM449.422 398.328V406H448.148V404.866C447.905 405.258 447.565 405.566 447.126 405.79C446.697 406.005 446.221 406.112 445.698 406.112C445.101 406.112 444.564 405.991 444.088 405.748C443.612 405.496 443.234 405.123 442.954 404.628C442.683 404.133 442.548 403.531 442.548 402.822V398.328H443.808V402.654C443.808 403.41 443.999 403.993 444.382 404.404C444.765 404.805 445.287 405.006 445.95 405.006C446.631 405.006 447.168 404.796 447.56 404.376C447.952 403.956 448.148 403.345 448.148 402.542V398.328H449.422ZM452.273 397.082C452.03 397.082 451.825 396.998 451.657 396.83C451.489 396.662 451.405 396.457 451.405 396.214C451.405 395.971 451.489 395.766 451.657 395.598C451.825 395.43 452.03 395.346 452.273 395.346C452.506 395.346 452.702 395.43 452.861 395.598C453.029 395.766 453.113 395.971 453.113 396.214C453.113 396.457 453.029 396.662 452.861 396.83C452.702 396.998 452.506 397.082 452.273 397.082ZM452.889 398.328V406H451.615V398.328H452.889ZM454.626 402.15C454.626 401.357 454.785 400.666 455.102 400.078C455.42 399.481 455.858 399.019 456.418 398.692C456.988 398.365 457.636 398.202 458.364 398.202C459.307 398.202 460.082 398.431 460.688 398.888C461.304 399.345 461.71 399.98 461.906 400.792H460.534C460.404 400.325 460.147 399.957 459.764 399.686C459.391 399.415 458.924 399.28 458.364 399.28C457.636 399.28 457.048 399.532 456.6 400.036C456.152 400.531 455.928 401.235 455.928 402.15C455.928 403.074 456.152 403.788 456.6 404.292C457.048 404.796 457.636 405.048 458.364 405.048C458.924 405.048 459.391 404.917 459.764 404.656C460.138 404.395 460.394 404.021 460.534 403.536H461.906C461.701 404.32 461.29 404.95 460.674 405.426C460.058 405.893 459.288 406.126 458.364 406.126C457.636 406.126 456.988 405.963 456.418 405.636C455.858 405.309 455.42 404.847 455.102 404.25C454.785 403.653 454.626 402.953 454.626 402.15ZM467.932 406L464.922 402.612V406H463.648V395.64H464.922V401.73L467.876 398.328H469.654L466.042 402.15L469.668 406H467.932ZM475.944 399.742C476.196 399.303 476.569 398.939 477.064 398.65C477.568 398.351 478.151 398.202 478.814 398.202C479.495 398.202 480.111 398.365 480.662 398.692C481.222 399.019 481.66 399.481 481.978 400.078C482.295 400.666 482.454 401.352 482.454 402.136C482.454 402.911 482.295 403.601 481.978 404.208C481.66 404.815 481.222 405.286 480.662 405.622C480.111 405.958 479.495 406.126 478.814 406.126C478.16 406.126 477.582 405.981 477.078 405.692C476.583 405.393 476.205 405.025 475.944 404.586V409.64H474.67V398.328H475.944V399.742ZM481.152 402.136C481.152 401.557 481.035 401.053 480.802 400.624C480.568 400.195 480.251 399.868 479.85 399.644C479.458 399.42 479.024 399.308 478.548 399.308C478.081 399.308 477.647 399.425 477.246 399.658C476.854 399.882 476.536 400.213 476.294 400.652C476.06 401.081 475.944 401.581 475.944 402.15C475.944 402.729 476.06 403.237 476.294 403.676C476.536 404.105 476.854 404.437 477.246 404.67C477.647 404.894 478.081 405.006 478.548 405.006C479.024 405.006 479.458 404.894 479.85 404.67C480.251 404.437 480.568 404.105 480.802 403.676C481.035 403.237 481.152 402.724 481.152 402.136ZM487.519 406.126C486.8 406.126 486.147 405.963 485.559 405.636C484.98 405.309 484.523 404.847 484.187 404.25C483.86 403.643 483.697 402.943 483.697 402.15C483.697 401.366 483.865 400.675 484.201 400.078C484.546 399.471 485.013 399.009 485.601 398.692C486.189 398.365 486.847 398.202 487.575 398.202C488.303 398.202 488.961 398.365 489.549 398.692C490.137 399.009 490.599 399.467 490.935 400.064C491.28 400.661 491.453 401.357 491.453 402.15C491.453 402.943 491.275 403.643 490.921 404.25C490.575 404.847 490.104 405.309 489.507 405.636C488.909 405.963 488.247 406.126 487.519 406.126ZM487.519 405.006C487.976 405.006 488.405 404.899 488.807 404.684C489.208 404.469 489.53 404.147 489.773 403.718C490.025 403.289 490.151 402.766 490.151 402.15C490.151 401.534 490.029 401.011 489.787 400.582C489.544 400.153 489.227 399.835 488.835 399.63C488.443 399.415 488.018 399.308 487.561 399.308C487.094 399.308 486.665 399.415 486.273 399.63C485.89 399.835 485.582 400.153 485.349 400.582C485.115 401.011 484.999 401.534 484.999 402.15C484.999 402.775 485.111 403.303 485.335 403.732C485.568 404.161 485.876 404.483 486.259 404.698C486.641 404.903 487.061 405.006 487.519 405.006ZM495.886 406.126C495.298 406.126 494.77 406.028 494.304 405.832C493.837 405.627 493.468 405.347 493.198 404.992C492.927 404.628 492.778 404.213 492.75 403.746H494.066C494.103 404.129 494.28 404.441 494.598 404.684C494.924 404.927 495.349 405.048 495.872 405.048C496.357 405.048 496.74 404.941 497.02 404.726C497.3 404.511 497.44 404.241 497.44 403.914C497.44 403.578 497.29 403.331 496.992 403.172C496.693 403.004 496.231 402.841 495.606 402.682C495.036 402.533 494.57 402.383 494.206 402.234C493.851 402.075 493.543 401.847 493.282 401.548C493.03 401.24 492.904 400.839 492.904 400.344C492.904 399.952 493.02 399.593 493.254 399.266C493.487 398.939 493.818 398.683 494.248 398.496C494.677 398.3 495.167 398.202 495.718 398.202C496.567 398.202 497.253 398.417 497.776 398.846C498.298 399.275 498.578 399.863 498.616 400.61H497.342C497.314 400.209 497.15 399.887 496.852 399.644C496.562 399.401 496.17 399.28 495.676 399.28C495.218 399.28 494.854 399.378 494.584 399.574C494.313 399.77 494.178 400.027 494.178 400.344C494.178 400.596 494.257 400.806 494.416 400.974C494.584 401.133 494.789 401.263 495.032 401.366C495.284 401.459 495.629 401.567 496.068 401.688C496.618 401.837 497.066 401.987 497.412 402.136C497.757 402.276 498.051 402.491 498.294 402.78C498.546 403.069 498.676 403.447 498.686 403.914C498.686 404.334 498.569 404.712 498.336 405.048C498.102 405.384 497.771 405.65 497.342 405.846C496.922 406.033 496.436 406.126 495.886 406.126ZM502.08 399.378V403.9C502.08 404.273 502.16 404.539 502.318 404.698C502.477 404.847 502.752 404.922 503.144 404.922H504.082V406H502.934C502.225 406 501.693 405.837 501.338 405.51C500.984 405.183 500.806 404.647 500.806 403.9V399.378H499.812V398.328H500.806V396.396H502.08V398.328H504.082V399.378H502.08ZM506.326 397.082C506.083 397.082 505.878 396.998 505.71 396.83C505.542 396.662 505.458 396.457 505.458 396.214C505.458 395.971 505.542 395.766 505.71 395.598C505.878 395.43 506.083 395.346 506.326 395.346C506.559 395.346 506.755 395.43 506.914 395.598C507.082 395.766 507.166 395.971 507.166 396.214C507.166 396.457 507.082 396.662 506.914 396.83C506.755 396.998 506.559 397.082 506.326 397.082ZM506.942 398.328V406H505.668V398.328H506.942ZM512.893 398.188C513.827 398.188 514.583 398.473 515.161 399.042C515.74 399.602 516.029 400.414 516.029 401.478V406H514.769V401.66C514.769 400.895 514.578 400.311 514.195 399.91C513.813 399.499 513.29 399.294 512.627 399.294C511.955 399.294 511.419 399.504 511.017 399.924C510.625 400.344 510.429 400.955 510.429 401.758V406H509.155V398.328H510.429V399.42C510.681 399.028 511.022 398.725 511.451 398.51C511.89 398.295 512.371 398.188 512.893 398.188ZM521.316 398.202C521.979 398.202 522.558 398.347 523.052 398.636C523.556 398.925 523.93 399.289 524.172 399.728V398.328H525.46V406.168C525.46 406.868 525.311 407.489 525.012 408.03C524.714 408.581 524.284 409.01 523.724 409.318C523.174 409.626 522.53 409.78 521.792 409.78C520.784 409.78 519.944 409.542 519.272 409.066C518.6 408.59 518.204 407.941 518.082 407.12H519.342C519.482 407.587 519.772 407.96 520.21 408.24C520.649 408.529 521.176 408.674 521.792 408.674C522.492 408.674 523.062 408.455 523.5 408.016C523.948 407.577 524.172 406.961 524.172 406.168V404.558C523.92 405.006 523.547 405.379 523.052 405.678C522.558 405.977 521.979 406.126 521.316 406.126C520.635 406.126 520.014 405.958 519.454 405.622C518.904 405.286 518.47 404.815 518.152 404.208C517.835 403.601 517.676 402.911 517.676 402.136C517.676 401.352 517.835 400.666 518.152 400.078C518.47 399.481 518.904 399.019 519.454 398.692C520.014 398.365 520.635 398.202 521.316 398.202ZM524.172 402.15C524.172 401.571 524.056 401.067 523.822 400.638C523.589 400.209 523.272 399.882 522.87 399.658C522.478 399.425 522.044 399.308 521.568 399.308C521.092 399.308 520.658 399.42 520.266 399.644C519.874 399.868 519.562 400.195 519.328 400.624C519.095 401.053 518.978 401.557 518.978 402.136C518.978 402.724 519.095 403.237 519.328 403.676C519.562 404.105 519.874 404.437 520.266 404.67C520.658 404.894 521.092 405.006 521.568 405.006C522.044 405.006 522.478 404.894 522.87 404.67C523.272 404.437 523.589 404.105 523.822 403.676C524.056 403.237 524.172 402.729 524.172 402.15Z" fill="#666666"/>
<rect x="109" y="53" width="90" height="90" rx="20" fill="#034737"/>
<circle cx="154.091" cy="97.8719" r="23.872" stroke="white" stroke-width="2.16667" stroke-linecap="round" stroke-linejoin="round"/>
<circle cx="154.09" cy="92.5672" r="7.95732" stroke="white" stroke-width="2.16667" stroke-linecap="round" stroke-linejoin="round"/>
<path d="M138.621 116.039C139.969 111.552 144.1 108.481 148.785 108.482H159.395C164.086 108.48 168.222 111.56 169.564 116.055" stroke="white" stroke-width="2.16667" stroke-linecap="round" stroke-linejoin="round"/>
<path d="M122.853 35.114C122.853 34.162 123.068 33.308 123.497 32.552C123.927 31.7867 124.51 31.1893 125.247 30.76C125.994 30.3307 126.82 30.116 127.725 30.116C128.789 30.116 129.718 30.3727 130.511 30.886C131.305 31.3993 131.883 32.1273 132.247 33.07H130.721C130.451 32.482 130.059 32.0293 129.545 31.712C129.041 31.3947 128.435 31.236 127.725 31.236C127.044 31.236 126.433 31.3947 125.891 31.712C125.35 32.0293 124.925 32.482 124.617 33.07C124.309 33.6487 124.155 34.33 124.155 35.114C124.155 35.8887 124.309 36.57 124.617 37.158C124.925 37.7367 125.35 38.1847 125.891 38.502C126.433 38.8193 127.044 38.978 127.725 38.978C128.435 38.978 129.041 38.824 129.545 38.516C130.059 38.1987 130.451 37.746 130.721 37.158H132.247C131.883 38.0913 131.305 38.8147 130.511 39.328C129.718 39.832 128.789 40.084 127.725 40.084C126.82 40.084 125.994 39.874 125.247 39.454C124.51 39.0247 123.927 38.432 123.497 37.676C123.068 36.92 122.853 36.066 122.853 35.114ZM137.532 40.126C136.813 40.126 136.16 39.9627 135.572 39.636C134.993 39.3093 134.536 38.8473 134.2 38.25C133.873 37.6433 133.71 36.9433 133.71 36.15C133.71 35.366 133.878 34.6753 134.214 34.078C134.559 33.4713 135.026 33.0093 135.614 32.692C136.202 32.3653 136.86 32.202 137.588 32.202C138.316 32.202 138.974 32.3653 139.562 32.692C140.15 33.0093 140.612 33.4667 140.948 34.064C141.293 34.6613 141.466 35.3567 141.466 36.15C141.466 36.9433 141.289 37.6433 140.934 38.25C140.589 38.8473 140.117 39.3093 139.52 39.636C138.923 39.9627 138.26 40.126 137.532 40.126ZM137.532 39.006C137.989 39.006 138.419 38.8987 138.82 38.684C139.221 38.4693 139.543 38.1473 139.786 37.718C140.038 37.2887 140.164 36.766 140.164 36.15C140.164 35.534 140.043 35.0113 139.8 34.582C139.557 34.1527 139.24 33.8353 138.848 33.63C138.456 33.4153 138.031 33.308 137.574 33.308C137.107 33.308 136.678 33.4153 136.286 33.63C135.903 33.8353 135.595 34.1527 135.362 34.582C135.129 35.0113 135.012 35.534 135.012 36.15C135.012 36.7753 135.124 37.3027 135.348 37.732C135.581 38.1613 135.889 38.4833 136.272 38.698C136.655 38.9033 137.075 39.006 137.532 39.006ZM146.921 32.188C147.854 32.188 148.61 32.4727 149.189 33.042C149.768 33.602 150.057 34.414 150.057 35.478V40H148.797V35.66C148.797 34.8947 148.606 34.3113 148.223 33.91C147.84 33.4993 147.318 33.294 146.655 33.294C145.983 33.294 145.446 33.504 145.045 33.924C144.653 34.344 144.457 34.9553 144.457 35.758V40H143.183V32.328H144.457V33.42C144.709 33.028 145.05 32.7247 145.479 32.51C145.918 32.2953 146.398 32.188 146.921 32.188ZM153.734 33.378V37.9C153.734 38.2733 153.813 38.5393 153.972 38.698C154.131 38.8473 154.406 38.922 154.798 38.922H155.736V40H154.588C153.879 40 153.347 39.8367 152.992 39.51C152.637 39.1833 152.46 38.6467 152.46 37.9V33.378H151.466V32.328H152.46V30.396H153.734V32.328H155.736V33.378H153.734ZM156.846 36.136C156.846 35.352 157.004 34.666 157.322 34.078C157.639 33.4807 158.073 33.0187 158.624 32.692C159.184 32.3653 159.804 32.202 160.486 32.202C161.158 32.202 161.741 32.3467 162.236 32.636C162.73 32.9253 163.099 33.2893 163.342 33.728V32.328H164.63V40H163.342V38.572C163.09 39.02 162.712 39.3933 162.208 39.692C161.713 39.9813 161.134 40.126 160.472 40.126C159.79 40.126 159.174 39.958 158.624 39.622C158.073 39.286 157.639 38.8147 157.322 38.208C157.004 37.6013 156.846 36.9107 156.846 36.136ZM163.342 36.15C163.342 35.5713 163.225 35.0673 162.992 34.638C162.758 34.2087 162.441 33.882 162.04 33.658C161.648 33.4247 161.214 33.308 160.738 33.308C160.262 33.308 159.828 33.42 159.436 33.644C159.044 33.868 158.731 34.1947 158.498 34.624C158.264 35.0533 158.148 35.5573 158.148 36.136C158.148 36.724 158.264 37.2373 158.498 37.676C158.731 38.1053 159.044 38.4367 159.436 38.67C159.828 38.894 160.262 39.006 160.738 39.006C161.214 39.006 161.648 38.894 162.04 38.67C162.441 38.4367 162.758 38.1053 162.992 37.676C163.225 37.2373 163.342 36.7287 163.342 36.15ZM166.349 36.15C166.349 35.3567 166.507 34.666 166.825 34.078C167.142 33.4807 167.581 33.0187 168.141 32.692C168.71 32.3653 169.359 32.202 170.087 32.202C171.029 32.202 171.804 32.4307 172.411 32.888C173.027 33.3453 173.433 33.98 173.629 34.792H172.257C172.126 34.3253 171.869 33.9567 171.487 33.686C171.113 33.4153 170.647 33.28 170.087 33.28C169.359 33.28 168.771 33.532 168.323 34.036C167.875 34.5307 167.651 35.2353 167.651 36.15C167.651 37.074 167.875 37.788 168.323 38.292C168.771 38.796 169.359 39.048 170.087 39.048C170.647 39.048 171.113 38.9173 171.487 38.656C171.86 38.3947 172.117 38.0213 172.257 37.536H173.629C173.423 38.32 173.013 38.95 172.397 39.426C171.781 39.8927 171.011 40.126 170.087 40.126C169.359 40.126 168.71 39.9627 168.141 39.636C167.581 39.3093 167.142 38.8473 166.825 38.25C166.507 37.6527 166.349 36.9527 166.349 36.15ZM176.924 33.378V37.9C176.924 38.2733 177.004 38.5393 177.162 38.698C177.321 38.8473 177.596 38.922 177.988 38.922H178.926V40H177.778C177.069 40 176.537 39.8367 176.182 39.51C175.828 39.1833 175.65 38.6467 175.65 37.9V33.378H174.656V32.328H175.65V30.396H176.924V32.328H178.926V33.378H176.924ZM183.228 40.126C182.64 40.126 182.113 40.028 181.646 39.832C181.179 39.6267 180.811 39.3467 180.54 38.992C180.269 38.628 180.12 38.2127 180.092 37.746H181.408C181.445 38.1287 181.623 38.4413 181.94 38.684C182.267 38.9267 182.691 39.048 183.214 39.048C183.699 39.048 184.082 38.9407 184.362 38.726C184.642 38.5113 184.782 38.2407 184.782 37.914C184.782 37.578 184.633 37.3307 184.334 37.172C184.035 37.004 183.573 36.8407 182.948 36.682C182.379 36.5327 181.912 36.3833 181.548 36.234C181.193 36.0753 180.885 35.8467 180.624 35.548C180.372 35.24 180.246 34.8387 180.246 34.344C180.246 33.952 180.363 33.5927 180.596 33.266C180.829 32.9393 181.161 32.6827 181.59 32.496C182.019 32.3 182.509 32.202 183.06 32.202C183.909 32.202 184.595 32.4167 185.118 32.846C185.641 33.2753 185.921 33.8633 185.958 34.61H184.684C184.656 34.2087 184.493 33.8867 184.194 33.644C183.905 33.4013 183.513 33.28 183.018 33.28C182.561 33.28 182.197 33.378 181.926 33.574C181.655 33.77 181.52 34.0267 181.52 34.344C181.52 34.596 181.599 34.806 181.758 34.974C181.926 35.1327 182.131 35.2633 182.374 35.366C182.626 35.4593 182.971 35.5667 183.41 35.688C183.961 35.8373 184.409 35.9867 184.754 36.136C185.099 36.276 185.393 36.4907 185.636 36.78C185.888 37.0693 186.019 37.4473 186.028 37.914C186.028 38.334 185.911 38.712 185.678 39.048C185.445 39.384 185.113 39.65 184.684 39.846C184.264 40.0327 183.779 40.126 183.228 40.126Z" fill="#666666"/>
<path d="M123.442 406.098C122.798 406.098 122.22 405.986 121.706 405.762C121.202 405.529 120.806 405.211 120.516 404.81C120.227 404.399 120.078 403.928 120.068 403.396H121.426C121.473 403.853 121.66 404.241 121.986 404.558C122.322 404.866 122.808 405.02 123.442 405.02C124.049 405.02 124.525 404.871 124.87 404.572C125.225 404.264 125.402 403.872 125.402 403.396C125.402 403.023 125.3 402.719 125.094 402.486C124.889 402.253 124.632 402.075 124.324 401.954C124.016 401.833 123.601 401.702 123.078 401.562C122.434 401.394 121.916 401.226 121.524 401.058C121.142 400.89 120.81 400.629 120.53 400.274C120.26 399.91 120.124 399.425 120.124 398.818C120.124 398.286 120.26 397.815 120.53 397.404C120.801 396.993 121.179 396.676 121.664 396.452C122.159 396.228 122.724 396.116 123.358 396.116C124.273 396.116 125.02 396.345 125.598 396.802C126.186 397.259 126.518 397.866 126.592 398.622H125.192C125.146 398.249 124.95 397.922 124.604 397.642C124.259 397.353 123.802 397.208 123.232 397.208C122.7 397.208 122.266 397.348 121.93 397.628C121.594 397.899 121.426 398.281 121.426 398.776C121.426 399.131 121.524 399.42 121.72 399.644C121.926 399.868 122.173 400.041 122.462 400.162C122.761 400.274 123.176 400.405 123.708 400.554C124.352 400.731 124.87 400.909 125.262 401.086C125.654 401.254 125.99 401.52 126.27 401.884C126.55 402.239 126.69 402.724 126.69 403.34C126.69 403.816 126.564 404.264 126.312 404.684C126.06 405.104 125.687 405.445 125.192 405.706C124.698 405.967 124.114 406.098 123.442 406.098ZM128.131 402.15C128.131 401.357 128.29 400.666 128.607 400.078C128.925 399.481 129.363 399.019 129.923 398.692C130.493 398.365 131.141 398.202 131.869 398.202C132.812 398.202 133.587 398.431 134.193 398.888C134.809 399.345 135.215 399.98 135.411 400.792H134.039C133.909 400.325 133.652 399.957 133.269 399.686C132.896 399.415 132.429 399.28 131.869 399.28C131.141 399.28 130.553 399.532 130.105 400.036C129.657 400.531 129.433 401.235 129.433 402.15C129.433 403.074 129.657 403.788 130.105 404.292C130.553 404.796 131.141 405.048 131.869 405.048C132.429 405.048 132.896 404.917 133.269 404.656C133.643 404.395 133.899 404.021 134.039 403.536H135.411C135.206 404.32 134.795 404.95 134.179 405.426C133.563 405.893 132.793 406.126 131.869 406.126C131.141 406.126 130.493 405.963 129.923 405.636C129.363 405.309 128.925 404.847 128.607 404.25C128.29 403.653 128.131 402.953 128.131 402.15ZM140.961 398.188C141.54 398.188 142.063 398.314 142.529 398.566C142.996 398.809 143.36 399.177 143.621 399.672C143.892 400.167 144.027 400.769 144.027 401.478V406H142.767V401.66C142.767 400.895 142.576 400.311 142.193 399.91C141.811 399.499 141.288 399.294 140.625 399.294C139.953 399.294 139.417 399.504 139.015 399.924C138.623 400.344 138.427 400.955 138.427 401.758V406H137.153V395.64H138.427V399.42C138.679 399.028 139.025 398.725 139.463 398.51C139.911 398.295 140.411 398.188 140.961 398.188ZM153.15 401.87C153.15 402.113 153.136 402.369 153.108 402.64H146.976C147.023 403.396 147.28 403.989 147.746 404.418C148.222 404.838 148.796 405.048 149.468 405.048C150.019 405.048 150.476 404.922 150.84 404.67C151.214 404.409 151.475 404.063 151.624 403.634H152.996C152.791 404.371 152.38 404.973 151.764 405.44C151.148 405.897 150.383 406.126 149.468 406.126C148.74 406.126 148.087 405.963 147.508 405.636C146.939 405.309 146.491 404.847 146.164 404.25C145.838 403.643 145.674 402.943 145.674 402.15C145.674 401.357 145.833 400.661 146.15 400.064C146.468 399.467 146.911 399.009 147.48 398.692C148.059 398.365 148.722 398.202 149.468 398.202C150.196 398.202 150.84 398.361 151.4 398.678C151.96 398.995 152.39 399.434 152.688 399.994C152.996 400.545 153.15 401.17 153.15 401.87ZM151.834 401.604C151.834 401.119 151.727 400.703 151.512 400.358C151.298 400.003 151.004 399.737 150.63 399.56C150.266 399.373 149.86 399.28 149.412 399.28C148.768 399.28 148.218 399.485 147.76 399.896C147.312 400.307 147.056 400.876 146.99 401.604H151.834ZM154.398 402.136C154.398 401.352 154.557 400.666 154.874 400.078C155.191 399.481 155.625 399.019 156.176 398.692C156.736 398.365 157.361 398.202 158.052 398.202C158.649 398.202 159.205 398.342 159.718 398.622C160.231 398.893 160.623 399.252 160.894 399.7V395.64H162.182V406H160.894V404.558C160.642 405.015 160.269 405.393 159.774 405.692C159.279 405.981 158.701 406.126 158.038 406.126C157.357 406.126 156.736 405.958 156.176 405.622C155.625 405.286 155.191 404.815 154.874 404.208C154.557 403.601 154.398 402.911 154.398 402.136ZM160.894 402.15C160.894 401.571 160.777 401.067 160.544 400.638C160.311 400.209 159.993 399.882 159.592 399.658C159.2 399.425 158.766 399.308 158.29 399.308C157.814 399.308 157.38 399.42 156.988 399.644C156.596 399.868 156.283 400.195 156.05 400.624C155.817 401.053 155.7 401.557 155.7 402.136C155.7 402.724 155.817 403.237 156.05 403.676C156.283 404.105 156.596 404.437 156.988 404.67C157.38 404.894 157.814 405.006 158.29 405.006C158.766 405.006 159.2 404.894 159.592 404.67C159.993 404.437 160.311 404.105 160.544 403.676C160.777 403.237 160.894 402.729 160.894 402.15ZM171.181 398.328V406H169.907V404.866C169.664 405.258 169.324 405.566 168.885 405.79C168.456 406.005 167.98 406.112 167.457 406.112C166.86 406.112 166.323 405.991 165.847 405.748C165.371 405.496 164.993 405.123 164.713 404.628C164.442 404.133 164.307 403.531 164.307 402.822V398.328H165.567V402.654C165.567 403.41 165.758 403.993 166.141 404.404C166.524 404.805 167.046 405.006 167.709 405.006C168.39 405.006 168.927 404.796 169.319 404.376C169.711 403.956 169.907 403.345 169.907 402.542V398.328H171.181ZM174.648 395.64V406H173.374V395.64H174.648ZM183.861 401.87C183.861 402.113 183.847 402.369 183.819 402.64H177.687C177.734 403.396 177.991 403.989 178.457 404.418C178.933 404.838 179.507 405.048 180.179 405.048C180.73 405.048 181.187 404.922 181.551 404.67C181.925 404.409 182.186 404.063 182.335 403.634H183.707C183.502 404.371 183.091 404.973 182.475 405.44C181.859 405.897 181.094 406.126 180.179 406.126C179.451 406.126 178.798 405.963 178.219 405.636C177.65 405.309 177.202 404.847 176.875 404.25C176.549 403.643 176.385 402.943 176.385 402.15C176.385 401.357 176.544 400.661 176.861 400.064C177.179 399.467 177.622 399.009 178.191 398.692C178.77 398.365 179.433 398.202 180.179 398.202C180.907 398.202 181.551 398.361 182.111 398.678C182.671 398.995 183.101 399.434 183.399 399.994C183.707 400.545 183.861 401.17 183.861 401.87ZM182.545 401.604C182.545 401.119 182.438 400.703 182.223 400.358C182.009 400.003 181.715 399.737 181.341 399.56C180.977 399.373 180.571 399.28 180.123 399.28C179.479 399.28 178.929 399.485 178.471 399.896C178.023 400.307 177.767 400.876 177.701 401.604H182.545ZM186.859 399.574C187.083 399.135 187.4 398.795 187.811 398.552C188.231 398.309 188.74 398.188 189.337 398.188V399.504H189.001C187.573 399.504 186.859 400.279 186.859 401.828V406H185.585V398.328H186.859V399.574Z" fill="#666666"/>
<g filter="url(#filter0_bd_6882_6334)">
<rect x="276" y="173" width="86.6484" height="91.8193" rx="27.0776" fill="#034737"/>
<rect x="275.323" y="172.323" width="88.0023" height="93.1732" rx="27.7546" stroke="#EAEAEA" stroke-width="1.35388"/>
</g>
<circle cx="333.208" cy="233.043" r="3.91667" transform="rotate(-180 333.208 233.043)" stroke="white" stroke-width="2.54583" stroke-linecap="round" stroke-linejoin="round"/>
<circle cx="305.79" cy="205.626" r="3.91667" transform="rotate(-180 305.79 205.626)" stroke="white" stroke-width="2.54583" stroke-linecap="round" stroke-linejoin="round"/>
<circle cx="305.79" cy="233.043" r="3.91667" transform="rotate(-180 305.79 233.043)" stroke="white" stroke-width="2.54583" stroke-linecap="round" stroke-linejoin="round"/>
<circle cx="333.208" cy="205.626" r="3.91667" transform="rotate(-180 333.208 205.626)" stroke="white" stroke-width="2.54583" stroke-linecap="round" stroke-linejoin="round"/>
<path d="M331.174 209.463C331.671 208.966 331.671 208.16 331.174 207.663C330.676 207.166 329.87 207.166 329.373 207.663L331.174 209.463ZM307.832 229.205C307.335 229.702 307.335 230.508 307.832 231.005C308.329 231.502 309.135 231.502 309.632 231.005L307.832 229.205ZM331.938 229.126C331.938 229.829 332.508 230.399 333.211 230.399C333.914 230.399 334.484 229.829 334.484 229.126L331.938 229.126ZM334.484 209.542C334.484 208.839 333.914 208.27 333.211 208.27C332.508 208.27 331.938 208.839 331.938 209.542L334.484 209.542ZM304.521 229.126C304.521 229.829 305.091 230.399 305.794 230.399C306.497 230.399 307.067 229.829 307.067 229.126L304.521 229.126ZM307.067 209.542C307.067 208.839 306.497 208.27 305.794 208.27C305.091 208.27 304.521 208.839 304.521 209.542L307.067 209.542ZM329.373 207.663L307.832 229.205L309.632 231.005L331.174 209.463L329.373 207.663ZM334.484 229.126L334.484 209.542L331.938 209.542L331.938 229.126L334.484 229.126ZM307.067 229.126L307.067 209.542L304.521 209.542L304.521 229.126L307.067 229.126Z" fill="white"/>
<defs>
<filter id="filter0_bd_6882_6334" x="217.601" y="114.602" width="203.446" height="208.614" filterUnits="userSpaceOnUse" color-interpolation-filters="sRGB">
<feFlood flood-opacity="0" result="BackgroundImageFix"/>
<feGaussianBlur in="BackgroundImageFix" stdDeviation="28.5218"/>
<feComposite in2="SourceAlpha" operator="in" result="effect1_backgroundBlur_6882_6334"/>
<feColorMatrix in="SourceAlpha" type="matrix" values="0 0 0 0 0 0 0 0 0 0 0 0 0 0 0 0 0 0 127 0" result="hardAlpha"/>
<feOffset dy="8.66484"/>
<feGaussianBlur stdDeviation="6.85967"/>
<feComposite in2="hardAlpha" operator="out"/>
<feColorMatrix type="matrix" values="0 0 0 0 0.0867708 0 0 0 0 0.115317 0 0 0 0 0.141667 0 0 0 0.08 0"/>
<feBlend mode="normal" in2="effect1_backgroundBlur_6882_6334" result="effect2_dropShadow_6882_6334"/>
<feBlend mode="normal" in="SourceGraphic" in2="effect2_dropShadow_6882_6334" result="shape"/>
</filter>
</defs>
</svg>
