<svg width="40" height="40" viewBox="0 0 40 40" fill="none" xmlns="http://www.w3.org/2000/svg">
<rect width="40" height="40" rx="8" fill="black"/>
<g clip-path="url(#clip0_1551_9427)">
<path d="M16.666 15C17.9921 15 19.2639 15.5268 20.2015 16.4645C21.1392 17.4021 21.666 18.6739 21.666 20C21.666 21.3261 21.1392 22.5979 20.2015 23.5355C19.2639 24.4732 17.9921 25 16.666 25C15.3399 25 14.0682 24.4732 13.1305 23.5355C12.1928 22.5979 11.666 21.3261 11.666 20C11.666 18.6739 12.1928 17.4021 13.1305 16.4645C14.0682 15.5268 15.3399 15 16.666 15ZM24.166 15.8333C25.416 15.8333 26.2493 17.6992 26.2493 20C26.2493 22.3008 25.416 24.1667 24.166 24.1667C22.916 24.1667 22.0827 22.3008 22.0827 20C22.0827 17.6992 22.916 15.8333 24.166 15.8333ZM27.4993 16.25C27.816 16.25 28.0927 16.9392 28.2327 18.1217L28.2718 18.4908L28.2877 18.6867L28.3127 19.0983L28.321 19.3142L28.331 19.765L28.3327 20L28.331 20.235L28.321 20.6858L28.3127 20.9025L28.2877 21.3133L28.271 21.5092L28.2335 21.8783C28.0927 23.0617 27.8168 23.75 27.4993 23.75C27.1827 23.75 26.906 23.0608 26.766 21.8783L26.7268 21.5092C26.7211 21.4439 26.7158 21.3786 26.711 21.3133L26.686 20.9017C26.6828 20.8297 26.68 20.7578 26.6777 20.6858L26.6677 20.235V19.765L26.6777 19.3142L26.686 19.0975L26.711 18.6867L26.7277 18.4908L26.7652 18.1217C26.906 16.9383 27.1818 16.25 27.4993 16.25Z" fill="white"/>
</g>
<defs>
<clipPath id="clip0_1551_9427">
<rect width="20" height="20" fill="white" transform="translate(10 10)"/>
</clipPath>
</defs>
</svg>
