<svg width="40" height="40" viewBox="0 0 40 40" fill="none" xmlns="http://www.w3.org/2000/svg">
<g id="Frame 53075">
<rect width="40" height="40" rx="8" fill="#8A5CFF"/>
<g id="Vector">
<path d="M23.2246 13.4738C23.4772 13.2203 23.8867 13.2203 24.1393 13.4738L29.8107 19.1646C30.0633 19.418 30.0633 19.829 29.8107 20.0824L27.4324 22.4689C27.1798 22.7223 26.7702 22.7223 26.5176 22.4689L20.8462 16.7781C20.5936 16.5246 20.5936 16.1137 20.8462 15.8602L23.2246 13.4738Z" fill="white"/>
<path d="M16.2267 13.86C16.4793 13.6065 16.8888 13.6065 17.1414 13.86L26.1059 22.8551C26.3585 23.1085 26.3585 23.5195 26.1059 23.7729L23.7276 26.1594C23.475 26.4128 23.0654 26.4128 22.8128 26.1594L13.8483 17.1643C13.5957 16.9108 13.5957 16.4999 13.8483 16.2464L16.2267 13.86Z" fill="white"/>
<path d="M12.5678 17.5315C12.8204 17.278 13.2299 17.278 13.4825 17.5315L19.1539 23.2222C19.4065 23.4757 19.4065 23.8866 19.1539 24.1401L16.7756 26.5266C16.523 26.78 16.1135 26.78 15.8609 26.5266L10.1894 20.8358C9.93685 20.5823 9.93685 20.1714 10.1894 19.9179L12.5678 17.5315Z" fill="white"/>
</g>
</g>
</svg>
