<?xml version="1.0" encoding="UTF-8"?>
<svg width="200" height="60" viewBox="0 0 200 60" fill="none" xmlns="http://www.w3.org/2000/svg">
  <path d="M50 30c0 2.76-2.24 5-5 5s-5-2.24-5-5 2.24-5 5-5 5 2.24 5 5zm25 0c0 2.76-2.24 5-5 5s-5-2.24-5-5 2.24-5 5-5 5 2.24 5 5zm25 0c0 2.76-2.24 5-5 5s-5-2.24-5-5 2.24-5 5-5 5 2.24 5 5zm25 0c0 2.76-2.24 5-5 5s-5-2.24-5-5 2.24-5 5-5 5 2.24 5 5zm25 0c0 2.76-2.24 5-5 5s-5-2.24-5-5 2.24-5 5-5 5 2.24 5 5z" fill="#049FD9"/>
  <path d="M45 30c0-1.93-1.57-3.5-3.5-3.5S38 28.07 38 30s1.57 3.5 3.5 3.5S45 31.93 45 30zm25 0c0-1.93-1.57-3.5-3.5-3.5S63 28.07 63 30s1.57 3.5 3.5 3.5S70 31.93 70 30zm25 0c0-1.93-1.57-3.5-3.5-3.5S88 28.07 88 30s1.57 3.5 3.5 3.5S95 31.93 95 30zm25 0c0-1.93-1.57-3.5-3.5-3.5S113 28.07 113 30s1.57 3.5 3.5 3.5 3.5-1.57 3.5-3.5zm25 0c0-1.93-1.57-3.5-3.5-3.5S138 28.07 138 30s1.57 3.5 3.5 3.5 3.5-1.57 3.5-3.5z" fill="#049FD9"/>
</svg> 