<svg width="639" height="447" viewBox="0 0 639 447" fill="none" xmlns="http://www.w3.org/2000/svg">
<rect width="639" height="432" fill="white"/>
<line x1="639" y1="222.5" y2="222.5" stroke="#034737" stroke-dasharray="6 6"/>
<path d="M241 222.5L246 225.387V219.613L241 222.5ZM443 222H440.029V223H443V222ZM434.088 222H428.147V223H434.088V222ZM422.206 222H416.265V223H422.206V222ZM410.324 222H404.382V223H410.324V222ZM398.441 222H392.5V223H398.441V222ZM386.559 222H380.618V223H386.559V222ZM374.676 222H368.735V223H374.676V222ZM362.794 222H356.853V223H362.794V222ZM350.912 222H344.971V223H350.912V222ZM339.029 222H333.088V223H339.029V222ZM327.147 222L321.206 222V223L327.147 223V222ZM315.265 222H309.324V223H315.265V222ZM303.382 222H297.441V223H303.382V222ZM291.5 222H285.559V223H291.5V222ZM279.618 222H273.676V223H279.618V222ZM267.735 222H261.794V223H267.735V222ZM255.853 222H249.912V223H255.853V222Z" fill="#034737"/>
<path d="M273.991 308.295L276.936 303.748L279.401 308.572L273.991 308.295ZM443.103 222.387L440.619 223.656L440.192 222.821L442.676 221.551L443.103 222.387ZM435.652 226.195L430.684 228.735L430.257 227.899L435.225 225.36L435.652 226.195ZM425.717 231.274L420.749 233.813L420.322 232.977L425.289 230.438L425.717 231.274ZM415.781 236.352L410.814 238.891L410.387 238.055L415.354 235.516L415.781 236.352ZM405.846 241.43L400.878 243.969L400.451 243.133L405.419 240.594L405.846 241.43ZM395.911 246.508L390.943 249.047L390.516 248.211L395.484 245.672L395.911 246.508ZM385.976 251.586L381.008 254.125L380.581 253.289L385.549 250.75L385.976 251.586ZM376.04 256.664L371.073 259.203L370.646 258.367L375.613 255.828L376.04 256.664ZM366.105 261.742L361.138 264.281L360.711 263.445L365.678 260.906L366.105 261.742ZM356.17 266.82L351.202 269.359L350.775 268.523L355.743 265.984L356.17 266.82ZM346.235 271.898L341.267 274.437L340.84 273.601L345.808 271.062L346.235 271.898ZM336.3 276.976L331.332 279.515L330.905 278.679L335.873 276.14L336.3 276.976ZM326.364 282.054L321.397 284.593L320.97 283.757L325.937 281.218L326.364 282.054ZM316.429 287.132L311.462 289.671L311.034 288.835L316.002 286.296L316.429 287.132ZM306.494 292.21L301.526 294.749L301.099 293.913L306.067 291.374L306.494 292.21ZM296.559 297.288L291.591 299.827L291.164 298.991L296.132 296.452L296.559 297.288ZM286.623 302.366L281.656 304.905L281.229 304.069L286.196 301.53L286.623 302.366Z" fill="#034737"/>
<path d="M348.788 358.225L349.225 352.826L353.682 355.904L348.788 358.225ZM443.276 222.236L441.707 224.507L440.935 223.974L442.504 221.703L443.276 222.236ZM438.571 229.049L435.434 233.591L434.662 233.057L437.798 228.515L438.571 229.049ZM432.297 238.132L429.16 242.674L428.388 242.141L431.525 237.599L432.297 238.132ZM426.024 247.216L422.887 251.758L422.115 251.225L425.252 246.683L426.024 247.216ZM419.75 256.3L416.613 260.842L415.841 260.309L418.978 255.767L419.75 256.3ZM413.477 265.384L410.34 269.925L409.568 269.392L412.705 264.85L413.477 265.384ZM407.203 274.467L404.066 279.009L403.294 278.476L406.431 273.934L407.203 274.467ZM400.93 283.551L397.793 288.093L397.021 287.56L400.158 283.018L400.93 283.551ZM394.656 292.635L391.52 297.177L390.747 296.644L393.884 292.102L394.656 292.635ZM388.383 301.719L385.246 306.26L384.474 305.727L387.611 301.185L388.383 301.719ZM382.109 310.802L378.973 315.344L378.2 314.811L381.337 310.269L382.109 310.802ZM375.836 319.886L372.699 324.428L371.927 323.895L375.064 319.353L375.836 319.886ZM369.562 328.97L366.426 333.512L365.653 332.978L368.79 328.437L369.562 328.97ZM363.289 338.054L360.152 342.595L359.38 342.062L362.517 337.52L363.289 338.054ZM357.015 347.137L353.879 351.679L353.107 351.146L356.243 346.604L357.015 347.137Z" fill="#034737"/>
<path d="M273.991 133.766L279.404 133.54L276.893 138.341L273.991 133.766ZM442.672 222.51L440.188 221.212L440.623 220.38L443.107 221.679L442.672 222.51ZM435.221 218.614L430.253 216.016L430.688 215.184L435.656 217.782L435.221 218.614ZM425.286 213.418L420.318 210.82L420.753 209.988L425.72 212.586L425.286 213.418ZM415.35 208.222L410.383 205.624L410.818 204.793L415.785 207.391L415.35 208.222ZM405.415 203.026L400.448 200.428L400.882 199.597L405.85 202.195L405.415 203.026ZM395.48 197.831L390.512 195.233L390.947 194.401L395.915 196.999L395.48 197.831ZM385.545 192.635L380.577 190.037L381.012 189.205L385.98 191.803L385.545 192.635ZM375.609 187.439L370.642 184.841L371.077 184.01L376.044 186.607L375.609 187.439ZM365.674 182.243L360.707 179.645L361.141 178.814L366.109 181.412L365.674 182.243ZM355.739 177.047L350.771 174.449L351.206 173.618L356.174 176.216L355.739 177.047ZM345.804 171.852L340.836 169.254L341.271 168.422L346.239 171.02L345.804 171.852ZM335.869 166.656L330.901 164.058L331.336 163.226L336.303 165.824L335.869 166.656ZM325.933 161.46L320.966 158.862L321.401 158.031L326.368 160.629L325.933 161.46ZM315.998 156.264L311.03 153.666L311.465 152.835L316.433 155.433L315.998 156.264ZM306.063 151.068L301.095 148.471L301.53 147.639L306.498 150.237L306.063 151.068ZM296.128 145.873L291.16 143.275L291.595 142.443L296.562 145.041L296.128 145.873ZM286.192 140.677L281.225 138.079L281.66 137.248L286.627 139.845L286.192 140.677Z" fill="#034737"/>
<path d="M348.119 84.9733L353.014 87.2945L348.556 90.3731L348.119 84.9733ZM442.504 222.462L440.924 220.175L441.696 219.642L443.276 221.929L442.504 222.462ZM437.765 215.601L434.606 211.027L435.378 210.494L438.537 215.068L437.765 215.601ZM431.447 206.453L428.288 201.879L429.06 201.346L432.219 205.92L431.447 206.453ZM425.129 197.305L421.97 192.731L422.742 192.198L425.901 196.772L425.129 197.305ZM418.811 188.157L415.652 183.583L416.424 183.049L419.583 187.624L418.811 188.157ZM412.493 179.009L409.334 174.435L410.106 173.901L413.265 178.475L412.493 179.009ZM406.175 169.86L403.016 165.286L403.788 164.753L406.947 169.327L406.175 169.86ZM399.857 160.712L396.698 156.138L397.47 155.605L400.629 160.179L399.857 160.712ZM393.539 151.564L390.38 146.99L391.152 146.457L394.311 151.031L393.539 151.564ZM387.221 142.416L384.062 137.842L384.834 137.309L387.993 141.883L387.221 142.416ZM380.902 133.268L377.743 128.694L378.516 128.161L381.675 132.735L380.902 133.268ZM374.584 124.12L371.425 119.546L372.197 119.012L375.357 123.586L374.584 124.12ZM368.266 114.972L365.107 110.397L365.879 109.864L369.038 114.438L368.266 114.972ZM361.948 105.823L358.789 101.249L359.561 100.716L362.72 105.29L361.948 105.823ZM355.63 96.6752L352.471 92.1011L353.243 91.5679L356.402 96.1419L355.63 96.6752Z" fill="#034737"/>
<path d="M350.901 378.67C261.248 378.67 188.57 306.202 188.57 216.809C188.57 127.415 261.248 54.9473 350.901 54.9473" stroke="#034737" stroke-width="0.832355" stroke-dasharray="12.49 12.49"/>
<circle cx="4.69163" cy="4.69163" r="4.69163" transform="matrix(-1 0 0 1 447.581 217.278)" fill="#034737"/>
<g filter="url(#filter0_bd_6882_5316)">
<rect width="65.6828" height="65.6828" rx="14.5962" transform="matrix(-1 -1.74846e-07 -1.74846e-07 1 365.947 13.6611)" fill="#034737"/>
<rect x="0.494037" y="-0.494037" width="66.6709" height="66.6709" rx="15.0902" transform="matrix(-1 -1.74846e-07 -1.74846e-07 1 366.935 13.6611)" stroke="#EAEAEA" stroke-width="0.988074"/>
<path d="M314.539 46.3771H320.312" stroke="white" stroke-width="1.65061" stroke-linecap="round" stroke-linejoin="round"/>
<path d="M313.095 34.3047C315.486 34.3047 317.425 36.3316 317.425 38.8319V53.9224C317.425 56.4227 315.486 58.4496 313.095 58.4496" stroke="white" stroke-width="1.65061" stroke-linecap="round" stroke-linejoin="round"/>
<path d="M321.757 34.3047C319.365 34.3047 317.427 36.3316 317.427 38.8319V53.9224C317.427 56.4227 319.365 58.4496 321.757 58.4496" stroke="white" stroke-width="1.65061" stroke-linecap="round" stroke-linejoin="round"/>
<path fill-rule="evenodd" clip-rule="evenodd" d="M344.847 43.3594L351.418 39.9248C351.865 39.6911 352.397 39.7161 352.822 39.9909C353.247 40.2657 353.506 40.7511 353.507 41.2739V51.4811C353.506 52.0039 353.247 52.4893 352.822 52.7641C352.397 53.0389 351.865 53.0639 351.418 52.8302L344.847 49.3956V43.3594Z" stroke="white" stroke-width="1.65061" stroke-linecap="round" stroke-linejoin="round"/>
<rect x="327.527" y="37.3228" width="17.32" height="18.1087" rx="2.17662" stroke="white" stroke-width="1.65061" stroke-linecap="round" stroke-linejoin="round"/>
</g>
<g filter="url(#filter1_bd_6882_5316)">
<rect width="65.6828" height="65.6828" rx="14.5962" transform="matrix(-1 -1.74846e-07 -1.74846e-07 1 273.053 69.9609)" fill="#034737"/>
<rect x="0.494037" y="-0.494037" width="66.6709" height="66.6709" rx="15.0902" transform="matrix(-1 -1.74846e-07 -1.74846e-07 1 274.041 69.9609)" stroke="#EAEAEA" stroke-width="0.988074"/>
<path fill-rule="evenodd" clip-rule="evenodd" d="M256.046 95.2697C256.046 94.6089 255.768 93.9749 255.272 93.5079C254.775 93.0409 254.099 92.7782 253.398 92.7782H247.05L243.931 89.8477C243.808 89.7309 243.64 89.6655 243.465 89.6655H236.842C236.666 89.6655 236.498 89.7309 236.375 89.8477L233.256 92.7782H226.908C226.207 92.7782 225.531 93.0409 225.035 93.5079C224.538 93.9749 224.26 94.6089 224.26 95.2697V112.704C224.26 113.365 224.538 113.999 225.035 114.466C225.531 114.933 226.207 115.195 226.908 115.195H253.396C254.098 115.195 254.773 114.932 255.27 114.465C255.768 113.999 256.046 113.365 256.046 112.704L256.046 95.2697ZM254.721 95.2697V112.704C254.721 113.035 254.582 113.351 254.334 113.585C254.086 113.818 253.748 113.95 253.398 113.95H226.908C226.558 113.95 226.22 113.818 225.972 113.585C225.724 113.351 225.585 113.035 225.585 112.704V95.2697C225.585 94.9392 225.724 94.6228 225.972 94.3893C226.22 94.1547 226.558 94.0239 226.908 94.0239H233.53C233.705 94.0239 233.874 93.9585 233.997 93.8418L237.117 90.9101H243.19L246.309 93.8406C246.431 93.9585 246.6 94.0239 246.775 94.0239H253.396C253.748 94.0239 254.086 94.1547 254.334 94.3893C254.582 94.6229 254.721 94.9392 254.721 95.2697ZM247.732 103.27C247.756 103.506 247.768 103.745 247.768 103.987C247.768 107.939 244.355 111.148 240.153 111.148C235.951 111.148 232.538 107.939 232.538 103.987C232.538 100.034 235.951 96.8261 240.153 96.8261C240.527 96.8261 240.898 96.8518 241.26 96.9008C241.621 96.9498 241.955 96.714 242.008 96.3743C242.06 96.0345 241.808 95.7181 241.448 95.6691C241.024 95.6107 240.594 95.5803 240.153 95.5803C235.22 95.5803 231.213 99.3469 231.213 103.987C231.213 108.626 235.22 112.393 240.153 112.393C245.086 112.393 249.093 108.626 249.093 103.987C249.093 103.703 249.077 103.423 249.05 103.147C249.014 102.805 248.688 102.555 248.325 102.589C247.961 102.623 247.695 102.929 247.732 103.27ZM238.789 102.526C238.693 102.281 238.445 102.118 238.166 102.118C237.888 102.118 237.64 102.281 237.544 102.525L236.756 104.529L234.627 105.271C234.366 105.362 234.193 105.594 234.193 105.855C234.193 106.115 234.366 106.348 234.627 106.438L236.756 107.18L237.544 109.184C237.64 109.428 237.888 109.591 238.166 109.591C238.445 109.591 238.693 109.428 238.789 109.184L239.577 107.18L241.706 106.438C241.967 106.348 242.14 106.116 242.14 105.855C242.14 105.594 241.967 105.362 241.706 105.271L239.577 104.529L238.789 102.525V102.526ZM238.166 104.536L238.441 105.231C238.507 105.402 238.649 105.536 238.832 105.599L239.571 105.855L238.832 106.111C238.649 106.175 238.508 106.309 238.441 106.479L238.166 107.174L237.895 106.479C237.825 106.309 237.682 106.175 237.501 106.111L236.762 105.855L237.501 105.598C237.683 105.535 237.825 105.4 237.895 105.23L238.166 104.536ZM244.736 94.4305C244.639 94.1865 244.391 94.0242 244.117 94.0242C243.838 94.0242 243.59 94.1865 243.494 94.4305L241.901 98.4795L237.594 99.9774C237.336 100.069 237.163 100.301 237.163 100.561C237.163 100.822 237.336 101.055 237.594 101.145L241.901 102.643L243.494 106.692C243.59 106.936 243.838 107.098 244.117 107.098C244.391 107.098 244.639 106.936 244.736 106.692L246.332 102.643L250.636 101.145C250.898 101.054 251.07 100.822 251.07 100.561C251.07 100.301 250.897 100.067 250.636 99.9774L246.332 98.4795L244.736 94.4305ZM244.117 96.441L245.193 99.18C245.263 99.3505 245.405 99.4847 245.587 99.5478L248.497 100.562L245.587 101.576C245.404 101.639 245.263 101.773 245.193 101.944L244.117 104.683L243.038 101.944C242.972 101.773 242.829 101.639 242.646 101.576L239.732 100.562L242.646 99.549C242.829 99.4859 242.97 99.3516 243.038 99.1812L244.117 96.441ZM249.093 96.204H248.431C248.067 96.204 247.769 96.483 247.769 96.8262C247.769 97.1695 248.067 97.4485 248.431 97.4485H249.093V98.0708C249.093 98.4141 249.391 98.6931 249.755 98.6931C250.119 98.6931 250.417 98.4141 250.417 98.0708V97.4485H251.078C251.442 97.4485 251.74 97.1695 251.74 96.8262C251.74 96.483 251.442 96.204 251.078 96.204H250.417V95.5817C250.417 95.2384 250.119 94.9594 249.755 94.9594C249.391 94.9594 249.093 95.2384 249.093 95.5817V96.204Z" fill="white"/>
</g>
<g filter="url(#filter2_bd_6882_5316)">
<rect width="65.6828" height="65.6828" rx="14.5962" transform="matrix(-1 -1.74846e-07 -1.74846e-07 1 221.445 189.128)" fill="#034737"/>
<rect x="0.494037" y="-0.494037" width="66.6709" height="66.6709" rx="15.0902" transform="matrix(-1 -1.74846e-07 -1.74846e-07 1 222.433 189.128)" stroke="#EAEAEA" stroke-width="0.988074"/>
<path fill-rule="evenodd" clip-rule="evenodd" d="M189.171 208.036H174.854C174.27 208.036 173.709 208.249 173.297 208.627C172.883 209.006 172.651 209.519 172.651 210.054C172.651 214.903 172.651 231.446 172.651 236.294C172.651 237.409 173.639 238.313 174.854 238.313H196.881C198.096 238.313 199.084 237.409 199.084 236.294C199.084 232.886 199.084 224.184 199.084 224.184C199.084 223.812 198.753 223.511 198.349 223.511C197.946 223.511 197.615 223.812 197.615 224.184C197.615 224.184 197.615 232.886 197.615 236.294C197.615 236.666 197.288 236.967 196.881 236.967H174.854C174.447 236.967 174.12 236.666 174.12 236.294C174.12 231.446 174.12 214.903 174.12 210.054C174.12 209.876 174.197 209.705 174.336 209.579C174.472 209.453 174.659 209.382 174.854 209.382H189.171C189.575 209.382 189.906 209.08 189.906 208.709C189.906 208.337 189.575 208.036 189.171 208.036ZM178.342 230.912H193.393C193.797 230.912 194.128 230.61 194.128 230.239C194.128 229.867 193.797 229.566 193.393 229.566H178.342C177.938 229.566 177.607 229.867 177.607 230.239C177.607 230.61 177.938 230.912 178.342 230.912ZM178.342 227.211H193.393C193.797 227.211 194.128 226.91 194.128 226.538C194.128 226.167 193.797 225.866 193.393 225.866H178.342C177.938 225.866 177.607 226.167 177.607 226.538C177.607 226.91 177.938 227.211 178.342 227.211ZM185.133 215.773H178.525C178.121 215.773 177.791 216.075 177.791 216.446C177.791 216.818 178.121 217.119 178.525 217.119H181.095V223.847C181.095 224.219 181.425 224.52 181.829 224.52C182.233 224.52 182.563 224.219 182.563 223.847V217.119H185.133C185.537 217.119 185.867 216.818 185.867 216.446C185.867 216.075 185.537 215.773 185.133 215.773ZM186.051 223.847H193.393C193.797 223.847 194.128 223.546 194.128 223.174C194.128 222.803 193.797 222.501 193.393 222.501H186.051C185.647 222.501 185.317 222.803 185.317 223.174C185.317 223.546 185.647 223.847 186.051 223.847ZM201.228 215.203C201.121 214.939 200.846 214.764 200.541 214.764C200.233 214.764 199.957 214.939 199.851 215.203L198.977 217.369L196.613 218.17C196.327 218.268 196.136 218.519 196.136 218.801C196.136 219.083 196.327 219.334 196.613 219.432L198.977 220.233L199.851 222.399C199.957 222.663 200.233 222.838 200.541 222.838C200.846 222.838 201.121 222.663 201.228 222.399L202.101 220.233L204.465 219.432C204.755 219.334 204.946 219.083 204.946 218.801C204.946 218.519 204.755 218.268 204.465 218.17L202.101 217.369L201.228 215.203ZM188.07 220.483H191.007C191.411 220.483 191.741 220.182 191.741 219.81C191.741 219.439 191.411 219.137 191.007 219.137H188.07C187.666 219.137 187.336 219.439 187.336 219.81C187.336 220.182 187.666 220.483 188.07 220.483ZM200.541 217.376L200.842 218.126C200.915 218.31 201.077 218.455 201.275 218.523L202.094 218.801L201.275 219.079C201.077 219.147 200.915 219.292 200.842 219.476L200.541 220.226L200.236 219.476C200.163 219.292 200.005 219.147 199.803 219.079L198.984 218.801L199.803 218.523C200.005 218.455 200.163 218.31 200.236 218.126L200.541 217.376ZM194.634 206.457C194.528 206.193 194.252 206.018 193.944 206.018C193.636 206.018 193.36 206.193 193.254 206.457L191.488 210.832L186.716 212.451C186.426 212.549 186.235 212.801 186.235 213.082C186.235 213.364 186.426 213.615 186.716 213.713L191.488 215.332L193.254 219.707C193.36 219.971 193.636 220.147 193.944 220.147C194.252 220.147 194.528 219.971 194.634 219.707L196.4 215.332L201.172 213.713C201.462 213.615 201.653 213.364 201.653 213.082C201.653 212.801 201.462 212.549 201.172 212.451L196.4 210.832L194.634 206.457ZM193.944 208.629L195.141 211.589C195.214 211.773 195.372 211.918 195.574 211.987L198.805 213.082L195.574 214.177C195.372 214.246 195.214 214.391 195.141 214.575L193.944 217.535L192.747 214.575C192.674 214.391 192.516 214.246 192.314 214.177L189.083 213.082L192.314 211.987C192.516 211.918 192.674 211.773 192.747 211.589L193.944 208.629ZM188.07 217.119H189.539C189.942 217.119 190.273 216.818 190.273 216.446C190.273 216.075 189.942 215.773 189.539 215.773H188.07C187.666 215.773 187.336 216.075 187.336 216.446C187.336 216.818 187.666 217.119 188.07 217.119ZM199.818 208.372H199.084C198.68 208.372 198.349 208.674 198.349 209.045C198.349 209.417 198.68 209.718 199.084 209.718H199.818V210.391C199.818 210.762 200.148 211.064 200.552 211.064C200.956 211.064 201.286 210.762 201.286 210.391V209.718H202.02C202.424 209.718 202.755 209.417 202.755 209.045C202.755 208.674 202.424 208.372 202.02 208.372H201.286V207.7C201.286 207.328 200.956 207.027 200.552 207.027C200.148 207.027 199.818 207.328 199.818 207.7V208.372Z" fill="white"/>
</g>
<g filter="url(#filter3_bd_6882_5316)">
<rect width="65.6828" height="65.6828" rx="14.5962" transform="matrix(-1 -1.74846e-07 -1.74846e-07 1 273.053 309.234)" fill="#034737"/>
<rect x="0.494037" y="-0.494037" width="66.6709" height="66.6709" rx="15.0902" transform="matrix(-1 -1.74846e-07 -1.74846e-07 1 274.041 309.234)" stroke="#EAEAEA" stroke-width="0.988074"/>
<rect x="256.163" y="325.924" width="32.1024" height="32.1024" rx="3.51872" transform="rotate(90 256.163 325.924)" stroke="white" stroke-width="1.87665" stroke-linecap="round" stroke-linejoin="round"/>
<path d="M246.132 325.924V341.975" stroke="white" stroke-width="1.87665" stroke-linecap="round" stroke-linejoin="round"/>
<path d="M234.093 341.975V358.026" stroke="white" stroke-width="1.87665" stroke-linecap="round" stroke-linejoin="round"/>
<path d="M256.163 341.975H224.061" stroke="white" stroke-width="1.87665" stroke-linecap="round" stroke-linejoin="round"/>
</g>
<g filter="url(#filter4_bd_6882_5316)">
<rect width="65.6828" height="65.6828" rx="14.5962" transform="matrix(-1 -1.74846e-07 -1.74846e-07 1 365.947 363.657)" fill="#034737"/>
<rect x="0.494037" y="-0.494037" width="66.6709" height="66.6709" rx="15.0902" transform="matrix(-1 -1.74846e-07 -1.74846e-07 1 366.935 363.657)" stroke="#EAEAEA" stroke-width="0.988074"/>
<rect x="316.015" y="383.727" width="33.98" height="26.4289" rx="4.64093" stroke="white" stroke-width="1.87665" stroke-linecap="round" stroke-linejoin="round"/>
<path d="M316.015 387.503L333.005 398.83L349.995 387.503" stroke="white" stroke-width="1.87665" stroke-linecap="round" stroke-linejoin="round"/>
</g>
<path d="M367.868 92.3206L365.557 88.7469L363.309 89.267L362.58 88.1384L372.642 85.8322L373.44 87.0666L367.202 95.2859L366.472 94.1574L367.868 92.3206ZM368.541 91.4524L371.721 87.295L366.625 88.4899L368.541 91.4524ZM376.945 92.383L368.752 97.6821L368.06 96.6123L376.254 91.3133L376.945 92.383ZM378.408 100.419L374.61 102.875C374.297 103.077 374.117 103.288 374.07 103.508C374.03 103.722 374.117 103.994 374.33 104.323L374.839 105.111L373.934 105.696L373.311 104.732C372.926 104.136 372.774 103.601 372.856 103.126C372.937 102.651 373.292 102.21 373.919 101.805L377.716 99.3491L377.176 98.5144L378.058 97.9442L378.597 98.7789L380.22 97.7297L380.912 98.7995L379.289 99.8486L380.376 101.53L379.495 102.1L378.408 100.419ZM382.065 110.663C381.861 110.794 381.638 110.922 381.395 111.045L378.065 105.896C377.456 106.346 377.098 106.883 376.99 107.508C376.896 108.136 377.032 108.732 377.397 109.297C377.696 109.759 378.05 110.075 378.459 110.243C378.881 110.415 379.313 110.447 379.755 110.339L380.5 111.491C379.769 111.719 379.041 111.701 378.314 111.437C377.596 111.169 376.988 110.65 376.491 109.882C376.096 109.271 375.878 108.633 375.838 107.97C375.804 107.315 375.948 106.688 376.272 106.089C376.604 105.485 377.104 104.968 377.77 104.537C378.436 104.106 379.106 103.862 379.78 103.804C380.454 103.746 381.079 103.87 381.654 104.176C382.243 104.484 382.74 104.952 383.145 105.579C383.541 106.19 383.757 106.817 383.795 107.46C383.832 108.102 383.697 108.701 383.389 109.256C383.094 109.814 382.652 110.282 382.065 110.663ZM381.573 109.413C381.981 109.15 382.271 108.834 382.445 108.466C382.626 108.093 382.69 107.702 382.636 107.292C382.595 106.885 382.453 106.493 382.21 106.117C381.86 105.576 381.388 105.226 380.795 105.065C380.207 104.911 379.59 105.005 378.943 105.346L381.573 109.413ZM381.707 117.715L383.117 114.636L379.768 114.717L379.046 113.6L383.589 113.613L385.488 109.434L386.271 110.645L384.873 113.717L388.202 113.631L388.925 114.748L384.401 114.739L382.49 118.926L381.707 117.715ZM389.598 117.722L385.801 120.178C385.487 120.381 385.307 120.592 385.26 120.811C385.221 121.025 385.308 121.297 385.52 121.626L386.03 122.414L385.125 122.999L384.501 122.035C384.116 121.44 383.964 120.904 384.046 120.429C384.128 119.954 384.482 119.513 385.109 119.108L388.906 116.652L388.366 115.818L389.248 115.247L389.788 116.082L391.41 115.033L392.102 116.103L390.48 117.152L391.567 118.833L390.685 119.403L389.598 117.722ZM394.44 125.209L390.643 127.665C390.329 127.867 390.149 128.078 390.102 128.298C390.063 128.512 390.149 128.784 390.362 129.113L390.872 129.901L389.966 130.486L389.343 129.522C388.958 128.926 388.806 128.391 388.888 127.916C388.969 127.441 389.324 127 389.951 126.595L393.748 124.139L393.208 123.305L394.09 122.734L394.63 123.569L396.252 122.52L396.944 123.59L395.321 124.639L396.409 126.32L395.527 126.89L394.44 125.209ZM392.539 134.696C392.148 134.092 391.931 133.455 391.886 132.784C391.846 132.12 391.985 131.485 392.305 130.879C392.637 130.275 393.136 129.758 393.802 129.327C394.46 128.901 395.131 128.667 395.815 128.625C396.512 128.586 397.154 128.727 397.739 129.048C398.333 129.364 398.828 129.828 399.223 130.44C399.618 131.051 399.838 131.692 399.883 132.363C399.936 133.029 399.803 133.666 399.484 134.272C399.17 134.886 398.68 135.409 398.014 135.84C397.348 136.271 396.663 136.502 395.961 136.534C395.272 136.568 394.628 136.423 394.03 136.099C393.431 135.775 392.934 135.307 392.539 134.696ZM393.479 134.087C393.728 134.471 394.051 134.774 394.449 134.994C394.847 135.214 395.292 135.31 395.785 135.281C396.282 135.259 396.789 135.081 397.307 134.747C397.824 134.412 398.197 134.026 398.426 133.589C398.654 133.152 398.749 132.714 398.708 132.273C398.675 131.827 398.535 131.412 398.287 131.028C398.033 130.637 397.71 130.334 397.317 130.122C396.937 129.912 396.503 129.826 396.016 129.863C395.528 129.9 395.026 130.086 394.509 130.42C393.984 130.76 393.602 131.14 393.363 131.562C393.129 131.991 393.026 132.424 393.054 132.862C393.089 133.295 393.231 133.703 393.479 134.087ZM400.301 144.301L407.049 142.772L407.786 143.913L399.709 145.551L398.903 144.305L403.711 137.611L404.456 138.763L400.301 144.301ZM409.893 144.876C409.761 144.673 409.72 144.455 409.77 144.222C409.82 143.99 409.947 143.808 410.151 143.676C410.355 143.544 410.573 143.503 410.805 143.553C411.037 143.603 411.219 143.73 411.351 143.934C411.478 144.13 411.514 144.34 411.459 144.564C411.409 144.797 411.282 144.979 411.078 145.11C410.875 145.242 410.656 145.283 410.424 145.233C410.197 145.191 410.02 145.072 409.893 144.876ZM409.181 146.07L402.739 150.237L402.047 149.167L408.49 145L409.181 146.07ZM406.927 149.597C407.586 149.171 408.248 148.932 408.914 148.879C409.588 148.821 410.211 148.935 410.785 149.22C411.363 149.513 411.84 149.949 412.215 150.529C412.539 151.031 412.723 151.573 412.767 152.156C412.819 152.734 412.73 153.258 412.501 153.729L415.91 151.524L416.609 152.606L407.91 158.232L407.21 157.15L408.421 156.367C407.9 156.404 407.38 156.296 406.861 156.042C406.349 155.784 405.914 155.377 405.554 154.82C405.184 154.248 404.988 153.636 404.966 152.983C404.949 152.338 405.109 151.718 405.446 151.122C405.783 150.526 406.277 150.018 406.927 149.597ZM410.443 155.059C410.929 154.745 411.289 154.373 411.523 153.944C411.757 153.515 411.859 153.071 411.829 152.613C411.812 152.157 411.674 151.729 411.416 151.329C411.157 150.93 410.827 150.626 410.426 150.419C410.025 150.211 409.581 150.126 409.094 150.163C408.607 150.2 408.12 150.376 407.634 150.69C407.141 151.01 406.773 151.386 406.531 151.82C406.298 152.25 406.189 152.692 406.206 153.148C406.231 153.599 406.372 154.024 406.631 154.424C406.889 154.823 407.219 155.127 407.62 155.335C408.034 155.545 408.485 155.631 408.972 155.594C409.467 155.552 409.957 155.374 410.443 155.059ZM416.371 163.71C416.167 163.842 415.944 163.969 415.702 164.093L412.372 158.944C411.762 159.393 411.404 159.931 411.297 160.556C411.203 161.184 411.338 161.78 411.703 162.344C412.002 162.806 412.356 163.122 412.765 163.291C413.188 163.462 413.62 163.494 414.061 163.386L414.806 164.538C414.076 164.766 413.347 164.748 412.621 164.485C411.902 164.216 411.295 163.697 410.798 162.929C410.402 162.318 410.185 161.681 410.145 161.017C410.11 160.362 410.255 159.735 410.579 159.136C410.911 158.532 411.41 158.015 412.076 157.584C412.742 157.153 413.412 156.909 414.086 156.851C414.76 156.793 415.385 156.917 415.961 157.223C416.549 157.531 417.046 157.999 417.452 158.626C417.847 159.237 418.063 159.864 418.101 160.507C418.139 161.149 418.004 161.748 417.695 162.303C417.4 162.861 416.959 163.33 416.371 163.71ZM415.88 162.46C416.287 162.197 416.578 161.881 416.751 161.513C416.932 161.14 416.996 160.749 416.942 160.339C416.901 159.932 416.759 159.541 416.516 159.165C416.166 158.624 415.695 158.273 415.102 158.112C414.514 157.959 413.896 158.052 413.249 158.393L415.88 162.46ZM415.55 170.278C415.16 169.675 414.942 169.037 414.897 168.366C414.858 167.703 414.997 167.068 415.316 166.461C415.648 165.858 416.147 165.34 416.814 164.91C417.472 164.484 418.143 164.25 418.827 164.208C419.524 164.168 420.165 164.309 420.751 164.63C421.345 164.947 421.839 165.411 422.235 166.022C422.63 166.633 422.85 167.274 422.895 167.946C422.948 168.612 422.815 169.248 422.496 169.854C422.182 170.469 421.692 170.991 421.025 171.422C420.359 171.853 419.675 172.084 418.973 172.116C418.284 172.15 417.64 172.005 417.041 171.681C416.443 171.357 415.946 170.889 415.55 170.278ZM416.491 169.67C416.739 170.054 417.062 170.356 417.461 170.576C417.859 170.797 418.304 170.892 418.796 170.863C419.294 170.841 419.801 170.663 420.318 170.329C420.836 169.994 421.209 169.609 421.437 169.172C421.666 168.735 421.76 168.296 421.72 167.855C421.687 167.41 421.547 166.995 421.298 166.611C421.045 166.219 420.722 165.917 420.328 165.704C419.948 165.494 419.514 165.408 419.027 165.445C418.54 165.482 418.038 165.668 417.521 166.003C416.995 166.342 416.613 166.723 416.375 167.144C416.141 167.573 416.038 168.007 416.065 168.445C416.101 168.877 416.242 169.286 416.491 169.67Z" fill="#666666"/>
<path d="M293.028 127.442C292.626 128.148 292.049 128.598 291.294 128.792C290.552 128.982 289.687 128.796 288.697 128.233L287.066 127.305L285.052 130.846L283.945 130.217L288.769 121.735L291.507 123.292C292.464 123.836 293.059 124.481 293.291 125.224C293.531 125.973 293.443 126.712 293.028 127.442ZM289.216 127.32C289.833 127.671 290.363 127.795 290.807 127.694C291.252 127.592 291.615 127.294 291.896 126.799C292.491 125.752 292.189 124.887 290.988 124.205L289.357 123.277L287.585 126.392L289.216 127.32ZM295.313 129.29C295.724 129.019 296.169 128.88 296.646 128.872C297.131 128.869 297.633 129.015 298.152 129.31L297.501 130.454L297.209 130.288C295.968 129.582 294.965 129.902 294.199 131.249L292.136 134.875L291.029 134.246L294.821 127.577L295.929 128.207L295.313 129.29ZM298.451 138.612C297.826 138.257 297.339 137.792 296.989 137.217C296.648 136.647 296.479 136.019 296.482 135.334C296.498 134.645 296.702 133.956 297.094 133.266C297.482 132.585 297.97 132.068 298.557 131.715C299.157 131.358 299.791 131.187 300.459 131.202C301.132 131.209 301.784 131.392 302.417 131.752C303.05 132.112 303.541 132.579 303.891 133.154C304.245 133.72 304.421 134.346 304.417 135.032C304.422 135.722 304.228 136.411 303.836 137.101C303.444 137.791 302.944 138.311 302.336 138.663C301.74 139.012 301.102 139.18 300.421 139.169C299.741 139.158 299.084 138.972 298.451 138.612ZM299.005 137.639C299.402 137.865 299.828 137.984 300.283 137.995C300.738 138.007 301.178 137.887 301.601 137.633C302.032 137.385 302.4 136.993 302.704 136.457C303.009 135.922 303.162 135.408 303.163 134.914C303.165 134.421 303.046 133.988 302.806 133.616C302.572 133.236 302.256 132.933 301.858 132.706C301.453 132.476 301.026 132.357 300.579 132.35C300.145 132.339 299.721 132.462 299.306 132.72C298.891 132.978 298.531 133.375 298.226 133.91C297.917 134.454 297.754 134.967 297.736 135.451C297.727 135.94 297.835 136.372 298.062 136.748C298.293 137.116 298.607 137.412 299.005 137.639ZM304.922 137.702C305.31 137.021 305.787 136.503 306.353 136.149C306.924 135.786 307.53 135.599 308.17 135.588C308.818 135.581 309.443 135.748 310.043 136.089C310.562 136.385 310.976 136.781 311.284 137.278C311.596 137.767 311.759 138.273 311.773 138.796L313.78 135.267L314.9 135.904L309.778 144.909L308.658 144.273L309.371 143.019C308.926 143.292 308.415 143.436 307.837 143.451C307.264 143.458 306.689 143.298 306.113 142.97C305.521 142.633 305.065 142.18 304.744 141.612C304.431 141.047 304.287 140.423 304.311 139.739C304.335 139.055 304.539 138.376 304.922 137.702ZM310.562 140.926C310.848 140.423 310.995 139.927 311.005 139.439C311.014 138.95 310.9 138.509 310.662 138.116C310.437 137.72 310.117 137.404 309.703 137.168C309.289 136.933 308.857 136.816 308.405 136.817C307.954 136.818 307.521 136.947 307.105 137.205C306.69 137.463 306.34 137.843 306.054 138.346C305.763 138.857 305.611 139.361 305.597 139.858C305.587 140.346 305.695 140.789 305.92 141.185C306.15 141.574 306.472 141.886 306.886 142.121C307.3 142.357 307.733 142.474 308.184 142.473C308.648 142.468 309.088 142.337 309.503 142.08C309.923 141.814 310.276 141.429 310.562 140.926ZM321.393 142.69L317.6 149.358L316.493 148.729L317.053 147.743C316.649 147.964 316.2 148.063 315.708 148.041C315.229 148.015 314.762 147.873 314.308 147.615C313.788 147.319 313.382 146.949 313.088 146.502C312.799 146.048 312.655 145.537 312.656 144.968C312.665 144.404 312.845 143.814 313.196 143.198L315.418 139.291L316.513 139.914L314.374 143.674C314.001 144.332 313.879 144.933 314.008 145.479C314.142 146.017 314.497 146.45 315.073 146.778C315.666 147.115 316.236 147.198 316.784 147.026C317.333 146.855 317.805 146.42 318.202 145.723L320.286 142.06L321.393 142.69ZM320.996 146.861C321.388 146.171 321.868 145.649 322.434 145.295C323.005 144.933 323.615 144.748 324.263 144.741C324.92 144.738 325.564 144.917 326.197 145.277C327.016 145.743 327.577 146.325 327.878 147.022C328.187 147.724 328.227 148.477 327.995 149.28L326.803 148.601C326.92 148.131 326.879 147.684 326.68 147.259C326.49 146.839 326.151 146.491 325.664 146.214C325.031 145.854 324.396 145.783 323.757 145.999C323.123 146.208 322.58 146.709 322.128 147.504C321.671 148.308 321.513 149.039 321.653 149.699C321.793 150.358 322.18 150.868 322.812 151.228C323.299 151.505 323.769 151.622 324.223 151.579C324.677 151.537 325.085 151.339 325.446 150.986L326.639 151.665C326.073 152.245 325.404 152.589 324.634 152.698C323.867 152.8 323.083 152.622 322.279 152.165C321.647 151.805 321.164 151.342 320.83 150.777C320.505 150.216 320.352 149.598 320.372 148.922C320.391 148.245 320.599 147.558 320.996 146.861ZM331.559 149.68L329.324 153.611C329.139 153.935 329.077 154.206 329.136 154.422C329.2 154.63 329.403 154.831 329.743 155.025L330.559 155.489L330.026 156.426L329.028 155.858C328.411 155.508 328.03 155.103 327.883 154.643C327.736 154.184 327.847 153.63 328.216 152.981L330.452 149.05L329.588 148.559L330.107 147.646L330.971 148.137L331.926 146.458L333.034 147.088L332.079 148.767L333.819 149.757L333.3 150.67L331.559 149.68ZM340.772 160.041L337.072 157.937L335.318 159.436L334.149 158.771L342.013 152.082L343.291 152.809L341.548 162.979L340.38 162.315L340.772 160.041ZM340.967 158.961L341.87 153.805L337.901 157.216L340.967 158.961ZM348.853 155.908L344.029 164.39L342.921 163.76L347.746 155.278L348.853 155.908Z" fill="#666666"/>
<path d="M251.077 213.927L246.821 213.971L246.059 216.149L244.715 216.162L248.144 206.425L249.614 206.41L253.227 216.075L251.883 216.089L251.077 213.927ZM250.702 212.895L248.888 207.985L247.174 212.931L250.702 212.895ZM255.98 206.288L256.08 216.046L254.806 216.059L254.706 206.301L255.98 206.288ZM261.552 212.126C261.544 211.342 261.696 210.654 262.007 210.063C262.318 209.462 262.747 208.996 263.295 208.663C263.851 208.331 264.47 208.161 265.152 208.154C265.824 208.147 266.408 208.286 266.906 208.57C267.404 208.855 267.776 209.215 268.023 209.651L268.009 208.251L269.297 208.238L269.375 215.909L268.087 215.923L268.073 214.495C267.825 214.945 267.451 215.322 266.95 215.626C266.459 215.921 265.882 216.071 265.219 216.078C264.538 216.085 263.92 215.923 263.366 215.593C262.812 215.263 262.373 214.796 262.049 214.193C261.726 213.589 261.56 212.9 261.552 212.126ZM268.048 212.073C268.042 211.494 267.92 210.991 267.683 210.565C267.445 210.138 267.124 209.814 266.72 209.594C266.326 209.365 265.891 209.253 265.415 209.258C264.939 209.263 264.506 209.379 264.116 209.607C263.727 209.835 263.418 210.165 263.189 210.597C262.96 211.028 262.848 211.534 262.854 212.112C262.86 212.7 262.982 213.212 263.22 213.648C263.458 214.075 263.774 214.404 264.168 214.633C264.562 214.853 264.997 214.96 265.473 214.955C265.949 214.951 266.382 214.834 266.772 214.606C267.171 214.369 267.485 214.034 267.714 213.602C267.942 213.161 268.054 212.651 268.048 212.073ZM272.778 209.448C272.998 209.007 273.312 208.663 273.72 208.416C274.137 208.17 274.645 208.043 275.242 208.037L275.255 209.353L274.919 209.356C273.491 209.371 272.785 210.153 272.801 211.702L272.844 215.874L271.57 215.887L271.492 208.215L272.765 208.202L272.778 209.448ZM278.321 209.195L278.367 213.717C278.371 214.09 278.453 214.356 278.613 214.513C278.773 214.66 279.049 214.732 279.441 214.728L280.379 214.718L280.39 215.796L279.243 215.808C278.533 215.815 278 215.658 277.642 215.335C277.284 215.012 277.101 214.477 277.093 213.73L277.047 209.208L276.053 209.219L276.042 208.169L277.036 208.158L277.016 206.227L278.29 206.213L278.31 208.145L280.312 208.125L280.322 209.175L278.321 209.195ZM282.542 206.856C282.3 206.858 282.094 206.776 281.924 206.61C281.754 206.444 281.668 206.239 281.666 205.997C281.663 205.754 281.745 205.548 281.911 205.378C282.078 205.209 282.282 205.122 282.525 205.12C282.758 205.118 282.955 205.2 283.115 205.366C283.285 205.532 283.371 205.737 283.373 205.979C283.376 206.222 283.294 206.428 283.128 206.598C282.971 206.767 282.776 206.853 282.542 206.856ZM283.171 208.095L283.25 215.767L281.976 215.78L281.897 208.109L283.171 208.095ZM284.948 211.899C284.939 211.106 285.091 210.414 285.402 209.823C285.714 209.222 286.147 208.756 286.704 208.423C287.27 208.091 287.917 207.921 288.645 207.913C289.588 207.904 290.365 208.124 290.976 208.575C291.596 209.026 292.009 209.657 292.213 210.467L290.841 210.481C290.706 210.016 290.445 209.65 290.06 209.383C289.684 209.116 289.216 208.985 288.656 208.991C287.928 208.999 287.343 209.257 286.9 209.765C286.457 210.265 286.24 210.971 286.25 211.886C286.259 212.81 286.49 213.522 286.943 214.021C287.397 214.52 287.987 214.766 288.715 214.759C289.275 214.753 289.74 214.618 290.111 214.353C290.482 214.087 290.735 213.711 290.87 213.225L292.241 213.211C292.044 213.997 291.64 214.631 291.029 215.113C290.418 215.586 289.65 215.827 288.726 215.837C287.998 215.844 287.348 215.688 286.775 215.367C286.212 215.046 285.769 214.588 285.445 213.994C285.122 213.4 284.956 212.702 284.948 211.899ZM295.176 205.284L295.282 215.644L294.009 215.657L293.902 205.297L295.176 205.284ZM304.453 211.419C304.455 211.662 304.444 211.919 304.419 212.19L298.287 212.253C298.342 213.008 298.604 213.598 299.075 214.023C299.556 214.438 300.132 214.642 300.804 214.635C301.354 214.629 301.81 214.499 302.172 214.243C302.542 213.978 302.8 213.63 302.945 213.199L304.317 213.185C304.119 213.924 303.715 214.53 303.104 215.003C302.492 215.467 301.729 215.703 300.815 215.713C300.087 215.72 299.432 215.564 298.85 215.243C298.277 214.922 297.825 214.465 297.492 213.871C297.159 213.268 296.988 212.569 296.98 211.776C296.972 210.983 297.124 210.286 297.435 209.685C297.746 209.085 298.185 208.623 298.751 208.3C299.326 207.967 299.987 207.797 300.733 207.789C301.461 207.782 302.107 207.934 302.67 208.245C303.234 208.557 303.667 208.991 303.972 209.548C304.285 210.096 304.446 210.719 304.453 211.419ZM303.134 211.167C303.129 210.681 303.018 210.267 302.8 209.924C302.581 209.572 302.285 209.309 301.909 209.135C301.543 208.952 301.137 208.863 300.689 208.868C300.045 208.874 299.496 209.085 299.043 209.501C298.599 209.916 298.348 210.488 298.291 211.217L303.134 211.167ZM320.134 207.716L317.819 215.412L316.503 215.426L314.592 209.355L312.807 215.464L311.491 215.477L309.004 207.83L310.306 207.817L312.136 214.239L313.974 207.779L315.276 207.766L317.204 214.201L318.874 207.729L320.134 207.716ZM322.085 206.45C321.843 206.453 321.636 206.371 321.467 206.204C321.297 206.038 321.211 205.834 321.208 205.591C321.206 205.348 321.288 205.142 321.454 204.972C321.62 204.803 321.825 204.717 322.068 204.714C322.301 204.712 322.498 204.794 322.658 204.96C322.828 205.126 322.914 205.331 322.916 205.574C322.919 205.816 322.837 206.022 322.671 206.192C322.514 206.362 322.319 206.448 322.085 206.45ZM322.714 207.69L322.793 215.361L321.519 215.374L321.44 207.703L322.714 207.69ZM325.947 214.279L329.713 214.24L329.724 215.29L324.502 215.344L324.491 214.294L328.158 208.67L324.462 208.708L324.451 207.672L329.617 207.619L329.628 208.655L325.947 214.279ZM330.903 211.414C330.895 210.63 331.047 209.942 331.358 209.351C331.669 208.751 332.098 208.284 332.646 207.952C333.202 207.619 333.821 207.45 334.503 207.443C335.175 207.436 335.759 207.575 336.257 207.859C336.755 208.143 337.127 208.503 337.374 208.939L337.36 207.539L338.648 207.526L338.726 215.198L337.438 215.211L337.424 213.783C337.176 214.234 336.802 214.611 336.301 214.915C335.81 215.209 335.233 215.36 334.57 215.366C333.889 215.373 333.271 215.212 332.717 214.881C332.163 214.551 331.724 214.084 331.4 213.481C331.077 212.878 330.911 212.189 330.903 211.414ZM337.399 211.361C337.393 210.783 337.271 210.28 337.033 209.853C336.796 209.426 336.475 209.103 336.071 208.883C335.677 208.653 335.242 208.541 334.766 208.546C334.29 208.551 333.857 208.667 333.467 208.895C333.078 209.123 332.768 209.453 332.54 209.885C332.311 210.317 332.199 210.822 332.205 211.401C332.211 211.988 332.333 212.501 332.571 212.937C332.809 213.364 333.125 213.692 333.519 213.921C333.913 214.141 334.348 214.249 334.824 214.244C335.3 214.239 335.733 214.122 336.123 213.894C336.522 213.657 336.836 213.322 337.065 212.891C337.293 212.45 337.405 211.94 337.399 211.361ZM342.129 208.737C342.349 208.296 342.662 207.952 343.071 207.705C343.488 207.458 343.996 207.331 344.593 207.325L344.606 208.641L344.27 208.645C342.842 208.659 342.136 209.441 342.152 210.99L342.195 215.162L340.921 215.175L340.842 207.504L342.116 207.491L342.129 208.737ZM345.67 211.262C345.662 210.478 345.814 209.791 346.125 209.2C346.436 208.599 346.865 208.133 347.413 207.8C347.969 207.468 348.593 207.298 349.283 207.291C349.881 207.285 350.437 207.419 350.954 207.694C351.47 207.959 351.865 208.315 352.141 208.76L352.099 204.7L353.387 204.687L353.493 215.046L352.205 215.06L352.19 213.618C351.943 214.077 351.574 214.459 351.082 214.763C350.59 215.057 350.013 215.208 349.351 215.215C348.669 215.222 348.047 215.06 347.484 214.73C346.93 214.4 346.491 213.933 346.167 213.329C345.844 212.726 345.678 212.037 345.67 211.262ZM352.166 211.21C352.16 210.631 352.038 210.128 351.8 209.701C351.563 209.274 351.242 208.951 350.838 208.731C350.444 208.502 350.009 208.39 349.533 208.395C349.057 208.399 348.624 208.516 348.234 208.744C347.845 208.972 347.535 209.302 347.306 209.733C347.077 210.165 346.966 210.67 346.972 211.249C346.978 211.837 347.1 212.349 347.338 212.785C347.575 213.212 347.891 213.54 348.286 213.77C348.68 213.99 349.115 214.097 349.591 214.092C350.067 214.087 350.5 213.971 350.89 213.743C351.289 213.505 351.602 213.171 351.831 212.739C352.06 212.298 352.172 211.788 352.166 211.21Z" fill="#666666"/>
<path d="M280.484 295.483L276.676 297.385L276.944 299.676L275.742 300.277L274.564 290.021L275.879 289.364L283.357 296.474L282.155 297.074L280.484 295.483ZM279.695 294.719L275.915 291.098L276.539 296.295L279.695 294.719ZM281.55 286.469L285.91 295.199L284.77 295.768L280.411 287.038L281.55 286.469ZM296.983 281.094L298.268 289.027L297.091 289.615L292.717 284.993L293.784 291.267L292.607 291.855L287.025 286.067L288.19 285.485L292.645 290.458L291.472 283.846L292.636 283.264L297.186 288.207L295.855 281.657L296.983 281.094ZM305.996 280.552C306.105 280.769 306.207 281.005 306.303 281.26L300.817 283.999C301.196 284.655 301.691 285.07 302.3 285.246C302.914 285.409 303.521 285.34 304.122 285.04C304.615 284.794 304.968 284.477 305.181 284.089C305.398 283.688 305.477 283.263 305.419 282.812L306.647 282.199C306.792 282.95 306.694 283.672 306.351 284.365C306.005 285.049 305.422 285.596 304.604 286.005C303.952 286.33 303.295 286.476 302.631 286.442C301.976 286.404 301.369 286.191 300.81 285.802C300.246 285.405 299.787 284.852 299.433 284.142C299.079 283.433 298.91 282.74 298.927 282.064C298.944 281.387 299.136 280.78 299.504 280.242C299.876 279.691 300.396 279.249 301.064 278.915C301.715 278.59 302.362 278.444 303.005 278.478C303.647 278.512 304.228 278.712 304.745 279.08C305.266 279.435 305.684 279.926 305.996 280.552ZM304.7 280.902C304.483 280.468 304.202 280.144 303.855 279.931C303.505 279.71 303.123 279.603 302.71 279.611C302.301 279.607 301.896 279.705 301.495 279.905C300.919 280.193 300.518 280.622 300.292 281.194C300.075 281.762 300.1 282.386 300.366 283.066L304.7 280.902ZM307.734 277.321C307.763 276.795 307.939 276.291 308.26 275.806C308.582 275.322 309.031 274.937 309.607 274.649C310.225 274.34 310.853 274.209 311.492 274.255C312.13 274.302 312.725 274.521 313.276 274.914C313.823 275.298 314.271 275.841 314.621 276.542C314.967 277.235 315.134 277.924 315.121 278.609C315.108 279.293 314.926 279.911 314.575 280.462C314.233 281.008 313.757 281.434 313.147 281.738C312.554 282.034 311.968 282.165 311.388 282.132C310.816 282.094 310.317 281.931 309.892 281.643L310.523 282.908L309.384 283.477L304.755 274.208L305.895 273.639L307.734 277.321ZM313.456 277.124C313.198 276.606 312.868 276.207 312.468 275.928C312.067 275.648 311.637 275.497 311.178 275.476C310.727 275.451 310.289 275.545 309.863 275.757C309.446 275.966 309.11 276.264 308.855 276.652C308.604 277.028 308.468 277.466 308.447 277.967C308.43 278.455 308.549 278.954 308.803 279.463C309.062 279.981 309.393 280.384 309.798 280.672C310.207 280.948 310.639 281.102 311.094 281.136C311.553 281.157 311.991 281.063 312.409 280.855C312.835 280.642 313.173 280.348 313.424 279.973C313.678 279.585 313.814 279.146 313.831 278.658C313.844 278.161 313.719 277.65 313.456 277.124ZM320.372 278.13C319.845 278.393 319.33 278.541 318.825 278.574C318.316 278.599 317.861 278.513 317.46 278.317C317.055 278.112 316.736 277.807 316.503 277.402L317.68 276.814C317.884 277.14 318.183 277.341 318.575 277.416C318.976 277.487 319.41 277.406 319.877 277.172C320.312 276.955 320.606 276.688 320.761 276.371C320.915 276.054 320.92 275.749 320.774 275.457C320.623 275.157 320.379 275.002 320.041 274.994C319.699 274.977 319.213 275.037 318.582 275.174C318.006 275.295 317.522 275.37 317.13 275.399C316.742 275.416 316.364 275.349 315.997 275.198C315.634 275.035 315.341 274.732 315.12 274.29C314.945 273.939 314.889 273.566 314.952 273.169C315.015 272.773 315.197 272.395 315.497 272.036C315.794 271.669 316.188 271.362 316.681 271.116C317.441 270.737 318.151 270.622 318.81 270.773C319.469 270.924 319.983 271.325 320.35 271.976L319.21 272.545C319.005 272.199 318.715 271.983 318.34 271.9C317.973 271.812 317.568 271.879 317.125 272.1C316.716 272.304 316.434 272.554 316.279 272.85C316.125 273.147 316.119 273.437 316.26 273.721C316.373 273.946 316.538 274.099 316.755 274.178C316.976 274.245 317.218 274.27 317.481 274.253C317.748 274.224 318.105 274.166 318.552 274.079C319.111 273.966 319.579 273.9 319.954 273.879C320.326 273.85 320.685 273.911 321.031 274.061C321.386 274.207 321.671 274.487 321.888 274.901C322.076 275.276 322.14 275.667 322.082 276.071C322.023 276.476 321.846 276.862 321.549 277.229C321.257 277.584 320.864 277.884 320.372 278.13ZM321.071 267.672C320.854 267.781 320.633 267.797 320.408 267.722C320.182 267.647 320.015 267.5 319.907 267.283C319.798 267.066 319.782 266.845 319.857 266.62C319.932 266.394 320.079 266.227 320.296 266.119C320.504 266.015 320.717 266.002 320.934 266.082C321.16 266.157 321.327 266.303 321.435 266.52C321.543 266.737 321.56 266.959 321.485 267.184C321.418 267.405 321.28 267.568 321.071 267.672ZM322.179 268.512L325.607 275.375L324.467 275.945L321.039 269.081L322.179 268.512ZM326.019 267.768L328.039 271.814C328.206 272.148 328.395 272.35 328.608 272.421C328.817 272.484 329.097 272.428 329.447 272.252L330.287 271.833L330.768 272.798L329.741 273.311C329.106 273.628 328.558 273.719 328.094 273.585C327.631 273.452 327.233 273.051 326.899 272.383L324.879 268.337L323.989 268.781L323.52 267.842L324.41 267.398L323.547 265.669L324.686 265.1L325.549 266.829L327.341 265.934L327.81 266.873L326.019 267.768ZM336.604 265.267C336.713 265.484 336.815 265.72 336.911 265.975L331.425 268.714C331.804 269.37 332.298 269.785 332.908 269.961C333.521 270.124 334.129 270.056 334.73 269.755C335.222 269.509 335.575 269.192 335.788 268.804C336.006 268.404 336.085 267.978 336.027 267.527L337.254 266.914C337.4 267.666 337.302 268.388 336.959 269.08C336.612 269.765 336.03 270.311 335.211 270.72C334.56 271.045 333.903 271.191 333.239 271.157C332.584 271.119 331.977 270.906 331.417 270.518C330.854 270.121 330.395 269.567 330.041 268.858C329.686 268.148 329.518 267.455 329.535 266.779C329.552 266.103 329.744 265.495 330.112 264.957C330.483 264.406 331.003 263.964 331.671 263.631C332.323 263.305 332.97 263.16 333.612 263.193C334.255 263.227 334.835 263.428 335.353 263.795C335.874 264.15 336.291 264.641 336.604 265.267ZM335.308 265.617C335.091 265.183 334.81 264.859 334.463 264.646C334.113 264.425 333.731 264.318 333.318 264.326C332.909 264.322 332.504 264.42 332.103 264.62C331.527 264.908 331.126 265.337 330.9 265.909C330.683 266.477 330.707 267.101 330.974 267.781L335.308 265.617ZM341.718 260.35C341.748 259.824 341.923 259.319 342.245 258.835C342.567 258.351 343.016 257.966 343.592 257.678C344.21 257.369 344.838 257.238 345.476 257.284C346.115 257.331 346.71 257.55 347.26 257.943C347.807 258.327 348.255 258.87 348.606 259.571C348.952 260.264 349.118 260.953 349.106 261.638C349.093 262.322 348.911 262.94 348.56 263.491C348.217 264.037 347.741 264.463 347.132 264.767C346.539 265.063 345.952 265.194 345.372 265.161C344.8 265.123 344.302 264.96 343.876 264.672L344.508 265.937L343.368 266.506L338.74 257.237L339.879 256.668L341.718 260.35ZM347.441 260.153C347.182 259.635 346.853 259.236 346.452 258.957C346.052 258.677 345.622 258.526 345.163 258.505C344.712 258.48 344.274 258.574 343.848 258.786C343.43 258.995 343.094 259.293 342.839 259.681C342.589 260.057 342.453 260.495 342.432 260.996C342.415 261.484 342.533 261.983 342.788 262.492C343.046 263.01 343.378 263.413 343.783 263.701C344.192 263.977 344.624 264.131 345.079 264.165C345.538 264.186 345.976 264.092 346.393 263.884C346.819 263.671 347.158 263.377 347.408 263.002C347.663 262.614 347.799 262.175 347.816 261.687C347.829 261.19 347.704 260.679 347.441 260.153ZM354.53 252.357L357.957 259.22L356.817 259.79L356.311 258.775C356.269 259.234 356.102 259.662 355.809 260.058C355.521 260.442 355.143 260.751 354.675 260.984C354.141 261.251 353.607 261.382 353.072 261.378C352.534 261.365 352.029 261.2 351.558 260.883C351.094 260.561 350.704 260.083 350.387 259.448L348.38 255.428L349.507 254.865L351.44 258.735C351.777 259.411 352.209 259.848 352.735 260.044C353.257 260.232 353.814 260.178 354.407 259.882C355.016 259.578 355.403 259.15 355.566 258.599C355.729 258.048 355.631 257.414 355.272 256.696L353.39 252.926L354.53 252.357ZM356.524 249.968C356.306 250.077 356.085 250.093 355.86 250.018C355.635 249.943 355.468 249.796 355.359 249.579C355.251 249.362 355.234 249.141 355.309 248.916C355.385 248.69 355.531 248.523 355.748 248.415C355.957 248.311 356.17 248.298 356.387 248.378C356.612 248.453 356.779 248.599 356.887 248.816C356.996 249.033 357.012 249.255 356.937 249.48C356.87 249.701 356.732 249.864 356.524 249.968ZM357.631 250.808L361.059 257.671L359.919 258.241L356.492 251.377L357.631 250.808ZM359.55 246.845L364.179 256.113L363.039 256.683L358.411 247.414L359.55 246.845ZM364.007 251.88C363.657 251.179 363.492 250.494 363.513 249.826C363.53 249.15 363.712 248.543 364.059 248.005C364.414 247.462 364.9 247.037 365.518 246.728C366.053 246.461 366.612 246.339 367.196 246.36C367.777 246.372 368.288 246.519 368.73 246.799L366.916 243.166L368.069 242.591L372.697 251.86L371.545 252.435L370.901 251.145C370.879 251.667 370.714 252.172 370.405 252.66C370.092 253.14 369.639 253.528 369.046 253.824C368.436 254.128 367.806 254.255 367.155 254.205C366.512 254.15 365.913 253.922 365.358 253.521C364.803 253.12 364.353 252.573 364.007 251.88ZM369.825 248.991C369.566 248.473 369.237 248.074 368.836 247.794C368.436 247.514 368.006 247.364 367.547 247.343C367.092 247.309 366.651 247.399 366.225 247.611C365.8 247.824 365.461 248.118 365.211 248.494C364.96 248.869 364.826 249.301 364.809 249.789C364.792 250.278 364.913 250.781 365.172 251.299C365.434 251.825 365.768 252.232 366.173 252.52C366.573 252.8 367.001 252.957 367.456 252.99C367.907 253.015 368.345 252.922 368.771 252.709C369.197 252.496 369.535 252.202 369.786 251.827C370.041 251.439 370.176 251.001 370.193 250.512C370.206 250.016 370.083 249.508 369.825 248.991ZM379.078 244.057C379.187 244.274 379.289 244.51 379.385 244.764L373.899 247.504C374.278 248.159 374.773 248.575 375.382 248.751C375.995 248.914 376.603 248.845 377.204 248.545C377.697 248.299 378.049 247.982 378.263 247.594C378.48 247.193 378.559 246.767 378.501 246.317L379.729 245.704C379.874 246.455 379.776 247.177 379.433 247.87C379.086 248.554 378.504 249.101 377.686 249.509C377.034 249.835 376.377 249.98 375.713 249.947C375.058 249.909 374.451 249.696 373.892 249.307C373.328 248.91 372.869 248.357 372.515 247.647C372.16 246.937 371.992 246.244 372.009 245.568C372.026 244.892 372.218 244.285 372.586 243.747C372.958 243.196 373.477 242.754 374.145 242.42C374.797 242.095 375.444 241.949 376.087 241.983C376.729 242.017 377.309 242.217 377.827 242.585C378.348 242.94 378.766 243.43 379.078 244.057ZM377.782 244.407C377.565 243.972 377.284 243.649 376.937 243.436C376.587 243.214 376.205 243.108 375.792 243.116C375.383 243.112 374.978 243.209 374.577 243.41C374.001 243.697 373.6 244.127 373.374 244.699C373.157 245.266 373.182 245.89 373.448 246.571L377.782 244.407ZM380.734 240.663C380.739 240.171 380.87 239.724 381.129 239.324C381.397 238.919 381.798 238.583 382.332 238.316L382.92 239.494L382.619 239.644C381.342 240.282 381.049 241.294 381.741 242.68L383.605 246.412L382.465 246.982L379.038 240.118L380.178 239.549L380.734 240.663Z" fill="#666666"/>
<path d="M352.393 341.268L349.968 344.765L351.304 346.646L350.538 347.75L344.577 339.322L345.414 338.114L355.389 340.756L354.623 341.86L352.393 341.268ZM351.335 340.976L346.28 339.617L349.324 343.875L351.335 340.976ZM348.997 332.85L357.016 338.411L356.289 339.458L348.271 333.896L348.997 332.85ZM361.024 325.385C361.223 325.523 361.426 325.681 361.633 325.859L358.138 330.897C358.786 331.29 359.419 331.417 360.038 331.278C360.654 331.126 361.154 330.774 361.537 330.222C361.851 329.769 362.008 329.322 362.008 328.879C362.006 328.423 361.871 328.012 361.604 327.644L362.386 326.517C362.874 327.106 363.135 327.787 363.167 328.559C363.192 329.325 362.944 330.085 362.423 330.836C362.008 331.434 361.501 331.878 360.903 332.168C360.31 332.449 359.675 332.554 358.998 332.482C358.313 332.405 357.645 332.14 356.993 331.688C356.341 331.236 355.86 330.709 355.55 330.108C355.24 329.507 355.117 328.882 355.181 328.233C355.242 327.571 355.486 326.934 355.911 326.32C356.326 325.722 356.824 325.283 357.404 325.004C357.984 324.725 358.589 324.622 359.219 324.696C359.847 324.756 360.449 324.986 361.024 325.385ZM360.055 326.315C359.656 326.038 359.254 325.89 358.848 325.869C358.434 325.844 358.048 325.934 357.69 326.139C357.329 326.332 357.021 326.612 356.765 326.981C356.398 327.51 356.253 328.079 356.33 328.689C356.412 329.291 356.734 329.827 357.295 330.295L360.055 326.315ZM364.239 314.289C364.579 313.799 364.986 313.433 365.459 313.193C365.924 312.948 366.437 312.855 366.998 312.915C367.559 312.974 368.131 313.206 368.714 313.611L372.429 316.188L371.711 317.223L368.145 314.75C367.516 314.313 366.928 314.138 366.38 314.224C365.83 314.297 365.371 314.598 365.004 315.127C364.626 315.671 364.502 316.227 364.632 316.794C364.753 317.355 365.144 317.865 365.803 318.322L369.278 320.732L368.559 321.767L364.993 319.294C364.364 318.857 363.776 318.682 363.228 318.768C362.678 318.841 362.219 319.142 361.852 319.671C361.475 320.215 361.351 320.771 361.48 321.338C361.602 321.899 361.992 322.409 362.652 322.866L366.126 325.276L365.4 326.323L359.096 321.95L359.822 320.903L360.731 321.534C360.544 321.098 360.483 320.646 360.546 320.179C360.614 319.704 360.795 319.255 361.087 318.833C361.454 318.304 361.898 317.919 362.417 317.677C362.937 317.436 363.496 317.375 364.094 317.495C363.772 317.01 363.629 316.479 363.665 315.902C363.702 315.325 363.893 314.788 364.239 314.289ZM370.198 312.625C369.554 312.178 369.08 311.657 368.778 311.061C368.468 310.46 368.336 309.84 368.381 309.201C368.432 308.555 368.652 307.952 369.04 307.392C369.423 306.84 369.874 306.443 370.394 306.201C370.913 305.96 371.423 305.864 371.921 305.915L370.771 305.117L371.505 304.059L377.809 308.431L377.075 309.489L375.902 308.676C376.126 309.138 376.218 309.661 376.176 310.246C376.132 310.817 375.921 311.375 375.543 311.92C375.155 312.479 374.666 312.89 374.076 313.151C373.486 313.412 372.851 313.5 372.172 313.415C371.492 313.33 370.834 313.067 370.198 312.625ZM373.912 307.295C373.436 306.965 372.955 306.774 372.47 306.721C371.984 306.668 371.535 306.743 371.122 306.945C370.707 307.134 370.364 307.424 370.092 307.815C369.821 308.206 369.666 308.627 369.626 309.077C369.587 309.526 369.677 309.969 369.897 310.406C370.117 310.842 370.464 311.225 370.94 311.555C371.423 311.89 371.911 312.087 372.405 312.145C372.891 312.198 373.341 312.13 373.756 311.941C374.164 311.747 374.503 311.454 374.774 311.063C375.046 310.672 375.201 310.251 375.24 309.801C375.277 309.339 375.186 308.889 374.966 308.453C374.739 308.011 374.387 307.625 373.912 307.295ZM372.107 301.004C371.969 301.204 371.783 301.325 371.549 301.367C371.315 301.409 371.099 301.361 370.899 301.223C370.7 301.085 370.579 300.898 370.537 300.665C370.494 300.431 370.542 300.214 370.681 300.015C370.814 299.823 370.994 299.71 371.223 299.675C371.457 299.633 371.673 299.681 371.873 299.819C372.072 299.958 372.193 300.144 372.235 300.377C372.283 300.604 372.24 300.813 372.107 301.004ZM373.482 301.208L379.786 305.581L379.06 306.628L372.756 302.255L373.482 301.208ZM373.261 296.811L381.774 302.715L381.048 303.762L372.535 297.858L373.261 296.811ZM380.782 293.19C380.555 292.714 380.466 292.187 380.516 291.608C380.565 291.029 380.773 290.475 381.14 289.946C381.534 289.378 382.022 288.961 382.604 288.695C383.187 288.429 383.813 288.335 384.485 288.415C385.149 288.489 385.803 288.75 386.447 289.197C387.084 289.638 387.561 290.162 387.879 290.769C388.196 291.375 388.334 292.004 388.291 292.656C388.253 293.3 388.04 293.902 387.652 294.462C387.274 295.006 386.823 295.403 386.298 295.652C385.778 295.894 385.262 295.991 384.75 295.942L385.912 296.748L385.186 297.795L376.673 291.891L377.4 290.844L380.782 293.19ZM385.705 290.267C385.23 289.937 384.749 289.745 384.264 289.692C383.778 289.64 383.329 289.714 382.916 289.916C382.508 290.111 382.169 290.403 381.898 290.795C381.632 291.178 381.48 291.601 381.443 292.064C381.404 292.514 381.495 292.963 381.717 293.413C381.937 293.849 382.281 294.23 382.749 294.554C383.224 294.884 383.709 295.078 384.202 295.136C384.693 295.181 385.146 295.109 385.562 294.92C385.974 294.718 386.314 294.425 386.58 294.042C386.851 293.651 387.006 293.23 387.046 292.781C387.083 292.318 386.991 291.868 386.771 291.432C386.544 290.99 386.189 290.602 385.705 290.267ZM388.176 280.023L394.48 284.396L393.754 285.442L392.822 284.796C393.006 285.219 393.065 285.674 392.999 286.163C392.931 286.638 392.747 287.09 392.45 287.519C392.109 288.01 391.704 288.382 391.233 288.635C390.755 288.882 390.232 288.98 389.666 288.928C389.106 288.869 388.534 288.637 387.951 288.233L384.258 285.672L384.976 284.636L388.531 287.102C389.152 287.533 389.741 287.708 390.296 287.627C390.844 287.542 391.307 287.227 391.684 286.682C392.073 286.122 392.206 285.562 392.084 285C391.963 284.439 391.572 283.929 390.912 283.472L387.45 281.07L388.176 280.023ZM388.777 276.97C388.639 277.17 388.453 277.291 388.219 277.333C387.985 277.375 387.768 277.327 387.569 277.189C387.37 277.051 387.249 276.865 387.206 276.631C387.164 276.397 387.212 276.18 387.35 275.981C387.483 275.789 387.664 275.676 387.893 275.641C388.126 275.599 388.343 275.647 388.542 275.785C388.742 275.924 388.863 276.11 388.905 276.344C388.953 276.57 388.91 276.779 388.777 276.97ZM390.152 277.174L396.456 281.547L395.73 282.594L389.426 278.221L390.152 277.174ZM389.931 272.777L398.443 278.681L397.717 279.728L389.205 273.824L389.931 272.777ZM396.258 275.051C395.614 274.605 395.141 274.083 394.839 273.487C394.529 272.886 394.396 272.266 394.442 271.628C394.493 270.981 394.715 270.374 395.108 269.807C395.449 269.316 395.88 268.94 396.403 268.677C396.918 268.41 397.437 268.292 397.959 268.325L394.623 266.012L395.357 264.953L403.87 270.858L403.136 271.916L401.951 271.094C402.183 271.562 402.281 272.084 402.244 272.661C402.2 273.232 401.989 273.79 401.612 274.334C401.223 274.894 400.732 275.309 400.136 275.577C399.546 275.838 398.912 275.926 398.232 275.841C397.553 275.756 396.895 275.493 396.258 275.051ZM399.972 269.722C399.497 269.392 399.016 269.201 398.53 269.148C398.045 269.095 397.595 269.169 397.182 269.371C396.767 269.56 396.424 269.851 396.153 270.242C395.882 270.633 395.726 271.053 395.687 271.503C395.648 271.953 395.738 272.396 395.958 272.832C396.177 273.269 396.525 273.652 397.001 273.982C397.484 274.317 397.972 274.513 398.465 274.572C398.951 274.625 399.402 274.557 399.817 274.367C400.224 274.173 400.564 273.88 400.835 273.489C401.106 273.098 401.262 272.678 401.301 272.228C401.338 271.765 401.246 271.315 401.027 270.879C400.799 270.437 400.448 270.051 399.972 269.722ZM405.717 260.948C405.916 261.087 406.119 261.244 406.325 261.422L402.831 266.46C403.478 266.853 404.112 266.98 404.73 266.841C405.347 266.689 405.847 266.337 406.229 265.785C406.543 265.333 406.7 264.885 406.701 264.442C406.699 263.987 406.564 263.575 406.296 263.208L407.078 262.08C407.567 262.669 407.828 263.35 407.86 264.122C407.885 264.889 407.637 265.648 407.115 266.399C406.7 266.998 406.194 267.441 405.596 267.731C405.003 268.012 404.368 268.117 403.691 268.045C403.006 267.968 402.338 267.703 401.686 267.251C401.034 266.799 400.553 266.272 400.243 265.671C399.933 265.07 399.81 264.445 399.874 263.796C399.935 263.134 400.179 262.497 400.604 261.883C401.019 261.285 401.516 260.846 402.096 260.567C402.676 260.288 403.281 260.185 403.912 260.259C404.54 260.32 405.141 260.549 405.717 260.948ZM404.748 261.878C404.349 261.601 403.947 261.453 403.541 261.433C403.127 261.407 402.741 261.497 402.382 261.702C402.021 261.895 401.713 262.176 401.458 262.544C401.091 263.073 400.946 263.642 401.023 264.252C401.105 264.854 401.426 265.39 401.987 265.858L404.748 261.878ZM405.538 257.177C405.306 256.743 405.207 256.288 405.241 255.812C405.281 255.328 405.471 254.841 405.812 254.351L406.893 255.101L406.702 255.377C405.888 256.55 406.117 257.578 407.39 258.461L410.819 260.839L410.093 261.886L403.788 257.513L404.515 256.466L405.538 257.177Z" fill="#666666"/>
<defs>
<filter id="filter0_bd_6882_5316" x="257.646" y="-28.958" width="150.921" height="150.921" filterUnits="userSpaceOnUse" color-interpolation-filters="sRGB">
<feFlood flood-opacity="0" result="BackgroundImageFix"/>
<feGaussianBlur in="BackgroundImageFix" stdDeviation="20.8154"/>
<feComposite in2="SourceAlpha" operator="in" result="effect1_backgroundBlur_6882_5316"/>
<feColorMatrix in="SourceAlpha" type="matrix" values="0 0 0 0 0 0 0 0 0 0 0 0 0 0 0 0 0 0 127 0" result="hardAlpha"/>
<feOffset dy="6.32368"/>
<feGaussianBlur stdDeviation="5.00624"/>
<feComposite in2="hardAlpha" operator="out"/>
<feColorMatrix type="matrix" values="0 0 0 0 0.0867708 0 0 0 0 0.115317 0 0 0 0 0.141667 0 0 0 0.08 0"/>
<feBlend mode="normal" in2="effect1_backgroundBlur_6882_5316" result="effect2_dropShadow_6882_5316"/>
<feBlend mode="normal" in="SourceGraphic" in2="effect2_dropShadow_6882_5316" result="shape"/>
</filter>
<filter id="filter1_bd_6882_5316" x="164.751" y="27.3418" width="150.921" height="150.921" filterUnits="userSpaceOnUse" color-interpolation-filters="sRGB">
<feFlood flood-opacity="0" result="BackgroundImageFix"/>
<feGaussianBlur in="BackgroundImageFix" stdDeviation="20.8154"/>
<feComposite in2="SourceAlpha" operator="in" result="effect1_backgroundBlur_6882_5316"/>
<feColorMatrix in="SourceAlpha" type="matrix" values="0 0 0 0 0 0 0 0 0 0 0 0 0 0 0 0 0 0 127 0" result="hardAlpha"/>
<feOffset dy="6.32368"/>
<feGaussianBlur stdDeviation="5.00624"/>
<feComposite in2="hardAlpha" operator="out"/>
<feColorMatrix type="matrix" values="0 0 0 0 0.0867708 0 0 0 0 0.115317 0 0 0 0 0.141667 0 0 0 0.08 0"/>
<feBlend mode="normal" in2="effect1_backgroundBlur_6882_5316" result="effect2_dropShadow_6882_5316"/>
<feBlend mode="normal" in="SourceGraphic" in2="effect2_dropShadow_6882_5316" result="shape"/>
</filter>
<filter id="filter2_bd_6882_5316" x="113.144" y="146.509" width="150.921" height="150.921" filterUnits="userSpaceOnUse" color-interpolation-filters="sRGB">
<feFlood flood-opacity="0" result="BackgroundImageFix"/>
<feGaussianBlur in="BackgroundImageFix" stdDeviation="20.8154"/>
<feComposite in2="SourceAlpha" operator="in" result="effect1_backgroundBlur_6882_5316"/>
<feColorMatrix in="SourceAlpha" type="matrix" values="0 0 0 0 0 0 0 0 0 0 0 0 0 0 0 0 0 0 127 0" result="hardAlpha"/>
<feOffset dy="6.32368"/>
<feGaussianBlur stdDeviation="5.00624"/>
<feComposite in2="hardAlpha" operator="out"/>
<feColorMatrix type="matrix" values="0 0 0 0 0.0867708 0 0 0 0 0.115317 0 0 0 0 0.141667 0 0 0 0.08 0"/>
<feBlend mode="normal" in2="effect1_backgroundBlur_6882_5316" result="effect2_dropShadow_6882_5316"/>
<feBlend mode="normal" in="SourceGraphic" in2="effect2_dropShadow_6882_5316" result="shape"/>
</filter>
<filter id="filter3_bd_6882_5316" x="164.751" y="266.615" width="150.921" height="150.921" filterUnits="userSpaceOnUse" color-interpolation-filters="sRGB">
<feFlood flood-opacity="0" result="BackgroundImageFix"/>
<feGaussianBlur in="BackgroundImageFix" stdDeviation="20.8154"/>
<feComposite in2="SourceAlpha" operator="in" result="effect1_backgroundBlur_6882_5316"/>
<feColorMatrix in="SourceAlpha" type="matrix" values="0 0 0 0 0 0 0 0 0 0 0 0 0 0 0 0 0 0 127 0" result="hardAlpha"/>
<feOffset dy="6.32368"/>
<feGaussianBlur stdDeviation="5.00624"/>
<feComposite in2="hardAlpha" operator="out"/>
<feColorMatrix type="matrix" values="0 0 0 0 0.0867708 0 0 0 0 0.115317 0 0 0 0 0.141667 0 0 0 0.08 0"/>
<feBlend mode="normal" in2="effect1_backgroundBlur_6882_5316" result="effect2_dropShadow_6882_5316"/>
<feBlend mode="normal" in="SourceGraphic" in2="effect2_dropShadow_6882_5316" result="shape"/>
</filter>
<filter id="filter4_bd_6882_5316" x="257.646" y="321.038" width="150.921" height="150.921" filterUnits="userSpaceOnUse" color-interpolation-filters="sRGB">
<feFlood flood-opacity="0" result="BackgroundImageFix"/>
<feGaussianBlur in="BackgroundImageFix" stdDeviation="20.8154"/>
<feComposite in2="SourceAlpha" operator="in" result="effect1_backgroundBlur_6882_5316"/>
<feColorMatrix in="SourceAlpha" type="matrix" values="0 0 0 0 0 0 0 0 0 0 0 0 0 0 0 0 0 0 127 0" result="hardAlpha"/>
<feOffset dy="6.32368"/>
<feGaussianBlur stdDeviation="5.00624"/>
<feComposite in2="hardAlpha" operator="out"/>
<feColorMatrix type="matrix" values="0 0 0 0 0.0867708 0 0 0 0 0.115317 0 0 0 0 0.141667 0 0 0 0.08 0"/>
<feBlend mode="normal" in2="effect1_backgroundBlur_6882_5316" result="effect2_dropShadow_6882_5316"/>
<feBlend mode="normal" in="SourceGraphic" in2="effect2_dropShadow_6882_5316" result="shape"/>
</filter>
</defs>
</svg>
