<svg width="681" height="432" viewBox="0 0 681 432" fill="none" xmlns="http://www.w3.org/2000/svg">
<rect width="639" height="432" fill="white"/>
<path d="M681 222L-1.09673e-05 222" stroke="#034737" stroke-dasharray="6 6"/>
<path d="M239 222L234 219.113V224.887L239 222ZM230.038 221.5H224.062V222.5H230.038V221.5ZM218.087 221.5H212.112V222.5H218.087V221.5ZM206.138 221.5H200.163V222.5H206.138V221.5ZM194.188 221.5H188.213V222.5H194.188V221.5ZM182.238 221.5H176.263V222.5H182.238V221.5ZM170.288 221.5H164.313V222.5H170.288V221.5ZM158.338 221.5H152.363V222.5H158.338V221.5ZM146.388 221.5H140.413V222.5H146.388V221.5ZM134.438 221.5H128.463V222.5H134.438V221.5ZM122.488 221.5H116.513V222.5H122.488V221.5ZM110.538 221.5H104.563V222.5H110.538V221.5ZM98.5875 221.5H92.6125V222.5H98.5875V221.5ZM86.6375 221.5H80.6625V222.5H86.6375V221.5ZM74.6875 221.5H68.7125V222.5H74.6875V221.5ZM62.7375 221.5H56.7625V222.5H62.7375V221.5ZM50.7875 221.5H44.8125V222.5H50.7875V221.5ZM38.8374 221.5H32.8624V222.5H38.8374V221.5ZM26.8874 221.5H20.9124V222.5H26.8874V221.5ZM14.9374 221.5H8.96242V222.5H14.9374V221.5ZM2.98741 221.5H0V222.5H2.98741V221.5Z" fill="#034737"/>
<path d="M634 222L629 219.113V224.887L634 222ZM624.938 221.5H618.896V222.5H624.938V221.5ZM612.854 221.5H606.813V222.5H612.854V221.5ZM600.771 221.5H594.729V222.5H600.771V221.5ZM588.688 221.5H582.646V222.5H588.688V221.5ZM576.604 221.5H570.562V222.5H576.604V221.5ZM564.521 221.5H558.479V222.5H564.521V221.5ZM552.438 221.5H546.396V222.5H552.438V221.5ZM540.354 221.5H534.313V222.5H540.354V221.5ZM528.271 221.5H522.229V222.5H528.271V221.5ZM516.188 221.5H510.146V222.5H516.188V221.5ZM504.104 221.5H498.063V222.5H504.104V221.5ZM492.021 221.5H485.979V222.5H492.021V221.5ZM479.938 221.5H473.896V222.5H479.938V221.5ZM467.854 221.5H461.812V222.5H467.854V221.5ZM455.771 221.5H449.729V222.5H455.771V221.5ZM443.687 221.5H437.646V222.5H443.687V221.5ZM431.604 221.5H425.562V222.5H431.604V221.5ZM419.521 221.5H413.479V222.5H419.521V221.5ZM407.437 221.5H401.396V222.5H407.437V221.5ZM395.354 221.5H389.312V222.5H395.354V221.5ZM383.271 221.5H377.229V222.5H383.271V221.5ZM371.187 221.5H365.146V222.5H371.187V221.5ZM359.104 221.5H353.062V222.5H359.104V221.5ZM347.021 221.5H344V222.5H347.021V221.5Z" fill="#034737"/>
<path d="M225 144L227.518 149.196L230.758 144.418L225 144ZM231.907 149.289L236.699 152.539L237.26 151.711L232.468 148.461L231.907 149.289ZM241.49 155.789L246.282 159.039L246.843 158.211L242.051 154.961L241.49 155.789ZM251.074 162.289L255.865 165.539L256.426 164.711L251.635 161.461L251.074 162.289ZM260.657 168.789L265.449 172.039L266.01 171.211L261.218 167.961L260.657 168.789ZM270.24 175.289L275.032 178.539L275.593 177.711L270.801 174.461L270.24 175.289ZM279.824 181.789L284.615 185.039L285.177 184.211L280.385 180.961L279.824 181.789ZM289.407 188.289L294.199 191.539L294.76 190.711L289.968 187.461L289.407 188.289ZM298.99 194.789L303.782 198.039L304.343 197.211L299.552 193.961L298.99 194.789ZM308.574 201.289L313.365 204.539L313.927 203.711L309.135 200.461L308.574 201.289ZM318.157 207.789L322.949 211.039L323.51 210.211L318.718 206.961L318.157 207.789ZM327.74 214.289L332.532 217.539L333.093 216.711L328.302 213.461L327.74 214.289ZM337.324 220.789L339.719 222.414L340.281 221.586L337.885 219.961L337.324 220.789Z" fill="#034737"/>
<path d="M455.41 144L449.652 144.418L452.893 149.196L455.41 144ZM340.281 222.699L342.685 221.068L342.124 220.241L339.719 221.872L340.281 222.699ZM347.494 217.807L352.303 214.545L351.741 213.717L346.932 216.979L347.494 217.807ZM357.111 211.283L361.92 208.021L361.359 207.193L356.55 210.455L357.111 211.283ZM366.729 204.759L371.538 201.497L370.976 200.67L366.167 203.931L366.729 204.759ZM376.346 198.235L381.155 194.973L380.594 194.146L375.785 197.408L376.346 198.235ZM385.964 191.711L390.773 188.45L390.211 187.622L385.403 190.884L385.964 191.711ZM395.581 185.188L400.39 181.926L399.829 181.098L395.02 184.36L395.581 185.188ZM405.199 178.664L410.008 175.402L409.446 174.574L404.638 177.836L405.199 178.664ZM414.816 172.14L419.625 168.878L419.064 168.051L414.255 171.312L414.816 172.14ZM424.434 165.616L429.243 162.354L428.681 161.527L423.873 164.789L424.434 165.616ZM434.051 159.092L438.86 155.831L438.299 155.003L433.49 158.265L434.051 159.092ZM443.669 152.569L448.478 149.307L447.916 148.479L443.108 151.741L443.669 152.569Z" fill="#034737"/>
<path d="M225 144L227.518 149.196L230.758 144.418L225 144ZM231.907 149.289L236.699 152.539L237.26 151.711L232.468 148.461L231.907 149.289ZM241.49 155.789L246.282 159.039L246.843 158.211L242.051 154.961L241.49 155.789ZM251.074 162.289L255.865 165.539L256.426 164.711L251.635 161.461L251.074 162.289ZM260.657 168.789L265.449 172.039L266.01 171.211L261.218 167.961L260.657 168.789ZM270.24 175.289L275.032 178.539L275.593 177.711L270.801 174.461L270.24 175.289ZM279.824 181.789L284.615 185.039L285.177 184.211L280.385 180.961L279.824 181.789ZM289.407 188.289L294.199 191.539L294.76 190.711L289.968 187.461L289.407 188.289ZM298.99 194.789L303.782 198.039L304.343 197.211L299.552 193.961L298.99 194.789ZM308.574 201.289L313.365 204.539L313.927 203.711L309.135 200.461L308.574 201.289ZM318.157 207.789L322.949 211.039L323.51 210.211L318.718 206.961L318.157 207.789ZM327.74 214.289L332.532 217.539L333.093 216.711L328.302 213.461L327.74 214.289ZM337.324 220.789L339.719 222.414L340.281 221.586L337.885 219.961L337.324 220.789Z" fill="#034737"/>
<path d="M455.41 144L449.652 144.418L452.893 149.196L455.41 144ZM340.281 222.699L342.685 221.068L342.124 220.241L339.719 221.872L340.281 222.699ZM347.494 217.807L352.303 214.545L351.741 213.717L346.932 216.979L347.494 217.807ZM357.111 211.283L361.92 208.021L361.359 207.193L356.55 210.455L357.111 211.283ZM366.729 204.759L371.538 201.497L370.976 200.67L366.167 203.931L366.729 204.759ZM376.346 198.235L381.155 194.973L380.594 194.146L375.785 197.408L376.346 198.235ZM385.964 191.711L390.773 188.45L390.211 187.622L385.403 190.884L385.964 191.711ZM395.581 185.188L400.39 181.926L399.829 181.098L395.02 184.36L395.581 185.188ZM405.199 178.664L410.008 175.402L409.446 174.574L404.638 177.836L405.199 178.664ZM414.816 172.14L419.625 168.878L419.064 168.051L414.255 171.312L414.816 172.14ZM424.434 165.616L429.243 162.354L428.681 161.527L423.873 164.789L424.434 165.616ZM434.051 159.092L438.86 155.831L438.299 155.003L433.49 158.265L434.051 159.092ZM443.669 152.569L448.478 149.307L447.916 148.479L443.108 151.741L443.669 152.569Z" fill="#034737"/>
<path d="M225 298L227.523 292.894L230.838 297.621L225 298ZM232.554 292.447L237.781 289.018L238.355 289.837L233.128 293.266L232.554 292.447ZM243.008 285.589L248.236 282.16L248.81 282.979L243.583 286.408L243.008 285.589ZM253.463 278.731L258.69 275.302L259.264 276.121L254.037 279.55L253.463 278.731ZM263.917 271.873L269.145 268.444L269.719 269.263L264.492 272.692L263.917 271.873ZM274.372 265.015L279.599 261.586L280.173 262.405L274.946 265.834L274.372 265.015ZM284.827 258.157L290.054 254.728L290.628 255.547L285.401 258.976L284.827 258.157ZM295.281 251.299L300.508 247.87L301.083 248.689L295.855 252.118L295.281 251.299ZM305.736 244.441L310.963 241.012L311.537 241.831L306.31 245.26L305.736 244.441ZM316.19 237.583L321.417 234.154L321.992 234.973L316.764 238.402L316.19 237.583ZM326.645 230.725L331.872 227.296L332.446 228.115L327.219 231.544L326.645 230.725ZM337.099 223.867L339.713 222.153L340.287 222.971L337.673 224.686L337.099 223.867Z" fill="#034737"/>
<path d="M455.41 298L449.572 297.621L452.887 292.894L455.41 298ZM340.287 221.876L342.691 223.454L342.117 224.272L339.713 222.695L340.287 221.876ZM347.5 226.608L352.309 229.763L351.735 230.582L346.926 227.427L347.5 226.608ZM357.118 232.918L361.927 236.073L361.352 236.891L356.544 233.737L357.118 232.918ZM366.735 239.227L371.544 242.382L370.97 243.201L366.161 240.046L366.735 239.227ZM376.353 245.537L381.162 248.692L380.587 249.51L375.779 246.356L376.353 245.537ZM385.97 251.847L390.779 255.001L390.205 255.82L385.396 252.665L385.97 251.847ZM395.588 258.156L400.397 261.311L399.822 262.13L395.014 258.975L395.588 258.156ZM405.205 264.466L410.014 267.62L409.44 268.439L404.631 265.284L405.205 264.466ZM414.823 270.775L419.632 273.93L419.057 274.749L414.249 271.594L414.823 270.775ZM424.44 277.085L429.249 280.239L428.675 281.058L423.866 277.903L424.44 277.085ZM434.058 283.394L438.867 286.549L438.292 287.368L433.484 284.213L434.058 283.394ZM443.675 289.704L448.484 292.858L447.91 293.677L443.101 290.522L443.675 289.704Z" fill="#034737"/>
<rect x="130" y="298" width="90" height="90" rx="20" fill="#034737"/>
<path d="M174.573 361.75H160.417C158.115 361.75 156.25 359.884 156.25 357.583V332.583C156.25 330.282 158.115 328.417 160.417 328.417H185.417C187.718 328.417 189.583 330.282 189.583 332.583V340.917" stroke="white" stroke-width="2.70833" stroke-linecap="round" stroke-linejoin="round"/>
<path d="M187.5 347.167V355.5H195.833" stroke="white" stroke-width="2.70833" stroke-linecap="round" stroke-linejoin="round"/>
<circle cx="187.5" cy="355.5" r="8.33333" stroke="white" stroke-width="2.70833" stroke-linecap="round" stroke-linejoin="round"/>
<path d="M181.25 324.25V332.583" stroke="white" stroke-width="2.70833" stroke-linecap="round" stroke-linejoin="round"/>
<path d="M164.584 324.25V332.583" stroke="white" stroke-width="2.70833" stroke-linecap="round" stroke-linejoin="round"/>
<path d="M156.25 340.917H189.583" stroke="white" stroke-width="2.70833" stroke-linecap="round" stroke-linejoin="round"/>
<rect x="454" y="298" width="90" height="90" rx="20" fill="#034737"/>
<path d="M504.001 364.014C503.982 364.014 503.965 364.025 503.945 364.025H487.539C487.155 364.025 486.786 363.872 486.514 363.6C486.242 363.328 486.089 362.96 486.089 362.575C486.089 362.191 486.242 361.822 486.514 361.55C486.786 361.278 487.155 361.125 487.539 361.125H503.903L503.945 361.117C506.932 361.117 509.853 360.24 512.345 358.594C514.837 356.948 516.791 354.606 517.963 351.859C519.135 349.112 519.475 346.082 518.939 343.143C518.404 340.205 517.016 337.489 514.95 335.333C512.884 333.176 510.229 331.674 507.317 331.014C504.404 330.353 501.362 330.563 498.567 331.617C495.773 332.672 493.35 334.524 491.599 336.943C489.848 339.363 488.847 342.244 488.72 345.228C488.698 345.608 488.528 345.964 488.246 346.219C487.963 346.475 487.592 346.609 487.212 346.593C486.831 346.577 486.472 346.412 486.213 346.134C485.953 345.856 485.813 345.486 485.823 345.106C485.986 341.065 487.5 337.196 490.121 334.117L489.251 333.247C489.112 333.113 489.002 332.953 488.926 332.776C488.85 332.6 488.81 332.409 488.808 332.217C488.806 332.024 488.843 331.833 488.916 331.655C488.989 331.477 489.097 331.315 489.233 331.179C489.369 331.043 489.531 330.935 489.709 330.862C489.887 330.789 490.078 330.753 490.271 330.754C490.463 330.756 490.653 330.796 490.83 330.872C491.007 330.948 491.167 331.058 491.301 331.197L492.178 332.073C494.4 330.177 497.047 328.845 499.894 328.191C502.74 327.537 505.703 327.579 508.53 328.316C511.357 329.052 513.964 330.46 516.129 332.42C518.295 334.38 519.956 336.834 520.97 339.574C521.984 342.313 522.321 345.257 521.954 348.155C521.586 351.053 520.524 353.819 518.858 356.218C517.192 358.618 514.971 360.579 512.385 361.936C509.798 363.293 506.922 364.007 504.001 364.014ZM510.624 339.205C510.352 338.933 509.984 338.781 509.599 338.781C509.215 338.781 508.846 338.933 508.574 339.205L504.373 343.406C504.233 343.364 504.09 343.335 503.945 343.319C503.438 343.319 502.942 343.47 502.52 343.751C502.099 344.033 501.77 344.434 501.576 344.902C501.382 345.371 501.331 345.887 501.43 346.384C501.529 346.881 501.773 347.338 502.132 347.697C502.49 348.056 502.947 348.3 503.445 348.399C503.942 348.498 504.458 348.447 504.927 348.253C505.395 348.059 505.796 347.73 506.077 347.308C506.359 346.886 506.51 346.39 506.51 345.883C506.493 345.738 506.464 345.595 506.423 345.456L510.624 341.254C510.896 340.982 511.048 340.614 511.048 340.23C511.048 339.846 510.896 339.477 510.624 339.205ZM501.589 324.875H506.303C506.687 324.875 507.056 324.722 507.328 324.45C507.6 324.178 507.753 323.81 507.753 323.425C507.753 323.041 507.6 322.672 507.328 322.4C507.056 322.128 506.687 321.975 506.303 321.975H501.589C501.204 321.975 500.835 322.128 500.563 322.4C500.292 322.672 500.139 323.041 500.139 323.425C500.139 323.81 500.292 324.178 500.563 324.45C500.835 324.722 501.204 324.875 501.589 324.875ZM500.552 356.775C500.552 356.391 500.4 356.022 500.128 355.75C499.856 355.478 499.487 355.325 499.102 355.325H481.055C480.67 355.325 480.302 355.478 480.03 355.75C479.758 356.022 479.605 356.391 479.605 356.775C479.605 357.16 479.758 357.528 480.03 357.8C480.302 358.072 480.67 358.225 481.055 358.225H499.102C499.487 358.225 499.856 358.072 500.128 357.8C500.4 357.528 500.552 357.16 500.552 356.775ZM501.124 350.975C501.124 350.591 500.971 350.222 500.7 349.95C500.428 349.678 500.059 349.525 499.674 349.525H477.352C476.968 349.525 476.599 349.678 476.327 349.95C476.055 350.222 475.902 350.591 475.902 350.975C475.902 351.36 476.055 351.728 476.327 352C476.599 352.272 476.968 352.425 477.352 352.425H499.674C500.059 352.425 500.428 352.272 500.7 352C500.971 351.728 501.124 351.36 501.124 350.975Z" fill="white"/>
<rect x="458" y="56" width="90" height="90" rx="20" fill="#034737"/>
<path d="M523.314 114.155L518.894 118.576L518.894 111.945C518.894 103.4 511.966 96.4725 503.421 96.4725C494.876 96.4725 487.949 103.4 487.949 111.945L487.949 118.576L483.528 114.155" stroke="white" stroke-width="2.16667" stroke-linecap="round" stroke-linejoin="round"/>
<path d="M504.504 81C504.504 80.4017 504.019 79.9167 503.421 79.9167C502.823 79.9167 502.338 80.4017 502.338 81L504.504 81ZM503.421 120.787L502.338 120.787C502.338 121.225 502.602 121.62 503.006 121.787C503.411 121.955 503.877 121.862 504.187 121.553L503.421 120.787ZM508.608 117.132C509.031 116.709 509.031 116.023 508.608 115.6C508.185 115.177 507.499 115.177 507.076 115.6L508.608 117.132ZM499.765 115.6C499.342 115.177 498.656 115.177 498.233 115.6C497.81 116.023 497.81 116.709 498.233 117.132L499.765 115.6ZM502.654 121.553C503.077 121.976 503.763 121.976 504.186 121.553C504.609 121.13 504.609 120.444 504.186 120.021L502.654 121.553ZM502.338 81L502.338 120.787L504.504 120.787L504.504 81L502.338 81ZM504.187 121.553L508.608 117.132L507.076 115.6L502.655 120.021L504.187 121.553ZM498.233 117.132L502.654 121.553L504.186 120.021L499.765 115.6L498.233 117.132Z" fill="white"/>
<path d="M467.432 33.242L464.604 43H463.176L460.908 35.146L458.556 43L457.142 43.014L454.412 33.242H455.77L457.898 41.516L460.25 33.242H461.678L463.918 41.488L466.06 33.242H467.432ZM475.868 38.87C475.868 39.1127 475.854 39.3693 475.826 39.64H469.694C469.741 40.396 469.998 40.9887 470.464 41.418C470.94 41.838 471.514 42.048 472.186 42.048C472.737 42.048 473.194 41.922 473.558 41.67C473.932 41.4087 474.193 41.0633 474.342 40.634H475.714C475.509 41.3713 475.098 41.9733 474.482 42.44C473.866 42.8973 473.101 43.126 472.186 43.126C471.458 43.126 470.805 42.9627 470.226 42.636C469.657 42.3093 469.209 41.8473 468.882 41.25C468.556 40.6433 468.392 39.9433 468.392 39.15C468.392 38.3567 468.551 37.6613 468.868 37.064C469.186 36.4667 469.629 36.0093 470.198 35.692C470.777 35.3653 471.44 35.202 472.186 35.202C472.914 35.202 473.558 35.3607 474.118 35.678C474.678 35.9953 475.108 36.434 475.406 36.994C475.714 37.5447 475.868 38.17 475.868 38.87ZM474.552 38.604C474.552 38.1187 474.445 37.7033 474.23 37.358C474.016 37.0033 473.722 36.7373 473.348 36.56C472.984 36.3733 472.578 36.28 472.13 36.28C471.486 36.28 470.936 36.4853 470.478 36.896C470.03 37.3067 469.774 37.876 469.708 38.604H474.552ZM478.866 36.756C479.127 36.2987 479.51 35.9253 480.014 35.636C480.518 35.3467 481.092 35.202 481.736 35.202C482.427 35.202 483.047 35.3653 483.598 35.692C484.149 36.0187 484.583 36.4807 484.9 37.078C485.217 37.666 485.376 38.352 485.376 39.136C485.376 39.9107 485.217 40.6013 484.9 41.208C484.583 41.8147 484.144 42.286 483.584 42.622C483.033 42.958 482.417 43.126 481.736 43.126C481.073 43.126 480.49 42.9813 479.986 42.692C479.491 42.4027 479.118 42.034 478.866 41.586V43H477.592V32.64H478.866V36.756ZM484.074 39.136C484.074 38.5573 483.957 38.0533 483.724 37.624C483.491 37.1947 483.173 36.868 482.772 36.644C482.38 36.42 481.946 36.308 481.47 36.308C481.003 36.308 480.569 36.4247 480.168 36.658C479.776 36.882 479.459 37.2133 479.216 37.652C478.983 38.0813 478.866 38.5807 478.866 39.15C478.866 39.7287 478.983 40.2373 479.216 40.676C479.459 41.1053 479.776 41.4367 480.168 41.67C480.569 41.894 481.003 42.006 481.47 42.006C481.946 42.006 482.38 41.894 482.772 41.67C483.173 41.4367 483.491 41.1053 483.724 40.676C483.957 40.2373 484.074 39.724 484.074 39.136ZM493.585 43.126C492.997 43.126 492.47 43.028 492.003 42.832C491.537 42.6267 491.168 42.3467 490.897 41.992C490.627 41.628 490.477 41.2127 490.449 40.746H491.765C491.803 41.1287 491.98 41.4413 492.297 41.684C492.624 41.9267 493.049 42.048 493.571 42.048C494.057 42.048 494.439 41.9407 494.719 41.726C494.999 41.5113 495.139 41.2407 495.139 40.914C495.139 40.578 494.99 40.3307 494.691 40.172C494.393 40.004 493.931 39.8407 493.305 39.682C492.736 39.5327 492.269 39.3833 491.905 39.234C491.551 39.0753 491.243 38.8467 490.981 38.548C490.729 38.24 490.603 37.8387 490.603 37.344C490.603 36.952 490.72 36.5927 490.953 36.266C491.187 35.9393 491.518 35.6827 491.947 35.496C492.377 35.3 492.867 35.202 493.417 35.202C494.267 35.202 494.953 35.4167 495.475 35.846C495.998 36.2753 496.278 36.8633 496.315 37.61H495.041C495.013 37.2087 494.85 36.8867 494.551 36.644C494.262 36.4013 493.87 36.28 493.375 36.28C492.918 36.28 492.554 36.378 492.283 36.574C492.013 36.77 491.877 37.0267 491.877 37.344C491.877 37.596 491.957 37.806 492.115 37.974C492.283 38.1327 492.489 38.2633 492.731 38.366C492.983 38.4593 493.329 38.5667 493.767 38.688C494.318 38.8373 494.766 38.9867 495.111 39.136C495.457 39.276 495.751 39.4907 495.993 39.78C496.245 40.0693 496.376 40.4473 496.385 40.914C496.385 41.334 496.269 41.712 496.035 42.048C495.802 42.384 495.471 42.65 495.041 42.846C494.621 43.0327 494.136 43.126 493.585 43.126ZM497.75 39.15C497.75 38.3567 497.909 37.666 498.226 37.078C498.543 36.4807 498.982 36.0187 499.542 35.692C500.111 35.3653 500.76 35.202 501.488 35.202C502.431 35.202 503.205 35.4307 503.812 35.888C504.428 36.3453 504.834 36.98 505.03 37.792H503.658C503.527 37.3253 503.271 36.9567 502.888 36.686C502.515 36.4153 502.048 36.28 501.488 36.28C500.76 36.28 500.172 36.532 499.724 37.036C499.276 37.5307 499.052 38.2353 499.052 39.15C499.052 40.074 499.276 40.788 499.724 41.292C500.172 41.796 500.76 42.048 501.488 42.048C502.048 42.048 502.515 41.9173 502.888 41.656C503.261 41.3947 503.518 41.0213 503.658 40.536H505.03C504.825 41.32 504.414 41.95 503.798 42.426C503.182 42.8927 502.412 43.126 501.488 43.126C500.76 43.126 500.111 42.9627 499.542 42.636C498.982 42.3093 498.543 41.8473 498.226 41.25C497.909 40.6527 497.75 39.9527 497.75 39.15ZM508.046 36.574C508.27 36.1353 508.587 35.7947 508.998 35.552C509.418 35.3093 509.927 35.188 510.524 35.188V36.504H510.188C508.76 36.504 508.046 37.2787 508.046 38.828V43H506.772V35.328H508.046V36.574ZM511.561 39.136C511.561 38.352 511.719 37.666 512.037 37.078C512.354 36.4807 512.788 36.0187 513.339 35.692C513.899 35.3653 514.519 35.202 515.201 35.202C515.873 35.202 516.456 35.3467 516.951 35.636C517.445 35.9253 517.814 36.2893 518.057 36.728V35.328H519.345V43H518.057V41.572C517.805 42.02 517.427 42.3933 516.923 42.692C516.428 42.9813 515.849 43.126 515.187 43.126C514.505 43.126 513.889 42.958 513.339 42.622C512.788 42.286 512.354 41.8147 512.037 41.208C511.719 40.6013 511.561 39.9107 511.561 39.136ZM518.057 39.15C518.057 38.5713 517.94 38.0673 517.707 37.638C517.473 37.2087 517.156 36.882 516.755 36.658C516.363 36.4247 515.929 36.308 515.453 36.308C514.977 36.308 514.543 36.42 514.151 36.644C513.759 36.868 513.446 37.1947 513.213 37.624C512.979 38.0533 512.863 38.5573 512.863 39.136C512.863 39.724 512.979 40.2373 513.213 40.676C513.446 41.1053 513.759 41.4367 514.151 41.67C514.543 41.894 514.977 42.006 515.453 42.006C515.929 42.006 516.363 41.894 516.755 41.67C517.156 41.4367 517.473 41.1053 517.707 40.676C517.94 40.2373 518.057 39.7287 518.057 39.15ZM522.813 36.742C523.065 36.3033 523.439 35.9393 523.933 35.65C524.437 35.3513 525.021 35.202 525.683 35.202C526.365 35.202 526.981 35.3653 527.531 35.692C528.091 36.0187 528.53 36.4807 528.847 37.078C529.165 37.666 529.323 38.352 529.323 39.136C529.323 39.9107 529.165 40.6013 528.847 41.208C528.53 41.8147 528.091 42.286 527.531 42.622C526.981 42.958 526.365 43.126 525.683 43.126C525.03 43.126 524.451 42.9813 523.947 42.692C523.453 42.3933 523.075 42.0247 522.813 41.586V46.64H521.539V35.328H522.813V36.742ZM528.021 39.136C528.021 38.5573 527.905 38.0533 527.671 37.624C527.438 37.1947 527.121 36.868 526.719 36.644C526.327 36.42 525.893 36.308 525.417 36.308C524.951 36.308 524.517 36.4247 524.115 36.658C523.723 36.882 523.406 37.2133 523.163 37.652C522.93 38.0813 522.813 38.5807 522.813 39.15C522.813 39.7287 522.93 40.2373 523.163 40.676C523.406 41.1053 523.723 41.4367 524.115 41.67C524.517 41.894 524.951 42.006 525.417 42.006C525.893 42.006 526.327 41.894 526.719 41.67C527.121 41.4367 527.438 41.1053 527.671 40.676C527.905 40.2373 528.021 39.724 528.021 39.136ZM531.7 34.082C531.458 34.082 531.252 33.998 531.084 33.83C530.916 33.662 530.832 33.4567 530.832 33.214C530.832 32.9713 530.916 32.766 531.084 32.598C531.252 32.43 531.458 32.346 531.7 32.346C531.934 32.346 532.13 32.43 532.288 32.598C532.456 32.766 532.54 32.9713 532.54 33.214C532.54 33.4567 532.456 33.662 532.288 33.83C532.13 33.998 531.934 34.082 531.7 34.082ZM532.316 35.328V43H531.042V35.328H532.316ZM538.268 35.188C539.201 35.188 539.957 35.4727 540.536 36.042C541.114 36.602 541.404 37.414 541.404 38.478V43H540.144V38.66C540.144 37.8947 539.952 37.3113 539.57 36.91C539.187 36.4993 538.664 36.294 538.002 36.294C537.33 36.294 536.793 36.504 536.392 36.924C536 37.344 535.804 37.9553 535.804 38.758V43H534.53V35.328H535.804V36.42C536.056 36.028 536.396 35.7247 536.826 35.51C537.264 35.2953 537.745 35.188 538.268 35.188ZM546.691 35.202C547.353 35.202 547.932 35.3467 548.427 35.636C548.931 35.9253 549.304 36.2893 549.547 36.728V35.328H550.835V43.168C550.835 43.868 550.685 44.4887 550.387 45.03C550.088 45.5807 549.659 46.01 549.099 46.318C548.548 46.626 547.904 46.78 547.167 46.78C546.159 46.78 545.319 46.542 544.647 46.066C543.975 45.59 543.578 44.9413 543.457 44.12H544.717C544.857 44.5867 545.146 44.96 545.585 45.24C546.023 45.5293 546.551 45.674 547.167 45.674C547.867 45.674 548.436 45.4547 548.875 45.016C549.323 44.5773 549.547 43.9613 549.547 43.168V41.558C549.295 42.006 548.921 42.3793 548.427 42.678C547.932 42.9767 547.353 43.126 546.691 43.126C546.009 43.126 545.389 42.958 544.829 42.622C544.278 42.286 543.844 41.8147 543.527 41.208C543.209 40.6013 543.051 39.9107 543.051 39.136C543.051 38.352 543.209 37.666 543.527 37.078C543.844 36.4807 544.278 36.0187 544.829 35.692C545.389 35.3653 546.009 35.202 546.691 35.202ZM549.547 39.15C549.547 38.5713 549.43 38.0673 549.197 37.638C548.963 37.2087 548.646 36.882 548.245 36.658C547.853 36.4247 547.419 36.308 546.943 36.308C546.467 36.308 546.033 36.42 545.641 36.644C545.249 36.868 544.936 37.1947 544.703 37.624C544.469 38.0533 544.353 38.5573 544.353 39.136C544.353 39.724 544.469 40.2373 544.703 40.676C544.936 41.1053 545.249 41.4367 545.641 41.67C546.033 41.894 546.467 42.006 546.943 42.006C547.419 42.006 547.853 41.894 548.245 41.67C548.646 41.4367 548.963 41.1053 549.197 40.676C549.43 40.2373 549.547 39.7287 549.547 39.15Z" fill="#666666"/>
<path d="M460.369 410.848L458.423 408.902C457.947 409.033 457.461 409.098 456.967 409.098C456.061 409.098 455.235 408.888 454.489 408.468C453.742 408.039 453.149 407.446 452.711 406.69C452.281 405.925 452.067 405.066 452.067 404.114C452.067 403.162 452.281 402.308 452.711 401.552C453.149 400.787 453.742 400.194 454.489 399.774C455.235 399.345 456.061 399.13 456.967 399.13C457.881 399.13 458.712 399.345 459.459 399.774C460.205 400.194 460.793 400.782 461.223 401.538C461.652 402.294 461.867 403.153 461.867 404.114C461.867 405.047 461.661 405.887 461.251 406.634C460.84 407.381 460.275 407.969 459.557 408.398L462.021 410.848H460.369ZM453.369 404.114C453.369 404.889 453.523 405.57 453.831 406.158C454.148 406.746 454.577 407.199 455.119 407.516C455.669 407.833 456.285 407.992 456.967 407.992C457.648 407.992 458.259 407.833 458.801 407.516C459.351 407.199 459.781 406.746 460.089 406.158C460.406 405.57 460.565 404.889 460.565 404.114C460.565 403.33 460.406 402.649 460.089 402.07C459.781 401.482 459.356 401.029 458.815 400.712C458.273 400.395 457.657 400.236 456.967 400.236C456.276 400.236 455.66 400.395 455.119 400.712C454.577 401.029 454.148 401.482 453.831 402.07C453.523 402.649 453.369 403.33 453.369 404.114ZM470.422 401.328V409H469.148V407.866C468.905 408.258 468.565 408.566 468.126 408.79C467.697 409.005 467.221 409.112 466.698 409.112C466.101 409.112 465.564 408.991 465.088 408.748C464.612 408.496 464.234 408.123 463.954 407.628C463.683 407.133 463.548 406.531 463.548 405.822V401.328H464.808V405.654C464.808 406.41 464.999 406.993 465.382 407.404C465.765 407.805 466.287 408.006 466.95 408.006C467.631 408.006 468.168 407.796 468.56 407.376C468.952 406.956 469.148 406.345 469.148 405.542V401.328H470.422ZM473.273 400.082C473.03 400.082 472.825 399.998 472.657 399.83C472.489 399.662 472.405 399.457 472.405 399.214C472.405 398.971 472.489 398.766 472.657 398.598C472.825 398.43 473.03 398.346 473.273 398.346C473.506 398.346 473.702 398.43 473.861 398.598C474.029 398.766 474.113 398.971 474.113 399.214C474.113 399.457 474.029 399.662 473.861 399.83C473.702 399.998 473.506 400.082 473.273 400.082ZM473.889 401.328V409H472.615V401.328H473.889ZM475.626 405.15C475.626 404.357 475.785 403.666 476.102 403.078C476.42 402.481 476.858 402.019 477.418 401.692C477.988 401.365 478.636 401.202 479.364 401.202C480.307 401.202 481.082 401.431 481.688 401.888C482.304 402.345 482.71 402.98 482.906 403.792H481.534C481.404 403.325 481.147 402.957 480.764 402.686C480.391 402.415 479.924 402.28 479.364 402.28C478.636 402.28 478.048 402.532 477.6 403.036C477.152 403.531 476.928 404.235 476.928 405.15C476.928 406.074 477.152 406.788 477.6 407.292C478.048 407.796 478.636 408.048 479.364 408.048C479.924 408.048 480.391 407.917 480.764 407.656C481.138 407.395 481.394 407.021 481.534 406.536H482.906C482.701 407.32 482.29 407.95 481.674 408.426C481.058 408.893 480.288 409.126 479.364 409.126C478.636 409.126 477.988 408.963 477.418 408.636C476.858 408.309 476.42 407.847 476.102 407.25C475.785 406.653 475.626 405.953 475.626 405.15ZM488.932 409L485.922 405.612V409H484.648V398.64H485.922V404.73L488.876 401.328H490.654L487.042 405.15L490.668 409H488.932ZM496.944 402.742C497.196 402.303 497.569 401.939 498.064 401.65C498.568 401.351 499.151 401.202 499.814 401.202C500.495 401.202 501.111 401.365 501.662 401.692C502.222 402.019 502.66 402.481 502.978 403.078C503.295 403.666 503.454 404.352 503.454 405.136C503.454 405.911 503.295 406.601 502.978 407.208C502.66 407.815 502.222 408.286 501.662 408.622C501.111 408.958 500.495 409.126 499.814 409.126C499.16 409.126 498.582 408.981 498.078 408.692C497.583 408.393 497.205 408.025 496.944 407.586V412.64H495.67V401.328H496.944V402.742ZM502.152 405.136C502.152 404.557 502.035 404.053 501.802 403.624C501.568 403.195 501.251 402.868 500.85 402.644C500.458 402.42 500.024 402.308 499.548 402.308C499.081 402.308 498.647 402.425 498.246 402.658C497.854 402.882 497.536 403.213 497.294 403.652C497.06 404.081 496.944 404.581 496.944 405.15C496.944 405.729 497.06 406.237 497.294 406.676C497.536 407.105 497.854 407.437 498.246 407.67C498.647 407.894 499.081 408.006 499.548 408.006C500.024 408.006 500.458 407.894 500.85 407.67C501.251 407.437 501.568 407.105 501.802 406.676C502.035 406.237 502.152 405.724 502.152 405.136ZM508.519 409.126C507.8 409.126 507.147 408.963 506.559 408.636C505.98 408.309 505.523 407.847 505.187 407.25C504.86 406.643 504.697 405.943 504.697 405.15C504.697 404.366 504.865 403.675 505.201 403.078C505.546 402.471 506.013 402.009 506.601 401.692C507.189 401.365 507.847 401.202 508.575 401.202C509.303 401.202 509.961 401.365 510.549 401.692C511.137 402.009 511.599 402.467 511.935 403.064C512.28 403.661 512.453 404.357 512.453 405.15C512.453 405.943 512.275 406.643 511.921 407.25C511.575 407.847 511.104 408.309 510.507 408.636C509.909 408.963 509.247 409.126 508.519 409.126ZM508.519 408.006C508.976 408.006 509.405 407.899 509.807 407.684C510.208 407.469 510.53 407.147 510.773 406.718C511.025 406.289 511.151 405.766 511.151 405.15C511.151 404.534 511.029 404.011 510.787 403.582C510.544 403.153 510.227 402.835 509.835 402.63C509.443 402.415 509.018 402.308 508.561 402.308C508.094 402.308 507.665 402.415 507.273 402.63C506.89 402.835 506.582 403.153 506.349 403.582C506.115 404.011 505.999 404.534 505.999 405.15C505.999 405.775 506.111 406.303 506.335 406.732C506.568 407.161 506.876 407.483 507.259 407.698C507.641 407.903 508.061 408.006 508.519 408.006ZM516.886 409.126C516.298 409.126 515.77 409.028 515.304 408.832C514.837 408.627 514.468 408.347 514.198 407.992C513.927 407.628 513.778 407.213 513.75 406.746H515.066C515.103 407.129 515.28 407.441 515.598 407.684C515.924 407.927 516.349 408.048 516.872 408.048C517.357 408.048 517.74 407.941 518.02 407.726C518.3 407.511 518.44 407.241 518.44 406.914C518.44 406.578 518.29 406.331 517.992 406.172C517.693 406.004 517.231 405.841 516.606 405.682C516.036 405.533 515.57 405.383 515.206 405.234C514.851 405.075 514.543 404.847 514.282 404.548C514.03 404.24 513.904 403.839 513.904 403.344C513.904 402.952 514.02 402.593 514.254 402.266C514.487 401.939 514.818 401.683 515.248 401.496C515.677 401.3 516.167 401.202 516.718 401.202C517.567 401.202 518.253 401.417 518.776 401.846C519.298 402.275 519.578 402.863 519.616 403.61H518.342C518.314 403.209 518.15 402.887 517.852 402.644C517.562 402.401 517.17 402.28 516.676 402.28C516.218 402.28 515.854 402.378 515.584 402.574C515.313 402.77 515.178 403.027 515.178 403.344C515.178 403.596 515.257 403.806 515.416 403.974C515.584 404.133 515.789 404.263 516.032 404.366C516.284 404.459 516.629 404.567 517.068 404.688C517.618 404.837 518.066 404.987 518.412 405.136C518.757 405.276 519.051 405.491 519.294 405.78C519.546 406.069 519.676 406.447 519.686 406.914C519.686 407.334 519.569 407.712 519.336 408.048C519.102 408.384 518.771 408.65 518.342 408.846C517.922 409.033 517.436 409.126 516.886 409.126ZM523.08 402.378V406.9C523.08 407.273 523.16 407.539 523.318 407.698C523.477 407.847 523.752 407.922 524.144 407.922H525.082V409H523.934C523.225 409 522.693 408.837 522.338 408.51C521.984 408.183 521.806 407.647 521.806 406.9V402.378H520.812V401.328H521.806V399.396H523.08V401.328H525.082V402.378H523.08ZM527.326 400.082C527.083 400.082 526.878 399.998 526.71 399.83C526.542 399.662 526.458 399.457 526.458 399.214C526.458 398.971 526.542 398.766 526.71 398.598C526.878 398.43 527.083 398.346 527.326 398.346C527.559 398.346 527.755 398.43 527.914 398.598C528.082 398.766 528.166 398.971 528.166 399.214C528.166 399.457 528.082 399.662 527.914 399.83C527.755 399.998 527.559 400.082 527.326 400.082ZM527.942 401.328V409H526.668V401.328H527.942ZM533.893 401.188C534.827 401.188 535.583 401.473 536.161 402.042C536.74 402.602 537.029 403.414 537.029 404.478V409H535.769V404.66C535.769 403.895 535.578 403.311 535.195 402.91C534.813 402.499 534.29 402.294 533.627 402.294C532.955 402.294 532.419 402.504 532.017 402.924C531.625 403.344 531.429 403.955 531.429 404.758V409H530.155V401.328H531.429V402.42C531.681 402.028 532.022 401.725 532.451 401.51C532.89 401.295 533.371 401.188 533.893 401.188ZM542.316 401.202C542.979 401.202 543.558 401.347 544.052 401.636C544.556 401.925 544.93 402.289 545.172 402.728V401.328H546.46V409.168C546.46 409.868 546.311 410.489 546.012 411.03C545.714 411.581 545.284 412.01 544.724 412.318C544.174 412.626 543.53 412.78 542.792 412.78C541.784 412.78 540.944 412.542 540.272 412.066C539.6 411.59 539.204 410.941 539.082 410.12H540.342C540.482 410.587 540.772 410.96 541.21 411.24C541.649 411.529 542.176 411.674 542.792 411.674C543.492 411.674 544.062 411.455 544.5 411.016C544.948 410.577 545.172 409.961 545.172 409.168V407.558C544.92 408.006 544.547 408.379 544.052 408.678C543.558 408.977 542.979 409.126 542.316 409.126C541.635 409.126 541.014 408.958 540.454 408.622C539.904 408.286 539.47 407.815 539.152 407.208C538.835 406.601 538.676 405.911 538.676 405.136C538.676 404.352 538.835 403.666 539.152 403.078C539.47 402.481 539.904 402.019 540.454 401.692C541.014 401.365 541.635 401.202 542.316 401.202ZM545.172 405.15C545.172 404.571 545.056 404.067 544.822 403.638C544.589 403.209 544.272 402.882 543.87 402.658C543.478 402.425 543.044 402.308 542.568 402.308C542.092 402.308 541.658 402.42 541.266 402.644C540.874 402.868 540.562 403.195 540.328 403.624C540.095 404.053 539.978 404.557 539.978 405.136C539.978 405.724 540.095 406.237 540.328 406.676C540.562 407.105 540.874 407.437 541.266 407.67C541.658 407.894 542.092 408.006 542.568 408.006C543.044 408.006 543.478 407.894 543.87 407.67C544.272 407.437 544.589 407.105 544.822 406.676C545.056 406.237 545.172 405.729 545.172 405.15Z" fill="#666666"/>
<rect x="130" y="56" width="90" height="90" rx="20" fill="#034737"/>
<circle cx="175.091" cy="100.872" r="23.872" stroke="white" stroke-width="2.16667" stroke-linecap="round" stroke-linejoin="round"/>
<circle cx="175.09" cy="95.5672" r="7.95732" stroke="white" stroke-width="2.16667" stroke-linecap="round" stroke-linejoin="round"/>
<path d="M159.621 119.039C160.969 114.552 165.1 111.481 169.785 111.482H180.395C185.086 111.48 189.222 114.56 190.564 119.055" stroke="white" stroke-width="2.16667" stroke-linecap="round" stroke-linejoin="round"/>
<path d="M143.853 38.114C143.853 37.162 144.068 36.308 144.497 35.552C144.927 34.7867 145.51 34.1893 146.247 33.76C146.994 33.3307 147.82 33.116 148.725 33.116C149.789 33.116 150.718 33.3727 151.511 33.886C152.305 34.3993 152.883 35.1273 153.247 36.07H151.721C151.451 35.482 151.059 35.0293 150.545 34.712C150.041 34.3947 149.435 34.236 148.725 34.236C148.044 34.236 147.433 34.3947 146.891 34.712C146.35 35.0293 145.925 35.482 145.617 36.07C145.309 36.6487 145.155 37.33 145.155 38.114C145.155 38.8887 145.309 39.57 145.617 40.158C145.925 40.7367 146.35 41.1847 146.891 41.502C147.433 41.8193 148.044 41.978 148.725 41.978C149.435 41.978 150.041 41.824 150.545 41.516C151.059 41.1987 151.451 40.746 151.721 40.158H153.247C152.883 41.0913 152.305 41.8147 151.511 42.328C150.718 42.832 149.789 43.084 148.725 43.084C147.82 43.084 146.994 42.874 146.247 42.454C145.51 42.0247 144.927 41.432 144.497 40.676C144.068 39.92 143.853 39.066 143.853 38.114ZM158.532 43.126C157.813 43.126 157.16 42.9627 156.572 42.636C155.993 42.3093 155.536 41.8473 155.2 41.25C154.873 40.6433 154.71 39.9433 154.71 39.15C154.71 38.366 154.878 37.6753 155.214 37.078C155.559 36.4713 156.026 36.0093 156.614 35.692C157.202 35.3653 157.86 35.202 158.588 35.202C159.316 35.202 159.974 35.3653 160.562 35.692C161.15 36.0093 161.612 36.4667 161.948 37.064C162.293 37.6613 162.466 38.3567 162.466 39.15C162.466 39.9433 162.289 40.6433 161.934 41.25C161.589 41.8473 161.117 42.3093 160.52 42.636C159.923 42.9627 159.26 43.126 158.532 43.126ZM158.532 42.006C158.989 42.006 159.419 41.8987 159.82 41.684C160.221 41.4693 160.543 41.1473 160.786 40.718C161.038 40.2887 161.164 39.766 161.164 39.15C161.164 38.534 161.043 38.0113 160.8 37.582C160.557 37.1527 160.24 36.8353 159.848 36.63C159.456 36.4153 159.031 36.308 158.574 36.308C158.107 36.308 157.678 36.4153 157.286 36.63C156.903 36.8353 156.595 37.1527 156.362 37.582C156.129 38.0113 156.012 38.534 156.012 39.15C156.012 39.7753 156.124 40.3027 156.348 40.732C156.581 41.1613 156.889 41.4833 157.272 41.698C157.655 41.9033 158.075 42.006 158.532 42.006ZM167.921 35.188C168.854 35.188 169.61 35.4727 170.189 36.042C170.768 36.602 171.057 37.414 171.057 38.478V43H169.797V38.66C169.797 37.8947 169.606 37.3113 169.223 36.91C168.84 36.4993 168.318 36.294 167.655 36.294C166.983 36.294 166.446 36.504 166.045 36.924C165.653 37.344 165.457 37.9553 165.457 38.758V43H164.183V35.328H165.457V36.42C165.709 36.028 166.05 35.7247 166.479 35.51C166.918 35.2953 167.398 35.188 167.921 35.188ZM174.734 36.378V40.9C174.734 41.2733 174.813 41.5393 174.972 41.698C175.131 41.8473 175.406 41.922 175.798 41.922H176.736V43H175.588C174.879 43 174.347 42.8367 173.992 42.51C173.637 42.1833 173.46 41.6467 173.46 40.9V36.378H172.466V35.328H173.46V33.396H174.734V35.328H176.736V36.378H174.734ZM177.846 39.136C177.846 38.352 178.004 37.666 178.322 37.078C178.639 36.4807 179.073 36.0187 179.624 35.692C180.184 35.3653 180.804 35.202 181.486 35.202C182.158 35.202 182.741 35.3467 183.236 35.636C183.73 35.9253 184.099 36.2893 184.342 36.728V35.328H185.63V43H184.342V41.572C184.09 42.02 183.712 42.3933 183.208 42.692C182.713 42.9813 182.134 43.126 181.472 43.126C180.79 43.126 180.174 42.958 179.624 42.622C179.073 42.286 178.639 41.8147 178.322 41.208C178.004 40.6013 177.846 39.9107 177.846 39.136ZM184.342 39.15C184.342 38.5713 184.225 38.0673 183.992 37.638C183.758 37.2087 183.441 36.882 183.04 36.658C182.648 36.4247 182.214 36.308 181.738 36.308C181.262 36.308 180.828 36.42 180.436 36.644C180.044 36.868 179.731 37.1947 179.498 37.624C179.264 38.0533 179.148 38.5573 179.148 39.136C179.148 39.724 179.264 40.2373 179.498 40.676C179.731 41.1053 180.044 41.4367 180.436 41.67C180.828 41.894 181.262 42.006 181.738 42.006C182.214 42.006 182.648 41.894 183.04 41.67C183.441 41.4367 183.758 41.1053 183.992 40.676C184.225 40.2373 184.342 39.7287 184.342 39.15ZM187.349 39.15C187.349 38.3567 187.507 37.666 187.825 37.078C188.142 36.4807 188.581 36.0187 189.141 35.692C189.71 35.3653 190.359 35.202 191.087 35.202C192.029 35.202 192.804 35.4307 193.411 35.888C194.027 36.3453 194.433 36.98 194.629 37.792H193.257C193.126 37.3253 192.869 36.9567 192.487 36.686C192.113 36.4153 191.647 36.28 191.087 36.28C190.359 36.28 189.771 36.532 189.323 37.036C188.875 37.5307 188.651 38.2353 188.651 39.15C188.651 40.074 188.875 40.788 189.323 41.292C189.771 41.796 190.359 42.048 191.087 42.048C191.647 42.048 192.113 41.9173 192.487 41.656C192.86 41.3947 193.117 41.0213 193.257 40.536H194.629C194.423 41.32 194.013 41.95 193.397 42.426C192.781 42.8927 192.011 43.126 191.087 43.126C190.359 43.126 189.71 42.9627 189.141 42.636C188.581 42.3093 188.142 41.8473 187.825 41.25C187.507 40.6527 187.349 39.9527 187.349 39.15ZM197.924 36.378V40.9C197.924 41.2733 198.004 41.5393 198.162 41.698C198.321 41.8473 198.596 41.922 198.988 41.922H199.926V43H198.778C198.069 43 197.537 42.8367 197.182 42.51C196.828 42.1833 196.65 41.6467 196.65 40.9V36.378H195.656V35.328H196.65V33.396H197.924V35.328H199.926V36.378H197.924ZM204.228 43.126C203.64 43.126 203.113 43.028 202.646 42.832C202.179 42.6267 201.811 42.3467 201.54 41.992C201.269 41.628 201.12 41.2127 201.092 40.746H202.408C202.445 41.1287 202.623 41.4413 202.94 41.684C203.267 41.9267 203.691 42.048 204.214 42.048C204.699 42.048 205.082 41.9407 205.362 41.726C205.642 41.5113 205.782 41.2407 205.782 40.914C205.782 40.578 205.633 40.3307 205.334 40.172C205.035 40.004 204.573 39.8407 203.948 39.682C203.379 39.5327 202.912 39.3833 202.548 39.234C202.193 39.0753 201.885 38.8467 201.624 38.548C201.372 38.24 201.246 37.8387 201.246 37.344C201.246 36.952 201.363 36.5927 201.596 36.266C201.829 35.9393 202.161 35.6827 202.59 35.496C203.019 35.3 203.509 35.202 204.06 35.202C204.909 35.202 205.595 35.4167 206.118 35.846C206.641 36.2753 206.921 36.8633 206.958 37.61H205.684C205.656 37.2087 205.493 36.8867 205.194 36.644C204.905 36.4013 204.513 36.28 204.018 36.28C203.561 36.28 203.197 36.378 202.926 36.574C202.655 36.77 202.52 37.0267 202.52 37.344C202.52 37.596 202.599 37.806 202.758 37.974C202.926 38.1327 203.131 38.2633 203.374 38.366C203.626 38.4593 203.971 38.5667 204.41 38.688C204.961 38.8373 205.409 38.9867 205.754 39.136C206.099 39.276 206.393 39.4907 206.636 39.78C206.888 40.0693 207.019 40.4473 207.028 40.914C207.028 41.334 206.911 41.712 206.678 42.048C206.445 42.384 206.113 42.65 205.684 42.846C205.264 43.0327 204.779 43.126 204.228 43.126Z" fill="#666666"/>
<path d="M144.442 409.098C143.798 409.098 143.22 408.986 142.706 408.762C142.202 408.529 141.806 408.211 141.516 407.81C141.227 407.399 141.078 406.928 141.068 406.396H142.426C142.473 406.853 142.66 407.241 142.986 407.558C143.322 407.866 143.808 408.02 144.442 408.02C145.049 408.02 145.525 407.871 145.87 407.572C146.225 407.264 146.402 406.872 146.402 406.396C146.402 406.023 146.3 405.719 146.094 405.486C145.889 405.253 145.632 405.075 145.324 404.954C145.016 404.833 144.601 404.702 144.078 404.562C143.434 404.394 142.916 404.226 142.524 404.058C142.142 403.89 141.81 403.629 141.53 403.274C141.26 402.91 141.124 402.425 141.124 401.818C141.124 401.286 141.26 400.815 141.53 400.404C141.801 399.993 142.179 399.676 142.664 399.452C143.159 399.228 143.724 399.116 144.358 399.116C145.273 399.116 146.02 399.345 146.598 399.802C147.186 400.259 147.518 400.866 147.592 401.622H146.192C146.146 401.249 145.95 400.922 145.604 400.642C145.259 400.353 144.802 400.208 144.232 400.208C143.7 400.208 143.266 400.348 142.93 400.628C142.594 400.899 142.426 401.281 142.426 401.776C142.426 402.131 142.524 402.42 142.72 402.644C142.926 402.868 143.173 403.041 143.462 403.162C143.761 403.274 144.176 403.405 144.708 403.554C145.352 403.731 145.87 403.909 146.262 404.086C146.654 404.254 146.99 404.52 147.27 404.884C147.55 405.239 147.69 405.724 147.69 406.34C147.69 406.816 147.564 407.264 147.312 407.684C147.06 408.104 146.687 408.445 146.192 408.706C145.698 408.967 145.114 409.098 144.442 409.098ZM149.131 405.15C149.131 404.357 149.29 403.666 149.607 403.078C149.925 402.481 150.363 402.019 150.923 401.692C151.493 401.365 152.141 401.202 152.869 401.202C153.812 401.202 154.587 401.431 155.193 401.888C155.809 402.345 156.215 402.98 156.411 403.792H155.039C154.909 403.325 154.652 402.957 154.269 402.686C153.896 402.415 153.429 402.28 152.869 402.28C152.141 402.28 151.553 402.532 151.105 403.036C150.657 403.531 150.433 404.235 150.433 405.15C150.433 406.074 150.657 406.788 151.105 407.292C151.553 407.796 152.141 408.048 152.869 408.048C153.429 408.048 153.896 407.917 154.269 407.656C154.643 407.395 154.899 407.021 155.039 406.536H156.411C156.206 407.32 155.795 407.95 155.179 408.426C154.563 408.893 153.793 409.126 152.869 409.126C152.141 409.126 151.493 408.963 150.923 408.636C150.363 408.309 149.925 407.847 149.607 407.25C149.29 406.653 149.131 405.953 149.131 405.15ZM161.961 401.188C162.54 401.188 163.063 401.314 163.529 401.566C163.996 401.809 164.36 402.177 164.621 402.672C164.892 403.167 165.027 403.769 165.027 404.478V409H163.767V404.66C163.767 403.895 163.576 403.311 163.193 402.91C162.811 402.499 162.288 402.294 161.625 402.294C160.953 402.294 160.417 402.504 160.015 402.924C159.623 403.344 159.427 403.955 159.427 404.758V409H158.153V398.64H159.427V402.42C159.679 402.028 160.025 401.725 160.463 401.51C160.911 401.295 161.411 401.188 161.961 401.188ZM174.15 404.87C174.15 405.113 174.136 405.369 174.108 405.64H167.976C168.023 406.396 168.28 406.989 168.746 407.418C169.222 407.838 169.796 408.048 170.468 408.048C171.019 408.048 171.476 407.922 171.84 407.67C172.214 407.409 172.475 407.063 172.624 406.634H173.996C173.791 407.371 173.38 407.973 172.764 408.44C172.148 408.897 171.383 409.126 170.468 409.126C169.74 409.126 169.087 408.963 168.508 408.636C167.939 408.309 167.491 407.847 167.164 407.25C166.838 406.643 166.674 405.943 166.674 405.15C166.674 404.357 166.833 403.661 167.15 403.064C167.468 402.467 167.911 402.009 168.48 401.692C169.059 401.365 169.722 401.202 170.468 401.202C171.196 401.202 171.84 401.361 172.4 401.678C172.96 401.995 173.39 402.434 173.688 402.994C173.996 403.545 174.15 404.17 174.15 404.87ZM172.834 404.604C172.834 404.119 172.727 403.703 172.512 403.358C172.298 403.003 172.004 402.737 171.63 402.56C171.266 402.373 170.86 402.28 170.412 402.28C169.768 402.28 169.218 402.485 168.76 402.896C168.312 403.307 168.056 403.876 167.99 404.604H172.834ZM175.398 405.136C175.398 404.352 175.557 403.666 175.874 403.078C176.191 402.481 176.625 402.019 177.176 401.692C177.736 401.365 178.361 401.202 179.052 401.202C179.649 401.202 180.205 401.342 180.718 401.622C181.231 401.893 181.623 402.252 181.894 402.7V398.64H183.182V409H181.894V407.558C181.642 408.015 181.269 408.393 180.774 408.692C180.279 408.981 179.701 409.126 179.038 409.126C178.357 409.126 177.736 408.958 177.176 408.622C176.625 408.286 176.191 407.815 175.874 407.208C175.557 406.601 175.398 405.911 175.398 405.136ZM181.894 405.15C181.894 404.571 181.777 404.067 181.544 403.638C181.311 403.209 180.993 402.882 180.592 402.658C180.2 402.425 179.766 402.308 179.29 402.308C178.814 402.308 178.38 402.42 177.988 402.644C177.596 402.868 177.283 403.195 177.05 403.624C176.817 404.053 176.7 404.557 176.7 405.136C176.7 405.724 176.817 406.237 177.05 406.676C177.283 407.105 177.596 407.437 177.988 407.67C178.38 407.894 178.814 408.006 179.29 408.006C179.766 408.006 180.2 407.894 180.592 407.67C180.993 407.437 181.311 407.105 181.544 406.676C181.777 406.237 181.894 405.729 181.894 405.15ZM192.181 401.328V409H190.907V407.866C190.664 408.258 190.324 408.566 189.885 408.79C189.456 409.005 188.98 409.112 188.457 409.112C187.86 409.112 187.323 408.991 186.847 408.748C186.371 408.496 185.993 408.123 185.713 407.628C185.442 407.133 185.307 406.531 185.307 405.822V401.328H186.567V405.654C186.567 406.41 186.758 406.993 187.141 407.404C187.524 407.805 188.046 408.006 188.709 408.006C189.39 408.006 189.927 407.796 190.319 407.376C190.711 406.956 190.907 406.345 190.907 405.542V401.328H192.181ZM195.648 398.64V409H194.374V398.64H195.648ZM204.861 404.87C204.861 405.113 204.847 405.369 204.819 405.64H198.687C198.734 406.396 198.991 406.989 199.457 407.418C199.933 407.838 200.507 408.048 201.179 408.048C201.73 408.048 202.187 407.922 202.551 407.67C202.925 407.409 203.186 407.063 203.335 406.634H204.707C204.502 407.371 204.091 407.973 203.475 408.44C202.859 408.897 202.094 409.126 201.179 409.126C200.451 409.126 199.798 408.963 199.219 408.636C198.65 408.309 198.202 407.847 197.875 407.25C197.549 406.643 197.385 405.943 197.385 405.15C197.385 404.357 197.544 403.661 197.861 403.064C198.179 402.467 198.622 402.009 199.191 401.692C199.77 401.365 200.433 401.202 201.179 401.202C201.907 401.202 202.551 401.361 203.111 401.678C203.671 401.995 204.101 402.434 204.399 402.994C204.707 403.545 204.861 404.17 204.861 404.87ZM203.545 404.604C203.545 404.119 203.438 403.703 203.223 403.358C203.009 403.003 202.715 402.737 202.341 402.56C201.977 402.373 201.571 402.28 201.123 402.28C200.479 402.28 199.929 402.485 199.471 402.896C199.023 403.307 198.767 403.876 198.701 404.604H203.545ZM207.859 402.574C208.083 402.135 208.4 401.795 208.811 401.552C209.231 401.309 209.74 401.188 210.337 401.188V402.504H210.001C208.573 402.504 207.859 403.279 207.859 404.828V409H206.585V401.328H207.859V402.574Z" fill="#666666"/>
<g filter="url(#filter0_bd_6882_5439)">
<rect x="297" y="176" width="86.6484" height="91.8193" rx="27.0776" fill="#034737"/>
<rect x="296.323" y="175.323" width="88.0023" height="93.1732" rx="27.7546" stroke="#EAEAEA" stroke-width="1.35388"/>
</g>
<circle cx="354.208" cy="236.043" r="3.91667" transform="rotate(-180 354.208 236.043)" stroke="white" stroke-width="2.54583" stroke-linecap="round" stroke-linejoin="round"/>
<circle cx="326.791" cy="208.626" r="3.91667" transform="rotate(-180 326.791 208.626)" stroke="white" stroke-width="2.54583" stroke-linecap="round" stroke-linejoin="round"/>
<circle cx="326.791" cy="236.043" r="3.91667" transform="rotate(-180 326.791 236.043)" stroke="white" stroke-width="2.54583" stroke-linecap="round" stroke-linejoin="round"/>
<circle cx="354.208" cy="208.626" r="3.91667" transform="rotate(-180 354.208 208.626)" stroke="white" stroke-width="2.54583" stroke-linecap="round" stroke-linejoin="round"/>
<path d="M352.172 212.463C352.669 211.966 352.669 211.16 352.172 210.663C351.674 210.166 350.869 210.166 350.371 210.663L352.172 212.463ZM328.83 232.205C328.333 232.702 328.333 233.508 328.83 234.005C329.327 234.502 330.133 234.502 330.63 234.005L328.83 232.205ZM352.936 232.126C352.936 232.829 353.506 233.399 354.209 233.399C354.912 233.399 355.482 232.829 355.482 232.126L352.936 232.126ZM355.482 212.542C355.482 211.839 354.912 211.27 354.209 211.27C353.506 211.27 352.936 211.839 352.936 212.542L355.482 212.542ZM325.519 232.126C325.519 232.829 326.089 233.399 326.792 233.399C327.495 233.399 328.065 232.829 328.065 232.126L325.519 232.126ZM328.065 212.542C328.065 211.839 327.495 211.27 326.792 211.27C326.089 211.27 325.519 211.839 325.519 212.542L328.065 212.542ZM350.371 210.663L328.83 232.205L330.63 234.005L352.172 212.463L350.371 210.663ZM355.482 232.126L355.482 212.542L352.936 212.542L352.936 232.126L355.482 232.126ZM328.065 232.126L328.065 212.542L325.519 212.542L325.519 232.126L328.065 232.126Z" fill="white"/>
<defs>
<filter id="filter0_bd_6882_5439" x="238.603" y="117.602" width="203.443" height="208.614" filterUnits="userSpaceOnUse" color-interpolation-filters="sRGB">
<feFlood flood-opacity="0" result="BackgroundImageFix"/>
<feGaussianBlur in="BackgroundImageFix" stdDeviation="28.5218"/>
<feComposite in2="SourceAlpha" operator="in" result="effect1_backgroundBlur_6882_5439"/>
<feColorMatrix in="SourceAlpha" type="matrix" values="0 0 0 0 0 0 0 0 0 0 0 0 0 0 0 0 0 0 127 0" result="hardAlpha"/>
<feOffset dy="8.66484"/>
<feGaussianBlur stdDeviation="6.85967"/>
<feComposite in2="hardAlpha" operator="out"/>
<feColorMatrix type="matrix" values="0 0 0 0 0.0867708 0 0 0 0 0.115317 0 0 0 0 0.141667 0 0 0 0.08 0"/>
<feBlend mode="normal" in2="effect1_backgroundBlur_6882_5439" result="effect2_dropShadow_6882_5439"/>
<feBlend mode="normal" in="SourceGraphic" in2="effect2_dropShadow_6882_5439" result="shape"/>
</filter>
</defs>
</svg>
